<svg width="349" height="80" viewBox="0 0 349 80" fill="none" xmlns="http://www.w3.org/2000/svg">
<path d="M96 80V49H102.527V80H96ZM115.752 80V49H122.279V80H115.752ZM99.0518 61.3139H118.719V66.3944H99.0518V61.3139Z" fill="white"/>
<path d="M126.252 80L137.187 49H142.782L132.737 80H126.252ZM148.632 80L138.628 49H144.478L155.413 80H148.632ZM132.016 67.9875H149.14V73.1542H132.016V67.9875Z" fill="white"/>
<path d="M159.411 80V49H167.846L181.41 76.3833L179.333 76.9V49H185.691V80H177.256L163.692 52.6167L165.769 52.1V80H159.411Z" fill="white"/>
<path d="M194.75 80V74.8333H202.464C204.668 74.8333 206.533 74.3884 208.059 73.4986C209.613 72.5801 210.786 71.3315 211.577 69.7528C212.396 68.1741 212.806 66.3657 212.806 64.3278C212.806 62.3185 212.41 60.5532 211.619 59.0319C210.828 57.5106 209.655 56.3194 208.101 55.4583C206.575 54.5972 204.696 54.1667 202.464 54.1667H194.877V49H202.464C205.883 49 208.864 49.6315 211.407 50.8944C213.95 52.1287 215.914 53.9083 217.299 56.2333C218.712 58.5296 219.418 61.2565 219.418 64.4139C219.418 67.5713 218.712 70.3269 217.299 72.6806C215.886 75.0056 213.908 76.8139 211.365 78.1056C208.85 79.3685 205.897 80 202.506 80H194.75ZM190.765 80V49H197.293V80H190.765Z" fill="white"/>
<path d="M230.625 80V67.4708L219.266 49H227.107L236.093 65.4042H232.405L241.349 49H248.512L237.153 67.4708V80H230.625Z" fill="white"/>
<path d="M251.942 80V49H262.114L270.591 78.8806H266.904L275.381 49H285.596V80H279.153V50.8514H280.255L271.99 80H265.251L257.07 51.1097H258.13V80H251.942Z" fill="white"/>
<path d="M289.561 80L300.497 49H306.092L296.046 80H289.561ZM311.941 80L301.938 49H307.787L318.723 80H311.941ZM295.326 67.9875H312.45V73.1542H295.326V67.9875Z" fill="white"/>
<path d="M322.721 80V49H331.156L344.719 76.3833L342.642 76.9V49H349V80H340.565L327.002 52.6167L329.079 52.1V80H322.721Z" fill="white"/>
<path fill-rule="evenodd" clip-rule="evenodd" d="M63.8622 70.0419V80H37.3447V70.3776L50.4356 33.3426C53.4566 33.3986 56.4217 31.8322 57.9881 29.035C59.4986 26.2937 59.3867 23.0489 57.8762 20.5314L54.5755 26.4615C54.1279 27.2447 53.065 27.5245 52.2818 27.0769L47.7503 24.5595C46.9671 24.1119 46.6314 23.1049 47.1349 22.2657L50.4356 16.3356C47.5266 16.3916 44.6734 17.958 43.1629 20.6993C41.3168 23.9441 41.8762 27.8601 44.2258 30.4895L37.3447 49.8461V11.3007L50.6035 0L63.8622 11.3007V52.9231L62.9671 53.2587C62.1466 52.7739 61.2515 52.4195 60.2818 52.1958L59.3867 50.1818H56.5895L55.6944 52.1958C54.7247 52.4195 53.8296 52.7739 53.0091 53.2587L50.9951 52.5315L48.9811 54.4895L49.7643 56.5035C49.2795 57.324 48.9065 58.2191 48.6454 59.1888L46.6874 60.0839V62.8811L48.6454 63.7762C48.9065 64.7459 49.2795 65.641 49.7643 66.4615L48.9811 68.5315L50.9951 70.4895L53.0091 69.7063C53.8296 70.2284 54.7247 70.6014 55.6944 70.8252L56.5895 72.8391H59.3867L60.2818 70.8252C61.2515 70.6014 62.1466 70.2284 62.9671 69.7063L63.8622 70.0419ZM57.9881 56.7832C60.6175 56.7832 62.7433 58.9091 62.7433 61.4825C62.7433 64.1119 60.6175 66.2378 57.9881 66.2378C55.4147 66.2378 53.2888 64.1119 53.2888 61.4825C53.2888 58.9091 55.4147 56.7832 57.9881 56.7832Z" fill="white"/>
<path d="M0.757222 42.4616C-0.753268 43.7483 0.141837 46.2098 2.15582 46.2098H7.80616V80H23.5824C28.0579 70.8811 28.0579 66.2377 27.0509 65.3426C25.5964 64.0559 24.4215 64.7273 21.5125 67.4126C19.4985 69.2587 16.925 71.6084 14.2397 69.9301C13.1208 69.2028 12.3936 68.1398 12.0579 66.7412C11.3866 63.8321 12.5614 59.3566 15.4705 53.4266C15.8062 52.7179 16.1418 52.0466 16.4775 51.4126L15.1908 50.6853L14.7992 46.3776L17.0929 42.4056L15.5264 41.5105L16.981 39.0489L20.0579 40.8392L23.4146 35.021L24.8132 35.8601L21.4565 41.6783L25.1488 43.8042L28.5055 37.986L29.9041 38.7692L26.5474 44.5874L29.6243 46.3776L28.2257 48.8391L26.6593 47.944L24.3656 51.916L20.4495 53.7063L18.7712 52.7552C16.3656 57.3426 13.9041 63.0489 14.6313 66.1258C14.7992 66.8531 15.1348 67.3566 15.6383 67.6923C16.5894 68.2517 17.8201 67.1888 19.7222 65.4545C22.0719 63.2727 25.3166 60.3077 28.7852 63.3846C31.3586 65.6223 30.4076 71.6643 26.5474 80H34.3237V13.8741L0.757222 42.4616Z" fill="white"/>
<path fill-rule="evenodd" clip-rule="evenodd" d="M99.0509 46.2098H93.4006V80H90.0439C89.0929 76.9231 88.2537 75.2447 87.5264 73.7342C86.6313 72 85.9041 70.5455 85.2327 67.6364C84.3936 63.7203 87.0229 60.2517 89.8761 57.7902L88.4775 53.0909L70.0719 58.5175L71.4705 63.2168C75.1628 63.7203 79.2467 65.2307 80.6453 68.979C81.6523 71.7762 81.8761 73.4545 82.0439 75.3007C82.2117 76.5874 82.3796 78.042 82.8271 80H66.8831V48.2797C68.0019 51.5244 68.6733 53.8182 68.6733 53.8182L87.0789 48.3916C87.0789 48.3916 85.7362 43.4685 84.8411 37.5384C83.6103 37.1468 82.2677 36.9231 80.8691 36.8671C80.981 39.1049 81.2607 42.1818 81.8201 45.035H81.7642C81.2048 43.5245 80.0299 39.9441 79.2467 36.9231C78.3516 36.9604 77.4751 37.0722 76.6173 37.2587C76.953 39.4405 77.6243 42.9091 78.5754 45.986L78.4635 46.0419C77.7362 44.4195 76.0579 40.6713 74.8831 37.6503C71.974 38.4895 69.1768 39.8881 66.8831 41.6783V13.8741L100.449 42.4616C101.96 43.7483 101.065 46.2098 99.0509 46.2098ZM88.0859 51.7482L87.4705 49.6783L69.0649 55.1049L69.6803 57.1748L88.0859 51.7482Z" fill="white"/>
</svg>
