<svg xmlns="http://www.w3.org/2000/svg" viewBox="0 0 859.28 179.42" fill="currentColor"><defs></defs><path d="M0,72.83v-23H109.7V69.91L46.09,113.24H109.7v23H0V116.16L63.61,72.83Z"/><path d="M195.28,49.79a27.69,27.69,0,0,1,10.83,2.15,29,29,0,0,1,9,5.83,27.56,27.56,0,0,1,6.07,8.68,26.8,26.8,0,0,1,0,21.36,27.44,27.44,0,0,1-6.07,8.68,29.1,29.1,0,0,1-8.91,5.84,27.72,27.72,0,0,1-10.91,2.15H138.12a14.22,14.22,0,0,0,.7,2.77,9,9,0,0,0,1.61,2.84,9.71,9.71,0,0,0,2.69,2.23,7.81,7.81,0,0,0,3.92.92h65.75v23H147a32.92,32.92,0,0,1-12.83-2.53,33.83,33.83,0,0,1-10.6-6.92,33.08,33.08,0,0,1-7.22-10.29,30.14,30.14,0,0,1-2.69-12.67V82.2a30.14,30.14,0,0,1,2.69-12.67,33.24,33.24,0,0,1,7.22-10.3,34,34,0,0,1,10.6-6.91A32.92,32.92,0,0,1,147,49.79Zm0,31.64A3,3,0,0,0,198,79.9a3.64,3.64,0,0,0,.77-1.46,6.24,6.24,0,0,0,.16-1.31,7.12,7.12,0,0,0-.16-1.23,3.57,3.57,0,0,0-.77-1.53,3.23,3.23,0,0,0-2.76-1.54H147a8.26,8.26,0,0,0-3.92.85,7.62,7.62,0,0,0-2.61,2.15,11.93,11.93,0,0,0-1.62,2.84,11.75,11.75,0,0,0-.77,2.76Z"/><path d="M227.39,136.28V49.79H303.9a32.78,32.78,0,0,1,12.91,2.53,34.31,34.31,0,0,1,10.52,6.91,32.39,32.39,0,0,1,7.15,10.3,31,31,0,0,1,2.61,12.67v54.08H312.66V82.2a9.12,9.12,0,0,0-.54-2.84,12.41,12.41,0,0,0-1.53-3.07,8.42,8.42,0,0,0-2.69-2.46,7.69,7.69,0,0,0-4-1H251.82v63.45Z"/><path d="M503.51,66.3a26.89,26.89,0,0,1,6.15-8.68,29,29,0,0,1,19.89-7.83h70.83v23H529.55a3.61,3.61,0,0,0-2.91,1.54,6.94,6.94,0,0,0-.7,1.53,4.79,4.79,0,0,0-.23,1.23,4.57,4.57,0,0,0,1.08,3,3.42,3.42,0,0,0,2.76,1.3h53.32A27.88,27.88,0,0,1,608.75,98.1,26.22,26.22,0,0,1,611,108.94a25.77,25.77,0,0,1-2.23,10.67,27.31,27.31,0,0,1-6.06,8.68,29.27,29.27,0,0,1-8.92,5.84,27.5,27.5,0,0,1-10.9,2.15H512v-23h70.83a3.24,3.24,0,0,0,2.76-1.54,4.74,4.74,0,0,0,1.08-2.76,4.08,4.08,0,0,0-1.08-2.77,3,3,0,0,0-2.76-1.69H529.55a27.87,27.87,0,0,1-10.83-2.15,29.81,29.81,0,0,1-9.06-5.84,26.89,26.89,0,0,1-6.15-8.68,26,26,0,0,1-2.22-10.68A26.36,26.36,0,0,1,503.51,66.3Z"/><path d="M615,28.58h24.43V49.79h21.36v23H639.41v31a9.12,9.12,0,0,0,.54,2.84,11,11,0,0,0,1.61,3.07,9.17,9.17,0,0,0,2.77,2.46,7.65,7.65,0,0,0,4,1h12.45v23H648.32a33,33,0,0,1-12.83-2.53,33.94,33.94,0,0,1-10.6-6.92,33.25,33.25,0,0,1-7.22-10.29A30.3,30.3,0,0,1,615,103.87Z"/><path d="M664.77,82.2a30.29,30.29,0,0,1,2.68-12.67,33.44,33.44,0,0,1,7.23-10.3,34,34,0,0,1,10.6-6.91,32.92,32.92,0,0,1,12.83-2.53h47.47v23H698.11a7.69,7.69,0,0,0-4,1,9.3,9.3,0,0,0-2.77,2.46,11.16,11.16,0,0,0-1.61,3.07,9.12,9.12,0,0,0-.54,2.84v54.08H664.77Z"/><path d="M749.58,82.2a30.14,30.14,0,0,1,2.69-12.67,33.41,33.41,0,0,1,7.22-10.3,34,34,0,0,1,10.6-6.91,32.92,32.92,0,0,1,12.83-2.53h43.17a33,33,0,0,1,12.83,2.53,34.09,34.09,0,0,1,10.6,6.91,32.37,32.37,0,0,1,7.14,10.3,31,31,0,0,1,2.62,12.67v21.67a31,31,0,0,1-2.62,12.67,32.21,32.21,0,0,1-7.14,10.29,33.94,33.94,0,0,1-10.6,6.92,33,33,0,0,1-12.83,2.53H782.92a32.92,32.92,0,0,1-12.83-2.53,33.83,33.83,0,0,1-10.6-6.92,33.25,33.25,0,0,1-7.22-10.29,30.14,30.14,0,0,1-2.69-12.67ZM774,103.87a9.08,9.08,0,0,0,.53,2.84,11.07,11.07,0,0,0,1.62,3.07,9,9,0,0,0,2.76,2.46,7.69,7.69,0,0,0,4,1h43.17a7.63,7.63,0,0,0,4-1,8.21,8.21,0,0,0,2.69-2.46,12.27,12.27,0,0,0,1.54-3.07,9.12,9.12,0,0,0,.54-2.84V82.2a9.12,9.12,0,0,0-.54-2.84,12.11,12.11,0,0,0-1.54-3.07,8.32,8.32,0,0,0-2.69-2.46,7.63,7.63,0,0,0-4-1H782.92a7.69,7.69,0,0,0-4,1,9.14,9.14,0,0,0-2.76,2.46,10.93,10.93,0,0,0-1.62,3.07A9.08,9.08,0,0,0,774,82.2Z"/><path class="cls-1" d="M455.27,143.39A15.5,15.5,0,0,1,445,137a56.61,56.61,0,0,1-26.77,42.45,53.46,53.46,0,0,0-5.27-20.1c-4.36-8.81-9.31-12.1-11.48-20.83a32.85,32.85,0,0,1-.21-14.27,10.2,10.2,0,0,0-3.06,2.34,10,10,0,0,0-2.21,4.21c-1.75-5.32-3.39-13.83.58-21.29,3.41-6.42,10.15-10.51,17.8-12.34a8.39,8.39,0,0,0-1.66,2.19c-1.69,3.18-1,6.81-.24,9.09a4.2,4.2,0,0,1,.93-1.8,4.36,4.36,0,0,1,1.3-1,14,14,0,0,0,.1,6.08c.91,3.73,3,5.15,4.88,8.88a22.92,22.92,0,0,1,2.26,8.59A24.07,24.07,0,0,0,433.33,111,6.44,6.44,0,0,0,435,112.7a6.8,6.8,0,0,0,2.75,1.11,19.15,19.15,0,0,1-.75-6.25c.1-2.29.55-3.2.34-4.89a9.76,9.76,0,0,0-2.82-5.41,27.48,27.48,0,0,1,12,6.14c1.4,1.29,6.9,6.42,7.84,13.92.51,4-.58,6.09-.82,11.47A45.86,45.86,0,0,0,455.27,143.39Z"/><path d="M439.65,0H409.71L341.09,136.28h.05a228,228,0,0,1,50.71-41.35q.51,6.7,1.32,12.93l31.51-62.37,31.51,62.36q.84-6.22,1.34-12.92a227.78,227.78,0,0,1,50.69,41.35h.07Z"/></svg>