<svg width="806" height="503" viewBox="0 0 806 503" fill="none" xmlns="http://www.w3.org/2000/svg">
<path d="M455.137 503V268.265C455.137 163.473 483.801 71.9542 541.13 -6.29075C598.459 -85.933 686.55 -134.836 805.403 -153V-0.00328832C736.888 8.38016 691.444 30.7359 669.072 67.0638C646.7 103.392 635.513 151.596 635.513 211.677L511.767 186.527H801.208V503H455.137ZM0 503V268.265C0 163.473 28.6645 71.9542 85.9936 -6.29075C143.323 -85.933 231.414 -134.836 350.266 -153V-0.00328832C281.751 8.38016 236.307 30.7359 213.935 67.0638C191.563 103.392 180.377 151.596 180.377 211.677L56.6299 186.527H346.072V503H0Z" fill="white"/>
</svg>
