<svg width="806" height="501" viewBox="0 0 806 501" fill="none" xmlns="http://www.w3.org/2000/svg">
<path d="M455.474 501V265.907C455.474 160.955 484.16 69.2971 541.531 -9.06711C598.903 -88.8307 687.059 -137.808 806 -156V-2.77007C737.434 5.62616 691.957 28.0159 669.568 64.3993C647.179 100.783 635.984 149.061 635.984 209.233L512.146 184.045H801.802V501H455.474ZM0 501V265.907C0 160.955 28.6858 69.2971 86.0573 -9.06711C143.429 -88.8307 231.585 -137.808 350.526 -156V-2.77007C281.96 5.62616 236.483 28.0159 214.094 64.3993C191.705 100.783 180.51 149.061 180.51 209.233L56.6719 184.045H346.328V501H0Z" fill="white"/>
</svg>
