<?xml version="1.0" encoding="UTF-8"?>
<svg id="Outline" xmlns="http://www.w3.org/2000/svg" version="1.1" viewBox="0 0 64 64">
  <!-- Generator: Adobe Illustrator 29.3.1, SVG Export Plug-In . SVG Version: 2.1.0 Build 151)  -->
  <path d="M20.02002,24.99597c.17848-.00329.38435-.06349.53467-.16394l2.44531-1.63037,2.44531,1.63037c.33594.22363.77344.22363,1.10938,0l2.44531-1.63037,2.44531,1.63037c.33594.22363.77344.22363,1.10938,0l2.44531-1.63037,2.44531,1.63037c.33594.22363.77344.22363,1.10938,0l2.44531-1.63037,2.44527,1.63034c.65431.43625,1.55473-.05324,1.55473-.832v-8.30566c0-1.47266-1.0542-2.71729-2.50684-2.95898l-22.17993-3.6969-2.59937-1.29968c-.9668-.4834-2.04932-.73877-3.13037-.73877h-4.5835c-1.6543,0-3,1.3457-3,3v12c0,1.6543,1.3457,3,3,3,0,0,10,0,10.02002-.00403ZM43,15.69434v6.43701l-1.44531-.96338c-.33594-.22363-.77344-.22363-1.10938,0l-2.44531,1.63037-2.44531-1.63037c-.16797-.11182-.36133-.16797-.55469-.16797s-.38672.05615-.55469.16797l-2.44531,1.63037-2.44531-1.63037c-.33594-.22363-.77344-.22363-1.10938,0l-2.44531,1.63037-2.44531-1.63037c-.33594-.22363-.77344-.22363-1.10938,0l-1.44531.96338v-10.95068l21.16406,3.52734c.48438.08057.83594.49561.83594.98633ZM9,22v-12c0-.55127.44873-1,1-1h4.5835c.77197,0,1.54541.18262,2.23633.52783l2.18018,1.09033v12.38184h-9c-.55127,0-1-.44873-1-1Z"/>
  <path d="M16.44727,12.10547l-2-1c-.13867-.06934-.29199-.10547-.44727-.10547h-2c-.55225,0-1,.44775-1,1v8c0,.55225.44775,1,1,1h4c.55225,0,1-.44775,1-1v-7c0-.37891-.21387-.7251-.55273-.89453ZM15,19h-2v-6h.76416l1.23584.61816v5.38184Z"/>
  <path d="M54,27H22c-1.6543,0-3,1.3457-3,3v10c0,.35236.07227.68567.18433,1h-4.18433c-1.6543,0-3,1.3457-3,3v10c0,1.6543,1.3457,3,3,3h32c1.6543,0,3-1.3457,3-3v-10c0-.35236-.0722-.68567-.18427-1h4.18427c1.6543,0,3-1.3457,3-3v-10c0-1.6543-1.3457-3-3-3ZM55,30v2.31891l-6.26025-1.04645c-1.15869-.1875-2.31396-.22363-3.42773-.10742l-4.7627.46973c-2.18506.2207-4.36865-.21338-6.30566-1.25586l-2.56348-1.37891h22.31982c.55127,0,1,.44873,1,1ZM22,29h5.45782l5.83807,3.14014c2.28955,1.23242,4.86572,1.74658,7.45215,1.48486l4.76562-.47021c.94287-.09814,1.9209-.06738,2.90137.09131l6.58496,1.10065v3.31592l-13.10107-1.4566c-1.31152-.14258-2.61768-.05469-3.88184.26367l-3.11914.78027c-1.8457.46094-3.75586.33008-5.54346-.38525l-.1875-.0708c-1.29541-.52686-2.67383-.79395-4.09717-.79395h-4.06982v-6c0-.55127.44873-1,1-1ZM15,43h5.45782l5.83807,3.14014c2.28955,1.23193,4.8667,1.74756,7.45215,1.48486l4.76562-.47021c.94287-.09863,1.92188-.06738,2.90137.09131l6.58496,1.10065v3.31592l-13.10107-1.4566c-1.31006-.14355-2.61719-.0542-3.88184.26367l-3.11914.78027c-1.84521.46045-3.75586.33008-5.54346-.38525l-.1875-.0708c-1.29541-.52686-2.67383-.79395-4.09717-.79395h-4.06982v-6c0-.55127.44873-1,1-1ZM47,55H15c-.55127,0-1-.44873-1-1v-2h4.06982c1.16357,0,2.28857.21729,3.36572.65527l.19287.07275c2.16357.86572,4.5,1.0249,6.75439.4624l3.12158-.78076c1.03369-.26123,2.10156-.33154,3.17529-.21582l13.32031,1.48071v.32544c0,.55127-.44873,1-1,1ZM48,44v2.31891l-6.26025-1.04645c-1.15918-.1875-2.31445-.22363-3.42773-.10742l-4.7627.46973c-2.18555.22168-4.36865-.21289-6.30566-1.25586l-2.56348-1.37891h22.31982c.55127,0,1,.44873,1,1ZM54,41H22c-.55127,0-1-.44873-1-1v-2h4.06982c1.16357,0,2.28857.21729,3.36572.65527l.19287.07275c2.16357.86621,4.5,1.0249,6.75439.4624l3.12158-.78076c1.03369-.26074,2.10205-.33203,3.17529-.21582l13.32031,1.48071v.32544c0,.55127-.44873,1-1,1Z"/>
</svg>