<?xml version="1.0" encoding="UTF-8"?>
<svg id="Outline" xmlns="http://www.w3.org/2000/svg" version="1.1" viewBox="0 0 64 64">
  <!-- Generator: Adobe Illustrator 29.3.1, SVG Export Plug-In . SVG Version: 2.1.0 Build 151)  -->
  <path d="M54,30.93252h-17.79999l2.60999-2.60004c.39001-.38995.39001-1.02997,0-1.41998l-.71002-.71002,1.41003-1.40997.70996.70001c.20001.20001.45001.29999.71002.29999.25,0,.51001-.09998.71002-.29999l9.89996-9.89001c1.94-1.95001,1.94-5.13,0-7.08002-1.94995-1.94-5.13-1.94-7.07996,0l-9.90002,9.90002c-.39001.39001-.39001,1.02997,0,1.41998l.71002.71002-1.41003,1.40997-.70996-.70996c-.38-.37-1.04004-.37-1.42004,0l-8.62,8.63c1.23999-2.81,1.89001-5.88,1.89001-8.95001,0-3.31-2.69-6-6-6s-6,2.69-6,6v.5c0,1.92999,1.57001,3.5,3.5,3.5s3.5-1.57001,3.5-3.5v-.5c0-.54999-.45001-1-1-1s-1,.45001-1,1v.5c0,.82996-.66998,1.5-1.5,1.5s-1.5-.67004-1.5-1.5v-.5c0-2.21002,1.78998-4,4-4s4,1.78998,4,4c0,3.12-.73999,6.23999-2.13,9.01996l-.48999.98004h-10.38c-1.65002,0-3,1.34998-3,3v20c0,1.64996,1.34998,3,3,3h44c1.65002,0,3-1.35004,3-3v-20c0-1.65002-1.34998-3-3-3ZM45.88,9.94253c1.16998-1.17004,3.07001-1.17004,4.23999,0,1.16998,1.16998,1.16998,3.06995,0,4.23999l-9.19,9.19-4.23999-4.23999,9.19-9.19ZM36.69,21.96249l1.40997,1.41003-1.40997,1.41998-1.41998-1.41998,1.41998-1.41003ZM32.44,23.37252l4.25,4.25-3.31,3.31h-8.5l7.56-7.56ZM9,33.93252c0-.54999.45001-1,1-1h16.31c-3.37,2.57996-7.46997,4-11.79999,4h-5.51001v-3ZM55,53.93252c0,.54999-.45001,1-1,1H10c-.54999,0-1-.45001-1-1v-1.17999l5.15002-1.03003c2.54999-.51001,5.12-.47998,7.65997.08002,3.41998.76001,7,.63,10.35999-.38l.23999-.07001c3.03003-.90997,6.26001-1.02002,9.35004-.34003l1.92999.43005c1.46002.32996,2.96002.48999,4.46002.48999h6.84998v2ZM55,49.93252h-6.84998c-1.35004,0-2.71002-.15002-4.03003-.44l-1.92999-.42999c-3.41998-.76001-7-.63-10.35999.38l-.23999.06995c-3.03003.91003-6.26001,1.03003-9.35004.34003-2.79999-.63-5.65997-.65997-8.47998-.09003l-4.76001.95001v-3.77997h3.29999c2.60004,0,5.10999-.53003,7.48999-1.59003,3.41003-1.51996,7.28003-1.82001,10.90002-.85999l3.73999,1c3.60999.96002,7.33002,1.45001,11.07001,1.45001,1.83002,0,3.64001-.60004,5.09998-1.70001,1.12-.84003,2.5-1.29999,3.90002-1.29999h.5v6ZM55,41.93252h-.5c-1.83002,0-3.64001.59998-5.09998,1.70001-1.12.83997-2.5,1.29999-3.90002,1.29999-3.56,0-7.10999-.47003-10.56-1.38l-3.73999-1c-4.04999-1.08002-8.40002-.73999-12.23004.95996-2.10999.94-4.35999,1.42004-6.66998,1.42004h-3.29999v-6h5.51001c5.59998,0,10.84998-2.14001,14.87-6h9.33997l-.5,2c-.07996.32001-.23999.60999-.47998.83997l-.46997.47003c-1.48004,1.47998-1.48004,3.89996,0,5.38.71997.71997,1.69,1.10999,2.69,1.10999.20996,0,.41998-.02002.63-.04999l2.48999-.42004c1.51996-.25,2.97998-.87,4.20996-1.79999,1.32001-.98999,2.95001-1.52997,4.60004-1.52997h3.10999v3ZM55,36.93252h-3.10999c-2.08002,0-4.14001.69-5.79999,1.92999-.98004.73999-2.13,1.22998-3.34003,1.42999l-2.48999.41998c-.58002.09003-1.16003-.09998-1.57001-.51001-.70001-.69995-.70001-1.83997,0-2.53998l.46997-.46997c.49005-.49005.83002-1.10004,1-1.77002l.62006-2.48999h13.21997c.54999,0,1,.45001,1,1v3Z"/>
</svg>