<?xml version="1.0" encoding="UTF-8"?>
<svg id="Outline" xmlns="http://www.w3.org/2000/svg" version="1.1" viewBox="0 0 64 64">
  <!-- Generator: Adobe Illustrator 29.3.1, SVG Export Plug-In . SVG Version: 2.1.0 Build 151)  -->
  <path d="M50.23999,20.41998l1.41998-10c.13-.85999-.12994-1.72998-.69995-2.39001-.57001-.64996-1.40002-1.02997-2.27002-1.02997H15.31c-.87,0-1.70001.38-2.27002,1.02997-.57001.66003-.82996,1.53003-.69995,2.39001l1.41998,10c.14001.97003.75,1.77002,1.57001,2.21002l1.38,10.39996c-2.07001.15002-3.71002,1.86005-3.71002,3.97003,0,2.15997,1.71997,3.91998,3.87,3.98999l-1.85999,14.89001c-.04004.27997.04999.57001.23999.77997.19.22003.46002.34003.75.34003h3c.44,0,.82001-.28003.95001-.70001l1.97998-6.31c.02002,0,.03998.01001.07001.01001h20c.03003,0,.04999-.01001.07001-.01001l1.97998,6.31c.13.41998.51001.70001.95001.70001h3c.28998,0,.56-.12.75-.34003.19-.20996.28003-.5.23999-.77997l-1.85999-14.89001c2.15002-.07001,3.87-1.83002,3.87-3.98999,0-2.10999-1.64001-3.82001-3.71002-3.97003l1.38-10.39996c.82001-.44,1.42999-1.23999,1.57001-2.21002ZM18.26001,55h-1.13l1.75-14h3.76001l-4.38,14ZM22.54999,48l2.17999-7h14.54004l2.17999,7h-18.90002ZM45.73999,55l-4.38-14h3.76001l1.75,14h-1.13ZM49,37c0,1.09998-.90002,2-2,2h-30c-1.09998,0-2-.90002-2-2,0-1.10004.90002-2,2-2h30c1.09998,0,2,.89996,2,2ZM17.39001,23h2.01001l1.33997,10h-2.01001l-1.33997-10ZM21.41998,23h21.16003l-1.34003,10h-18.47998l-1.34003-10ZM43.26001,33l1.33997-10h2.01001l-1.33997,10h-2.01001ZM47.27002,21h-30.54004c-.48999,0-.91998-.37-.97998-.85999l-1.42999-10c-.04999-.29004.03998-.57001.22998-.80005.19-.21997.46002-.33997.76001-.33997h33.38c.29999,0,.57001.12.76001.33997.19.23004.27997.51001.22998.80005l-1.42999,10c-.06.48999-.48999.85999-.97998.85999Z"/>
</svg>