<?xml version="1.0" encoding="UTF-8"?>
<svg id="Outline" xmlns="http://www.w3.org/2000/svg" version="1.1" viewBox="0 0 64 64">
  <!-- Generator: Adobe Illustrator 29.3.1, SVG Export Plug-In . SVG Version: 2.1.0 Build 151)  -->
  <path d="M56,17c-.54999,0-1,.45001-1,1v4h-2v-3c0-2.76001-2.23999-5-5-5-.54999,0-1,.45001-1,1v5h-2v-5c0-.54999-.45001-1-1-1-2.76001,0-5,2.23999-5,5v5H8c-.54999,0-1,.45001-1,1v4c0,.54999.45001,1,1,1h2v3c0,.54999.45001,1,1,1h2v15c0,.54999.45001,1,1,1h4c.54999,0,1-.45001,1-1v-7h11c.54999,0,1-.45001,1-1v-7h10v15c0,.54999.45001,1,1,1h4c.54999,0,1-.45001,1-1v-15h2c.54999,0,1-.45001,1-1v-3h2c.54999,0,1-.45001,1-1v-5h2v3c0,.54999.45001,1,1,1s1-.45001,1-1v-9c0-.54999-.45001-1-1-1ZM41,19c0-1.29999.84003-2.42004,2-2.83002v3.83002h-2v-1ZM17,48h-2v-14h2v14ZM29,40h-10v-6h10v6ZM45,48h-2v-14h2v14ZM48,32H12v-2h36v2ZM51,28H9v-2h42v2ZM51,24h-10v-2h10v2ZM51,20h-2v-3.83002c1.15997.40997,2,1.53003,2,2.83002v1Z"/>
  <circle cx="22" cy="37" r="1"/>
  <circle cx="26" cy="37" r="1"/>
</svg>