<?xml version="1.0" encoding="UTF-8"?>
<svg id="Outline" xmlns="http://www.w3.org/2000/svg" version="1.1" viewBox="0 0 64 64">
  <!-- Generator: Adobe Illustrator 29.3.1, SVG Export Plug-In . SVG Version: 2.1.0 Build 151)  -->
  <path d="M22,43c6.06543,0,11-4.93457,11-11s-4.93457-11-11-11-11,4.93457-11,11,4.93457,11,11,11ZM22,23c4.96289,0,9,4.0376,9,9s-4.03711,9-9,9-9-4.0376-9-9,4.03711-9,9-9Z"/>
  <path d="M22,39c2.74847,0,5.20374-1.61597,6.32904-4.06641.38879-.13708.67096-.49799.67096-.93359v-4c0-.43561-.28217-.79651-.67096-.93359-1.12531-2.45044-3.58057-4.06641-6.32904-4.06641s-5.20374,1.61597-6.32904,4.06641c-.38879.13715-.67096.49799-.67096.93359v4c0,.43561.28217.79645.67096.93359,1.12531,2.45044,3.58051,4.06641,6.32904,4.06641ZM27,31v2h-10v-2h10ZM22,37c-1.60449,0-3.07507-.76636-3.99731-2h7.99463c-.92224,1.23364-2.39282,2-3.99731,2ZM22,27c1.60449,0,3.07507.7663,3.99731,2h-7.99463c.92224-1.2337,2.39282-2,3.99731-2Z"/>
  <path d="M56,19h-12c-1.65002,0-3,1.34998-3,3s1.34998,3,3,3h3v12h-10v-5c0-8.27002-6.72998-15-15-15s-15,6.72998-15,15v14c0,.54999.45001,1,1,1h48c.54999,0,1-.45001,1-1v-26c0-.54999-.45001-1-1-1ZM44,23c-.54999,0-1-.45001-1-1s.45001-1,1-1h3v2h-3ZM9,45v-5.54999c1.33002,2.31,3.23999,4.21997,5.54999,5.54999h-5.54999ZM35,45h-13c-7.16998,0-13-5.83002-13-13s5.83002-13,13-13,13,5.82996,13,13v13ZM37,45v-6h10.59003l6,6h-16.59003ZM55,43.58997l-6-6v-16.58997h6v22.58997Z"/>
</svg>