<?xml version="1.0" encoding="UTF-8"?>
<svg id="Outline" xmlns="http://www.w3.org/2000/svg" version="1.1" viewBox="0 0 64 64">
  <!-- Generator: Adobe Illustrator 29.3.1, SVG Export Plug-In . SVG Version: 2.1.0 Build 151)  -->
  <path d="M31.32302,31.54599c.30566-.13086.52539-.4043.58887-.72949.0625-.32617-.04102-.66211-.27539-.89648l-1.41412-1.414,7.66315-7.66315,5.51172-2.75586c.2373-.11914.41797-.32715.50098-.57812l2.12109-6.36426c.12012-.35938.02637-.75586-.24121-1.02344l-2.82812-2.82812c-.26758-.26758-.66406-.3623-1.02344-.24121l-6.36426,2.12109c-.25098.08301-.45898.26367-.57812.50098l-2.75586,5.5127-7.66302,7.66302-1.41412-1.414c-.23438-.23438-.56738-.33691-.89648-.27539-.3252.06348-.59863.2832-.72949.58887-1.31641,3.07031-3.44824,5.71875-6.16602,7.65918l-5.5166,3.94141c-.04492.03223-.08691.06738-.12598.10645l-.70703.70703c-2.63122,2.63122-2.61758,7.28184,0,9.89941,1.36423,1.36521,3.15716,2.04685,4.94912,2.04687,2.29398.00003,4.0918-1.18957,5.65733-2.75293.03906-.03906.07422-.08203.10645-.12695l3.94043-5.51758c1.94238-2.71875,4.5918-4.85059,7.66016-6.16602ZM36.58767,10.93857l5.38477-1.79395,1.9541,1.9541-1.79395,5.38477-4.6416,2.32031-3.22363-3.22266,2.32031-4.64258ZM33.05062,17.19242l2.82898,2.82825-7.07141,7.07141-2.82874-2.82849,7.07117-7.07117ZM18.14322,42.00021c-2.14275,2.13953-5.30822,3.0596-7.71953.64841-1.91768-1.91759-1.90932-5.16213-.00008-7.07137l.64844-.64844,5.44922-3.89355c2.61914-1.86914,4.74902-4.33301,6.2207-7.18066l6.47559,6.47461c-2.84668,1.4707-5.30957,3.60059-7.18164,6.2207,0,0-3.89258,5.4502-3.89269,5.45031Z"/>
  <path d="M53.95876,41.0001h-28c-1.6543,0-3,1.3457-3,3v10c0,1.6543,1.3457,3,3,3h28c1.6543,0,3-1.3457,3-3v-10c0-1.6543-1.3457-3-3-3ZM54.95876,44.0001v2.31891l-6.25977-1.04645c-1.15918-.1875-2.31348-.22168-3.42871-.10742l-4.76172.46973c-2.18555.22363-4.36816-.21289-6.30664-1.25586l-2.56323-1.37891h22.32007c.55176,0,1,.44824,1,1ZM25.95876,43.0001h1.45782l5.83807,3.14062c2.29102,1.23242,4.86523,1.74219,7.45312,1.48438l4.76465-.4707c.94531-.09668,1.92285-.06738,2.90137.0918l6.58496,1.10065v3.31592l-13.10156-1.4566c-1.31152-.14258-2.61914-.05469-3.88086.26465l-3.12109.7793c-1.84473.45996-3.75391.33008-5.54004-.38477l-.18945-.07227c-1.2959-.52637-2.67383-.79297-4.09668-.79297h-.07031v-6c0-.55176.44824-1,1-1ZM53.95876,55.0001h-28c-.55176,0-1-.44824-1-1v-2h.07031c1.16309,0,2.28809.21777,3.36328.6543l.19531.07422c2.16211.86523,4.5,1.02734,6.75293.46094l3.12207-.7793c1.03418-.25977,2.10352-.33203,3.17578-.21582l13.32031,1.48114v.32452c0,.55176-.44824,1-1,1Z"/>
  <path d="M13.95876,36.0001c-1.6543,0-3,1.3457-3,3s1.3457,3,3,3,3-1.3457,3-3-1.3457-3-3-3ZM13.95876,40.0001c-.55176,0-1-.44824-1-1s.44824-1,1-1,1,.44824,1,1-.44824,1-1,1Z"/>
</svg>