<?xml version="1.0" encoding="UTF-8"?>
<svg id="Outline" xmlns="http://www.w3.org/2000/svg" version="1.1" viewBox="0 0 64 64">
  <!-- Generator: Adobe Illustrator 29.3.1, SVG Export Plug-In . SVG Version: 2.1.0 Build 151)  -->
  <path d="M56,31h-1v-5c0-2.76001-2.23999-5-5-5-.54999,0-1,.45001-1,1v5h-6v-5c0-.54999-.45001-1-1-1-2.76001,0-5,2.23999-5,5v5H8c-.54999,0-1,.45001-1,1v6c0,.54999.45001,1,1,1h3.73999l14.22003,8-14.45001,8.13c-.40002.21997-.59003.67999-.47998,1.12.12.44.50995.75.96997.75h8c.16998,0,.34003-.04004.48999-.13l11.51001-6.47003,11.51001,6.47003c.14996.08997.32001.13.48999.13h8c.46002,0,.84998-.31.96997-.75.11005-.44-.07996-.90002-.47998-1.12l-14.45001-8.13,14.22003-8h3.73999c.54999,0,1-.45001,1-1v-6c0-.54999-.45001-1-1-1ZM51,23.16998c1.15997.40997,2,1.53003,2,2.83002v1h-2v-3.83002ZM39,26c0-1.29999.84003-2.42004,2-2.83002v3.83002h-2v-1ZM39,29h14v2h-14v-2ZM19.73999,55h-3.91998l12.17999-6.85004,1.96002,1.10004-10.22003,5.75ZM48.17999,55h-3.91998l-28.44-16h3.89996l11.77002,6.62c.01001,0,.02002.01001.03003.01001l16.65997,9.37ZM23.79999,39h16.40002l-8.20001,4.60999-8.20001-4.60999ZM36,45.85999l-1.96002-1.09998,10.24005-5.76001h3.89996l-12.17999,6.85999ZM55,37H9v-4h46v4Z"/>
  <path d="M15.83984,20.40137c-.47852.27637-.64258.8877-.36621,1.36621l2,3.46484c.13281.22949.35156.39746.60742.46582.25391.06641.52832.03125.75879-.09961.86816-.50195,1.90527-.50195,2.77344-.00098s1.38672,1.39941,1.38672,2.40234c0,.55273.44727,1,1,1h4c.55273,0,1-.44727,1-1,0-1.00293.51855-1.90137,1.38672-2.40234.86914-.50098,1.9043-.50098,2.77344.00098.22949.13086.50293.16602.75879.09961.25586-.06836.47461-.23633.60742-.46582l2-3.46484c.27637-.47852.1123-1.08984-.36621-1.36621-.86816-.50098-1.38672-1.39844-1.38672-2.40137s.51855-1.90039,1.38672-2.40137c.47852-.27637.64258-.8877.36621-1.36621l-2-3.46484c-.13281-.22949-.35156-.39746-.60742-.46582-.25586-.06738-.5293-.03223-.75879.09961-.86914.50098-1.90625.50098-2.77344.00098-.86816-.50098-1.38672-1.39941-1.38672-2.40234,0-.55273-.44727-1-1-1h-4c-.55273,0-1,.44727-1,1,0,1.00293-.51855,1.90137-1.38672,2.40234-.87012.5-1.90527.5-2.77344-.00098-.23047-.13184-.50488-.16699-.75879-.09961-.25586.06836-.47461.23633-.60742.46582l-2,3.46484c-.27637.47852-.1123,1.08984.36621,1.36621.86816.50098,1.38672,1.39844,1.38672,2.40137s-.51855,1.90039-1.38672,2.40137ZM17.6543,14.45508l1.10254-1.91016c1.27246.41797,2.65723.28125,3.85645-.41016,1.19824-.69238,2.00977-1.82324,2.28418-3.13477h2.20508c.27441,1.31152,1.08594,2.44238,2.28418,3.13477,1.19922.69141,2.58594.82715,3.85645.41016l1.10254,1.91016c-.99805.89258-1.57227,2.16113-1.57227,3.54492s.57422,2.65234,1.57227,3.54492l-1.10254,1.91016c-1.27051-.41602-2.65625-.28125-3.85645.41016-1.19824.69238-2.00977,1.82324-2.28418,3.13477h-2.20508c-.27441-1.31152-1.08594-2.44238-2.28418-3.13477-1.2002-.69141-2.58496-.82617-3.85645-.41016l-1.10254-1.91016c.99805-.89258,1.57227-2.16113,1.57227-3.54492s-.57422-2.65234-1.57227-3.54492Z"/>
  <path d="M26,23c2.75684,0,5-2.24316,5-5s-2.24316-5-5-5-5,2.24316-5,5,2.24316,5,5,5ZM26,15c1.6543,0,3,1.3457,3,3s-1.3457,3-3,3-3-1.3457-3-3,1.3457-3,3-3Z"/>
</svg>