<?xml version="1.0" encoding="UTF-8"?>
<svg id="Outline" xmlns="http://www.w3.org/2000/svg" version="1.1" viewBox="0 0 64 64">
  <!-- Generator: Adobe Illustrator 29.3.1, SVG Export Plug-In . SVG Version: 2.1.0 Build 151)  -->
  <path d="M11,46.00054v6c0,.55273.44775,1,1,1h6c.55225,0,1-.44727,1-1v-6c0-.55273-.44775-1-1-1h-6c-.55225,0-1,.44727-1,1ZM13,47.00054h4v4h-4v-4Z"/>
  <path d="M56,35.00054H8c-.54999,0-1,.45001-1,1v20c0,.54999.45001,1,1,1h14c.54999,0,1-.45001,1-1v-11h33c.54999,0,1-.45001,1-1v-8c0-.54999-.45001-1-1-1ZM21,55.00054h-12v-18h4.59003l7.40997,7.40997v10.59003ZM55,43.00054H22.40997l-6-6h6.59003v3c0,.54999.45001,1,1,1s1-.45001,1-1v-3h2v1c0,.54999.45001,1,1,1s1-.45001,1-1v-1h2v3c0,.54999.45001,1,1,1s1-.45001,1-1v-3h2v1c0,.54999.45001,1,1,1s1-.45001,1-1v-1h2v3c0,.54999.45001,1,1,1s1-.45001,1-1v-3h2v1c0,.54999.45001,1,1,1s1-.45001,1-1v-1h2v3c0,.54999.45001,1,1,1s1-.45001,1-1v-3h2v1c0,.54999.45001,1,1,1s1-.45001,1-1v-1h2v6Z"/>
  <path d="M56.38281,7.07672c-.37598-.15723-.80371-.06934-1.08984.2168l-24,24c-.28613.28613-.37158.71582-.2168,1.08984s.51953.61719.92383.61719h24c.55225,0,1-.44727,1-1V8.00054c0-.4043-.24365-.76953-.61719-.92383ZM55,31.00054h-20.58594l20.58594-20.58594v20.58594Z"/>
  <path d="M40.73291,28.38336c.15479.37402.51953.61719.92383.61719h10.34326c.55225,0,1-.44727,1-1v-10.34277c0-.4043-.24365-.76953-.61719-.92383-.37354-.15625-.80322-.06934-1.08984.2168l-10.34326,10.34277c-.28613.28613-.37158.71582-.2168,1.08984ZM51,20.07183v6.92871h-6.9292l6.9292-6.92871Z"/>
  <path d="M25.61726,32.9244c.37561.15672.80305.0699,1.08977-.21683l24-24c.28613-.28613.37158-.71582.2168-1.08984s-.51953-.61719-.92383-.61719h-24c-.55225,0-1,.44727-1,1v24c0,.4043.24365.76953.61726.92386ZM27,9.00054h20.58594l-20.58594,20.58594V9.00054Z"/>
  <path d="M41.26709,11.61773c-.15479-.37402-.51953-.61719-.92383-.61719h-10.34326c-.55225,0-1,.44727-1,1v10.34277c0,.40414.24346.76925.61675.92365.33897.14021.8025.07116,1.09028-.21662l10.34326-10.34277c.28613-.28613.37158-.71582.2168-1.08984ZM31,19.92926v-6.92871h6.9292l-6.9292,6.92871Z"/>
</svg>