<?xml version="1.0" encoding="UTF-8"?>
<svg id="Outline" xmlns="http://www.w3.org/2000/svg" version="1.1" viewBox="0 0 64 64">
  <!-- Generator: Adobe Illustrator 29.3.1, SVG Export Plug-In . SVG Version: 2.1.0 Build 151)  -->
  <path d="M54.84998,7.46997c-.17999-.28998-.5-.46997-.84998-.46997H10c-.34998,0-.66998.17999-.84998.46997-.18005.29999-.20001.67004-.04004.98004l2,4c.17004.33997.51001.54999.89001.54999h1v37c0,1.64996,1.34998,3,3,3h1v3c0,.54999.45001,1,1,1h4c.38,0,.71997-.21002.89001-.54999l1.72998-3.45001h14.76001l1.72998,3.45001c.17004.33997.51001.54999.89001.54999h4c.54999,0,1-.45001,1-1v-3h1c1.65002,0,3-1.35004,3-3V13h1c.38,0,.71997-.21002.89001-.54999l2-4c.15997-.31.14001-.68005-.04004-.98004ZM21.38,55h-2.38v-2h3.38l-1,2ZM45,55h-2.38l-1-2h3.38v2ZM49,50c0,.54999-.45001,1-1,1H16c-.54999,0-1-.45001-1-1V13h34v37ZM51.38,11H12.62l-1-2h40.76001l-1,2Z"/>
  <path d="M18,49h12c.55273,0,1-.44727,1-1v-8c0-.55273-.44727-1-1-1h-12c-.55273,0-1,.44727-1,1v8c0,.55273.44727,1,1,1ZM19,41h10v6h-10v-6Z"/>
  <path d="M18,37h12c.55273,0,1-.44727,1-1v-20c0-.55273-.44727-1-1-1h-12c-.55273,0-1,.44727-1,1v20c0,.55273.44727,1,1,1ZM19,17h10v18h-10v-18Z"/>
  <path d="M34,37h12c.55273,0,1-.44727,1-1v-20c0-.55273-.44727-1-1-1h-12c-.55273,0-1,.44727-1,1v20c0,.55273.44727,1,1,1ZM35,17h10v18h-10v-18Z"/>
  <path d="M34,49h12c.55273,0,1-.44727,1-1v-8c0-.55273-.44727-1-1-1h-12c-.55273,0-1,.44727-1,1v8c0,.55273.44727,1,1,1ZM35,41h10v6h-10v-6Z"/>
  <path d="M41,43h-2c-.55273,0-1,.44727-1,1s.44727,1,1,1h2c.55273,0,1-.44727,1-1s-.44727-1-1-1Z"/>
  <path d="M25,43h-2c-.55273,0-1,.44727-1,1s.44727,1,1,1h2c.55273,0,1-.44727,1-1s-.44727-1-1-1Z"/>
  <path d="M26,24c-.55273,0-1,.44727-1,1v2c0,.55273.44727,1,1,1s1-.44727,1-1v-2c0-.55273-.44727-1-1-1Z"/>
  <path d="M38,24c-.55273,0-1,.44727-1,1v2c0,.55273.44727,1,1,1s1-.44727,1-1v-2c0-.55273-.44727-1-1-1Z"/>
</svg>