<?xml version="1.0" encoding="UTF-8"?>
<svg id="Outline" xmlns="http://www.w3.org/2000/svg" version="1.1" viewBox="0 0 64 64">
  <!-- Generator: Adobe Illustrator 29.3.1, SVG Export Plug-In . SVG Version: 2.1.0 Build 151)  -->
  <circle cx="22" cy="40" r="1"/>
  <circle cx="26" cy="40" r="1"/>
  <path d="M56,25c-.54999,0-1,.45001-1,1v3h-2v-1c0-.54999-.45001-1-1-1h-8.10999c.70996-.96002,1.10999-2.10999,1.10999-3.33002,0-.34998-.17999-.66998-.46997-.84998-.30005-.17999-.67004-.20001-.98004-.04004-.63.31-1.32001.42999-2.01001.37-.02997-.13995-.07001-.27997-.10999-.40997.75-.97998,1.16003-2.17999,1.16003-3.44,0-1-.27002-1.97003-.77002-2.83002-.16998-.28998-.48999-.47998-.83002-.48999-.34998.01001-.67999.16003-.85999.45001-.39001.58997-.94,1.04999-1.56,1.33002-.10004-.10004-.20001-.21002-.29999-.30005.02997-.22998.03998-.46997.03998-.69995,0-2.03003-1.09003-3.92004-2.83002-4.92004-.29999-.16998-.66998-.17999-.97998-.01001-.29999.17004-.5.48004-.52002.83002-.03998.67999-.26996,1.34003-.69,1.91998-.13-.03998-.26996-.07996-.39996-.12-.28003-.66998-.69-1.27997-1.22003-1.78998-1.06-1.08002-2.47998-1.66998-4-1.66998-.34998,0-.66998.17999-.84998.46997-.17999.29999-.20001.67004-.03998.98004.29999.60999.42999,1.28998.35999,2.00995-.14001.03003-.27002.07001-.40002.11005-1.73999-1.34003-4.33002-1.53003-6.27002-.39001-.28998.16998-.47998.48999-.48999.83002-.01001.34998.16003.66998.45001.87.59003.38,1.04999.92999,1.33002,1.54999-.10004.09998-.21002.20001-.29999.29999-2.25-.26001-4.5.84998-5.62,2.78998-.17004.30005-.17004.67004-.01001.98004.16998.29999.47998.5.82996.51996.68005.04004,1.34003.27002,1.91003.69-.03998.13-.07001.27002-.10999.40002-.67004.28003-1.28003.69-1.79004,1.21997-.75.74005-1.26001,1.66003-1.51001,2.67004h-7.15997c-.54999,0-1,.45001-1,1v4c0,.54999.45001,1,1,1h2v3c0,.54999.45001,1,1,1h2v15c0,.54999.45001,1,1,1h4c.54999,0,1-.45001,1-1v-7h11c.54999,0,1-.45001,1-1v-7h10v15c0,.54999.45001,1,1,1h4c.54999,0,1-.45001,1-1v-15h2c.54999,0,1-.45001,1-1v-3h2c.54999,0,1-.45001,1-1v-1h2v3c0,.54999.45001,1,1,1s1-.45001,1-1v-8c0-.54999-.45001-1-1-1ZM18.08002,25.73999c.42999-.42999.94-.73999,1.51996-.91003.36005-.10999.63-.39996.70001-.76996.09003-.44.21002-.88.37-1.35004.13-.35999,0-.81-.27997-1.07996-.53003-.53003-1.16003-.94-1.84003-1.21002.85004-.63,2-.88,3.06-.63.35999.08002.73999-.04999.98004-.33002.27997-.32996.60999-.65997.96997-.95996.27002-.23004.39001-.64001.34003-.98999-.01001-.04004-.02002-.08002-.03003-.12-.21002-.72003-.54999-1.38-1-1.95001,1.08002-.14001,2.17999.22998,2.94.96997.28003.26001.67999.35004,1.03003.22003.39996-.14001.85999-.26001,1.35999-.36005.38-.06995.69-.40997.78998-.77997.17999-.72003.22003-1.47003.12-2.20001.42004.19.81.45001,1.15002.78998.42999.43005.73999.94.90997,1.52002.11005.35999.40002.63.77002.70001.45001.09003.90002.21002,1.34003.37.37.13.81995,0,1.08997-.27997.53003-.53003.94-1.16003,1.21002-1.84003.46997.63.72998,1.40002.72998,2.21002,0,.28998-.02997.56995-.09003.84998-.08997.35999.04004.73999.32001.97998.33002.28003.65002.61005.97003.98004.21997.25995.64001.38.97998.32996.04004-.00995.08002-.01996.12-.02997.72003-.21002,1.38-.54999,1.95001-1,.02002.14001.03003.27997.03003.42999,0,.95001-.36005,1.84998-1,2.52002-.26001.26996-.35004.66998-.22003,1.01996.14001.41003.26001.87.35999,1.37.08002.40002.42004.71002.82001.79004.71002.16998,1.44.20996,2.16003.10999-.19.41998-.45001.81-.79004,1.15002-.32001.32996-.70001.56995-1.09998.73999h-3.91003c.05005-.33002.09003-.66003.09003-1,0-3.85999-3.14001-7-7-7s-7,3.14001-7,7c0,.33997.03998.66998.09003,1h-5.83002c.17999-.46002.45001-.89001.82001-1.26001ZM35,26c0,.33997-.04999.66998-.10999,1h-9.78003c-.06-.33002-.10999-.66003-.10999-1,0-2.76001,2.23999-5,5-5s5,2.23999,5,5ZM17,51h-2v-14h2v14ZM29,43h-10v-6h10v6ZM45,51h-2v-14h2v14ZM48,35H12v-2h36v2ZM51,31H9v-2h42v2Z"/>
</svg>