<?xml version="1.0" encoding="UTF-8"?>
<svg id="Outline" xmlns="http://www.w3.org/2000/svg" version="1.1" viewBox="0 0 64 64">
  <!-- Generator: Adobe Illustrator 29.3.1, SVG Export Plug-In . SVG Version: 2.1.0 Build 151)  -->
  <path d="M36.96002,39.50125c-.04004-.21002-.14001-.39001-.28003-.53998l-2.67999-2.67004v-17.20996c1.65002,0,3-1.35004,3-3s-1.34998-3-3-3h-8c-1.65002,0-3,1.34998-3,3s1.34998,3,3,3v9.20996l-8.21997-8.22998c.56-.57001.87994-1.32001.87994-2.12s-.31995-1.56-.87994-2.12c-1.17004-1.16998-3.07001-1.16998-4.24005,0l-5.65997,5.65002c-.57001.56995-.88,1.31995-.88,2.12,0,.81.31,1.56.88,2.13.58002.57996,1.34998.87,2.12.87s1.53998-.29004,2.12-.87l13.88,13.87v6.21997c0,.21002.06.41003.17999.58002l3,4.26996c.19.26001.48999.42004.82001.42004s.63-.16003.82001-.42004l3-4.26996c.12-.16998.17999-.37.17999-.58002v-.48999l2.70001.46997c.0499.01999.10978.02002.16968.02002.62304,0,1.08578-.55874.99029-1.16998l-.89996-5.14001ZM10.71002,24.30124c-.38992.38992-1.0297.39001-1.41975.0003-.3789-.37859-.37654-1.03403-.0003-1.41027l5.66003-5.66003c.39001-.38995,1.01996-.38995,1.40997,0,.19.19.29999.44.29999.71002,0,.26001-.10999.52002-.29999.70001l-5.64996,5.65997ZM26,36.77127l-12.46002-12.47003,2.82001-2.82001,9.64001,9.63v5.66003ZM30,48.34128l-1.59003-2.26001,1.59003-1.59003,1.59003,1.59003-1.59003,2.26001ZM32,43.67123l-1.28998-1.29999c-.38-.37-1.04004-.37-1.42004,0l-1.28998,1.29999v-24.58997h4v24.58997ZM26,17.08127c-.54999,0-1-.45001-1-1s.45001-1,1-1h8c.54999,0,1,.45001,1,1s-.45001,1-1,1h-8ZM34,43.29123v-4.17999l1.03998,1.04004.60004,3.42999-1.64001-.29004Z"/>
  <path d="M56.95312,43.97238l-8.10498-25.66504c.35242-.26556.65063-.59973.85986-1.00293.37012-.71094.44043-1.52344.19922-2.28711-.24121-.76416-.76562-1.38867-1.47656-1.7583-.71289-.36963-1.52344-.44141-2.28711-.19922l-5.72168,1.80664c-.76465.24121-1.38965.76562-1.75879,1.47705-.37012.71094-.44043,1.52344-.19922,2.28711.24121.76416.76562,1.38867,1.47656,1.7583.40344.20941.83911.3125,1.27979.32764l8.10498,25.66504c.06152.19629.18262.36865.34668.49365l4.14551,3.16553c.17578.13477.38965.20508.60645.20508.10059,0,.20215-.01514.30078-.04639.31055-.09814.55371-.34131.65234-.65137l1.57617-4.97217c.0625-.19629.0625-.40723,0-.60352ZM40.37109,18.02853c-.16654-.52368.1318-1.09034.65234-1.25488l5.72168-1.80664c.5008-.15813,1.08916.12493,1.25487.6523.15835.50394-.12536,1.08835-.65233,1.25492l-5.72168,1.80664c-.50006.15789-1.08603-.1217-1.25488-.65235ZM43.18109,20.28702l3.81525-1.20465,7.40344,23.4447-1.62244-.84375c-.23438-.12256-.50977-.146-.76172-.06641-.25293.08008-.46387.25684-.58691.49219l-.84344,1.62207-7.40417-23.44415ZM53.90039,47.5881l-2.19415-1.67584,1.03595-1.9931,1.99274,1.03613-.83453,2.63281Z"/>
</svg>