<?xml version="1.0" encoding="UTF-8"?>
<svg id="Outline" xmlns="http://www.w3.org/2000/svg" version="1.1" viewBox="0 0 64 64">
  <!-- Generator: Adobe Illustrator 29.3.1, SVG Export Plug-In . SVG Version: 2.1.0 Build 151)  -->
  <path d="M20.8457,47.91406l1.73877-2.6084c.18262-.27441.21875-.62012.09619-.92578l-1.10645-2.76562c-.15186-.37988-.51953-.62891-.92822-.62891h-10.646c-1.6543,0-3,1.3457-3,3v10c0,1.6543,1.3457,3,3,3h11.30566c.48877,0,.90625-.35352.98633-.83594l.61475-3.6875c.03467-.20801.00244-.42188-.0918-.61133l-1.96924-3.93652ZM10,42.98535h9.96924l.65918,1.64844-1.76855,2.65332c-.19922.29883-.22266.68066-.0625,1.00195l.84833,1.69629h-10.64569v-6c0-.55176.44873-1,1-1ZM20.4585,54.98535h-10.4585c-.55127,0-1-.44824-1-1v-2h11.64594l.23444.46875-.42188,2.53125Z"/>
  <path d="M54,40.98535h-29.0459c-.33203,0-.64209.16504-.82812.43945s-.22363.62402-.10059.93164l1.09814,2.74609-1.64746,2.47168c-.19922.29883-.22266.68066-.0625,1.00195l1.62598,3.25293-.66504,3.99219c-.04834.29004.0332.58594.22314.81055s.46924.35352.76318.35352h28.63916c1.6543,0,3-1.3457,3-3v-10c0-1.6543-1.3457-3-3-3ZM55,43.98535v2.31891l-6.26025-1.04645c-1.15918-.1875-2.31494-.22266-3.42773-.10742l-4.7627.46973c-2.19092.22363-4.36865-.21289-6.30566-1.25586l-2.56348-1.37891h22.31982c.55127,0,1,.44824,1,1ZM27.17627,44.84863l-.74512-1.86328h1.02667l5.83856,3.14062c2.28955,1.23242,4.8667,1.74316,7.45166,1.48438l4.76562-.4707c.94336-.09766,1.92139-.06543,2.90137.0918l6.58496,1.10065v3.31592l-13.10156-1.4566c-1.31152-.14258-2.61816-.05469-3.88086.26465l-3.12012.7793c-1.84229.46094-3.75391.33105-5.54102-.38477l-.18555-.07031c-.87897-.36151-1.81116-.59534-2.77515-.71143l-.93384-1.86768,1.61768-2.42676c.18262-.27441.21875-.62012.09668-.92578ZM54,54.98535h-27.4585l.46429-2.78735c.48621.10754.96326.25055,1.4278.44165l.19482.07422c2.16504.86523,4.5,1.02637,6.75391.46094l3.12207-.7793c1.03369-.25977,2.10156-.33203,3.17529-.21582l13.32031,1.48114v.32452c0,.55176-.44873,1-1,1Z"/>
  <path d="M42.80762,24.83496c.1875.1875.44189.29297.70703.29297s.51953-.10547.70703-.29297l5.65723-5.65723c.39062-.39062.39062-1.02344,0-1.41406l-5.65723-5.65723c-.375-.375-1.03906-.375-1.41406,0l-5.65674,5.65723c-.39062.39062-.39062,1.02344,0,1.41406l5.65674,5.65723ZM43.51465,14.22754l4.24316,4.24316-4.24316,4.24316-4.24268-4.24316,4.24268-4.24316Z"/>
  <path d="M27.9585,35.44141c.19434.19434.4502.29297.70703.29297.22363,0,.44824-.07422.6333-.22559l7.07794-5.7912.77362.77362c.56689.56641,1.32031.87891,2.12158.87891s1.55469-.3125,2.12158-.87891l.83551-.83551c.39801.18994.83167.30035,1.28558.30035.80127,0,1.55469-.3125,2.12109-.87891l8.48535-8.48535c1.16992-1.16992,1.16992-3.07227,0-4.24219l-8.48535-8.48535c-1.13281-1.13281-3.10938-1.13281-4.24219,0l-8.48535,8.48535c-.92078.92078-1.10541,2.29089-.57678,3.40491l-.83728.83728c-1.16992,1.16992-1.16992,3.07324,0,4.24316l.77435.77435-5.79095,7.07819c-.3252.39746-.29639.97656.06689,1.33984l1.41406,1.41406ZM38.56494,29.07715l-5.65674-5.65625c-.39014-.39062-.39014-1.02441,0-1.41504l.70703-.70703,7.07104,7.07153-.70679.70679c-.37793.37695-1.03662.37891-1.41455,0ZM34.32227,17.76367l8.48584-8.48535c.18848-.18945.43945-.29297.70654-.29297s.51807.10352.70654.29297h.00049l8.48535,8.48535c.38965.38965.38965,1.02441,0,1.41406l-8.48584,8.48535c-.37695.37891-1.03564.37891-1.41357,0l-8.48535-8.48535c-.38965-.38965-.38965-1.02441,0-1.41406ZM33.68939,27.03021l1.26562,1.26562-6.22211,5.09186-.13428-.13477,5.09076-6.22272Z"/>
  <path d="M22.25146,38.98535c1.6543,0,3-1.3457,3-3,0-1.27832-1.52246-3.62012-2.17725-4.56836-.37305-.54102-1.27246-.54102-1.64551,0-.65479.94824-2.17725,3.29004-2.17725,4.56836,0,1.6543,1.3457,3,3,3ZM22.25146,33.83887c.57617.9707.9917,1.8418,1,2.14648,0,.55176-.44873,1-1,1s-.99951-.44824-1-.99902c.0083-.30664.42432-1.17676,1-2.14746Z"/>
</svg>