<?xml version="1.0" encoding="UTF-8"?>
<svg id="Outline" xmlns="http://www.w3.org/2000/svg" version="1.1" viewBox="0 0 64 64">
  <!-- Generator: Adobe Illustrator 29.3.1, SVG Export Plug-In . SVG Version: 2.1.0 Build 151)  -->
  <path d="M56.47266,26.11865c-.3252-.17334-.71973-.15576-1.02637.04834l-1.94336,1.29199c-.60938-2.89404-1.81348-5.66406-3.52734-8.1084l.68457-3.41406c.06543-.32715-.03613-.66602-.27246-.90234l-4.23926-4.25c-.26074-.26123-.64648-.35645-.99707-.25146-.35352.10693-.61914.39941-.69141.76123l-.45996,2.2959c-2.5-1.62891-5.31055-2.73682-8.23047-3.23779l-1.9375-2.90674c-.18555-.27832-.49805-.44531-.83203-.44531h-6c-.36816,0-.70703.20264-.88086.52734-.1748.32471-.15625.71924.04785,1.02637l1.29102,1.94287c-2.89355.61035-5.66406,1.81348-8.10742,3.52734l-3.41406-.68457c-.32812-.06738-.66602.03613-.90234.27246l-4.25,4.24023c-.26172.26074-.3584.64404-.25098.99707.10645.35352.39941.61914.76074.69141l2.2959.45898c-1.62891,2.50049-2.7373,5.31104-3.23828,8.23047l-2.90625,1.93799c-.27832.18555-.44531.49756-.44531.83203v6c0,.36865.20312.70703.52734.88135.3252.17383.71875.15527,1.02637-.04834l1.94336-1.29199c.60938,2.89404,1.81348,5.66406,3.52734,8.1084l-.68457,3.41406c-.06543.32715.03613.66602.27246.90234l4.23926,4.25c.26074.26123.64551.35693.99707.25146.35352-.10693.61914-.39941.69141-.76123l.45996-2.2959c2.5,1.62891,5.31152,2.73682,8.23047,3.23779l1.9375,2.90674c.18555.27832.49805.44531.83203.44531h6c.36816,0,.70703-.20264.88086-.52734.1748-.32471.15625-.71924-.04785-1.02588l-1.29102-1.94385c2.89355-.60986,5.66309-1.81299,8.10742-3.52686l3.41406.68457c.3291.06543.66602-.03662.90332-.27344l4.25-4.25c.26074-.26123.35742-.64453.25-.99805-.10742-.35303-.40137-.61865-.76367-.68994l-2.29102-.45215c1.62793-2.49951,2.73535-5.30908,3.23633-8.22705l2.90625-1.93799c.27832-.18555.44531-.49756.44531-.83203v-6c0-.36865-.20312-.70703-.52734-.88135ZM55,32.46484l-2.82422,1.8833c-.23438.15625-.39258.40479-.43457.68359-.48926,3.25977-1.81348,6.38721-3.82812,9.04395-.20801.2749-.26074.6377-.1377.95996s.40234.55859.74121.62549l1.96094.38721-2.5459,2.5459-3.31543-.66455c-.27344-.05664-.56055.00732-.78711.17334-2.68848,1.96826-5.83691,3.24316-9.10352,3.68604-.34082.0459-.63477.26465-.77637.57861s-.1123.67871.07812.96533l1.10742,1.66699h-3.59961l-1.88281-2.82471c-.15625-.23486-.4043-.39258-.68359-.43408-3.25977-.48926-6.38672-1.81299-9.04395-3.82812-.27441-.20801-.63574-.25977-.95898-.13818-.32227.12207-.55859.40088-.62598.73877l-.39355,1.96533-2.54004-2.54688.66406-3.31592c.05469-.2749-.00782-.56055-.17383-.78662-1.96777-2.68994-3.24219-5.83789-3.68555-9.104-.04688-.34131-.26562-.63477-.5791-.77686-.31445-.14258-.67969-.11133-.96582.07812l-1.66602,1.10791v-3.59961l2.82422-1.8833c.23438-.15625.39258-.40479.43457-.68359.48926-3.25977,1.81348-6.38721,3.82812-9.04395.20801-.2749.26074-.63672.13867-.95898-.12207-.32178-.40137-.55859-.73926-.62598l-1.96484-.39307,2.54688-2.54102,3.31543.66504c.27148.05566.56055-.00781.78711-.17334,2.68848-1.96826,5.83691-3.24316,9.10352-3.68652.34082-.0459.63477-.26465.77637-.57861s.1123-.67871-.07812-.96582l-1.10742-1.66602h3.59961l1.88281,2.82471c.15625.23486.4043.39258.68359.43408,3.25977.48926,6.3877,1.81299,9.04395,3.82812.27539.2085.63574.25928.95898.13818.32227-.12207.55859-.40088.62598-.73877l.39355-1.96533,2.54004,2.54688-.66406,3.31592c-.05469.2749.00781.56055.17383.78662,1.96777,2.68994,3.24219,5.83789,3.68555,9.104.04688.34131.26562.63477.5791.77686.31543.14307.67871.11133.96582-.07812l1.66602-1.10791v3.59961Z"/>
  <path d="M32,15c-9.37402,0-17,7.62598-17,17s7.62598,17,17,17,17-7.62598,17-17-7.62598-17-17-17ZM32,47c-8.27148,0-15-6.729-15-15s6.72852-15,15-15,15,6.729,15,15-6.72852,15-15,15Z"/>
</svg>