<?xml version="1.0" encoding="UTF-8"?>
<svg id="Outline" xmlns="http://www.w3.org/2000/svg" version="1.1" viewBox="0 0 64 64">
  <!-- Generator: Adobe Illustrator 29.3.1, SVG Export Plug-In . SVG Version: 2.1.0 Build 151)  -->
  <path d="M53,27h-1c0-5.35004-2.08002-10.37-5.85999-14.14001-3.77002-3.78003-8.79004-5.85999-14.14001-5.85999-11.03003,0-20,8.96997-20,20h-1c-.54999,0-1,.45001-1,1v6c0,.54999.45001,1,1,1h1v19c0,1.64996,1.34998,3,3,3h34c1.65002,0,3-1.35004,3-3v-19h1c.54999,0,1-.45001,1-1v-6c0-.54999-.45001-1-1-1ZM33,9.04999c.66998.03998,1.34003.10999,2,.21997v5.73004c0,.54999.45001,1,1,1s1-.45001,1-1v-5.29004c1.40002.40002,2.73999.98004,4,1.72003v2.07001c0,1.39996-.46002,2.77997-1.29999,3.89996-1.10004,1.46002-1.70001,3.27002-1.70001,5.10004v1.5c0,.54999.45001,1,1,1s1-.45001,1-1v-1.5c0-1.40002.46002-2.78003,1.29999-3.90002,1.10004-1.45996,1.70001-3.27002,1.70001-5.09998v-.72003c.59998.46002,1.17999.95001,1.71997,1.5.46002.45001.88.92999,1.28003,1.42004v7.29999c0,.54999.45001,1,1,1s1-.45001,1-1v-4.23999c1.29999,2.51996,2,5.31995,2,8.23999h-6v-4c0-.54999-.45001-1-1-1s-1,.45001-1,1v4h-9V9.04999ZM16,18.78998v4.21002c0,.54999.45001,1,1,1s1-.45001,1-1v-7.29004c.88-1.08997,1.89001-2.06995,3-2.92999v.72003c0,1.82996.59998,3.64001,1.70001,5.09998.83997,1.12,1.29999,2.5,1.29999,3.90002v1.5c0,.54999.45001,1,1,1s1-.45001,1-1v-1.5c0-1.83002-.59998-3.64001-1.70001-5.10004-.83997-1.12-1.29999-2.5-1.29999-3.89996v-2.06c1.25-.73004,2.59003-1.31,4-1.72003v5.28003c0,.54999.45001,1,1,1s1-.45001,1-1v-5.73004c.65997-.10999,1.32001-.17999,2-.21997v17.95001h-9v-4c0-.54999-.45001-1-1-1s-1,.45001-1,1v4h-6c0-2.96002.72998-5.73999,2-8.21002ZM31,55h-6v-3c0-.54999-.45001-1-1-1s-1,.45001-1,1v3h-2.01001c-.02997-1.59003-.65997-3.08002-1.77997-4.21002-.78003-.77997-1.21002-1.81-1.21002-2.90997v-.88c0-.54999-.45001-1-1-1s-1,.45001-1,1v.88c0,1.63.64001,3.16998,1.78998,4.32996.75.75,1.17004,1.73004,1.20001,2.79004h-3.98999c-.54999,0-1-.45001-1-1v-19h6.17999c-.10999.31-.17999.64996-.17999,1,0,.62.19,1.20001.52002,1.67999-1.5.87-2.52002,2.46997-2.52002,4.32001,0,2.76001,2.23999,5,5,5s5-2.23999,5-5c0-1.85004-1.02002-3.45001-2.52002-4.32001.33002-.47998.52002-1.06.52002-1.67999,0-.35004-.07001-.69-.17999-1h5.17999v20ZM23,39c1.65002,0,3,1.34998,3,3s-1.34998,3-3,3-3-1.35004-3-3,1.34998-3,3-3ZM22,36c0-.54999.45001-1,1-1s1,.45001,1,1-.45001,1-1,1-1-.45001-1-1ZM50,54c0,.54999-.45001,1-1,1h-3.98999c.02997-1.06.45001-2.04004,1.20001-2.79004,1.14996-1.15997,1.78998-2.69995,1.78998-4.32996v-.88c0-.54999-.45001-1-1-1s-1,.45001-1,1v.88c0,1.09998-.42999,2.13-1.21002,2.90997-1.12,1.13-1.75,2.62-1.77997,4.21002h-2.01001v-3c0-.54999-.45001-1-1-1s-1,.45001-1,1v3h-6v-20h5.17999c-.10999.31-.17999.64996-.17999,1,0,.62.19,1.20001.52002,1.67999-1.5.87-2.52002,2.46997-2.52002,4.32001,0,2.76001,2.23999,5,5,5s5-2.23999,5-5c0-1.85004-1.02002-3.45001-2.52002-4.32001.33002-.47998.52002-1.06.52002-1.67999,0-.35004-.07001-.69-.17999-1h6.17999v19ZM41,39c1.65002,0,3,1.34998,3,3s-1.34998,3-3,3-3-1.35004-3-3,1.34998-3,3-3ZM40,36c0-.54999.45001-1,1-1s1,.45001,1,1-.45001,1-1,1-1-.45001-1-1ZM52,33H12v-4h40v4Z"/>
  <circle cx="23" cy="42" r="1"/>
  <circle cx="41" cy="42" r="1"/>
  <path d="M28,53c.55225,0,1-.44727,1-1v-4c0-.55273-.44775-1-1-1s-1,.44727-1,1v4c0,.55273.44775,1,1,1Z"/>
  <path d="M36,47c-.55225,0-1,.44727-1,1v4c0,.55273.44775,1,1,1s1-.44727,1-1v-4c0-.55273-.44775-1-1-1Z"/>
</svg>