<?xml version="1.0" encoding="UTF-8"?>
<svg id="Outline" xmlns="http://www.w3.org/2000/svg" version="1.1" viewBox="0 0 64 64">
  <!-- Generator: Adobe Illustrator 29.3.1, SVG Export Plug-In . SVG Version: 2.1.0 Build 151)  -->
  <path d="M34.59893,25.67773c.1875.1875.44189.29297.70703.29297.04822,0,.09198-.02087.1391-.02771l.0025.01746c.86182-.12207,1.71484.16016,2.3335.77783.61768.61816.90137,1.46875.77783,2.3335-.04492.31201.06006.62598.28271.84863l2.82861,2.82812c.19531.19531.45117.29297.70703.29297s.51172-.09766.70703-.29297l7.07129-7.0708c.1875-.1875.29297-.44189.29297-.70703s-.10547-.51953-.29297-.70703l-2.82861-2.82861c-.22266-.22266-.53711-.32715-.84863-.28271-.86328.12354-1.71533-.15967-2.3335-.77783-.61768-.61816-.90137-1.46875-.77783-2.3335l-.01746-.0025c.00684-.04712.02771-.09088.02771-.1391,0-.26514-.10547-.51953-.29297-.70703l-7.07129-7.0708c-.1875-.1875-.44189-.29297-.70703-.29297h-2.41406l-.53564-.53564c-1.47803-1.47852-3.44385-2.29297-5.53516-2.29297s-4.05713.81445-5.53564,2.29297l-1.53564,1.53564c-.26807.26758-.36133.66406-.2417,1.02344s.43213.62012.80713.67334l2.69678.38525c1.24072.17773,2.41162.7627,3.29688,1.64844l.92627.92627v2.41406c0,.26514.10547.51953.29297.70703l.68445.68451-19.66687,18.47516c-.9707.91211-1.5166,2.14746-1.5376,3.47852-.02051,1.33154.48633,2.5835,1.42822,3.5249.92285.92285,2.14404,1.42871,3.4458,1.42871.02637,0,.05273-.00049.07861-.00098,1.33154-.02051,2.56689-.56641,3.47852-1.53711l18.47498-19.66718.68469.68475ZM16.05926,41.07898l-3.93262-3.93262,2.91675-2.74005,3.75604,3.75568-2.74017,2.91699ZM11.9295,44.19775c-.76025-.01025-1.52344-.28662-2.0791-.84229s-.85449-1.29395-.84229-2.07959c.01221-.78516.33447-1.51416.90674-2.05176l.75354-.70789,4.021,4.021-.70813.75378c-.5376.57227-1.26611.89453-2.05176.90674ZM20.16931,36.70367l-3.66766-3.66724,13.12561-12.33038,2.87207,2.87207-12.33002,13.12555ZM46.242,23.17822l1.79248,1.79248-5.65723,5.65674-1.79248-1.79248c.04541-1.31055-.44629-2.56787-1.38965-3.51074-.49982-.49957-1.08966-.86768-1.72693-1.10168l4.16144-4.16144c.23358.63751.6012,1.22754,1.10114,1.72748.94336.94287,2.19727,1.43359,3.51123,1.38965ZM23.29522,10.93115l-.71729-.10254.12158-.12158c1.10107-1.10059,2.56445-1.70703,4.12158-1.70703s3.02051.60645,4.12109,1.70703l.82861.82861c.1875.1875.44189.29297.70703.29297h2.41406l6.07129,6.0708-5.65723,5.65723-.70618-.70624c-.00037-.00037-.00049-.00092-.00085-.00128l-4.24268-4.24268c-.00006-.00006-.00018-.00012-.00024-.00018l-1.12085-1.12091v-2.41406c0-.26514-.10547-.51953-.29297-.70703l-1.21924-1.21924c-1.18896-1.18945-2.76172-1.97607-4.42773-2.21387Z"/>
  <path d="M53.99249,41h-2v-3h2c1.65002,0,3-1.35004,3-3s-1.34998-3-3-3h-6c-1.65002,0-3,1.34998-3,3s1.34998,3,3,3h2v3h-28c-1.65002,0-3,1.34998-3,3v10c0,1.64996,1.34998,3,3,3h32c1.65002,0,3-1.35004,3-3v-10c0-1.65002-1.34998-3-3-3ZM47.99249,36c-.54999,0-1-.45001-1-1s.45001-1,1-1h6c.54999,0,1,.45001,1,1s-.45001,1-1,1h-6ZM54.99249,54c0,.54999-.45001,1-1,1H21.99249c-.54999,0-1-.45001-1-1v-2h4.07001c1.15997,0,2.28998.21997,3.37.65997l.19.07001c2.15997.85999,4.5,1.02002,6.75.46002l3.12-.78003c1.03998-.26001,2.10999-.33002,3.17999-.21997l13.32001,1.47998v.33002ZM54.99249,51.65997l-13.09998-1.45001c-1.31-.14996-2.62-.06-3.88.26001l-3.12.78003c-1.85004.45996-3.76001.32996-5.55005-.39001l-.17999-.07001c-1.29999-.52002-2.67999-.78998-4.09998-.78998h-4.07001v-6c0-.54999.45001-1,1-1h5.46002l5.83997,3.14001c2.29004,1.22998,4.85999,1.75,7.45001,1.47998l4.76001-.47003c.95001-.08997,1.92999-.06,2.90997.10004l6.58002,1.09998v3.31ZM54.99249,46.32001l-6.26001-1.05005c-1.15997-.19-2.32001-.21997-3.42999-.09998l-4.76001.46002c-2.19.22998-4.37-.21002-6.31-1.25l-2.56-1.38h22.32001c.54999,0,1,.45001,1,1v2.32001Z"/>
</svg>