<?xml version="1.0" encoding="UTF-8"?>
<svg id="Outline" xmlns="http://www.w3.org/2000/svg" version="1.1" viewBox="0 0 48 48">
  <!-- Generator: Adobe Illustrator 29.0.0, SVG Export Plug-In . SVG Version: 2.1.0 Build 186)  -->
  <path d="M34.17725,9.43164c-.65479.94824-2.17725,3.29004-2.17725,4.56836,0,1.6543,1.3457,3,3,3s3-1.3457,3-3c0-1.27832-1.52246-3.62012-2.17725-4.56836-.37305-.54102-1.27246-.54102-1.64551,0ZM35,15c-.55127,0-.99951-.44824-1-.99902.0083-.30664.42432-1.17676,1-2.14746.57617.9707.9917,1.8418,1,2.14648,0,.55176-.44873,1-1,1Z"/>
  <path d="M35,5c-2.95001,0-5.53003,1.60999-6.91998,4h-7.08002c-.54999,0-1,.45001-1,1s.45001,1,1,1h6.26001c-.16003.64001-.26001,1.31-.26001,2H8c-.54999,0-1-.45001-1-1,0-.27002.09998-.51001.31-.71002.17999-.19.41998-.28998.69-.28998h5c.54999,0,1-.45001,1-1s-.45001-1-1-1h-5c-.81,0-1.57001.32001-2.10999.87-.57001.56-.89001,1.32001-.89001,2.13,0,1.29999.84003,2.39996,2,2.82001v22.35999c-1.15997.41998-2,1.52002-2,2.82001,0,1.64996,1.34998,3,3,3h24c1.65002,0,3-1.35004,3-3,0-1.29999-.84003-2.40002-2-2.82001v-16.44c.64001.15997,1.31.26001,2,.26001,4.40997,0,8-3.59003,8-8s-3.59003-8-8-8ZM25,15h2.26001c.54999,2.08997,1.90997,3.85999,3.73999,4.91998v1.08002h-6v-6ZM13,15h10v7c0,.54999-.45001,1-1,1s-1-.45001-1-1v-2c0-1.65002-1.34998-3-3-3s-3,1.34998-3,3v4c0,.54999-.45001,1-1,1s-1-.45001-1-1v-9ZM9,15h2v6h-2v-6ZM9,23h2v1c0,1.64996,1.34998,3,3,3s3-1.35004,3-3v-4c0-.54999.45001-1,1-1s1,.45001,1,1v2c0,1.64996,1.34998,3,3,3,1.29999,0,2.40002-.84003,2.82001-2h6.17999v6H9v-6ZM9,31h22v6H9v-6ZM32,41H8c-.54999,0-1-.45001-1-1s.45001-1,1-1h24c.54999,0,1,.45001,1,1s-.45001,1-1,1ZM35,19c-3.31,0-6-2.69-6-6s2.69-6,6-6,6,2.69,6,6-2.69,6-6,6Z"/>
  <circle cx="17" cy="10" r="1"/>
</svg>