<?xml version="1.0" encoding="UTF-8"?>
<svg id="Outline" xmlns="http://www.w3.org/2000/svg" version="1.1" viewBox="0 0 48 48">
  <!-- Generator: Adobe Illustrator 29.0.0, SVG Export Plug-In . SVG Version: 2.1.0 Build 186)  -->
  <path d="M40,24c.54999,0,1-.45001,1-1v-8h1c.54999,0,1-.45001,1-1v-4c0-.54999-.45001-1-1-1h-2v-3c0-.54999-.45001-1-1-1h-4c-.54999,0-1,.45001-1,1v3H14v-3c0-.54999-.45001-1-1-1h-4c-.54999,0-1,.45001-1,1v3h-2c-.54999,0-1,.45001-1,1v4c0,.54999.45001,1,1,1h1v22h-1c-.54999,0-1,.45001-1,1v4c0,.54999.45001,1,1,1h36c.54999,0,1-.45001,1-1v-4c0-.54999-.45001-1-1-1h-1v-6c0-.54999-.45001-1-1-1s-1,.45001-1,1v2h-10c-.54999,0-1,.45001-1,1v3h-8v-3c0-.54999-.45001-1-1-1h-10V15h30v8c0,.54999.45001,1,1,1ZM36,7h2v2h-2v-2ZM10,7h2v2h-2v-2ZM30,35h9v2h-9v-2ZM41,39v2H7v-2h34ZM18,35v2h-9v-2h9ZM7,13v-2h34v2H7Z"/>
  <path d="M34,23c.55273,0,1-.44775,1-1v-1h1c.55273,0,1-.44775,1-1s-.44727-1-1-1h-1v-1c0-.55225-.44727-1-1-1s-1,.44775-1,1v1h-1c-.55273,0-1,.44775-1,1s.44727,1,1,1h1v1c0,.55225.44727,1,1,1Z"/>
  <path d="M12,19c-.55273,0-1,.44775-1,1s.44727,1,1,1h4c.55273,0,1-.44775,1-1s-.44727-1-1-1h-4Z"/>
  <path d="M22.68917,33.93201c.37962.12665.82948.04271,1.11063-.33191l6-8c.22754-.30322.26367-.7085.09473-1.04736-.16992-.33887-.51562-.55273-.89453-.55273h-3v-5c0-.44043-.28809-.82959-.70996-.95703s-.87793.03564-1.12207.40234l-6,9c-.2041.30664-.22363.70117-.0498,1.02637s.5127.52832.88184.52832h3v3.99996c0,.46796.30945.80536.68917.93205ZM20.86816,27l3.13184-4.69727v2.69727c0,.55225.44727,1,1,1h2l-3,4v-2c0-.55225-.44727-1-1-1h-2.13184Z"/>
  <circle cx="40" cy="27" r="1"/>
</svg>