<?xml version="1.0" encoding="UTF-8"?>
<svg id="Outline" xmlns="http://www.w3.org/2000/svg" version="1.1" viewBox="0 0 48 48">
  <!-- Generator: Adobe Illustrator 29.0.0, SVG Export Plug-In . SVG Version: 2.1.0 Build 186)  -->
  <path d="M43,24c0-3.4563-1.50293-6.63391-4-9.17303v-6.82697c0-1.6543-1.3457-3-3-3h-15c-.55225,0-1,.44727-1,1s.44775,1,1,1h15c.55127,0,1,.44824,1,1v5.09052c-3.40247-2.52844-7.96967-4.09052-13-4.09052s-9.59753,1.56207-13,4.09052v-5.09052c0-.55176.44873-1,1-1h1c.55225,0,1-.44727,1-1s-.44775-1-1-1h-1c-1.6543,0-3,1.3457-3,3v6.82697c-2.49707,2.53912-4,5.71674-4,9.17303s1.50293,6.63391,4,9.17303v6.82697c0,1.6543,1.3457,3,3,3h24c1.6543,0,3-1.3457,3-3v-6.82697c2.49707-2.53912,4-5.71674,4-9.17303ZM24,11c9.37402,0,17,5.83203,17,13s-7.62598,13-17,13S7,31.16797,7,24s7.62598-13,17-13ZM36,41H12c-.55127,0-1-.44824-1-1v-5.09052c3.40247,2.52844,7.96967,4.09052,13,4.09052s9.59753-1.56207,13-4.09052v5.09052c0,.55176-.44873,1-1,1Z"/>
  <path d="M20,22h2v3c0,.43455.28074.81931.69478.95213.38803.12448.86495-.01566,1.11919-.37108l5-7c.21729-.30469.24658-.70508.0752-1.03906-.17139-.33301-.51465-.54199-.88916-.54199h-2v-3c0-.43457-.28076-.81934-.69482-.95215-.4126-.13184-.86621.01855-1.11914.37109l-5,7c-.21729.30469-.24658.70508-.0752,1.03906.17139.33301.51465.54199.88916.54199ZM24,17.12012v.87988c0,.55273.44775,1,1,1h1.05664l-2.05664,2.87988v-.87988c0-.55273-.44775-1-1-1h-1.05664l2.05664-2.87988Z"/>
  <path d="M16,33c0,.55273.44775,1,1,1h14c.55225,0,1-.44727,1-1v-4c0-.55273-.44775-1-1-1h-14c-.55225,0-1,.44727-1,1v4ZM23,32v-2h2v2h-2ZM30,32h-3v-2h3v2ZM18,30h3v2h-3v-2Z"/>
  <path d="M16,24c0-1.6543-1.3457-3-3-3s-3,1.3457-3,3,1.3457,3,3,3,3-1.3457,3-3ZM12,24c0-.55176.44873-1,1-1s1,.44824,1,1-.44873,1-1,1-1-.44824-1-1Z"/>
  <path d="M35,27c1.6543,0,3-1.3457,3-3s-1.3457-3-3-3-3,1.3457-3,3,1.3457,3,3,3ZM35,23c.55127,0,1,.44824,1,1s-.44873,1-1,1-1-.44824-1-1,.44873-1,1-1Z"/>
  <circle cx="17" cy="6" r="1"/>
</svg>