<?xml version="1.0" encoding="UTF-8"?>
<svg id="Outline" xmlns="http://www.w3.org/2000/svg" version="1.1" viewBox="0 0 48 48">
  <!-- Generator: Adobe Illustrator 29.0.0, SVG Export Plug-In . SVG Version: 2.1.0 Build 186)  -->
  <path d="M42.5,41.12962c-.28998-.16003-.59003-.31-.88-.46002.23999-.52002.38-1.08002.38-1.66998,0-2.21002-1.78998-4-4-4-.17999,0-.34998.01001-.53003.03998-.68994-1.23999-2.00995-2.03998-3.46997-2.03998-2.21002,0-4,1.78998-4,4,0,.06.02002.10999.02002.16998-.23004-.02002-.45001-.04999-.67999-.07001l-1.55005-11.45001,6.83002,3.95001c.15.08001.32997.12999.49994.13.35785.00002.69003-.18698.87005-.5,1.10999-1.92999.85999-4.34998-.60999-6.02997-1.56-1.73004-3.5-3.12006-5.60999-4l-2.17004-.92004c-.15997-.32996-.35999-.63-.59998-.89996v-1.38c0-.54999-.45001-1-1-1s-1,.45001-1,1v.14001c-.32001-.08002-.65002-.14001-1-.14001-.52002,0-1,.10999-1.46002.27997l-.13995-1.13c-.07001-.50995-.10004-1.06-.10004-1.66998,0-1.46997.23004-2.91998.69-4.29999.32001-.97998,1.08002-1.71002,2.01001-2.02002v.84003c0,.54999.45001,1,1,1s1-.45001,1-1v-2c0-.54999-.45001-1-1-1-2.22998,0-4.20001,1.41998-4.90997,3.54999-.52002,1.59003-.79004,3.25-.79004,4.92999,0,.70001.04004,1.33002.12,1.91998l.29004,2.34003c-.12.16998-.22003.34998-.31.53998l-2.17004.92004c-2.10999.87994-4.04999,2.26996-5.60999,4.00995-1.46995,1.67002-1.71996,4.08995-.61004,6.01993.27815.48366.88815.62712,1.37005.37009l6.83002-3.95001-1.55005,11.45001c-.22998.02002-.44995.04999-.67999.07001,0-.06.02002-.10999.02002-.16998,0-2.21002-1.78998-4-4-4-1.46002,0-2.78003.79999-3.46997,2.03998-.18005-.02997-.35004-.03998-.53003-.03998-2.21002,0-4,1.78998-4,4,0,.58997.14001,1.14996.38,1.66998-.28998.15002-.59003.29999-.88.46002-.47998.27997-.64001.88995-.37,1.37.27997.47998.89001.64001,1.37.37.53998-.32001,1.09998-.60999,1.66998-.89001.02002,0,.03003-.01001.04999-.02002,3.99005-1.94,8.39001-2.95996,12.84003-2.95996h5.88c4.45001,0,8.84998,1.01996,12.84003,2.95996.01996.01001.02997.02002.04999.02002.56993.27999,1.12986.56993,1.66977.88989.44832.26568,1.09379.09569,1.37021-.36987.27002-.48004.10999-1.09003-.37-1.37ZM15.95001,37.43961c-2.67999.44-5.29999,1.22998-7.78003,2.34998-.10999-.23999-.16998-.51001-.16998-.78998,0-1.35999,1.40997-2.38,2.75-1.85004.26001.10004.56.09003.82001-.03998.26001-.12.44-.35999.52002-.63.22998-.87,1.00995-1.47998,1.90997-1.47998,1.09998,0,2,.89996,2,2,0,.14996-.02002.29999-.04999.44ZM27.94,20.59959l1.04999.44c1.85004.77002,3.54004,1.97998,4.89001,3.48999.67999.77002.92999,1.79004.72998,2.75l-7.76001-4.47998c.58002-.58002.96002-1.34998,1.09003-2.20001ZM24,17.99961c1.09998,0,2,.89996,2,2,0,1.09998-.90002,2-2,2s-2-.90002-2-2c0-1.10004.90002-2,2-2ZM13.39001,27.27958c-.20001-.95996.04999-1.97998.72998-2.73999,1.34998-1.52002,3.03998-2.72998,4.89001-3.5l1.04999-.44c.13.85004.51001,1.62,1.09003,2.20001l-7.76001,4.47998ZM26.94,36.99961h-5.88c-.12,0-.25.01001-.37.01001l1.71997-12.62.81-.47003c.25.04999.51001.08002.78003.08002s.53003-.03003.78003-.08002l.81.47003,1.71997,12.62c-.12,0-.25-.01001-.37-.01001ZM39.83002,39.78959c-2.48004-1.12-5.10004-1.90997-7.78003-2.34998-.02997-.14001-.04999-.29004-.04999-.44,0-1.10004.90002-2,2-2,.90002,0,1.67999.60999,1.90997,1.47998.08002.27002.26001.51001.52002.63.26001.13.56.14001.82001.03998,1.34003-.53998,2.75.49005,2.75,1.85004,0,.27997-.06.54999-.16998.78998Z"/>
  <circle cx="26" cy="11.99961" r="1"/>
</svg>