<?xml version="1.0" encoding="UTF-8"?>
<svg id="Outline" xmlns="http://www.w3.org/2000/svg" version="1.1" viewBox="0 0 48 48">
  <!-- Generator: Adobe Illustrator 29.0.0, SVG Export Plug-In . SVG Version: 2.1.0 Build 186)  -->
  <path d="M38.09937,31.00126c-.52002-.17004-1.09003.12-1.25.64996-1.38,4.31-4.75,7.52002-8.91998,8.77002.69-1.20001,1.09998-2.72998,1.09998-4.41998,0-1.98999-1.29999-2.25-1.92999-2.37-.37-.07001-.56-.11005-.71002-.28003-.14001-.19-.31-.97998-.40997-1.45001-.29004-1.35999-.63-2.89996-1.95001-2.89996-2.79999,0-5,3.07996-5,7,0,1.69.40997,3.21997,1.09998,4.41998-5.51996-1.67999-9.54999-6.81-9.54999-12.87,0-1.82001.89001-4.22998,2.60004-7.08002l-.03003.25c-.25,2.85004,1.03003,5.65002,3.34998,7.31l.13.10004c1.93005,1.39996,4.64001.96997,6.04004-.95001.01001-.02002.03998-.07001.07001-.10999.88-1.23004,1.03998-2.84003.41998-4.23004-1.91998-4.32996-1.90002-9.31.02997-13.57996.26001-.47003.54004-.98004.78003-1.42004l1.73999,2.44c2.57001,3.62,3.42999,8.17004,2.35004,12.48004-.09003.34998.01996.72998.28998.96997.27002.25.64996.34003,1,.22003l2-.67004c1.53998-.51996,2.73999-1.64996,3.37-3.06.95001,1.54004,1.65002,2.94,2.10999,4.17999.19.52002.77002.79004,1.28003.60004.51996-.19.78998-.77002.59998-1.29004-.71002-1.92999-1.95001-4.17999-3.69-6.67999-.26001-.37-.72998-.51996-1.14996-.37-.43005.15002-.70001.56-.67004,1.01001.12,1.65997-.89996,3.17999-2.48999,3.71002l-.37.13c.63-4.35004-.42999-8.78003-3-12.39001l-2.63-3.70001c-.17999-.23999-.44-.39001-.73999-.41998-.29999-.02002-.58002.07996-.78998.28998-.11005.12-.21002.21002-1.78003,3.08002-2.20001,4.84998-2.21997,10.42999-.06,15.28998.33002.76001.23999,1.60004-.23999,2.27002-.02002.02002-.04999.06-.07001.10999-.76001,1-2.20001,1.21002-3.22998.47003l-.14001-.10004c-1.73999-1.26001-2.70001-3.37-2.51001-5.51001l.37-4.14996c.04004-.45001-.22998-.87-.64996-1.03003-.42004-.14996-.89001-.01001-1.16003.35004-3.39996,4.67999-5.13,8.53998-5.13,11.47998,0,8.52002,6.92999,15.45001,15.45001,15.45001,6.76001,0,12.66998-4.32001,14.71997-10.75.17004-.52002-.12-1.08002-.64996-1.25ZM24.02936,41.00126c-1.63,0-3-2.29004-3-5,0-2.52002,1.19-4.67999,2.66998-4.97003.12.33002.23999.91003.33002,1.29004.21002.97998.39001,1.82996.84998,2.33997.62.70001,1.35004.84003,1.84003.94.09003.01001.21002.04004.27997.06.01001.04999.03003.16003.03003.34003,0,2.70996-1.37,5-3,5Z"/>
  <circle cx="38.42065" cy="28.00126" r="1"/>
</svg>