<?xml version="1.0" encoding="UTF-8"?>
<svg id="Outline" xmlns="http://www.w3.org/2000/svg" version="1.1" viewBox="0 0 48 48">
  <!-- Generator: Adobe Illustrator 29.0.0, SVG Export Plug-In . SVG Version: 2.1.0 Build 186)  -->
  <path d="M32.84123,27.51325c2.64355-2.45312,4.15967-5.92041,4.15967-9.5127,0-3.57373-1.41992-6.90527-3.99854-9.38086-2.57617-2.47314-5.96143-3.75879-9.54346-3.6084-1.78271.07471-3.50586.51611-5.12061,1.3125-.49512.24463-.69873.84424-.45459,1.33936s.84473.69775,1.33936.45459c1.36328-.67236,2.81689-1.04541,4.31836-1.1084,3.03369-.11963,5.89648.96094,8.07568,3.05322,2.18213,2.09473,3.38379,4.91406,3.38379,7.93799,0,3.08252-1.25,5.94043-3.5249,8.05127-1.09961,1.03418-1.98584,2.28271-2.56055,3.60693-.47119,1.07275-.76172,2.19287-.86865,3.3418h-1.73657l1.98914-7.29346c.18822.18651.44034.29344.70249.29346.73027.00004,1.22013-.79417.89358-1.44727l-1-2c-.24658-.49365-.84717-.69531-1.3418-.44727l-2,1c-.49414.24707-.69434.84766-.44727,1.3418.24695.49396.84662.69501,1.34119.44745l-2.21057,8.10529h-.47217l-2.21057-8.10529c.49457.24658,1.09424.04602,1.34119-.44745.24707-.49414.04688-1.09473-.44727-1.3418l-2-1c-.49512-.24805-1.09473-.04639-1.3418.44727l-.99999,1.99999c-.3224.64479.17257,1.44728.89355,1.44728.26215,0,.51428-.10693.70251-.29346l1.98914,7.29346h-1.73511c-.23682-2.67188-1.41943-5.12842-3.32715-6.85352-2.35889-2.12109-3.68164-5.16455-3.62842-8.3501.02637-1.58643.40234-3.12549,1.11719-4.57422.24414-.49512.04102-1.09473-.45459-1.33936-.49512-.24219-1.09473-.04053-1.33936.45459-.84619,1.71533-1.2915,3.54102-1.32324,5.42578-.0625,3.76465,1.50195,7.3623,4.28906,9.86865,1.53595,1.38885,2.48248,3.38489,2.67108,5.56482-1.14105.42487-1.96014,1.51605-1.96014,2.80334,0,1.6543,1.3457,3,3,3v1c0,1.6543,1.3457,3,3,3h4c1.6543,0,3-1.3457,3-3v-1c1.6543,0,3-1.3457,3-3,0-1.28674-.8183-2.37756-1.9585-2.80286.08618-.93976.31909-1.85779.70605-2.73865.46875-1.08057,1.19434-2.10059,2.09277-2.9458ZM27.0009,40.00055c0,.55127-.44873,1-1,1h-4c-.55127,0-1-.44873-1-1v-1h6v1ZM29.0009,37.00055h-10c-.55127,0-1-.44873-1-1s.44873-1,1-1h3.99658c.00104,0,.00189.00049.00293.00049.00122,0,.00238-.00049.0036-.00049h1.99377c.00122,0,.00238.00049.0036.00049.00104,0,.00189-.00049.00293-.00049h3.99658c.55127,0,1,.44873,1,1s-.44873,1-1,1Z"/>
  <path d="M31.0009,18.00055c0,.55225.44775,1,1,1s1-.44775,1-1c0-4.9624-4.0376-9-9-9-.55225,0-1,.44775-1,1s.44775,1,1,1c3.85986,0,7,3.14014,7,7Z"/>
  <path d="M16.2227,10.22235c.39056-.3905.39056-1.02368,0-1.41418-.3905-.39056-1.02368-.39056-1.41418,0-.3905.3905-.3905,1.02368,0,1.41418s1.02368.3905,1.41418,0Z"/>
</svg>