<?xml version="1.0" encoding="UTF-8"?>
<svg id="Outline" xmlns="http://www.w3.org/2000/svg" version="1.1" viewBox="0 0 48 48">
  <!-- Generator: Adobe Illustrator 29.0.0, SVG Export Plug-In . SVG Version: 2.1.0 Build 186)  -->
  <path d="M41.54999,33.44c.95001-1.66003,1.45001-3.52002,1.45001-5.44,0-2.16003-.63-4.25-1.83002-6.06l-.33997-.5c-.19-.28003-.5-.44-.83002-.44h-1.23999l-2.60004-9.27002c-.12-.42999-.50995-.72998-.95996-.72998h-2.73004c-1.22998-3.48999-4.56-6-8.46997-6s-7.23999,2.51001-8.46997,6h-2.73004c-.45001,0-.83997.29999-.95996.72998l-2.60004,9.27002h-1.23999c-.33002,0-.64001.15997-.83002.44l-.33997.51001c-1.20001,1.79999-1.83002,3.88995-1.83002,6.04999,0,1.90997.5,3.77997,1.45001,5.44-.85999.52997-1.45001,1.46997-1.45001,2.56,0,.81.32001,1.57001.87,2.10999.56.57001,1.32001.89001,2.13.89001h1v1c0,1.64996,1.34998,3,3,3h2c1.65002,0,3-1.35004,3-3v-1h14v1c0,1.64996,1.34998,3,3,3h2c1.65002,0,3-1.35004,3-3v-1h1c1.65002,0,3-1.35004,3-3,0-.81-.32001-1.57001-.87-2.10999-.17999-.18005-.38-.32001-.58002-.45001ZM32.94,13h1.5l2.23999,8h-7.03998c2.04999-1.65002,3.35999-4.17004,3.35999-7,0-.34003-.02002-.67004-.06-1ZM24,7c3.85999,0,7,3.14001,7,7s-3.14001,7-7,7-7-3.14001-7-7,3.14001-7,7-7ZM13.56,13h1.5c-.03998.32996-.06.65997-.06,1,0,2.82996,1.31,5.34998,3.35999,7h-7.03998l2.23999-8ZM15,40c0,.54999-.45001,1-1,1h-2c-.54999,0-1-.45001-1-1v-1h4v1ZM37,40c0,.54999-.45001,1-1,1h-2c-.54999,0-1-.45001-1-1v-1h4v1ZM28,35h12c.27002,0,.51001.09998.71002.31.19.17999.28998.41998.28998.69,0,.54999-.45001,1-1,1H8c-.27002,0-.51001-.10004-.71002-.31-.19-.17999-.28998-.42004-.28998-.69,0-.54999.45001-1,1-1h12c.54999,0,1-.45001,1-1s-.45001-1-1-1h-11.46997l-.04004-.04999c-.96997-1.48004-1.48999-3.19-1.48999-4.95001s.52002-3.47003,1.48999-4.94l.04004-.06h30.93994l.04004.04999c.96997,1.47998,1.48999,3.19,1.48999,4.95001s-.52002,3.46997-1.48999,4.94l-.04004.06h-11.46997c-.54999,0-1,.45001-1,1s.45001,1,1,1Z"/>
  <path d="M12,25c-1.6543,0-3,1.3457-3,3s1.3457,3,3,3,3-1.3457,3-3-1.3457-3-3-3ZM12,29c-.55176,0-1-.44824-1-1s.44824-1,1-1,1,.44824,1,1-.44824,1-1,1Z"/>
  <path d="M36,31c1.6543,0,3-1.3457,3-3s-1.3457-3-3-3-3,1.3457-3,3,1.3457,3,3,3ZM36,27c.55176,0,1,.44824,1,1s-.44824,1-1,1-1-.44824-1-1,.44824-1,1-1Z"/>
  <path d="M31,30v-4c0-.55273-.44727-1-1-1h-12c-.55273,0-1,.44727-1,1v4c0,.55273.44727,1,1,1h12c.55273,0,1-.44727,1-1ZM29,29h-10v-2h10v2Z"/>
  <path d="M22,15h2.38184l-1.27637,2.55273c-.24704.49407-.04693,1.09456.44706,1.3417.4681.23418,1.09311.04922,1.342-.44716l2-4c.15527-.30957.13867-.67773-.04395-.97266s-.50391-.47461-.85059-.47461h-2.38184l1.27637-2.55273c.24707-.49414.04688-1.09473-.44727-1.3418-.49414-.24609-1.09375-.04688-1.3418.44727l-2,4c-.15527.30957-.13867.67773.04395.97266s.50391.47461.85059.47461Z"/>
  <circle cx="24" cy="34" r="1"/>
</svg>