<?xml version="1.0" encoding="UTF-8"?>
<svg id="Outline" xmlns="http://www.w3.org/2000/svg" version="1.1" viewBox="0 0 48 48">
  <!-- Generator: Adobe Illustrator 29.0.0, SVG Export Plug-In . SVG Version: 2.1.0 Build 186)  -->
  <path d="M40.98999,17.96997c0-.08997-.01001-.19-.03998-.28998l-4-12c-.14001-.40002-.52002-.67999-.95001-.67999h-20c-.42999,0-.81.27997-.95001.67999l-4,12c-.02997.09998-.03998.20001-.03998.28998,0,.01001-.01001.02002-.01001.03003v4c0,.54999.45001,1,1,1h2v3c0,.54999.45001,1,1,1h6c.54999,0,1-.45001,1-1v-3h8v3c0,.54999.45001,1,1,1h2v1c0,1.64996,1.34998,3,3,3,.54999,0,1,.45001,1,1v2c0,.54999-.45001,1-1,1h-3v-1c0-1.65002-1.34998-3-3-3h-1.17999c-.41998-1.16003-1.52002-2-2.82001-2h-7c-.54999,0-1,.45001-1,1s.45001,1,1,1h7c.54999,0,1,.45001,1,1v8c0,.54999-.45001,1-1,1H10c-.54999,0-1-.45001-1-1v-8c0-.54999.45001-1,1-1h1c.54999,0,1-.45001,1-1s-.45001-1-1-1h-1c-1.65002,0-3,1.34998-3,3v8c0,1.64996,1.34998,3,3,3h16c1.29999,0,2.40002-.84003,2.82001-2h1.17999c1.65002,0,3-1.35004,3-3v-1h3c1.65002,0,3-1.35004,3-3v-2c0-1.65002-1.34998-3-3-3-.54999,0-1-.45001-1-1v-1h2c.54999,0,1-.45001,1-1v-3h2c.54999,0,1-.45001,1-1v-4c0-.01001-.01001-.02002-.01001-.03003ZM31,38c0,.54999-.45001,1-1,1h-1v-6h1c.54999,0,1,.45001,1,1v4ZM38.60999,17h-5.76001l-.33997-2h5.44l.65997,2ZM36.60999,11l.67004,2h-5.10004l-.33002-2h4.76001ZM35.28003,7l.66998,2h-4.44l-.33002-2h4.10004ZM22.84998,7h6.30005l.33997,2h-6.97998l.33997-2ZM22.17999,11h7.64001l.33002,2h-8.30005l.33002-2ZM21.51001,15h8.97998l.33002,2h-9.64001l.33002-2ZM16.71997,7h4.10004l-.33002,2h-4.44l.66998-2ZM15.39001,11h4.76001l-.33002,2h-5.10004l.67004-2ZM14.04999,15h5.44l-.33997,2h-5.76001l.65997-2ZM20,25h-4v-2h4v2ZM36,25h-4v-2h4v2ZM39,21H13v-2h26v2Z"/>
  <path d="M14.16797,35.44531c-.30664.45996-.18262,1.08008.27734,1.38672l3,2c.16694.11129.36022.16793.55449.16797.54531.00011,1.00019-.456,1.0002-1v-2.13184l1.44531.96387c.46094.30566,1.08008.18164,1.38672-.27734.30664-.45996.18262-1.08008-.27734-1.38672l-3-2c-.30664-.2041-.70215-.22363-1.02637-.0498-.3252.17383-.52832.5127-.52832.88184v2.13184l-1.44531-.96387c-.46191-.30664-1.08105-.18262-1.38672.27734Z"/>
  <circle cx="15" cy="30" r="1"/>
</svg>