<?xml version="1.0" encoding="UTF-8"?>
<svg id="Outline" xmlns="http://www.w3.org/2000/svg" version="1.1" viewBox="0 0 48 48">
  <!-- Generator: Adobe Illustrator 29.0.0, SVG Export Plug-In . SVG Version: 2.1.0 Build 186)  -->
  <path d="M42,41h-5c0-2.20605-1.79443-4-4-4-.11377,0-.229.00586-.34863.01758-.77356-.69202-1.79688-1.03925-2.8302-.99084l-1.86072-9.31696c.58093.45404,1.18384.88239,1.82959,1.25604l4.33007,2.5c.4603.26576,1.08951.11192,1.36622-.36621l3-5.19922c.27588-.47852.11182-1.08984-.36621-1.36621l-4.32861-2.49902c-1.51678-.87909-3.15509-1.47632-4.87024-1.8139-.19666-1.24335-.85077-2.32373-1.78699-3.0849.56335-1.65289.86572-3.37463.86572-5.13635v-5c0-.55273-.44775-1-1-1h-6c-.55225,0-1,.44727-1,1v5c0,1.76172.30237,3.48346.86572,5.13635-.93622.76117-1.59033,1.84161-1.78699,3.08496-1.71515.33759-3.35327.93463-4.86877,1.81287l-4.33008,2.5c-.47803.27637-.64209.8877-.36621,1.36621l2.99999,5.1992c.27195.47131.89641.63555,1.36622.36623l4.33105-2.50098c.64532-.37329,1.24799-.80139,1.82874-1.25525l-1.46722,7.34729c-.18896-.02728-.37769-.05688-.57245-.05688-1.89697,0-3.48926,1.32715-3.89844,3.10156-1.77441.40918-3.10156,2.00195-3.10156,3.89844h-5c-.55225,0-1,.44727-1,1s.44775,1,1,1h14c.55225,0,1-.44727,1-1s-.44775-1-1-1h-7c0-1.10254.89697-2,2-2,.55225,0,1-.44727,1-1,0-1.10254.89697-2,2-2,.68604,0,1.31543.34863,1.68359.93359.28467.45117.87354.59863,1.33984.33691.64062-.36523,1.3125-.36523,1.95312,0,.46533.26172,1.0542.11426,1.33984-.33691.36816-.58496.99756-.93359,1.68359-.93359.89551,0,1.68262.60742,1.91357,1.47656.07324.27637.26172.50781.51709.63672.25684.12793.55469.14258.81982.03516.82959-.3291,1.72754-.08301,2.28076.58105.24072.28906.62207.41699.98926.33594.19385-.04395.35059-.06543.47949-.06543,1.10303,0,2,.89746,2,2h-7c-.55225,0-1,.44727-1,1s.44775,1,1,1h14c.55225,0,1-.44727,1-1s-.44775-1-1-1ZM21,20c0-1.6543,1.3457-3,3-3s3,1.3457,3,3-1.3457,3-3,3-3-1.3457-3-3ZM36.25439,24.7666l-2.00049,3.4668-3.46289-1.99902c-1.24084-.71869-2.34167-1.61823-3.29846-2.6665.64252-.62903,1.10297-1.43304,1.33368-2.33008,1.39233.30542,2.72406.81,3.96381,1.52881l3.46436,2ZM22,11v-4h4v4c0,1.4397-.2287,2.84808-.65863,4.20599-.42969-.12067-.87366-.20599-1.34137-.20599s-.91168.08533-1.34137.20599c-.42993-1.35791-.65863-2.7663-.65863-4.20599ZM17.20996,26.2334l-3.46387,2-2.00049-3.4668,3.46582-2.00098c1.23853-.71802,2.57007-1.22247,3.96234-1.52783.23071.89703.69116,1.70105,1.33368,2.33008-.95679,1.04828-2.05743,1.94763-3.29749,2.66553ZM23.16797,35.18066c-.75879-.24023-1.57715-.24023-2.33594,0-.11713-.11859-.25153-.21466-.38135-.31683l2.02234-10.12756c.48438.1568.99109.26373,1.52698.26373s1.0426-.10693,1.52698-.26373l1.90491,9.53833c-.44818-.17407-.93018-.2746-1.43188-.2746-1.08105,0-2.09131.43066-2.83203,1.18066Z"/>
  <circle cx="24" cy="20" r="1"/>
  <circle cx="24" cy="42" r="1"/>
</svg>