<?xml version="1.0" encoding="UTF-8"?>
<svg id="Outline" xmlns="http://www.w3.org/2000/svg" version="1.1" viewBox="0 0 48 48">
  <!-- Generator: Adobe Illustrator 29.0.0, SVG Export Plug-In . SVG Version: 2.1.0 Build 186)  -->
  <path d="M23.10019,35.99876c0-.55225-.44727-1-1-1-4.96289,0-9-4.0376-9-9,0-.55225-.44727-1-1-1s-1,.44775-1,1c0,6.06543,4.93457,11,11,11,.55273,0,1-.44775,1-1Z"/>
  <path d="M36.92001,28.16874c.10999-.71002.17999-1.44.17999-2.16998,0-8.09003-13.75-20.23999-14.34003-20.75-.38-.33002-.94-.33002-1.32001,0-.57996.51001-14.33997,12.65997-14.33997,20.75,0,2.70996.72998,5.37,2.12,7.67999.19.32001.52002.48999.85999.48999.17999,0,.35004-.04999.51001-.14001.47998-.28998.63-.89996.34998-1.37-1.20996-2.01001-1.83997-4.31-1.83997-6.65997,0-6.26001,10.26996-16.14001,13-18.65002,2.72998,2.51001,13,12.39001,13,18.65002,0,.06-.01001.10999-.01001.16998-.44-.45001-.77002-.77002-.90002-.90002-.38995-.35999-.98999-.35999-1.38,0-.69.66003-6.70996,6.48004-6.70996,10.33002,0,.91003.16998,1.78003.47998,2.59003-3.32001,1.20996-7,1.03998-10.21002-.52002-.5-.23999-1.09998-.02997-1.33997.46002-.23999.5-.03003,1.09998.46002,1.33997,2.08997,1.01001,4.31,1.53003,6.60999,1.53003,1.87,0,3.69-.35999,5.42999-1.04004,1.34998,1.84003,3.52002,3.04004,5.96997,3.04004,4.08002,0,7.40002-3.32001,7.40002-7.40002,0-2.27997-2.10999-5.25-3.97998-7.42999ZM33.49997,40.99876c-1.98999,0-3.71997-1.08002-4.65997-2.67999-.47003-.80005-.73999-1.73004-.73999-2.72003,0-2.04999,3.07001-5.84998,5.39996-8.20001.49005.5,1.01001,1.06,1.54004,1.66003.01996.02997.03998.04999.07001.08002,1.91998,2.20996,3.78998,4.85999,3.78998,6.45996,0,2.97998-2.41998,5.40002-5.40002,5.40002Z"/>
  <path d="M12.00052,35.48405c-.39056.3905-.39056,1.02368,0,1.41418.3905.3905,1.02368.3905,1.41418,0s.3905-1.02368,0-1.41418c-.3905-.39056-1.02368-.39056-1.41418,0Z"/>
</svg>