<?xml version="1.0" encoding="UTF-8"?>
<svg id="Outline" xmlns="http://www.w3.org/2000/svg" version="1.1" viewBox="0 0 48 48">
  <!-- Generator: Adobe Illustrator 29.0.0, SVG Export Plug-In . SVG Version: 2.1.0 Build 186)  -->
  <path d="M35.66081,20.7791c-.51996-.17999-1.08997.08997-1.26996.60999-.59003,1.67999-1.59003,3.21002-2.91003,4.44-1.09998,1.03998-1.98999,2.27997-2.57001,3.60999-.46997,1.07001-.75995,2.19-.85999,3.34003h-8.08997c-.24005-2.67004-1.42004-5.13-3.33002-6.85004-2.35999-2.12-3.67999-5.16998-3.63-8.34998.08002-4.32001,2.77002-8.21002,6.71002-9.90002l-.71002,7c-.02002.28003.07001.56.26001.77002s.45996.33002.73999.33002h1.87l-.85999,6.88c-.06.45996.20996.89996.64996,1.06.44.15997.93005-.01001,1.18005-.40002l7-11c.19995-.31.20996-.70001.03998-1.02002-.17999-.31995-.52002-.51996-.88-.51996h-1.71997l.79999-3.21002c2.94,1.17999,5.26001,3.58002,6.31,6.60004.17999.51996.73999.78998,1.26996.60999.52002-.17999.80005-.75.61005-1.27002-1.37-3.95001-4.59003-7.02002-8.61005-8.20001-.25995-.07996-.53998-.03998-.77997.09003-.22998.14001-.40002.35999-.47003.63l-1.37994,5.51001c-.07001.29999-.01001.60999.17999.85999.19.23999.47998.38.78998.38h1.17999l-3.64001,5.70996.45001-3.58997c.04004-.28003-.04999-.57001-.23999-.78003-.19-.21997-.46002-.33997-.75-.33997h-1.89001l.73999-7.46002c.04004-.33002-.08997-.64996-.34998-.85999-.25-.22003-.59003-.28998-.90997-.20001-5.54004,1.53003-9.48004,6.58002-9.59003,12.28003-.06,3.76996,1.5,7.37,4.28998,9.87,1.54004,1.38995,2.48004,3.38995,2.67004,5.57001-1.14001.41998-1.96002,1.50995-1.96002,2.79999,0,1.64996,1.34998,3,3,3v1c0,1.64996,1.34998,3,3,3h4c1.65002,0,3-1.35004,3-3v-1c1.65002,0,3-1.35004,3-3,0-1.29004-.82001-2.38-1.96002-2.79999.09003-.94.32001-1.86005.71002-2.74005.46997-1.07996,1.19-2.09998,2.09003-2.94995,1.56-1.45001,2.75-3.26001,3.42999-5.24005.19-.51996-.09003-1.08997-.61005-1.26996ZM27.00083,39.7791c0,.54999-.45001,1-1,1h-4c-.54999,0-1-.45001-1-1v-1h6v1ZM29.00083,36.7791h-10c-.54999,0-1-.45001-1-1s.45001-1,1-1h10c.54999,0,1,.45001,1,1s-.45001,1-1,1Z"/>
  <circle cx="36.00083" cy="17.7791" r="1"/>
</svg>