<?xml version="1.0" encoding="UTF-8"?>
<svg id="Outline" xmlns="http://www.w3.org/2000/svg" version="1.1" viewBox="0 0 48 48">
  <!-- Generator: Adobe Illustrator 29.0.0, SVG Export Plug-In . SVG Version: 2.1.0 Build 186)  -->
  <path d="M40.06494,13.86523c-.2959-.4668-.9126-.60742-1.37988-.30957-.46631.29492-.60498.91309-.30957,1.37988,1.7168,2.71191,2.62451,5.8457,2.62451,9.06445,0,9.37402-7.62598,17-17,17S7,33.37402,7,24,14.62598,7,24,7c3.21875,0,6.35352.9082,9.06494,2.625.46582.2959,1.08398.15723,1.37988-.30957.29541-.4668.15674-1.08496-.30957-1.37988-3.03271-1.9209-6.53711-2.93555-10.13525-2.93555C13.52344,5,5,13.52344,5,24s8.52344,19,19,19,19-8.52344,19-19c0-3.59766-1.01465-7.10254-2.93506-10.13477Z"/>
  <path d="M28,24c0-2.20605-1.79443-4-4-4s-4,1.79395-4,4,1.79443,4,4,4,4-1.79395,4-4ZM22,24c0-1.10254.89697-2,2-2s2,.89746,2,2-.89697,2-2,2-2-.89746-2-2Z"/>
  <path d="M13.39453,13.39062c-.18799.1875-.29395.44238-.29443.70801s.10498.52051.29297.70801l4.94971,4.9502c.39062.39062,1.02344.39062,1.41406,0,1.1333-1.13281,2.64014-1.75684,4.24316-1.75684s3.10986.62402,4.24316,1.75684c.19531.19531.45117.29297.70703.29297s.51172-.09766.70703-.29297l4.94971-4.9502c.18799-.1875.29346-.44238.29297-.70801s-.10645-.52051-.29443-.70801c-2.84375-2.83105-6.60986-4.39062-10.60547-4.39062s-7.76172,1.55957-10.60547,4.39062ZM28.90674,17.67871c-1.39746-1.08887-3.10693-1.67871-4.90674-1.67871s-3.50928.58984-4.90674,1.67871l-3.55078-3.55078c2.3623-2.02441,5.3291-3.12793,8.45752-3.12793s6.09521,1.10352,8.45752,3.12793l-3.55078,3.55078Z"/>
  <path d="M17.49707,21.22266l-6.76221-1.8125c-.25537-.06836-.52881-.03223-.75977.10059-.22949.13281-.39746.35156-.46533.6084-1.03076,3.87793-.49805,7.91992,1.49951,11.38086,1.99853,3.46093,5.23241,5.94237,9.10642,6.98925.23435.06333.533.03227.75979-.0996.23047-.13184.39844-.35059.4668-.60742l1.81152-6.76172c.14307-.5332-.17334-1.08203-.70703-1.22461-1.54785-.41504-2.84131-1.40723-3.64307-2.7959-.80127-1.3877-1.01416-3.00488-.59961-4.55273.14307-.5332-.17334-1.08203-.70703-1.22461ZM20.979,31.40918l-1.29932,4.85156c-2.93408-1.0332-5.37354-3.05078-6.93799-5.76074s-2.09229-5.83105-1.52051-8.88867l4.85156,1.2998c-.24463,1.75488.09912,3.53027.99902,5.08887.90039,1.55859,2.26562,2.74414,3.90723,3.40918Z"/>
  <path d="M26.65771,37.78223c.06835.25681.2363.47555.46674.60739.2119.12123.50667.16581.75983.09964,3.87402-1.04688,7.10791-3.52832,9.10645-6.98926,1.99756-3.46094,2.53027-7.50293,1.49951-11.38086-.06787-.25684-.23584-.47559-.46533-.6084-.23047-.13281-.50391-.16895-.75977-.10059l-6.76221,1.8125c-.53369.14258-.8501.69141-.70703,1.22461.41455,1.54785.20166,3.16504-.6001,4.55273-.80127,1.38867-2.09473,2.38086-3.64258,2.7959-.53369.14258-.8501.69141-.70703,1.22461l1.81152,6.76172ZM30.92773,28c.90039-1.55859,1.24414-3.33398.99951-5.08887l4.85156-1.2998c.57178,3.05762.04395,6.17871-1.52051,8.88867s-4.00391,4.72754-6.93799,5.76074l-1.29932-4.85156c1.6416-.66504,3.00684-1.85059,3.90674-3.40918Z"/>
  <path d="M37.43506,11.97919c.3905-.39056.3905-1.02368,0-1.41425-.39056-.3905-1.02374-.3905-1.41425,0-.3905.39056-.3905,1.02368,0,1.41425.3905.3905,1.02368.3905,1.41425,0Z"/>
</svg>