<?xml version="1.0" encoding="UTF-8"?>
<svg id="Outline" xmlns="http://www.w3.org/2000/svg" version="1.1" viewBox="0 0 48 48">
  <!-- Generator: Adobe Illustrator 29.0.0, SVG Export Plug-In . SVG Version: 2.1.0 Build 186)  -->
  <path d="M41.20703,39.79297c-1.17773-1.17969-3.23633-1.17969-4.41406,0-.4375.4375-1.14844.4375-1.58594,0-1.2168-1.2168-3.19727-1.2168-4.41406,0-.4375.4375-1.14844.4375-1.58594,0-1.2168-1.2168-3.19727-1.2168-4.41406,0-.4375.4375-1.14844.4375-1.58594,0-1.2168-1.2168-3.19727-1.2168-4.41406,0-.4375.4375-1.14844.4375-1.58594,0-1.2168-1.2168-3.19727-1.2168-4.41406,0-.4375.4375-1.14844.4375-1.58594,0-1.17773-1.17969-3.23633-1.17969-4.41406,0l-1.5,1.5c-.39062.39062-.39062,1.02344,0,1.41406s1.02344.39062,1.41406,0l1.5-1.5c.42383-.42383,1.16211-.42383,1.58594,0,1.2168,1.2168,3.19727,1.2168,4.41406,0,.42383-.42383,1.16211-.42383,1.58594,0,1.2168,1.2168,3.19727,1.2168,4.41406,0,.42383-.42383,1.16211-.42383,1.58594,0,1.2168,1.2168,3.19727,1.2168,4.41406,0,.42383-.42383,1.16211-.42383,1.58594,0,1.2168,1.2168,3.19727,1.2168,4.41406,0,.42383-.42383,1.16211-.42383,1.58594,0,1.2168,1.2168,3.19727,1.2168,4.41406,0,.42383-.42383,1.16211-.42383,1.58594,0l1.49999,1.49999c.35959.35959,1.03239.38169,1.41407,0,.39062-.39062.39062-1.02344,0-1.41406l-1.5-1.5Z"/>
  <path d="M6.70703,37.82812l1.5-1.5c.42383-.42383,1.16309-.42383,1.58496,0,1.17969,1.17969,3.2373,1.17969,4.41504,0,.42383-.42383,1.16309-.42383,1.58496,0,.91919.91919,2.36688,1.11224,3.5205.59906.08149-.02716.15217-.06769.22272-.11371.24152-.13214.47229-.28546.67181-.48535.42383-.42383,1.16309-.42383,1.58496,0,1.17969,1.17969,3.2373,1.17969,4.41504,0,.42383-.42383,1.16309-.42383,1.58496,0,.20007.20007.4314.35352.6734.48572.07043.04584.14087.08624.2221.11334,1.15455.51318,2.60187.32013,3.51954-.59906.42383-.42383,1.16309-.42383,1.58496,0,1.17969,1.17969,3.2373,1.17969,4.41504,0,.42383-.42383,1.16211-.42383,1.58594,0l1.49998,1.49998c.36707.36707,1.02658.38752,1.41408.00002.39062-.39062.39062-1.02344,0-1.41406l-1.5-1.5c-.34149-.34204-.76044-.57294-1.20703-.71661v-5.19745c0-.55273-.44727-1-1-1s-1,.44727-1,1v5.19751c-.44678.14374-.86603.37457-1.20801.71655-.42188.42383-1.16113.42383-1.58496,0-1.21484-1.21484-3.19434-1.2168-4.41504,0-.211.21198-.5014.31787-.79199.31781V15h8v6c0,.55273.44727,1,1,1s1-.44727,1-1v-13c0-1.6543-1.3457-3-3-3H11c-1.6543,0-3,1.3457-3,3v26.19751c-.44659.14368-.8656.37451-1.20703.71655l-1.5,1.5c-.39062.39062-.39062,1.02344,0,1.41406s1.02344.39062,1.41406,0ZM12.79199,34.91406c-.42188.42383-1.16113.42383-1.58496,0-.34143-.34204-.76044-.57288-1.20703-.71655V15h8v20.23187c-.29047-.00006-.58112-.10596-.79297-.31781-1.21582-1.21484-3.19531-1.2168-4.41504,0ZM28,34.17841c-1.08893-.36719-2.33954-.13074-3.20801.73566-.42188.42383-1.16113.42383-1.58496,0-.86603-.86536-2.11664-1.10333-3.20703-.73572V15h8v19.17841ZM11,7h26c.55176,0,1,.44824,1,1v5H10v-5c0-.55176.44824-1,1-1Z"/>
  <path d="M14,11h2c.55273,0,1-.44727,1-1s-.44727-1-1-1h-2c-.55273,0-1,.44727-1,1s.44727,1,1,1Z"/>
  <path d="M20,11h2c.55273,0,1-.44727,1-1s-.44727-1-1-1h-2c-.55273,0-1,.44727-1,1s.44727,1,1,1Z"/>
  <path d="M26,11h2c.55273,0,1-.44727,1-1s-.44727-1-1-1h-2c-.55273,0-1,.44727-1,1s.44727,1,1,1Z"/>
  <path d="M32,11h2c.55273,0,1-.44727,1-1s-.44727-1-1-1h-2c-.55273,0-1,.44727-1,1s.44727,1,1,1Z"/>
  <path d="M13,21c.55273,0,1-.44727,1-1v-2c0-.55273-.44727-1-1-1s-1,.44727-1,1v2c0,.55273.44727,1,1,1Z"/>
  <path d="M15,23c-.55273,0-1,.44727-1,1v2c0,.55273.44727,1,1,1s1-.44727,1-1v-2c0-.55273-.44727-1-1-1Z"/>
  <path d="M13,29c-.55273,0-1,.44727-1,1v2c0,.55273.44727,1,1,1s1-.44727,1-1v-2c0-.55273-.44727-1-1-1Z"/>
  <path d="M36,18c0-.55273-.44727-1-1-1s-1,.44727-1,1v2c0,.55273.44727,1,1,1s1-.44727,1-1v-2Z"/>
  <path d="M34,24c0-.55273-.44727-1-1-1s-1,.44727-1,1v2c0,.55273.44727,1,1,1s1-.44727,1-1v-2Z"/>
  <path d="M35,33c.55273,0,1-.44727,1-1v-2c0-.55273-.44727-1-1-1s-1,.44727-1,1v2c0,.55273.44727,1,1,1Z"/>
  <path d="M25,21c.55273,0,1-.44727,1-1v-2c0-.55273-.44727-1-1-1s-1,.44727-1,1v2c0,.55273.44727,1,1,1Z"/>
  <path d="M23,27c.55273,0,1-.44727,1-1v-2c0-.55273-.44727-1-1-1s-1,.44727-1,1v2c0,.55273.44727,1,1,1Z"/>
  <path d="M25,29c-.55273,0-1,.44727-1,1v2c0,.55273.44727,1,1,1s1-.44727,1-1v-2c0-.55273-.44727-1-1-1Z"/>
  <circle cx="39" cy="25" r="1"/>
</svg>