<?xml version="1.0" encoding="UTF-8"?>
<svg id="Outline" xmlns="http://www.w3.org/2000/svg" version="1.1" viewBox="0 0 48 48">
  <!-- Generator: Adobe Illustrator 29.0.0, SVG Export Plug-In . SVG Version: 2.1.0 Build 186)  -->
  <path d="M38.98999,27.96997c0-.08997-.01001-.19-.03998-.28998l-4-12c-.14001-.40002-.52002-.67999-.95001-.67999h-4.09003c-.47998-2.83002-2.94-5-5.90997-5s-5.42999,2.16998-5.90997,5h-4.09003c-.42999,0-.81.27997-.95001.67999l-4,12c-.02997.09998-.03998.20001-.03998.28998,0,.01001-.01001.02002-.01001.03003v4c0,.54999.45001,1,1,1h11v4h-5c-.54999,0-1,.45001-1,1v3h-3c-.54999,0-1,.45001-1,1s.45001,1,1,1h24c.54999,0,1-.45001,1-1s-.45001-1-1-1h-3v-3c0-.54999-.45001-1-1-1h-5v-4h1c.54999,0,1-.45001,1-1s-.45001-1-1-1H11v-2h26v2h-1c-.54999,0-1,.45001-1,1s.45001,1,1,1h2c.54999,0,1-.45001,1-1v-4c0-.01001-.01001-.02002-.01001-.03003ZM23,33h2v4h-2v-4ZM31,39v2h-14v-2h14ZM24,12c1.85999,0,3.40997,1.27997,3.85999,3h-7.71997c.45001-1.72003,2-3,3.85999-3ZM27.48999,19h-6.97998l.33997-2h6.30005l.33997,2ZM20.17999,21h7.64001l.33002,2h-8.30005l.33002-2ZM17.15002,27h-5.76001l.65997-2h5.44l-.33997,2ZM17.82001,23h-5.10004l.67004-2h4.76001l-.33002,2ZM18.48999,19h-4.44l.66998-2h4.10004l-.33002,2ZM19.17999,27l.33002-2h8.97998l.33002,2h-9.64001ZM29.17999,17h4.10004l.66998,2h-4.44l-.33002-2ZM29.84998,21h4.76001l.67004,2h-5.10004l-.33002-2ZM30.84998,27l-.33997-2h5.44l.65997,2h-5.76001Z"/>
  <path d="M24,8c.55225,0,1-.44775,1-1v-1c0-.55225-.44775-1-1-1s-1,.44775-1,1v1c0,.55225.44775,1,1,1Z"/>
  <path d="M16.9292,10.34326c.37221.37221,1.03148.38258,1.41406,0,.39062-.39062.39062-1.02344,0-1.41406l-.70752-.70752c-.39062-.39062-1.02344-.39062-1.41406,0s-.39062,1.02344,0,1.41406l.70752.70752Z"/>
  <path d="M30.36377,10.63623c.25586,0,.51172-.09766.70703-.29297l.70752-.70752c.39062-.39062.39062-1.02344,0-1.41406s-1.02344-.39062-1.41406,0c0,0-.70752.70752-.70753.70753-.60213.60215-.14897,1.70702.70704,1.70702Z"/>
  <circle cx="32" cy="32" r="1"/>
</svg>