<?xml version="1.0" encoding="UTF-8"?>
<svg id="Outline" xmlns="http://www.w3.org/2000/svg" version="1.1" viewBox="0 0 48 48">
  <!-- Generator: Adobe Illustrator 29.0.0, SVG Export Plug-In . SVG Version: 2.1.0 Build 186)  -->
  <path d="M19.81621,26.55469l2-3c.20459-.30664.22363-.70117.0498-1.02637-.17432-.3252-.51318-.52832-.88184-.52832h-2.13135l.96338-1.44531c.30615-.45947.18213-1.08057-.27734-1.38672-.45996-.30762-1.08057-.18262-1.38672.27734l-2,3c-.20459.30664-.22363.70117-.0498,1.02637.17432.3252.51318.52832.88184.52832h2.13135l-.96338,1.44531c-.30614.45946-.18214,1.08053.2773,1.38669.43644.29083,1.08095.18099,1.38676-.27732Z"/>
  <path d="M37.98418,23c-.54999,0-1,.45001-1,1v10c0,3.85999-3.14001,7-7,7h-3c-3.57001,0-6.53003-2.70001-6.94-6.16003,1.69-.46997,2.94-2,2.94-3.83997v-1.08002c2.39001-1.39001,4-3.96997,4-6.91998v-6.17999c.41998-.15002.79999-.38,1.10999-.69.57001-.56.89001-1.32001.89001-2.13,0-1.65002-1.34998-3-3-3v-3c0-1.65002-1.34998-3-3-3s-3,1.34998-3,3v3h-2v-3c0-1.65002-1.34998-3-3-3s-3,1.34998-3,3v3c-.80996,0-1.56993.31998-2.10991.86992-1.52365,1.55177-.93672,4.20897,1.10991,4.95009v6.17999c0,2.95001,1.60999,5.52997,4,6.91998v1.08002c0,1.87,1.29999,3.44,3.03998,3.87.44,4.56,4.29004,8.13,8.96002,8.13h3c4.96002,0,9-4.04004,9-9v-10c0-.54999-.45001-1-1-1ZM21.98418,8c0-.54999.45001-1,1-1s1,.45001,1,1v3h-2v-3ZM13.98418,8c0-.54999.45001-1,1-1s1,.45001,1,1v3h-2v-3ZM12.98418,23v-6h2c.54999,0,1-.45001,1-1s-.45001-1-1-1h-3c-.54985,0-.99978-.44979-1-.9996-.00021-.52992.47564-1.0004,1-1.0004h14c.54984,0,.99976.44977,1,.99956.00023.52434-.47959,1.00044-1,1.00044h-3c-.54999,0-1,.45001-1,1s.45001,1,1,1h2v6c0,3.31-2.69,6-6,6s-6-2.69-6-6ZM16.98418,31v-.26001c.64001.15997,1.31.26001,2,.26001s1.35999-.10004,2-.26001v.26001c0,1.09998-.90002,2-2,2s-2-.90002-2-2Z"/>
  <circle cx="18.98418" cy="16" r="1"/>
</svg>