<?xml version="1.0" encoding="UTF-8"?>
<svg id="Outline" xmlns="http://www.w3.org/2000/svg" version="1.1" viewBox="0 0 48 48">
  <!-- Generator: Adobe Illustrator 29.0.0, SVG Export Plug-In . SVG Version: 2.1.0 Build 186)  -->
  <path d="M15.5,23h14c.55273,0,1-.44775,1-1v-10c0-.55225-.44727-1-1-1h-14c-.55273,0-1,.44775-1,1v10c0,.55225.44727,1,1,1ZM16.5,13h12v8h-12v-8Z"/>
  <path d="M42.21002,11.28998l-2-2c-.39001-.39001-1.03003-.39001-1.42004,0-.38995.39001-.38995,1.03003,0,1.41998l1.71002,1.70001v1.77002c-.31-.10999-.65002-.17999-1-.17999-1.65002,0-3,1.34998-3,3s1.34998,3,3,3c.34998,0,.69-.07001,1-.17999v11.17999c0,.54999-.45001,1-1,1s-1-.45001-1-1v-1c0-1.65002-1.34998-3-3-3h-1V10c0-1.65002-1.34998-3-3-3H13.5c-1.65002,0-3,1.34998-3,3v7c0,.54999.45001,1,1,1s1-.45001,1-1v-7c0-.54999.45001-1,1-1h18c.54999,0,1,.45001,1,1v25h-2v-9c0-.54999-.45001-1-1-1h-14c-.54999,0-1,.45001-1,1v9h-2v-10c0-.54999-.45001-1-1-1s-1,.45001-1,1v10c-1.65002,0-3,1.34998-3,3v1h-1c-.54999,0-1,.45001-1,1s.45001,1,1,1h32c.54999,0,1-.45001,1-1s-.45001-1-1-1h-1v-1c0-1.65002-1.34998-3-3-3v-6h1c.54999,0,1,.45001,1,1v1c0,1.64996,1.34998,3,3,3s3-1.35004,3-3V12c0-.27002-.10999-.52002-.28998-.71002ZM16.5,27h12v8h-12v-8ZM35.5,38v1H9.5v-1c0-.54999.45001-1,1-1h24c.54999,0,1,.45001,1,1ZM39.5,18c-.54999,0-1-.45001-1-1s.45001-1,1-1,1,.45001,1,1-.45001,1-1,1Z"/>
  <path d="M20.5,29h-1c-.55273,0-1,.44775-1,1s.44727,1,1,1h1c.55273,0,1-.44775,1-1s-.44727-1-1-1Z"/>
  <path d="M25.5,29h-1c-.55273,0-1,.44775-1,1s.44727,1,1,1h1c.55273,0,1-.44775,1-1s-.44727-1-1-1Z"/>
  <circle cx="11.5" cy="21" r="1"/>
</svg>