<?xml version="1.0" encoding="UTF-8"?>
<svg id="Outlne" xmlns="http://www.w3.org/2000/svg" version="1.1" viewBox="0 0 64 64">
  <!-- Generator: Adobe Illustrator 29.5.1, SVG Export Plug-In . SVG Version: 2.1.0 Build 141)  -->
  <path d="M57.02,7.29c-.24-.23-.57-.34-.89-.27-1.45.26-14.24,2.68-17.5,5.93-3.5,3.51-3.5,9.21-.01,12.72-3.39,5.35-5.71,11.28-6.83,17.54-1.2-4.3-3.29-8.31-6.18-11.8,3.18-3.44,3.21-8.73,0-12.19-.37-.41-1.01-.43-1.41-.05-.41.37-.43,1-.05,1.41,2.45,2.64,2.47,6.65.13,9.32-.25-.27-.5-.54-.77-.8l-6.8-6.81c-.39-.39-1.03-.39-1.42,0-.39.39-.39,1.03,0,1.42l6.81,6.8c.23.23.44.47.66.7-2.71,1.72-6.35,1.41-8.71-.95-2.12-2.11-4.18-10.52-5.09-14.99,2.65.55,8.37,1.83,12.13,3.43.51.22,1.09-.02,1.31-.53.22-.51-.02-1.09-.53-1.31-5.21-2.22-13.64-3.78-14-3.84-.33-.06-.65.04-.89.27-.23.23-.33.57-.27.89.26,1.45,2.68,14.25,5.92,17.5,1.76,1.75,4.06,2.62,6.37,2.62,1.79,0,3.57-.53,5.1-1.58,4.47,5.42,6.9,12.16,6.9,19.28,0,.55.45,1,1,1s1-.45,1-1c0-.56.02-1.12.04-1.68.2-3.17,1.81-6.13,4.42-7.99l1.78-1.27c-.058.041,1.192.804,1.319.853,1.262.491,2.751.279,3.831-.523,1.46-1.09,3.7-6.01,4.14-6.98.14-.33.1-.72-.11-1.01-.22-.29-.57-.43-.93-.39-1.06.14-6.41.87-7.88,1.96-1.359,1.008-1.907,2.774-1.42,4.38l-1.89,1.35c-.93.66-1.74,1.45-2.45,2.32,1.1-5.73,3.25-11.17,6.35-16.1,1.45.91,3.11,1.37,4.77,1.37,2.33,0,4.67-.89,6.46-2.68.38-.4.35-1-.05-1.38-.39-.38-1.04-.35-1.43.03-2.34,2.34-5.95,2.66-8.65.98,1.63-2.36,3.47-4.6,5.55-6.68l3.86-3.85c.39-.39.39-1.03,0-1.42-.39-.39-1.03-.39-1.42,0l-3.85,3.86c-2.12,2.11-4.01,4.39-5.68,6.8-2.43-2.75-2.34-6.96.29-9.58,2.12-2.13,10.52-4.19,14.99-5.1-.53,2.57-1.75,8.02-3.28,11.77-.2.51.04,1.1.55,1.31.51.2,1.1-.04,1.31-.55,2.13-5.24,3.61-13.28,3.67-13.62.06-.32-.04-.65-.27-.89ZM40.02,37.89c.08-.53.36-.99.78-1.31h.01c.54-.41,2.8-.94,5.11-1.32-1.03,2.1-2.18,4.12-2.73,4.53-.42.32-.95.44-1.48.37-.53-.08-.99-.36-1.31-.78-.32-.43-.46-.96-.38-1.49Z"/>
  <path d="M28.832,50.446c-.186-.278-.498-.445-.832-.445h-1.586l-1.707-1.707c-.391-.391-1.023-.391-1.414,0l-3,3c-.305.305-.38.77-.188,1.154l2,4c.17.339.516.553.895.553h3c.155,0,.309-.036.447-.105l4-2c.257-.128.445-.36.52-.638.073-.277.024-.573-.135-.812l-2-3ZM25.764,55h-2.146l-1.401-2.803,1.783-1.783,1.293,1.293c.188.188.441.293.707.293h1.465l1.075,1.612-2.776,1.388Z"/>
  <path d="M41.118,54l.776-1.553c.247-.494.047-1.095-.447-1.342l-4-2c-.385-.192-.849-.118-1.154.188l-2,2c-.188.188-.293.441-.293.707v4c0,.553.447,1,1,1h6c.347,0,.668-.18.851-.475s.199-.663.044-.973l-.776-1.553ZM39.105,54.448l.276.553h-3.382v-2.586l1.197-1.197,2.461,1.23-.553,1.105c-.141.281-.141.613,0,.895Z"/>
  <path d="M47.555,51.832l3-2c.46-.307.584-.927.277-1.387l-2-3c-.186-.278-.498-.445-.832-.445h-1.838l-2.846-.948c-.429-.145-.898.018-1.148.394l-2,3c-.265.396-.212.925.125,1.262l3,3c.188.188.441.293.707.293h3c.197,0,.391-.059.555-.168ZM44.414,50l-2.127-2.127,1.121-1.683,2.275.758c.103.034.209.052.316.052h1.465l1.148,1.723-1.916,1.277h-2.283Z"/>
  <path d="M56,51h-4c-.155,0-.309.036-.447.105l-4,2c-.339.17-.553.516-.553.895v2c0,.553.447,1,1,1h6c.155,0,.309-.036.447-.105l2-1c.339-.17.553-.516.553-.895v-3c0-.553-.447-1-1-1ZM55,54.382l-1.236.618h-4.764v-.382l3.236-1.618h2.764v1.382Z"/>
  <path d="M21.832,46.446l-2-3c-.251-.376-.721-.538-1.148-.394l-2.846.948h-1.838c-.334,0-.646.167-.832.445l-2,3c-.307.46-.183,1.08.277,1.387l3,2c.164.109.357.168.555.168h3c.266,0,.52-.105.707-.293l3-3c.337-.337.39-.865.125-1.262ZM17.586,49h-2.283l-1.916-1.277,1.148-1.723h1.465c.107,0,.214-.018.316-.052l2.275-.758,1.121,1.683-2.127,2.127Z"/>
  <path d="M16.447,53.106l-4-2c-.139-.069-.292-.105-.447-.105h-4c-.553,0-1,.447-1,1v3c0,.379.214.725.553.895l2,1c.139.069.292.105.447.105h6c.553,0,1-.447,1-1v-2c0-.379-.214-.725-.553-.895ZM15,55h-4.764l-1.236-.618v-1.382h2.764l3.236,1.618v.382Z"/>
</svg>