<?xml version="1.0" encoding="UTF-8"?>
<svg id="Outlne" xmlns="http://www.w3.org/2000/svg" version="1.1" viewBox="0 0 64 64">
  <!-- Generator: Adobe Illustrator 29.5.1, SVG Export Plug-In . SVG Version: 2.1.0 Build 141)  -->
  <path d="M55.858,18.83l-2.73-2.13c1.08-2.57.52-5.63-1.5-7.65-1.32-1.32-3.08-2.05-4.95-2.05s-3.63.73-4.95,2.05c-.12.12-.19.26-.24.42l-3.96,3.87-2.16-2.17c-.39-.39-1.03-.39-1.42,0l-2.83,2.83c-1.95,1.95-1.95,5.12,0,7.07.02.01.04.02.06.03l4.2,5.75h-5.38c-.27,0-.52.11-.71.29-.19.19-.29.45-.29.71l.01,4c0,.55.45,1,1,1h9.75l.66.9c.51.71,1.31,1.16,2.19,1.24.09.01.18.01.27.01.8,0,1.57-.31,2.14-.87l4.38-4.28c.39-.39.4-1.02.01-1.41-.38-.4-1.02-.41-1.41-.02l-4.38,4.28c-.22.21-.53.32-.83.3-.31-.03-.57-.18-.75-.43l-8.87-12.13,9.53-9.35,11.92,9.31c.23.18.36.44.38.72.01.28-.09.55-.3.75l-3.82,3.74c-.4.38-.4,1.01-.02,1.41.39.39,1.02.4,1.42.02l3.82-3.74c.62-.6.94-1.44.9-2.29-.05-.85-.46-1.65-1.14-2.18ZM38.298,30.85h-7.3v-2h5.84l1.46,2ZM31.938,18.8c-.51-1.11-.32-2.47.6-3.39l2.12-2.12,1.41,1.42-4.13,4.09ZM51.458,15.39l-7.29-5.69c.75-.45,1.61-.7,2.51-.7,1.34,0,2.59.52,3.54,1.46,1.3,1.31,1.74,3.22,1.24,4.93Z"/>
  <path d="M56.34,52.06l-6.14-2.23c-1.266-.461-2.563-.762-3.869-.904.308-1.415.838-2.778,1.551-4.041.741.542,1.566.819,2.421.819,1.174,0,2.401-.512,3.531-1.534,2.246-2.036,3.067-7.293,3.153-7.886.04-.274-.035-.552-.208-.768-.172-.216-.427-.352-.702-.374-.673-.054-6.655-.463-8.954,1.62h0c-2.013,1.824-1.906,4.573-.654,6.577-.593.962-1.08,1.984-1.466,3.043-.385-1.066-.872-2.088-1.469-3.052,1.247-2.003,1.351-4.746-.659-6.568h0c-2.299-2.083-8.282-1.674-8.954-1.62-.275.022-.53.157-.702.374-.173.216-.248.494-.208.768.086.593.907,5.851,3.154,7.886,1.129,1.023,2.356,1.534,3.53,1.534.858,0,1.685-.278,2.428-.824.7,1.238,1.221,2.571,1.532,3.978-1.307.076-2.61.31-3.89.705l-3.338,1.029c-2.888.885-5.927.849-8.789-.102l-2.452-.82c-1.562-.52-3.198-.786-4.839-.82.311-1.404.832-2.735,1.53-3.97.742.546,1.57.824,2.428.824,1.174,0,2.401-.512,3.531-1.534,2.246-2.036,3.067-7.293,3.153-7.886.04-.274-.035-.552-.208-.768-.172-.216-.427-.352-.702-.374-.673-.054-6.654-.463-8.954,1.62h0c-2.01,1.822-1.906,4.565-.659,6.568-.596.963-1.084,1.985-1.469,3.052-.386-1.059-.873-2.081-1.466-3.043,1.252-2.003,1.359-4.753-.654-6.577h0c-2.3-2.083-8.281-1.674-8.954-1.62-.275.022-.53.157-.702.374-.173.216-.248.494-.208.768.086.593.907,5.851,3.154,7.886,1.129,1.023,2.356,1.534,3.53,1.534.855,0,1.68-.277,2.421-.819.726,1.288,1.26,2.68,1.566,4.124-.972.137-1.934.352-2.868.662l-7.13,2.38c-.408.136-.684.519-.684.949v3c0,.552.447,1,1,1h36c.553,0,1-.448,1-1s-.447-1-1-1H8.998v-1.28l6.445-2.151c2.936-.975,6.172-.977,9.107,0l2.452.821c3.261,1.083,6.721,1.124,10.01.116l3.34-1.03c1.473-.454,2.982-.664,4.488-.637.002,0,.004.001.006.001.007,0,.015-.001.022-.002,1.568.031,3.132.32,4.648.872l5.481,1.991v1.299h-7c-.553,0-1,.448-1,1s.447,1,1,1h8c.553,0,1-.448,1-1v-3c0-.42-.264-.796-.658-.94ZM22.465,38.245c1.065-.965,4.093-1.215,6.349-1.163-.369,1.778-1.15,4.543-2.322,5.605-1.268,1.148-2.497,1.321-3.512.521.386-.505.798-.993,1.254-1.45l1.47-1.46c.392-.389.394-1.022.004-1.414-.39-.393-1.022-.395-1.414-.005l-1.474,1.464c-.367.368-.708.755-1.036,1.15-.382-1.031-.383-2.285.682-3.25ZM11.506,42.688c-1.17-1.06-1.953-3.827-2.322-5.605,2.252-.051,5.282.197,6.348,1.163,1.066.966,1.064,2.221.68,3.253-.329-.4-.672-.79-1.038-1.158l-1.47-1.46c-.392-.389-1.024-.387-1.414.005s-.388,1.025.004,1.414l1.466,1.456c.454.456.867.947,1.255,1.457-1.014.797-2.242.623-3.508-.524ZM48.465,38.245c1.065-.965,4.093-1.215,6.349-1.163-.369,1.778-1.15,4.543-2.322,5.605-1.266,1.147-2.495,1.321-3.509.524.387-.508.799-.999,1.251-1.453l1.47-1.46c.392-.389.394-1.022.004-1.414-.39-.393-1.022-.395-1.414-.005l-1.474,1.464c-.365.367-.707.755-1.035,1.154-.384-1.032-.386-2.287.68-3.253ZM37.506,42.688c-1.17-1.06-1.953-3.827-2.322-5.605,2.252-.051,5.282.197,6.348,1.163,1.065.965,1.063,2.219.681,3.25-.329-.397-.671-.785-1.04-1.155l-1.47-1.46c-.392-.389-1.024-.387-1.414.005s-.388,1.025.004,1.414l1.466,1.456c.457.459.87.948,1.258,1.454-1.014.799-2.244.627-3.51-.522Z"/>
</svg>