<?xml version="1.0" encoding="UTF-8"?>
<svg id="Outlne" xmlns="http://www.w3.org/2000/svg" version="1.1" viewBox="0 0 64 64">
  <!-- Generator: Adobe Illustrator 29.5.1, SVG Export Plug-In . SVG Version: 2.1.0 Build 141)  -->
  <path d="M35,44h-1.5l-2.1-2.8c-.56-.75-1.46-1.2-2.4-1.2h-2v-6c0-.55-.45-1-1-1s-1,.45-1,1v6h-4v-17h4v7c0,.55.45,1,1,1s1-.45,1-1v-7.18c1.16-.42,2-1.52,2-2.82v-10c0-1.65-1.35-3-3-3h-6c-1.65,0-3,1.35-3,3v10c0,1.3.84,2.4,2,2.82v17.18h-2c-.94,0-1.84.45-2.4,1.2l-2.1,2.8h-1.5c-2.21,0-4,1.79-4,4,0,1.86,1.28,3.41,3,3.86v4.14c0,.55.45,1,1,1s1-.45,1-1v-4h2v4c0,.55.45,1,1,1s1-.45,1-1v-4h2v4c0,.55.45,1,1,1s1-.45,1-1v-4h2v4c0,.55.45,1,1,1s1-.45,1-1v-4h2v4c0,.55.45,1,1,1s1-.45,1-1v-4h2v4c0,.55.45,1,1,1s1-.45,1-1v-4h2v4c0,.55.45,1,1,1s1-.45,1-1v-4.14c1.72-.45,3-2,3-3.86,0-2.21-1.79-4-4-4ZM19,10c0-.55.45-1,1-1h6c.55,0,1,.45,1,1v10c0,.55-.45,1-1,1h-6c-.55,0-1-.45-1-1v-10ZM35,50H11c-1.1,0-2-.9-2-2s.9-2,2-2h2c.31,0,.61-.15.8-.4l2.4-3.2c.19-.25.49-.4.8-.4h12c.31,0,.61.15.8.4l2.4,3.2c.19.25.49.4.8.4h2c1.1,0,2,.9,2,2s-.9,2-2,2Z"/>
  <path d="M47.406,7.086c-.259-.115-.554-.115-.812,0-5.828,2.59-9.594,8.385-9.594,14.762v2.151c0,.552.448,1,1,1h5v10.382l-3.447,1.724c-.339.169-.553.516-.553.895v6c0,.552.448,1,1,1h5c.552,0,1-.448,1-1s-.448-1-1-1h-4v-4.382l3.236-1.618h5.528l3.236,1.618v4.382h-4c-.552,0-1,.448-1,1s.448,1,1,1h5c.552,0,1-.448,1-1v-6c0-.379-.214-.725-.553-.895l-3.447-1.724v-10.382h5c.552,0,1-.448,1-1v-2.151c0-6.377-3.766-12.172-9.594-14.762ZM45,35v-14c0-1.103.897-2,2-2s2,.897,2,2v14h-4ZM55,23h-4v-2c0-2.206-1.794-4-4-4s-4,1.794-4,4v2h-4v-1.151c0-5.438,3.125-10.393,8-12.747,4.875,2.354,8,7.309,8,12.747v1.151Z"/>
</svg>