<?xml version="1.0" encoding="UTF-8"?>
<svg id="Outlne" xmlns="http://www.w3.org/2000/svg" version="1.1" viewBox="0 0 64 64">
  <!-- Generator: Adobe Illustrator 29.5.1, SVG Export Plug-In . SVG Version: 2.1.0 Build 141)  -->
  <path d="M46,45h-6c-2.1,0-4.12-.75-5.72-2.06.41-.12.72-.49.72-.94v-19h1c.55,0,1-.45,1-1v-5c0-.55-.45-1-1-1s-1,.45-1,1v4h-6v-9c0-1.65,1.35-3,3-3s3,1.35,3,3v1c0,.55.45,1,1,1s1-.45,1-1v-1c0-2.76-2.24-5-5-5s-5,2.24-5,5v10c0,.55.45,1,1,1h1v8c0,.55.45,1,1,1s1-.45,1-1v-8h2v18h-2v-6c0-.55-.45-1-1-1s-1,.45-1,1v7c0,.45.31.82.72.94-1.6,1.31-3.62,2.06-5.72,2.06h-6c-2.76,0-5,2.24-5,5v6c0,.55.45,1,1,1s1-.45,1-1v-3h4v3c0,.55.45,1,1,1s1-.45,1-1v-3h4v3c0,.55.45,1,1,1s1-.45,1-1v-3h4v3c0,.55.45,1,1,1s1-.45,1-1v-3h4v3c0,.55.45,1,1,1s1-.45,1-1v-3h4v3c0,.55.45,1,1,1s1-.45,1-1v-3h4v3c0,.55.45,1,1,1s1-.45,1-1v-6c0-2.76-2.24-5-5-5ZM49,51H15v-1c0-1.65,1.35-3,3-3h6c3.03,0,5.94-1.27,8-3.45,2.06,2.18,4.97,3.45,8,3.45h6c1.65,0,3,1.35,3,3v1Z"/>
</svg>