<?xml version="1.0" encoding="UTF-8"?>
<svg id="Outlne" xmlns="http://www.w3.org/2000/svg" version="1.1" viewBox="0 0 64 64">
  <!-- Generator: Adobe Illustrator 29.5.1, SVG Export Plug-In . SVG Version: 2.1.0 Build 141)  -->
  <path d="M54.645,21.426c1.345-.296,2.355-1.494,2.355-2.926,0-1.634-1.366-3-3-3H14.38l-1.404-6.22c-.104-.456-.508-.78-.976-.78h-4c-.553,0-1,.447-1,1s.447,1,1,1h3.2l2.984,13.22c.105.465.518.78.975.78.073,0,.147-.008.221-.024.539-.122.877-.657.756-1.195l-.402-1.78h23.266c.553,0,1-.447,1-1s-.447-1-1-1H15.282l-.451-2h39.169c.266,0,.513.102.713.306.606.62.151,1.694-.713,1.694h-11c-.553,0-1,.447-1,1s.447,1,1,1h9.351l-10.914,20.918-21.615-2.82-.475-2.099h17.653c2.206,0,4-1.794,4-4s-1.794-4-4-4h-19.463l-.502-2.221c-.122-.538-.657-.876-1.196-.755-.539.122-.877.657-.755,1.196l2.94,13c.093.409.431.717.847.771l.129.017v10.992c0,1.274.774,2.379,1.972,2.815,1.153.42,2.521.077,3.334-.893.046-.055.086-.113.119-.177l5.927-11.257,11.27,1.47,1.164.832c-.499.962-.786,2.052-.786,3.209,0,3.859,3.141,7,7,7s7-3.141,7-7-3.141-7-7-7c-1.984,0-3.774.834-5.049,2.165l-.662-.473,11.356-21.766ZM49,43.5c2.757,0,5,2.243,5,5s-2.243,5-5,5-5-2.243-5-5c0-.723.161-1.406.438-2.027l1.689,1.208c-.075.262-.128.533-.128.819,0,1.654,1.346,3,3,3s3-1.346,3-3-1.346-3-3-3c-.64,0-1.23.205-1.718.547l-1.675-1.198c.893-.831,2.08-1.35,3.393-1.35ZM49,47.5c.552,0,1,.448,1,1s-.448,1-1,1-1-.448-1-1,.448-1,1-1ZM37,31.5c1.103,0,2,.897,2,2s-.897,2-2,2h-18.106l-.905-4h19.01ZM22.713,53.205c-.411.421-.91.285-1.057.23-.154-.056-.656-.289-.656-.936v-10.731l7.237.944-5.524,10.492Z"/>
</svg>