<?xml version="1.0" encoding="UTF-8"?>
<svg id="Outlne" xmlns="http://www.w3.org/2000/svg" version="1.1" viewBox="0 0 64 64">
  <!-- Generator: Adobe Illustrator 29.5.1, SVG Export Plug-In . SVG Version: 2.1.0 Build 141)  -->
  <path d="M51.475,23.99c.49.25,1.09.06,1.35-.43,2.55-4.93,4.4-14.96,4.47-15.38.06-.32-.04-.66-.27-.89-.24-.23-.57-.34-.89-.27-1.45.26-14.24,2.68-17.5,5.93-3.5,3.51-3.5,9.21-.01,12.72-3.39,5.35-5.71,11.28-6.83,17.54-1.21-4.3-3.29-8.31-6.18-11.8,1.54-1.67,2.39-3.82,2.39-6.1,0-2.4-.94-4.66-2.64-6.36-3.25-3.25-16.04-5.67-17.49-5.93-.33-.07-.66.04-.89.27-.23.24-.34.57-.28.89.27,1.45,2.68,14.25,5.94,17.5,1.75,1.75,4.06,2.63,6.36,2.63,1.79,0,3.57-.54,5.1-1.59,4.3,5.21,6.7,11.65,6.88,18.46-1.13-.1-2.25-.32-3.34-.69l-2.45-.82c-3.35-1.11-7.03-1.11-10.38,0l-7.13,2.38c-.4.14-.68.52-.68.95v3c0,.55.45,1,1,1h36c.55,0,1-.45,1-1s-.45-1-1-1H9.005v-1.28l6.45-2.15c2.93-.98,6.17-.98,9.1,0l2.45.82c3.27,1.08,6.73,1.12,10.01.12l3.34-1.03c3.02-.93,6.19-.85,9.17.23l5.48,1.99v1.3h-7c-.55,0-1,.45-1,1s.45,1,1,1h8c.55,0,1-.45,1-1v-3c0-.42-.26-.8-.66-.94l-6.14-2.23c-3.39-1.23-7-1.33-10.44-.27l-3.33,1.03c-1.12.35-2.26.55-3.41.61,0-.29.01-.58.02-.88.2-3.17,1.81-6.13,4.42-7.99l1.78-1.27c-.044.032,1.058.743,1.169.792,1.297.569,2.848.38,3.981-.462,1.46-1.09,3.7-6.01,4.14-6.98.14-.33.1-.72-.11-1.01-.22-.29-.57-.43-.93-.39-1.06.14-6.41.87-7.88,1.96-.86.64-1.41,1.58-1.57,2.63-.09.6-.02,1.19.15,1.75l-1.89,1.35c-.93.66-1.74,1.45-2.45,2.32,1.1-5.73,3.25-11.17,6.35-16.1,1.45.92,3.11,1.4,4.79,1.4,1.65,0,3.31-.46,4.79-1.39.47-.3.61-.92.32-1.38-.3-.47-.92-.61-1.38-.32-2.28,1.44-5.18,1.37-7.41,0,1.63-2.36,3.47-4.6,5.54-6.67l3.86-3.85c.39-.39.39-1.03,0-1.42-.39-.39-1.03-.39-1.42,0l-3.85,3.86c-2.12,2.11-4.01,4.39-5.68,6.8-2.43-2.75-2.34-6.96.29-9.58,2.12-2.13,10.52-4.19,14.99-5.1-.61,2.96-2.14,9.77-4,13.37-.25.49-.06,1.09.43,1.35ZM23.515,29.1l-6.8-6.81c-.39-.39-1.03-.39-1.42,0-.39.39-.39,1.03,0,1.42l6.81,6.8c.23.23.44.47.66.7-2.7,1.73-6.35,1.42-8.71-.95-2.12-2.12-4.19-10.52-5.1-15,4.47.92,12.88,2.98,15,5.1,2.61,2.62,2.72,6.79.33,9.54-.25-.27-.5-.54-.77-.8ZM40.025,37.89c.08-.53.36-.99.78-1.31h.01c.54-.41,2.8-.94,5.11-1.32-1.03,2.1-2.18,4.12-2.73,4.53-.42.32-.95.44-1.48.37-.53-.08-.99-.36-1.31-.78-.32-.43-.46-.96-.38-1.49Z"/>
</svg>