<?xml version="1.0" encoding="UTF-8"?>
<svg id="Outlne" xmlns="http://www.w3.org/2000/svg" version="1.1" viewBox="0 0 64 64">
  <!-- Generator: Adobe Illustrator 29.5.1, SVG Export Plug-In . SVG Version: 2.1.0 Build 141)  -->
  <path d="M51.013,15.201c-.061-.259-.22-.483-.445-.624l-11.88-7.41c-.469-.291-1.083-.15-1.377.317l-2.006,3.2c-.455.746-.696,1.59-.696,2.441s.239,1.69.69,2.417c.52.838.516,1.891-.01,2.743l-13.122,21.01-4.239-2.648c-.469-.292-1.085-.15-1.378.317l-1.142,1.822c-3.376,5.411-3.25,12.323.32,17.609.159.235.41.392.69.431.752.105,1.507.158,2.259.158,2.317,0,4.61-.497,6.735-1.469.502-.229.723-.823.493-1.325-.23-.502-.822-.726-1.325-.493-2.331,1.066-4.897,1.477-7.439,1.204-2.889-4.581-2.916-10.441-.037-15.054l.61-.974,3.392,2.12-1.058,1.694c-1.152,1.844-.574,4.364,1.276,5.506,1.848,1.14,4.358.566,5.511-1.267l1.061-1.7,3.393,2.119-.612.984c-.74,1.194-1.646,2.253-2.691,3.147-.419.359-.469.99-.109,1.41.339.396.986.472,1.41.109,1.201-1.028,2.241-2.244,3.089-3.611l1.14-1.83c.292-.469.149-1.084-.318-1.377l-4.241-2.649,3.379-5.413c.292-.469.149-1.085-.319-1.378-.468-.293-1.085-.15-1.378.318,0,0-3.905,6.256-3.911,6.265l-1.587,2.542c-.571.914-1.851,1.202-2.758.632-.911-.573-1.207-1.838-.637-2.749,0,0,1.581-2.532,1.593-2.55l13.649-21.856c.928-1.506.931-3.365.009-4.852-.255-.41-.39-.881-.39-1.362,0-.483.14-.967.397-1.389l1.47-2.345,10.184,6.353-1.471,2.354c-.515.829-1.463,1.305-2.466,1.212-1.72-.161-3.432.678-4.343,2.146l-7.61,12.2c-.292.469-.149,1.085.319,1.378.47.292,1.086.149,1.378-.319l7.611-12.202c.515-.83,1.479-1.309,2.465-1.212,1.728.16,3.433-.679,4.343-2.146l2-3.2c.141-.225.187-.497.127-.755Z"/>
</svg>