<?xml version="1.0" encoding="UTF-8"?>
<svg id="Outlne" xmlns="http://www.w3.org/2000/svg" version="1.1" viewBox="0 0 64 64">
  <!-- Generator: Adobe Illustrator 29.5.1, SVG Export Plug-In . SVG Version: 2.1.0 Build 141)  -->
  <path d="M55.818,50.182c-.728-.728-1.728-1.182-2.818-1.182h-4.56c.35-.59.56-1.27.56-2,0-1.07-.42-2.07-1.17-2.83-.76-.75-1.76-1.17-2.83-1.17h-4.56c.35-.59.56-1.27.56-2,0-1.07-.42-2.07-1.17-2.83-.53-.52-1.17-.87-1.87-1.04-.46-7.31-6.53-13.13-13.96-13.13h-5c-2.21,0-4-1.79-4-4s1.79-4,4-4h12c0,.55.45,1,1,1h4c.55,0,1-.45,1-1v-.12l7.12-.89c.5-.06.88-.49.88-.99v-4c0-.5-.38-.93-.88-.99l-7.12-.89v-.12c0-.55-.45-1-1-1h-4c-.55,0-1,.45-1,1h-12c-6.62,0-12,5.38-12,12s5.38,12,12,12h5c2.97,0,5.43,2.17,5.91,5h-9.91c-.55,0-1,.45-1,1s.45,1,1,1h17c1.082,0,2,.92,2,2,0,1.1-.9,2-2,2H11c-.53,0-1.03-.21-1.41-.59-.38-.38-.59-.88-.59-1.41,0-1.1.9-2,2-2h5c.55,0,1-.45,1-1s-.45-1-1-1h-5c-2.21,0-4,1.79-4,4,0,1.07.42,2.07,1.17,2.83.07.06.14.11.21.17-.84.73-1.38,1.8-1.38,3,0,1.07.42,2.07,1.17,2.83.07.06.14.11.21.17-.84.73-1.38,1.8-1.38,3,0,1.07.42,2.07,1.17,2.83.76.75,1.76,1.17,2.83,1.17h42c2.21,0,4-1.79,4-4,0-1.091-.455-2.091-1.182-2.818ZM37,10.13l6,.75v2.24l-6,.75v-3.74ZM33,9h2v6h-2v-6ZM31.94,37c-.5-3.94-3.87-7-7.94-7h-5c-5.51,0-10-4.49-10-10s4.49-10,10-10h12v4h-12c-3.31,0-6,2.69-6,6s2.69,6,6,6h5c6.28,0,11.45,4.85,11.96,11h-4.02ZM53,55H11c-.53,0-1.03-.21-1.41-.59-.38-.38-.59-.88-.59-1.41,0-1.1.9-2,2-2h21c.55,0,1-.45,1-1s-.45-1-1-1H11c-.53,0-1.03-.21-1.41-.59-.38-.38-.59-.88-.59-1.41,0-1.1.9-2,2-2h34c1.078,0,2,.926,2,2,0,1.1-.9,2-2,2h-9c-.55,0-1,.45-1,1s.45,1,1,1h17c1.067,0,2,.939,2,2,0,1.1-.9,2-2,2Z"/>
  <path d="M47,32c1.654,0,3-1.346,3-3,0-1.278-1.522-3.62-2.177-4.568-.375-.541-1.271-.541-1.646,0-.654.948-2.177,3.29-2.177,4.568,0,1.654,1.346,3,3,3ZM47,26.854c.575.971.991,1.841,1,2.147,0,.551-.449.999-1,.999s-1-.448-1-.999c.008-.306.424-1.177,1-2.147Z"/>
  <path d="M54,30c1.654,0,3-1.346,3-3,0-1.278-1.522-3.62-2.177-4.568-.375-.541-1.271-.541-1.646,0-.654.948-2.177,3.29-2.177,4.568,0,1.654,1.346,3,3,3ZM54,24.854c.575.971.991,1.841,1,2.147,0,.551-.449.999-1,.999s-1-.448-1-.999c.008-.306.424-1.177,1-2.147Z"/>
  <path d="M42.823,17.432c-.375-.541-1.271-.541-1.646,0-.654.948-2.177,3.29-2.177,4.568,0,1.654,1.346,3,3,3s3-1.346,3-3c0-1.278-1.522-3.62-2.177-4.568ZM42,23c-.552,0-1-.448-1-.999.008-.306.424-1.177,1-2.147.575.971.991,1.841,1,2.147,0,.551-.449.999-1,.999Z"/>
</svg>