<?xml version="1.0" encoding="UTF-8"?>
<svg id="Outlne" xmlns="http://www.w3.org/2000/svg" version="1.1" viewBox="0 0 64 64">
  <!-- Generator: Adobe Illustrator 29.5.1, SVG Export Plug-In . SVG Version: 2.1.0 Build 141)  -->
  <path d="M56,7h-8c-.55,0-1,.45-1,1s.45,1,1,1h7v2H9v-2h35c.55,0,1-.45,1-1s-.45-1-1-1H8c-.55,0-1,.45-1,1v4c0,.55.45,1,1,1h3v3c0,.55.45,1,1,1h7v7c0,2.19,1.05,4.28,2.8,5.6l4.2,3.15v6.25h-1c-1.65,0-3,1.35-3,3s1.35,3,3,3h14c1.65,0,3-1.35,3-3s-1.35-3-3-3h-1v-1c0-.55-.45-1-1-1s-1,.45-1,1v1h-8v-8c0-.55.45-1,1-1h6c.55,0,1,.45,1,1v3c0,.55.45,1,1,1s1-.45,1-1v-1.25l4.2-3.15c1.75-1.32,2.8-3.41,2.8-5.6v-7h7c.55,0,1-.45,1-1v-3h3c.55,0,1-.45,1-1v-4c0-.55-.45-1-1-1ZM23,28c-1.25-.94-2-2.44-2-4v-7h2v7c0,.93.45,1.83,1.2,2.4l2.98,2.23c-.54.42-.93,1-1.09,1.68l-3.09-2.31ZM39,41c.55,0,1,.45,1,1s-.45,1-1,1h-14c-.55,0-1-.45-1-1s.45-1,1-1h14ZM31,28h-1.34l-4.26-3.2c-.25-.19-.4-.49-.4-.8v-7h4v3c0,1.3.84,2.4,2,2.82v5.18ZM32,21c-.55,0-1-.45-1-1v-3h2v3c0,.55-.45,1-1,1ZM34.34,28h-1.34v-5.18c1.16-.42,2-1.52,2-2.82v-3h4v7c0,.31-.15.61-.4.8l-4.26,3.2ZM43,24c0,1.56-.75,3.06-2,4l-3.09,2.31c-.16-.68-.55-1.26-1.09-1.68l2.99-2.23c.74-.57,1.19-1.47,1.19-2.4v-7h2v7ZM51,15H13v-2h38v2Z"/>
  <circle cx="32" cy="48" r="1"/>
  <circle cx="32" cy="52" r="1"/>
  <circle cx="32" cy="56" r="1"/>
  <path d="M35.5,47.206c-.478.276-.642.888-.366,1.366.276.478.888.642,1.366.366.478-.276.642-.888.366-1.366-.276-.478-.888-.642-1.366-.366Z"/>
  <path d="M37.5,50.67c-.478.276-.642.888-.366,1.366.276.478.888.642,1.366.366.478-.276.642-.888.366-1.366-.276-.478-.888-.642-1.366-.366Z"/>
  <path d="M39.5,54.134c-.478.276-.642.888-.366,1.366.276.478.888.642,1.366.366.478-.276.642-.888.366-1.366-.276-.478-.888-.642-1.366-.366Z"/>
  <path d="M28.426,47.206c-.478-.276-1.09-.112-1.366.366-.276.478-.112,1.09.366,1.366.478.276,1.09.112,1.366-.366.276-.478.112-1.09-.366-1.366Z"/>
  <path d="M26.426,50.67c-.478-.276-1.09-.112-1.366.366-.276.478-.112,1.09.366,1.366s1.09.112,1.366-.366c.276-.478.112-1.09-.366-1.366Z"/>
  <path d="M24.426,54.134c-.478-.276-1.09-.112-1.366.366s-.112,1.09.366,1.366,1.09.112,1.366-.366.112-1.09-.366-1.366Z"/>
</svg>