<?xml version="1.0" encoding="UTF-8"?>
<svg id="Outlne" xmlns="http://www.w3.org/2000/svg" version="1.1" viewBox="0 0 64 64">
  <!-- Generator: Adobe Illustrator 29.5.1, SVG Export Plug-In . SVG Version: 2.1.0 Build 141)  -->
  <path d="M56,41c.55,0,1-.45,1-1v-6c0-.55-.45-1-1-1h-2v-3c0-.22-.07-.43-.2-.6l-3-4c-.38-.5-1.22-.5-1.6,0l-.2.27v-1.23c2-.87,3-2.76,3-5.77,0-4.76-2.34-11.67-6-11.67s-6,6.91-6,11.67c0,3.01,1,4.9,3,5.77v8.56h-1v-3c0-.22-.07-.43-.2-.6l-3-4c-.38-.5-1.22-.5-1.6,0l-3,4c-.13.17-.2.38-.2.6v3h-4v-3c0-.22-.07-.43-.2-.6l-3-4c-.38-.5-1.22-.5-1.6,0l-3,4c-.13.17-.2.38-.2.6v3h-4v-3c0-.22-.07-.43-.2-.6l-3-4c-.38-.5-1.22-.5-1.6,0l-3,4c-.13.17-.2.38-.2.6v3h-2c-.55,0-1,.45-1,1v6c0,.55.45,1,1,1h2v2h-2c-.55,0-1,.45-1,1v8c0,.55.45,1,1,1h2v3c0,.55.45,1,1,1h6c.55,0,1-.45,1-1v-3h4v3c0,.55.45,1,1,1h6c.55,0,1-.45,1-1v-3h4v3c0,.55.45,1,1,1h6c.55,0,1-.45,1-1v-3h4v3c0,.55.45,1,1,1h6c.55,0,1-.45,1-1v-3h2c.55,0,1-.45,1-1v-8c0-.55-.45-1-1-1h-2v-2h2ZM50,27.67l2,2.66v2.67h-4v-2.67l2-2.66ZM42,18.67c0-4.34,2.21-9.67,4-9.67s4,5.33,4,9.67c0,3.61-1.53,4.33-4,4.33s-4-.72-4-4.33ZM47,24.93v3.4l-.8,1.07c-.13.17-.2.38-.2.6v3h-1v-8.07c.32.03.64.07,1,.07s.68-.04,1-.07ZM36,30.33l2-2.66,2,2.66v2.67h-4v-2.67ZM24,30.33l2-2.66,2,2.66v2.67h-4v-2.67ZM12,30.33l2-2.66,2,2.66v2.67h-4v-2.67ZM16,55h-4v-2h4v2ZM28,55h-4v-2h4v2ZM40,55h-4v-2h4v2ZM52,55h-4v-2h4v2ZM55,45v6H9v-6h9c.55,0,1-.45,1-1s-.45-1-1-1v-2h4v2c-.55,0-1,.45-1,1s.45,1,1,1h33ZM12,43v-2h4v2h-4ZM24,43v-2h4v2h-4ZM30,43v-2h4v2h-4ZM36,43v-2h4v2h-4ZM48,43v-2h4v2h-4ZM46,39c-.55,0-1,.45-1,1s.45,1,1,1v2h-4v-2c.55,0,1-.45,1-1s-.45-1-1-1H9v-4h46v4h-9Z"/>
  <circle cx="14" cy="48" r="1"/>
  <circle cx="26" cy="48" r="1"/>
  <circle cx="38" cy="48" r="1"/>
  <circle cx="50" cy="48" r="1"/>
</svg>