<?xml version="1.0" encoding="UTF-8"?>
<svg id="Outlne" xmlns="http://www.w3.org/2000/svg" version="1.1" viewBox="0 0 64 64">
  <!-- Generator: Adobe Illustrator 29.5.1, SVG Export Plug-In . SVG Version: 2.1.0 Build 141)  -->
  <circle cx="46" cy="52" r="1"/>
  <path d="M50,37v-1c0-.27-.11-.52-.29-.71l-4-4c-.19-.18-.44-.29-.71-.29h-1v-2h1c.55,0,1-.45,1-1v-8c0-.55-.45-1-1-1h-22c-.55,0-1,.45-1,1v8c0,.55.45,1,1,1h1v2h-1c-.55,0-1,.45-1,1v5h-.99l-8.01-19.59v-9.41c0-.55-.45-1-1-1h-4c-.55,0-1,.45-1,1v10.39c0,.13.03.26.07.38l8.74,21.36-.44.89c-.12-.01-.24-.02-.37-.02-4.41,0-8,3.59-8,8s3.59,8,8,8c3.72,0,6.85-2.56,7.74-6h18.36c-.06.32-.1.66-.1,1,0,2.76,2.24,5,5,5s5-2.24,5-5c0-.34-.04-.68-.1-1h5.1c.55,0,1-.45,1-1v-6c0-3.86-3.14-7-7-7ZM24,21h20v6h-13c-.55,0-1,.45-1,1s.45,1,1,1h11v2h-16v-2h1c.55,0,1-.45,1-1s-.45-1-1-1h-3v-6ZM9,18.19v-9.19h2v8.61c0,.13.03.26.07.38l7.78,19.01h-.85c-.38,0-.72.21-.89.55l-.11.21-8-19.57ZM15,55c-3.31,0-6-2.69-6-6s2.69-6,6-6,6,2.69,6,6-2.69,6-6,6ZM46,55c-1.65,0-3-1.35-3-3s1.35-3,3-3,3,1.35,3,3-1.35,3-3,3ZM55,49h-5.03c-.91-1.21-2.34-2-3.97-2s-3.06.79-3.97,2h-19.03c0-3.56-2.34-6.59-5.57-7.62l1.19-2.38h21.38c.55,0,1-.45,1-1s-.45-1-1-1h-16v-4h20.59l3.41,3.41v.59h-4c-.55,0-1,.45-1,1s.45,1,1,1h6c2.76,0,5,2.24,5,5v5Z"/>
  <path d="M15,45c-2.206,0-4,1.794-4,4s1.794,4,4,4,4-1.794,4-4-1.794-4-4-4ZM15,51c-1.103,0-2-.897-2-2s.897-2,2-2,2,.897,2,2-.897,2-2,2Z"/>
  <path d="M25,41c-.553,0-1,.448-1,1v4c0,.552.447,1,1,1s1-.448,1-1v-4c0-.552-.447-1-1-1Z"/>
  <path d="M29,41c-.553,0-1,.448-1,1v4c0,.552.447,1,1,1s1-.448,1-1v-4c0-.552-.447-1-1-1Z"/>
  <path d="M33,41c-.553,0-1,.448-1,1v4c0,.552.447,1,1,1s1-.448,1-1v-4c0-.552-.447-1-1-1Z"/>
  <path d="M37,41c-.553,0-1,.448-1,1v4c0,.552.447,1,1,1s1-.448,1-1v-4c0-.552-.447-1-1-1Z"/>
  <path d="M41,41c-.553,0-1,.448-1,1v4c0,.552.447,1,1,1s1-.448,1-1v-4c0-.552-.447-1-1-1Z"/>
</svg>