<?xml version="1.0" encoding="UTF-8"?>
<svg id="Outlne" xmlns="http://www.w3.org/2000/svg" version="1.1" viewBox="0 0 64 64">
  <!-- Generator: Adobe Illustrator 29.5.1, SVG Export Plug-In . SVG Version: 2.1.0 Build 141)  -->
  <path d="M31.83,44.05c.77-1.14,1.17-2.48,1.17-3.85v-11.2c0-1.65-1.35-3-3-3-.35,0-.69.07-1,.18v-.18c0-1.65-1.35-3-3-3-.35,0-.69.07-1,.18v-1.18c0-1.65-1.35-3-3-3-1.38,0-2.54.95-2.88,2.22-.35-.14-.73-.22-1.12-.22-1.65,0-3,1.35-3,3v11.4c-.78-1.1-1.94-1.88-3.27-2.16-1.51-.32-3.09.03-4.33.96-.22.16-.36.41-.39.67-.04.27.04.54.21.75l2.25,2.81c.99,1.24,1.53,2.8,1.53,4.38v.58c0,2.11.52,4.17,1.5,6.03-.89.52-1.5,1.47-1.5,2.58v2c0,1.65,1.35,3,3,3h9c.55,0,1-.45,1-1s-.45-1-1-1h-9c-.55,0-1-.45-1-1v-2c0-.55.45-1,1-1h16c.55,0,1,.45,1,1v2c0,.55-.45,1-1,1h-3c-.55,0-1,.45-1,1s.45,1,1,1h3c1.65,0,3-1.35,3-3v-2c0-1.3-.84-2.4-2-2.82v-2.38c0-.98.29-1.93.83-2.75ZM26,49h-8v-1c0-.55.45-1,1-1h6c.55,0,1,.45,1,1v1ZM30.17,42.95c-.77,1.14-1.17,2.48-1.17,3.85v2.2h-1v-1c0-1.65-1.35-3-3-3h-6c-1.65,0-3,1.35-3,3v1h-1.44c-1.02-1.7-1.56-3.63-1.56-5.61v-.58c0-2.03-.7-4.03-1.97-5.62l-1.5-1.88c.57-.2,1.18-.24,1.78-.11.95.2,1.77.81,2.25,1.65l1.57,2.84c.22.39.68.59,1.12.48.44-.12.75-.51.75-.97v-15.2c0-.55.45-1,1-1s1,.45,1,1v10c0,.55.45,1,1,1s1-.45,1-1v-12c0-.55.45-1,1-1s1,.45,1,1v12c0,.55.45,1,1,1s1-.45,1-1v-8c0-.55.45-1,1-1s1,.45,1,1v8c0,.55.45,1,1,1s1-.45,1-1v-5c0-.55.45-1,1-1s1,.45,1,1v11.2c0,.98-.29,1.93-.83,2.75Z"/>
  <path d="M55.83,32.05c.77-1.14,1.17-2.48,1.17-3.85v-11.2c0-1.65-1.35-3-3-3-.35,0-.69.07-1,.18v-.18c0-1.65-1.35-3-3-3-.35,0-.69.07-1,.18v-1.18c0-1.65-1.35-3-3-3-1.38,0-2.54.95-2.88,2.22-.35-.14-.73-.22-1.12-.22-1.65,0-3,1.35-3,3v11.4c-.78-1.1-1.94-1.88-3.27-2.16-1.51-.32-3.09.03-4.33.96-.22.16-.36.41-.39.67-.04.27.04.54.21.75l2.25,2.81c.99,1.24,1.53,2.8,1.53,4.38v.58c0,2.11.52,4.17,1.5,6.03-.89.52-1.5,1.47-1.5,2.58v2c0,1.65,1.35,3,3,3h3c.55,0,1-.45,1-1s-.45-1-1-1h-3c-.55,0-1-.45-1-1v-2c0-.55.45-1,1-1h16c.55,0,1,.45,1,1v2c0,.55-.45,1-1,1h-9c-.55,0-1,.45-1,1s.45,1,1,1h9c1.65,0,3-1.35,3-3v-2c0-1.3-.84-2.4-2-2.82v-2.38c0-.98.29-1.93.83-2.75ZM50,37h-8v-1c0-.55.45-1,1-1h6c.55,0,1,.45,1,1v1ZM54.17,30.95c-.77,1.14-1.17,2.48-1.17,3.85v2.2h-1v-1c0-1.65-1.35-3-3-3h-6c-1.65,0-3,1.35-3,3v1h-1.44c-1.02-1.7-1.56-3.63-1.56-5.61v-.58c0-2.03-.7-4.03-1.97-5.62l-1.5-1.88c.57-.2,1.18-.24,1.78-.11.95.2,1.77.81,2.25,1.65l1.57,2.84c.22.39.68.59,1.12.48.44-.12.75-.51.75-.97v-15.2c0-.55.45-1,1-1s1,.45,1,1v10c0,.55.45,1,1,1s1-.45,1-1v-12c0-.55.45-1,1-1s1,.45,1,1v12c0,.55.45,1,1,1s1-.45,1-1v-8c0-.55.45-1,1-1s1,.45,1,1v8c0,.55.45,1,1,1s1-.45,1-1v-5c0-.55.45-1,1-1s1,.45,1,1v11.2c0,.98-.29,1.93-.83,2.75Z"/>
</svg>