<?xml version="1.0" encoding="UTF-8"?>
<svg id="Outlne" xmlns="http://www.w3.org/2000/svg" version="1.1" viewBox="0 0 64 64">
  <!-- Generator: Adobe Illustrator 29.5.1, SVG Export Plug-In . SVG Version: 2.1.0 Build 141)  -->
  <path d="M48.74,22.74c2.5-.76,4.26-3.07,4.26-5.74s-1.76-4.98-4.26-5.74c-.76-2.5-3.07-4.26-5.74-4.26s-4.98,1.76-5.74,4.26c-2.5.76-4.26,3.07-4.26,5.74s1.76,4.98,4.26,5.74c.45,1.48,1.45,2.69,2.74,3.44v8.82h-10c-.55,0-1,.45-1,1s.45,1,1,1h17.44c.31,0,.59.14.78.38.2.25.26.56.19.87l-.2.79c-.07-.01-.14-.04-.21-.04h-6c-.55,0-1,.45-1,1s.45,1,1,1h5.72l-2.31,9.25c-.11.44-.51.75-.97.75h-24.88c-.46,0-.86-.31-.97-.75l-2.31-9.25h21.72c.55,0,1-.45,1-1s-.45-1-1-1h-22c-.07,0-.14.03-.21.04l-.2-.79c-.07-.31-.01-.62.19-.87.19-.24.47-.38.78-.38h9.44c.55,0,1-.45,1-1s-.45-1-1-1h-2v-8.82c1.29-.75,2.29-1.96,2.74-3.44,2.5-.76,4.26-3.07,4.26-5.74s-1.76-4.98-4.26-5.74c-.76-2.5-3.07-4.26-5.74-4.26s-4.98,1.76-5.74,4.26c-2.5.76-4.26,3.07-4.26,5.74s1.76,4.98,4.26,5.74c.45,1.48,1.45,2.69,2.74,3.44v8.82h-1.44c-.93,0-1.78.42-2.36,1.15-.57.73-.77,1.67-.55,2.58l3,12c.33,1.34,1.53,2.27,2.91,2.27h.44v3c0,.55.45,1,1,1h6c.55,0,1-.45,1-1v-3h8v3c0,.55.45,1,1,1h6c.55,0,1-.45,1-1v-3h.44c1.38,0,2.58-.93,2.91-2.27l3-12c.22-.91.02-1.85-.55-2.58-.58-.73-1.43-1.15-2.36-1.15h-1.44v-8.82c1.29-.75,2.29-1.96,2.74-3.44ZM22,35h-2v-8.09c.33.06.66.09,1,.09s.67-.03,1-.09v8.09ZM17.07,21.73c-.07-.41-.39-.73-.8-.81-1.89-.34-3.27-1.99-3.27-3.92,0-1.92,1.38-3.58,3.27-3.93.41-.07.73-.39.81-.8.34-1.89,1.99-3.27,3.92-3.27,1.92,0,3.58,1.38,3.93,3.27.07.41.39.73.8.8,1.89.35,3.27,2.01,3.27,3.93,0,1.93-1.38,3.58-3.27,3.92-.41.08-.73.4-.81.81-.34,1.89-1.99,3.27-3.92,3.27-1.92,0-3.58-1.38-3.93-3.27ZM26,55h-4v-2h4v2ZM42,55h-4v-2h4v2ZM44,35h-2v-8.09c.33.06.66.09,1,.09s.67-.03,1-.09v8.09ZM43,25c-1.93,0-3.58-1.38-3.92-3.27-.08-.41-.4-.73-.81-.81-1.89-.34-3.27-1.99-3.27-3.92s1.38-3.58,3.27-3.92c.41-.08.73-.4.81-.81.34-1.89,1.99-3.27,3.92-3.27s3.58,1.38,3.92,3.27c.08.41.4.73.81.81,1.89.34,3.27,1.99,3.27,3.92s-1.38,3.58-3.27,3.92c-.41.08-.73.4-.81.81-.34,1.89-1.99,3.27-3.92,3.27Z"/>
  <path d="M47,17c0-2.206-1.794-4-4-4s-4,1.794-4,4,1.794,4,4,4,4-1.794,4-4ZM41,17c0-1.103.897-2,2-2s2,.897,2,2-.897,2-2,2-2-.897-2-2Z"/>
  <path d="M25,17c0-2.206-1.794-4-4-4s-4,1.794-4,4,1.794,4,4,4,4-1.794,4-4ZM19,17c0-1.103.897-2,2-2s2,.897,2,2-.897,2-2,2-2-.897-2-2Z"/>
</svg>