<?xml version="1.0" encoding="UTF-8"?>
<svg id="Outlne" xmlns="http://www.w3.org/2000/svg" version="1.1" viewBox="0 0 64 64">
  <!-- Generator: Adobe Illustrator 29.5.1, SVG Export Plug-In . SVG Version: 2.1.0 Build 141)  -->
  <path d="M56,38c.55,0,1-.45,1-1v-3c0-.55-.45-1-1-1h-6c-.55,0-1,.45-1,1v3h-3v-10.82c1.29-.75,2.29-1.96,2.74-3.44,2.5-.76,4.26-3.07,4.26-5.74s-1.76-4.98-4.26-5.74c-.76-2.5-3.07-4.26-5.74-4.26s-4.98,1.76-5.74,4.26c-2.5.76-4.26,3.07-4.26,5.74s1.76,4.98,4.26,5.74c.45,1.48,1.45,2.69,2.74,3.44v10.82h-16v-10.82c1.29-.75,2.29-1.96,2.74-3.44,2.5-.76,4.26-3.07,4.26-5.74s-1.76-4.98-4.26-5.74c-.76-2.5-3.07-4.26-5.74-4.26s-4.98,1.76-5.74,4.26c-2.5.76-4.26,3.07-4.26,5.74s1.76,4.98,4.26,5.74c.45,1.48,1.45,2.69,2.74,3.44v10.82h-3v-3c0-.55-.45-1-1-1h-6c-.55,0-1,.45-1,1v22c0,.55.45,1,1,1h48c.55,0,1-.45,1-1v-15c0-.55-.45-1-1-1s-1,.45-1,1v14h-4v-20h4v2c0,.55.45,1,1,1ZM13,55h-4v-20h4v20ZM39.08,21.73c-.08-.41-.4-.73-.81-.81-1.89-.34-3.27-2-3.27-3.92s1.38-3.58,3.27-3.92c.41-.08.73-.4.81-.81.34-1.89,1.99-3.27,3.92-3.27s3.58,1.38,3.92,3.27c.08.41.4.73.81.81,1.89.34,3.27,2,3.27,3.92s-1.38,3.58-3.27,3.92c-.41.08-.73.4-.81.81-.34,1.89-1.99,3.27-3.92,3.27s-3.58-1.38-3.92-3.27ZM44,26.91v10.09h-2v-10.09c.33.06.66.09,1,.09s.67-.03,1-.09ZM17.08,21.73c-.08-.41-.4-.73-.81-.81-1.89-.34-3.27-2-3.27-3.92s1.38-3.58,3.27-3.93c.41-.07.73-.39.81-.8.34-1.89,1.99-3.27,3.92-3.27s3.58,1.38,3.92,3.27c.08.41.4.73.81.8,1.89.35,3.27,2.01,3.27,3.93s-1.38,3.58-3.27,3.92c-.41.08-.73.4-.81.81-.34,1.89-1.99,3.27-3.92,3.27s-3.58-1.38-3.92-3.27ZM22,26.91v10.09h-2v-10.09c.33.06.66.09,1,.09s.67-.03,1-.09ZM49,55H15v-4h34v4ZM49,43h-4c-.55,0-1,.45-1,1s.45,1,1,1h4v4H15v-4h26c.55,0,1-.45,1-1s-.45-1-1-1H15v-4h34v4Z"/>
  <path d="M47,17c0-2.206-1.794-4-4-4s-4,1.794-4,4,1.794,4,4,4,4-1.794,4-4ZM41,17c0-1.103.897-2,2-2s2,.897,2,2-.897,2-2,2-2-.897-2-2Z"/>
  <path d="M25,17c0-2.206-1.794-4-4-4s-4,1.794-4,4,1.794,4,4,4,4-1.794,4-4ZM19,17c0-1.103.897-2,2-2s2,.897,2,2-.897,2-2,2-2-.897-2-2Z"/>
</svg>