<?xml version="1.0" encoding="UTF-8"?>
<svg id="Outlne" xmlns="http://www.w3.org/2000/svg" version="1.1" viewBox="0 0 64 64">
  <!-- Generator: Adobe Illustrator 29.5.1, SVG Export Plug-In . SVG Version: 2.1.0 Build 141)  -->
  <path d="M54,33.5h-2.05c-.53-10.56-9.26-19-19.95-19s-19.42,8.44-19.95,19h-2.05c-1.65,0-3,1.35-3,3,0,.81.32,1.57.87,2.11.56.57,1.32.89,2.13.89h7c.55,0,1,.45,1,1,0,.27-.1.51-.31.71-.18.19-.42.29-.69.29h-3c-1.65,0-3,1.35-3,3,0,.81.32,1.57.87,2.11.56.57,1.32.89,2.13.89h24c1.65,0,3-1.35,3-3,0-.81-.32-1.57-.87-2.11-.56-.57-1.32-.89-2.13-.89h-13c-.55,0-1-.45-1-1s.45-1,1-1h5c1.65,0,3-1.35,3-3,0-.81-.32-1.57-.87-2.11-.56-.57-1.32-.89-2.13-.89h-6c-.55,0-1,.45-1,1s.45,1,1,1h6c.27,0,.51.1.71.31.19.18.29.42.29.69,0,.55-.45,1-1,1h-5c-1.65,0-3,1.35-3,3s1.35,3,3,3h13c.27,0,.51.1.71.31.19.18.29.42.29.69,0,.55-.45,1-1,1H14c-.27,0-.51-.1-.71-.31-.19-.18-.29-.42-.29-.69,0-.55.45-1,1-1h3c.81,0,1.57-.32,2.11-.87.57-.56.89-1.32.89-2.13,0-1.65-1.35-3-3-3h-7c-.27,0-.51-.1-.71-.31-.19-.18-.29-.42-.29-.69,0-.55.45-1,1-1h10c.55,0,1-.45,1-1s-.45-1-1-1h-5.95c.52-9.46,8.36-17,17.95-17s17.43,7.54,17.95,17h-11.95c-1.65,0-3,1.35-3,3s1.35,3,3,3h16c1.65,0,3-1.35,3-3s-1.35-3-3-3ZM54,37.5h-16c-.55,0-1-.45-1-1s.45-1,1-1h16c.55,0,1,.45,1,1s-.45,1-1,1Z"/>
  <path d="M54,49.5h-4c-.552,0-1,.447-1,1s.448,1,1,1h4c.551,0,1,.448,1,1,0,.267-.102.513-.306.713-.181.185-.427.287-.694.287h-22c-.551,0-1-.448-1-1,0-.267.102-.513.306-.713.181-.185.427-.287.694-.287h14c.552,0,1-.447,1-1s-.448-1-1-1h-14c-.811,0-1.566.316-2.108.874-.575.561-.892,1.315-.892,2.126,0,1.654,1.346,3,3,3h22c.811,0,1.566-.316,2.108-.874.575-.561.892-1.315.892-2.126,0-1.654-1.346-3-3-3Z"/>
  <path d="M32,12.5c.552,0,1-.447,1-1v-2c0-.553-.448-1-1-1s-1,.447-1,1v2c0,.553.448,1,1,1Z"/>
  <path d="M22.274,13.634c.21.507.804.748,1.307.541.51-.211.752-.796.541-1.307l-.765-1.848c-.211-.51-.796-.752-1.307-.541-.51.211-.752.796-.541,1.307,0,0,.763,1.842.765,1.848Z"/>
  <path d="M15.029,18.943c.388.388,1.026.388,1.414,0,.391-.391.391-1.023,0-1.414l-1.414-1.414c-.391-.391-1.023-.391-1.414,0s-.391,1.023,0,1.414c0,0,1.414,1.414,1.414,1.414Z"/>
  <path d="M8.52,25.856s1.848.766,1.848.766c.507.209,1.096-.034,1.307-.541.211-.511-.031-1.096-.541-1.307l-1.848-.766c-.512-.212-1.095.031-1.307.541-.211.511.031,1.096.541,1.307Z"/>
  <path d="M40.419,14.175c.505.208,1.096-.034,1.306-.541l.765-1.848c.211-.511-.031-1.096-.541-1.307-.512-.211-1.096.031-1.307.541l-.765,1.848c-.211.511.031,1.096.541,1.307Z"/>
  <path d="M48.264,19.226c.256,0,.515-.091.707-.283l1.414-1.414c.391-.391.391-1.023,0-1.414s-1.023-.391-1.414,0l-1.414,1.414c-.619.619-.153,1.694.707,1.697Z"/>
  <path d="M53.249,26.697c.128,0,.258-.023.382-.075l1.848-.766c.51-.211.752-.796.541-1.307-.212-.51-.796-.753-1.307-.541l-1.848.766c-.969.401-.673,1.917.383,1.923Z"/>
</svg>