<?xml version="1.0" encoding="UTF-8"?>
<svg id="Outlne" xmlns="http://www.w3.org/2000/svg" version="1.1" viewBox="0 0 64 64">
  <!-- Generator: Adobe Illustrator 29.5.1, SVG Export Plug-In . SVG Version: 2.1.0 Build 141)  -->
  <path d="M53,43.004c.55,0,1-.45,1-1v-3h2c.55,0,1-.45,1-1v-6c0-.55-.45-1-1-1h-1.14c.08-.33.14-.66.14-1,0-1.6-.93-3-2.36-3.64-.58-1.29-1.78-2.17-3.18-2.33-.7-1.24-2.02-2.03-3.46-2.03-.92,0-1.8.32-2.5.88-.7-.56-1.58-.88-2.5-.88-1.07,0-2.08.44-2.81,1.17-.87-.73-1.99-1.17-3.19-1.17-1.09,0-2.14.36-3,1.02-.98-.75-2.23-1.12-3.47-.99.61-1.21,1.04-2.51,1.28-3.88.04-.28-.03-.57-.21-.79-.18-.23-.44-.36-.72-.38-1.06-.06-1.88-.93-1.88-1.98,0-.55.24-1.08.65-1.45.25-.24.37-.59.3-.93-.06-.34-.3-.63-.63-.75-.8-.3-1.32-1.03-1.32-1.87,0-.4.11-.76.32-1.09.16-.23.15-.55.08-.82-.06-.28-.3-.53-.55-.67-.09-.05-.19-.1-.34-.15-1.76-.59-3.67-.22-5.08.94-1.41-1.16-3.31-1.53-5.08-.94-1.45.49-2.63,1.58-3.22,2.97l-.17.38c-2.11,4.92-1.14,10.5,2.46,14.41-.14.31-.25.63-.32.97-2.81-.08-5.1,2.21-5.1,5h-1c-.55,0-1,.45-1,1v6c0,.55.45,1,1,1h2v10h-2c-.55,0-1,.45-1,1v6c0,.55.45,1,1,1h48c.55,0,1-.45,1-1v-6c0-.55-.45-1-1-1h-2v-3c0-.55-.45-1-1-1s-1,.45-1,1v3h-4v-10h4v3c0,.55.45,1,1,1ZM41,24.004c.67,0,1.29.34,1.67.9.37.56,1.29.56,1.66,0,.38-.56,1-.9,1.67-.9.84,0,1.59.54,1.88,1.35.16.46.64.73,1.12.65.88,0,1.65.57,1.9,1.43.1.32.35.57.67.67.86.25,1.43,1.02,1.43,1.9,0,.36-.1.7-.27,1h-8.84c.06-.33.11-.66.11-1,0-2.56-1.93-4.68-4.42-4.97-.04-.09-.09-.18-.14-.27.37-.47.94-.76,1.56-.76ZM13.79,11.424l.17-.38c.38-.88,1.12-1.57,2.03-1.87,1.19-.4,2.54-.08,3.43.82l.3.3c.39.38,1.01.39,1.41.01l.32-.31c.71-.72,1.69-1.07,2.67-.97-.08.32-.12.65-.12.98,0,1.21.57,2.35,1.49,3.1-.32.58-.49,1.23-.49,1.9,0,1.72,1.09,3.19,2.64,3.75-.19.75-.46,1.47-.79,2.15-.82-.57-1.8-.9-2.85-.9-1.63,0-3.12.79-4.05,2.1-.32-.07-.63-.1-.95-.1-1.32,0-2.5.52-3.4,1.36-2.82-3.32-3.54-7.89-1.81-11.94ZM55,51.004v4H9v-4h46ZM12,49.004v-10h4v10h-4ZM18,49.004v-10h4v10h-4ZM24,49.004v-10h4v10h-4ZM30,49.004v-10h4v10h-4ZM36,49.004v-10h4v10h-4ZM42,49.004v-10h4v10h-4ZM9,37.004v-4h10c.55,0,1-.45,1-1s-.45-1-1-1h-8c0-1.65,1.35-3,3-3,.23,0,.47.04.74.11.3.09.62.03.87-.16s.4-.49.4-.8c0-.06,0-.12-.01-.15,0-2.01,2.05-3.57,4.05-2.8.49.19,1.03-.03,1.26-.49.51-1.06,1.54-1.71,2.69-1.71.9,0,1.73.41,2.29,1.09,0,0,0,.01.01.01.15.18.28.38.39.61.23.46.77.68,1.26.49,1.2-.46,2.49-.09,3.3.84.37.43,1.13.43,1.5,0,.58-.66,1.4-1.04,2.25-1.04,1.36,0,2.55.93,2.89,2.26.11.44.51.75.97.75.06,0,.12-.01.14-.01,1.65,0,3,1.35,3,3,0,.35-.08.68-.2,1h-18.8c-.55,0-1,.45-1,1s.45,1,1,1h32v4H9Z"/>
  <path d="M35.585,20.004c1.336,0,2.591-.521,3.536-1.465,1.697-1.696,2.884-7.805,3.105-9.013.059-.323-.044-.654-.277-.887-.231-.232-.563-.339-.887-.276-1.207.221-7.315,1.408-9.012,3.105-.944.944-1.464,2.199-1.464,3.535s.52,2.591,1.464,3.535,2.2,1.465,3.535,1.465ZM33.464,12.882c.772-.772,3.892-1.685,6.5-2.258-.573,2.608-1.485,5.728-2.257,6.5-.887.886-2.285,1.069-3.397.568l2.828-2.828c.391-.391.391-1.023,0-1.414s-1.023-.391-1.414,0l-2.839,2.838c-.19-.398-.3-.831-.3-1.286,0-.802.312-1.555.878-2.121Z"/>
  <path d="M51,20.004h2c.552,0,1-.447,1-1v-2c0-3.859-3.14-7-7-7h-2c-.552,0-1,.447-1,1v2c0,3.859,3.14,7,7,7ZM46,12.004h1c2.757,0,5,2.243,5,5v1h-1c-2.757,0-5-2.243-5-5v-1Z"/>
</svg>