<?xml version="1.0" encoding="UTF-8"?>
<svg id="Outline" xmlns="http://www.w3.org/2000/svg" version="1.1" viewBox="0 0 64 64">
  <!-- Generator: Adobe Illustrator 29.3.1, SVG Export Plug-In . SVG Version: 2.1.0 Build 151)  -->
  <path d="M56,32.5h-9c-.54999,0-1,.45001-1,1s.45001,1,1,1h2v4h-4c-.54999,0-1,.45001-1,1s.45001,1,1,1h4v4h-16v-4h4c.54999,0,1-.45001,1-1s-.45001-1-1-1h-4v-5c0-3.64001-1.5-7.03003-4.13-9.48004l1.28003-1.60999c.34998-.42999.27997-1.06-.15002-1.39996-2.87-2.30005-6.33002-3.51001-10-3.51001s-7.13,1.20996-10,3.51001c-.42999.33997-.5.96997-.15002,1.39996l1.28003,1.60999c-2.63,2.45001-4.13,5.84003-4.13,9.48004v12c0,.54999.45001,1,1,1h42c.13,0,.26001-.03003.38-.08002.13-.04999.23999-.12.33002-.21002l6-6c.17999-.19.28998-.44.28998-.70996v-6c0-.54999-.45001-1-1-1ZM20,19.5c2.88,0,5.60999.84998,7.94,2.46997l-2.5,3.14001c-3.21002-2.09003-7.66998-2.09003-10.88,0l-1.27997-1.59998-1.22003-1.54004c2.33002-1.62,5.06-2.46997,7.94-2.46997ZM17,38.5c-.96997-.73004-1.64001-1.79999-1.89001-3h1.89001v3ZM15.09998,33.5c.47003-2.28003,2.49005-4,4.90002-4s4.42999,1.71997,4.90002,4h-9.80005ZM24.89001,35.5c-.25,1.20001-.92004,2.26996-1.89001,3v-3h1.89001ZM21,44.5h-2v-9h2v9ZM31,44.5h-8v-3.70001c2.40997-1.14001,4-3.58002,4-6.29999,0-3.85999-3.14001-7-7-7s-7,3.14001-7,7c0,2.71997,1.59003,5.15997,4,6.29999v3.70001h-8v-11c0-3.03003,1.22998-5.85999,3.38-7.92004l1.21997,1.52002c.17004.21002.41003.35004.67004.37.26996.03003.52997-.04999.73999-.20996,1.39996-1.14001,3.16998-1.76001,4.98999-1.76001s3.59003.62,4.98999,1.76001c.17999.13995.40002.21997.63.21997.03998,0,.07001,0,.10999-.01001.26001-.01996.5-.15997.67004-.37l1.21997-1.52002c2.15002,2.06006,3.38,4.89001,3.38,7.92004v11ZM55,39.08997l-4,4v-8.58997h4v4.58997Z"/>
  <circle cx="41" cy="39.5" r="1"/>
</svg>