<?xml version="1.0" encoding="UTF-8"?>
<svg id="Outline" xmlns="http://www.w3.org/2000/svg" version="1.1" viewBox="0 0 64 64">
  <!-- Generator: Adobe Illustrator 29.3.1, SVG Export Plug-In . SVG Version: 2.1.0 Build 151)  -->
  <path d="M56,27.5c.54999,0,1-.45001,1-1v-2c0-1.65002-1.34998-3-3-3h-5v-3c0-.54999-.45001-1-1-1h-1v-5c0-2.76001-2.23999-5-5-5h-20c-2.76001,0-5,2.23999-5,5v5h-1c-.54999,0-1,.45001-1,1v3h-5c-1.65002,0-3,1.34998-3,3v29c0,1.64996,1.34998,3,3,3h44c1.65002,0,3-1.35004,3-3v-19c0-.54999-.45001-1-1-1s-1,.45001-1,1v19c0,.54999-.45001,1-1,1h-3v-26c0-.54999-.45001-1-1-1h-12v-4h16c.54999,0,1,.45001,1,1v2c0,.54999.45001,1,1,1ZM19,12.5c0-1.65002,1.34998-3,3-3h20c1.65002,0,3,1.34998,3,3v5h-2v-5c0-.54999-.45001-1-1-1h-20c-.54999,0-1,.45001-1,1v5h-2v-5ZM17,19.5h6v2h-6v-2ZM13,28.5v26h-3c-.54999,0-1-.45001-1-1v-29c0-.54999.45001-1,1-1h16v4h-12c-.54999,0-1,.45001-1,1ZM26.09003,54.5c.47998-2.83002,2.94-5,5.90997-5s5.42999,2.16998,5.90997,5h-11.81995ZM45,54.5h-5.07001c-.48999-3.94-3.85999-7-7.92999-7s-7.44,3.06-7.92999,7h-5.07001v-1h1.39001c.45001,0,.84998-.31.96997-.75.26001-.98999.66003-1.95001,1.17004-2.84003.22998-.39001.16998-.89001-.15002-1.20996l-.98999-.98004,2.82996-2.82996.98004.98999c.32001.32001.82001.38,1.20996.14996.89001-.51001,1.85004-.90997,2.84003-1.16998.44-.12.75-.52002.75-.96997v-1.39001h4v1.39001c0,.44995.31.84998.75.96997.98999.26001,1.95001.65997,2.84003,1.16998.38995.23004.88995.17004,1.20996-.14996l.98004-.98999,2.82996,2.82996-.98999.98004c-.32001.31995-.38.81995-.15002,1.20996.51001.89001.91003,1.85004,1.17004,2.84003.12.44.51996.75.96997.75h1.39001v1ZM49,29.5v25h-2v-2c0-.54999-.45001-1-1-1h-1.64001c-.21997-.66003-.47998-1.29999-.78998-1.91003l1.15997-1.15997c.39001-.39001.39001-1.03003,0-1.41998l-4.23999-4.24005c-.39001-.38995-1.02997-.38995-1.41998,0l-1.16003,1.16003c-.60999-.31-1.25-.57001-1.90997-.78998v-1.64001c0-.54999-.45001-1-1-1h-6c-.54999,0-1,.45001-1,1v1.64001c-.65997.21997-1.29999.47998-1.90997.78998l-1.16003-1.16003c-.39001-.38995-1.02997-.38995-1.41998,0l-4.23999,4.24005c-.39001.38995-.39001,1.02997,0,1.41998l1.15997,1.15997c-.31.61005-.57001,1.25-.78998,1.91003h-1.64001c-.54999,0-1,.45001-1,1v2h-2v-25h34ZM28,27.5v-4h8v4h-8ZM39,18.5v3h-14v-3c0-.54999-.45001-1-1-1h-1v-4h18v4h-1c-.54999,0-1,.45001-1,1ZM47,21.5h-6v-2h6v2Z"/>
  <path d="M17,35c0,1.92969,1.57031,3.5,3.5,3.5h23c1.92969,0,3.5-1.57031,3.5-3.5s-1.57031-3.5-3.5-3.5h-23c-1.92969,0-3.5,1.57031-3.5,3.5ZM45,35c0,.82715-.67285,1.5-1.5,1.5h-23c-.82715,0-1.5-.67285-1.5-1.5s.67285-1.5,1.5-1.5h23c.82715,0,1.5.67285,1.5,1.5Z"/>
  <circle cx="56" cy="30.5" r="1"/>
</svg>