<?xml version="1.0" encoding="UTF-8"?>
<svg id="Outline" xmlns="http://www.w3.org/2000/svg" version="1.1" viewBox="0 0 64 64">
  <!-- Generator: Adobe Illustrator 29.3.1, SVG Export Plug-In . SVG Version: 2.1.0 Build 151)  -->
  <path d="M31.84926,7.47998c-.17999-.29999-.5-.47998-.84998-.47998h-6c-.54999,0-1,.45001-1,1v2h-2v-2c0-.54999-.45001-1-1-1h-6c-.34998,0-.66998.17999-.84998.47998-.18005.28998-.20001.66003-.04004.97003l.47003.94c.51996,1.04999.97998,2.09998,1.35999,3.12.20001.51996.77997.77997,1.28998.58997.52002-.20001.78003-.77002.59003-1.28998-.35004-.92999-.75-1.87-1.20001-2.81h3.38v2c0,.54999.45001,1,1,1h4c.54999,0,1-.45001,1-1v-2h3.38c-1.57001,3.28998-2.59998,6.82996-3.08002,10.44l-6.47998,1.07996c-.02002-.23999-.03003-.46997-.06-.69995-.06-.55005-.57001-.96002-1.10004-.88-.54999.06-.94995.56-.87994,1.09998.02997.27002.03998.53998.06995.81l-1.00995.16003c-.55005.08997-.92004.60999-.83002,1.14996.08997.48999.51001.84003.98999.84003.04999,0,.10999,0,.15997-.01001l.81-.14001c.01001.35004.03003.69.03003,1.03003v.94l-1.15997.19c-.55005.08997-.92004.60999-.83002,1.14996.08997.48999.51001.84003.98999.84003.04999,0,.10999,0,.15997-.01001l.84003-.14001v1.97003l-1.15997.19c-.55005.08997-.92004.60999-.83002,1.14996.08997.48999.51001.84003.98999.84003.04999,0,.10999,0,.15997-.01001l.84003-.14001v2.15002c0,.22998.08002.45001.21997.62l4,5c.19.23999.48004.38.78003.38s.59003-.14001.78003-.38l4-5c.13995-.16998.21997-.39001.21997-.62v-3.82001l1.15997-.19c.55005-.09003.92004-.60999.83002-1.15002-.08997-.54999-.60999-.91998-1.14996-.82996l-.84003.13995v-1.96997l1.15997-.19c.55005-.09003.92004-.60999.83002-1.15002-.08997-.54999-.60999-.91998-1.14996-.82996l-.82001.13995c.01996-.65997.04999-1.32996.10999-1.98999l1.02997-.16998c.55005-.09003.92004-.60999.83002-1.15002-.08997-.54999-.60999-.91998-1.14996-.82996l-.47003.07996c.51001-3.35999,1.53003-6.64996,3.03998-9.69l.48004-.94995c.15997-.31.14001-.68005-.04004-.97003ZM25.99929,32.64996l-3,3.75-3-3.75v-2.13995l6-1v3.13995ZM25.99929,27.48999l-6,1v-1.97998l6-1v1.97998ZM26.0093,23.47998l-6.01001,1.01001v-.60999c0-.45001-.02002-.90002-.03998-1.36005l6.13-1.01996c-.04004.65997-.07001,1.32001-.08002,1.97998Z"/>
  <path d="M49.84987,25.47461c-.18213-.29492-.50391-.47461-.85059-.47461h-6c-.55225,0-1,.44727-1,1v2h-2v-2c0-.55273-.44775-1-1-1h-6c-.34668,0-.66846.17969-.85059.47461s-.19873.66309-.04395.97266l.47559.95117c1.78363,3.5672,2.88385,7.47516,3.26166,11.44739l-1.00726.16785c-.54443.09082-.9126.60645-.82178,1.15039.08154.48926.50488.83594.98535.83594.0542,0,.10986-.00391.16553-.01367l.80518-.13422c.01111.34296.03027.68573.03027,1.02875v.93872l-1.16455.19409c-.54443.09082-.9126.60645-.82178,1.15039.08154.48926.50488.83594.98535.83594.0542,0,.10986-.00391.16553-.01367l.83545-.13922v1.97247l-1.16455.19409c-.54443.09082-.9126.60645-.82178,1.15039.08154.48926.50488.83594.98535.83594.0542,0,.10986-.00391.16553-.01367l.83545-.13922v2.15289c0,.22754.07715.44727.21924.625l4,5c.18945.2373.47705.375.78076.375s.59131-.1377.78076-.375l4-5c.14209-.17773.21924-.39746.21924-.625v-3.81958l1.16455-.19409c.54443-.09082.9126-.60645.82178-1.15039s-.60205-.91699-1.15088-.82227l-.83545.13922v-1.97247l1.16455-.19409c.54443-.09082.9126-.60645.82178-1.15039-.09082-.54492-.60205-.91992-1.15088-.82227l-.8139.13568c.01526-.66455.0517-1.32794.10822-1.99054l1.03479-.17249c.54443-.09082.9126-.60645.82178-1.15039-.09082-.54492-.60205-.91797-1.15088-.82227l-.46228.07703c.50592-3.36365,1.52576-6.65222,3.04578-9.69226l.47559-.95117c.15479-.30957.13818-.67773-.04395-.97266ZM43.99929,50.64941l-3,3.75-3-3.75v-2.13568l6-1v3.13568ZM43.99929,45.48627l-6,1v-1.97253l6-1v1.97253ZM44.01058,41.48438l-6.01129,1.00189v-.60541c0-.45374-.02045-.90717-.0387-1.36066l6.13251-1.02209c-.04657.66138-.07471,1.32349-.08252,1.98627ZM44.30275,37.43567l-6.48077,1.08014c-.39581-3.98541-1.47858-7.90674-3.2099-11.51581h3.38721v2c0,.55273.44775,1,1,1h4c.55225,0,1-.44727,1-1v-2h3.38721c-1.57458,3.28229-2.60944,6.82361-3.08374,10.43567Z"/>
  <circle cx="17.99929" cy="16" r="1"/>
</svg>