<?xml version="1.0" encoding="UTF-8"?>
<svg id="Outline" xmlns="http://www.w3.org/2000/svg" version="1.1" viewBox="0 0 64 64">
  <!-- Generator: Adobe Illustrator 29.3.1, SVG Export Plug-In . SVG Version: 2.1.0 Build 151)  -->
  <path d="M26,14.50018c0-3.19385-1.78711-6.15137-4.55273-7.53467-.31006-.15479-.67773-.13867-.97314.04395-.29443.18213-.47412.50391-.47412.85059v5.64014h-4v-5.64014c0-.34668-.17969-.66846-.47412-.85059-.29492-.18262-.66357-.19873-.97314-.04395-2.76562,1.3833-4.55273,4.34082-4.55273,7.53467,0,2.97559,1.55127,5.74609,4,7.22949v4.77051c0,.55225.44775,1,1,1s1-.44775,1-1v-5.35986c0-.37891-.21387-.7251-.55273-.89453-2.09424-1.04736-3.44727-3.30225-3.44727-5.74561,0-1.82031.75098-3.53613,2-4.72607v4.72607c0,.55225.44775,1,1,1h6c.55225,0,1-.44775,1-1v-4.72607c1.24902,1.18994,2,2.90576,2,4.72607,0,2.44336-1.35303,4.69824-3.44727,5.74561-.33887.16943-.55273.51562-.55273.89453v21.71973c0,.37891.21387.7251.55273.89453,2.09424,1.04736,3.44727,3.30225,3.44727,5.74561,0,1.82031-.75098,3.53613-2,4.72607v-4.72607c0-.55225-.44775-1-1-1h-6c-.55225,0-1,.44775-1,1v4.72607c-1.24902-1.18994-2-2.90576-2-4.72607,0-2.44336,1.35303-4.69824,3.44727-5.74561.33887-.16943.55273-.51562.55273-.89453v-8.35986c0-.55225-.44775-1-1-1s-1,.44775-1,1v7.77051c-2.44873,1.4834-4,4.25391-4,7.22949,0,3.19385,1.78711,6.15137,4.55273,7.53467.30957.1543.67822.13818.97314-.04395.29443-.18213.47412-.50391.47412-.85059v-5.64014h4v5.64014c0,.69093.78756,1.22324,1.44727.89453,2.76562-1.3833,4.55273-4.34082,4.55273-7.53467,0-2.97559-1.55127-5.74609-4-7.22949v-20.54102c2.44873-1.4834,4-4.25391,4-7.22949Z"/>
  <path d="M54,18.50018c0-4.62-2.48999-8.92004-6.5-11.25-.31-.17999-.69-.17999-1,0s-.5.51001-.5.87v8.38h-10v-8.38c0-.35999-.19-.69-.5-.87s-.69-.17999-1,0c-4.12,2.39001-6.60999,6.81-6.5,11.54999.13,5.5,3.88,10.29999,8.90997,12.02002l-.75995,20.64995c-.09962,2.70684,2.14588,5.02999,4.84987,5.03005,2.70079.00006,4.95129-2.3403,4.85008-5.03003l-.75995-20.63c1.81995-.60999,3.5-1.59998,4.91998-2.96997,2.57001-2.47998,3.98999-5.79999,3.98999-9.37ZM48,10.03015c1.98999,1.64001,3.33002,3.95001,3.79999,6.47003h-3.79999v-6.47003ZM34,10.03015v6.47003h-3.79999c.46997-2.53003,1.81-4.82001,3.79999-6.47003ZM43.06,53.63019c-1.09003,1.12-3.02997,1.12-4.12,0-.53998-.57001-.82001-1.31-.78998-2.09003l.75-20.22998c.51996.08997,1.04999.15997,1.58997.17999.16998.01001.34003.01001.52002.01001.70996,0,1.40997-.07001,2.08997-.17999l.75,20.21997c.03003.78003-.25,1.52002-.78998,2.09003ZM40.57001,29.49017c-5.70001-.22003-10.44-5.03003-10.57001-10.72998,0-.09003.01001-.17004.01001-.26001h21.98999c0,3.01996-1.20001,5.82996-3.37,7.92999-2.17999,2.08997-5.03998,3.17999-8.06,3.06Z"/>
  <path d="M46,20.50018h-10c-.55225,0-1,.44775-1,1v4c0,.55225.44775,1,1,1h10c.55225,0,1-.44775,1-1v-4c0-.55225-.44775-1-1-1ZM45,24.50018h-8v-2h8v2Z"/>
  <path d="M41,48.50018c-.55225,0-1,.44775-1,1v2c0,.55225.44775,1,1,1s1-.44775,1-1v-2c0-.55225-.44775-1-1-1Z"/>
  <path d="M41,42.50018c-.55225,0-1,.44775-1,1v2c0,.55225.44775,1,1,1s1-.44775,1-1v-2c0-.55225-.44775-1-1-1Z"/>
  <path d="M40,37.50018v2c0,.55225.44775,1,1,1s1-.44775,1-1v-2c0-.55225-.44775-1-1-1s-1,.44775-1,1Z"/>
  <circle cx="15" cy="30.50018" r="1"/>
</svg>