<?xml version="1.0" encoding="UTF-8"?>
<svg id="Outline" xmlns="http://www.w3.org/2000/svg" version="1.1" viewBox="0 0 64 64">
  <!-- Generator: Adobe Illustrator 29.3.1, SVG Export Plug-In . SVG Version: 2.1.0 Build 151)  -->
  <path d="M40,7h-14c-3.85999,0-7,3.14001-7,7,0,.54999.45001,1,1,1h17v6h-13c-1.65002,0-3,1.34998-3,3v8c0,.54999.45001,1,1,1s1-.45001,1-1v-8c0-.54999.45001-1,1-1h13v4h-9c-.54999,0-1,.45001-1,1v27h-4v-15c0-.54999-.45001-1-1-1s-1,.45001-1,1v16c0,.54999.45001,1,1,1h6c.54999,0,1-.45001,1-1v-15h4v1c0,.54999.45001,1,1,1h8c.54999,0,1-.45001,1-1v-9h1c.54999,0,1-.45001,1-1V12c0-2.76001-2.23999-5-5-5ZM33,39h-4v-2h4v2ZM33,35h-4v-6h2v3c0,.54999.45001,1,1,1h1v2ZM41,41h-6v-8h6v8ZM43,31h-10v-2h10v2ZM43,27h-4v-13c0-.54999-.45001-1-1-1h-16.90002c.46002-2.28003,2.49005-4,4.90002-4h14c1.65002,0,3,1.34998,3,3v15Z"/>
  <circle cx="22" cy="36" r="1"/>
</svg>