<?xml version="1.0" encoding="UTF-8"?>
<svg id="Outline" xmlns="http://www.w3.org/2000/svg" version="1.1" viewBox="0 0 64 64">
  <!-- Generator: Adobe Illustrator 29.3.1, SVG Export Plug-In . SVG Version: 2.1.0 Build 151)  -->
  <path d="M54,23h-12c-1.65002,0-3,1.34998-3,3v1h-14v-1c0-1.65002-1.34998-3-3-3h-2c-.54999,0-1,.45001-1,1s.45001,1,1,1h2c.54999,0,1,.45001,1,1v6c0,.54999.45001,1,1,1h16c.54999,0,1-.45001,1-1v-6c0-.54999.45001-1,1-1h12c.54999,0,1,.45001,1,1v12c0,.54999-.45001,1-1,1h-9v-1c0-.54999-.45001-1-1-1s-1,.45001-1,1v1h-2v-3c0-.54999-.45001-1-1-1s-1,.45001-1,1v3h-2v-1c0-.54999-.45001-1-1-1s-1,.45001-1,1v1h-2v-3c0-.54999-.45001-1-1-1s-1,.45001-1,1v3h-2v-1c0-.54999-.45001-1-1-1s-1,.45001-1,1v1h-2v-3c0-.54999-.45001-1-1-1s-1,.45001-1,1v3h-2v-1c0-.54999-.45001-1-1-1s-1,.45001-1,1v1h-9c-.54999,0-1-.45001-1-1v-12c0-.54999.45001-1,1-1h2c.54999,0,1-.45001,1-1s-.45001-1-1-1h-2c-1.65002,0-3,1.34998-3,3v12c0,1.64996,1.34998,3,3,3h44c1.65002,0,3-1.35004,3-3v-12c0-1.65002-1.34998-3-3-3ZM27,31h-2v-2h2v2ZM35,31h-6v-2h6v2ZM39,31h-2v-2h2v2Z"/>
  <path d="M11,32c0,2.75684,2.24316,5,5,5s5-2.24316,5-5-2.24316-5-5-5-5,2.24316-5,5ZM13,32c0-1.30194.8385-2.40161,2-2.81573v5.63141c-1.1615-.41412-2-1.51373-2-2.81567ZM19,32c0,1.30194-.8385,2.40161-2,2.81573v-5.63147c1.1615.41412,2,1.51379,2,2.81573Z"/>
  <path d="M48,37c2.75684,0,5-2.24316,5-5s-2.24316-5-5-5-5,2.24316-5,5,2.24316,5,5,5ZM51,32c0,1.30194-.8385,2.40161-2,2.81573v-5.63147c1.1615.41412,2,1.51379,2,2.81573ZM47,29.18427v5.63141c-1.1615-.41412-2-1.51373-2-2.81567s.8385-2.40161,2-2.81573Z"/>
  <circle cx="16" cy="24" r="1"/>
</svg>