<?xml version="1.0" encoding="UTF-8"?>
<svg id="Outline" xmlns="http://www.w3.org/2000/svg" version="1.1" viewBox="0 0 64 64">
  <!-- Generator: Adobe Illustrator 29.3.1, SVG Export Plug-In . SVG Version: 2.1.0 Build 151)  -->
  <path d="M25,7h-12c-.54999,0-1,.45001-1,1v4c0,.54999.45001,1,1,1h2v19c0,.21997.07001.42999.20001.59998l3,4c.19.25.48999.40002.79999.40002s.60999-.15002.79999-.40002l3-4c.13-.16998.20001-.38.20001-.59998V13h2c.54999,0,1-.45001,1-1v-4c0-.54999-.45001-1-1-1ZM19,34.32996l-1.67999-2.23999,1.67999-1.67999,1.67999,1.67999-1.67999,2.23999ZM21,29.58997l-1.28998-1.29999c-.39001-.39001-1.03003-.39001-1.42004,0l-1.28998,1.29999V13h4v16.58997ZM24,11h-10v-2h10v2Z"/>
  <path d="M38,17h-12c-.54999,0-1,.45001-1,1v4c0,.54999.45001,1,1,1h2v19c0,.21997.07001.42999.20001.59998l3,4c.19.25.48999.40002.79999.40002s.60999-.15002.79999-.40002l3-4c.13-.16998.20001-.38.20001-.59998v-19h2c.54999,0,1-.45001,1-1v-4c0-.54999-.45001-1-1-1ZM32,44.32996l-1.67999-2.23999,1.67999-1.67999,1.67999,1.67999-1.67999,2.23999ZM34,39.58997l-1.28998-1.29999c-.39001-.39001-1.03003-.39001-1.42004,0l-1.28998,1.29999v-16.58997h4v16.58997ZM37,21h-10v-2h10v2Z"/>
  <path d="M51,27h-12c-.54999,0-1,.45001-1,1v4c0,.54999.45001,1,1,1h2v19c0,.21997.07001.42999.20001.59998l3,4c.19.25.48999.40002.79999.40002s.60999-.15002.79999-.40002l3-4c.13-.16998.20001-.38.20001-.59998v-7c0-.54999-.45001-1-1-1s-1,.45001-1,1v4.58997l-1.28998-1.29999c-.39001-.39001-1.03003-.39001-1.42004,0l-1.28998,1.29999v-16.58997h4v4c0,.54999.45001,1,1,1s1-.45001,1-1v-4h2c.54999,0,1-.45001,1-1v-4c0-.54999-.45001-1-1-1ZM45,50.40997l1.67999,1.67999-1.67999,2.23999-1.67999-2.23999,1.67999-1.67999ZM50,31h-10v-2h10v2Z"/>
  <circle cx="48" cy="41" r="1"/>
</svg>