<?xml version="1.0" encoding="UTF-8"?>
<svg id="Outline" xmlns="http://www.w3.org/2000/svg" version="1.1" viewBox="0 0 64 64">
  <!-- Generator: Adobe Illustrator 29.3.1, SVG Export Plug-In . SVG Version: 2.1.0 Build 151)  -->
  <path d="M56.70878,15.28998l-2-2c-.19-.17999-.44-.28998-.71002-.28998h-11v-1c0-1.65002-1.34998-3-3-3h-1.17999c-.41998-1.16003-1.52002-2-2.82001-2h-17c-.54999,0-1,.45001-1,1s.45001,1,1,1h17c.54999,0,1,.45001,1,1v12c0,.54999-.45001,1-1,1H9.99876c-.54999,0-1-.45001-1-1v-12c0-.54999.45001-1,1-1h1c.54999,0,1-.45001,1-1s-.45001-1-1-1h-1c-1.65002,0-3,1.34998-3,3v12c0,1.64996,1.34998,3,3,3h3.78003l-3.60004,18h-2.17999c-.54999,0-1,.45001-1,1v12c0,.54999.45001,1,1,1h24c.54999,0,1-.45001,1-1,0-6.42004-4.69-11.76001-10.82001-12.79999l2.03998-10.20001h7.53003c.34998,0,.66998-.17999.84998-.47003.18005-.29999.20001-.66998.04004-.97998-1.02002-2.03998-1.09003-4.45001-.23004-6.54999h3.59003c1.29999,0,2.40002-.84003,2.82001-2h1.17999c1.65002,0,3-1.35004,3-3v-1h11c.27002,0,.52002-.10999.71002-.29004l2-2c.38995-.38995.38995-1.02997,0-1.41998ZM8.99876,55v-4h10.28998c3.17999,0,6.07001,1.51001,7.91003,4H8.99876ZM30.95878,55h-1.37c-2.10004-3.71002-5.99005-6-10.30005-6h-10.28998v-4h11c5.72998,0,10.45001,4.39996,10.96002,10ZM20.17875,43h-7.96002l3.60004-18h7.96002l-3.60004,18ZM30.26878,31h-5.65002l1.20001-6h4.46002c-.61005,1.95001-.62006,4.04999-.01001,6ZM40.99876,20c0,.54999-.45001,1-1,1h-1v-10h1c.54999,0,1,.45001,1,1v8ZM53.58878,17h-10.59003v-2h10.59003l1,1-1,1Z"/>
  <path d="M34.99876,20v-8c0-.55225-.44727-1-1-1s-1,.44775-1,1v8c0,.55225.44727,1,1,1s1-.44775,1-1Z"/>
  <path d="M30.99876,20v-8c0-.55225-.44727-1-1-1s-1,.44775-1,1v8c0,.55225.44727,1,1,1s1-.44775,1-1Z"/>
  <path d="M26.99876,20v-8c0-.55225-.44727-1-1-1s-1,.44775-1,1v8c0,.55225.44727,1,1,1s1-.44775,1-1Z"/>
  <path d="M10.99876,14v4c0,1.6543,1.3457,3,3,3h6c1.6543,0,3-1.3457,3-3v-4c0-1.6543-1.3457-3-3-3h-6c-1.6543,0-3,1.3457-3,3ZM12.99876,14c0-.55127.44824-1,1-1h6c.55176,0,1,.44873,1,1v4c0,.55127-.44824,1-1,1h-6c-.55176,0-1-.44873-1-1v-4Z"/>
  <circle cx="14.99876" cy="8" r="1"/>
</svg>