<?xml version="1.0" encoding="UTF-8"?>
<svg id="Outline" xmlns="http://www.w3.org/2000/svg" version="1.1" viewBox="0 0 64 64">
  <!-- Generator: Adobe Illustrator 29.3.1, SVG Export Plug-In . SVG Version: 2.1.0 Build 151)  -->
  <path d="M32,51.99503c1.6543,0,3-1.3457,3-3s-1.3457-3-3-3-3,1.3457-3,3,1.3457,3,3,3ZM32,47.99503c.55176,0,1,.44873,1,1s-.44824,1-1,1-1-.44873-1-1,.44824-1,1-1Z"/>
  <path d="M46.13,27.88504c-.54999-.56006-1.28998-.87006-2.08002-.88l.95001-17.97003c.03003-.51001-.33002-.95001-.84003-1.03998-4.77997-.79004-9.67999-1.10999-14.54999-.95001-1.09998.02997-2.08997.66998-2.57996,1.65997l-1.03003,2.05005-.73999-1.47003c-.57001-1.14001-1.79999-1.78998-3.04999-1.63-.79004.10004-1.58002.21002-2.38.34003-.5.08997-.86005.52997-.83002,1.03998l.95001,17.97003c-1.63.02997-2.95001,1.34998-2.95001,2.98999,0,.81.32001,1.57001.87,2.10999.56.57001,1.32001.89001,2.13.89001h.09998c.47003,2.27997,2.49005,4,4.90002,4h1.75c-1.13,2.16998-1.75,4.97998-1.75,8,0,6.72998,3.08002,12,7,12s7-5.27002,7-12c0-3.02002-.62-5.83002-1.75-8h1.75c2.40997,0,4.42999-1.72003,4.90002-4h.09998c1.65002,0,3-1.35004,3-3,0-.81-.32001-1.57001-.87-2.10999ZM39,34.99503h-3.56c-.38,0-.72998.21997-.90002.56-.15997.33997-.12.75.11005,1.04999,1.46997,1.90002,2.34998,5.03003,2.34998,8.39001,0,5.41998-2.28998,10-5,10s-5-4.58002-5-10c0-3.35999.88-6.48999,2.34998-8.39001.23004-.29999.27002-.71002.11005-1.04999-.17004-.34003-.52002-.56-.90002-.56h-3.56c-1.29999,0-2.41998-.84003-2.83002-2h19.66003c-.41003,1.15997-1.53003,2-2.83002,2ZM44,30.99503h-24c-.27002,0-.51001-.10004-.71002-.31-.19-.17999-.28998-.42004-.28998-.69,0-.54999.45001-1,1-1h6c.54999,0,1-.45001,1-1s-.45001-1-1-1h-4.04999l-.90002-17.16003c.47003-.07001.94-.13995,1.41998-.19995.41003-.05005.81006.16998,1.01001.54999l1.63,3.26001c.34003.66998,1.44.66998,1.78003,0l1.91998-3.84003c.16998-.34003.5-.54999.85999-.56,4.45001-.15002,8.91003.12,13.28003.78998l-.90002,17.16003h-8.04999c-.54999,0-1,.45001-1,1s.45001,1,1,1h9.99969c.54029,0,1.00031.4621,1.00031,1,0,.54999-.45001,1-1,1Z"/>
  <path d="M25,20.99503c-.55273,0-1,.44775-1,1v2c0,.55225.44727,1,1,1s1-.44775,1-1v-2c0-.55225-.44727-1-1-1Z"/>
  <path d="M25,17.99503v-2c0-.55225-.44727-1-1-1s-1,.44775-1,1v2c0,.55225.44727,1,1,1s1-.44775,1-1Z"/>
  <path d="M30,17.99503v-2c0-.55225-.44727-1-1-1s-1,.44775-1,1v2c0,.55225.44727,1,1,1s1-.44775,1-1Z"/>
  <circle cx="30" cy="27.99503" r="1"/>
</svg>