<?xml version="1.0" encoding="UTF-8"?>
<svg id="Outline" xmlns="http://www.w3.org/2000/svg" version="1.1" viewBox="0 0 64 64">
  <!-- Generator: Adobe Illustrator 29.3.1, SVG Export Plug-In . SVG Version: 2.1.0 Build 151)  -->
  <path d="M56.0437,21.79111l-1.41406-1.41455c-.39062-.39062-1.02344-.39014-1.41406-.00049l-.70801.70752c-.37695.37793-1.03564.37842-1.41357-.00049-.18896-.18848-.29297-.43945-.29297-.70654s.104-.51807.29297-.70703l.70703-.70703c.39062-.39062.39062-1.02344,0-1.41406l-5.65674-5.65771c-.92236-.92139-2.30029-1.11475-3.41406-.58545l-.07568-.0752c-.83789-.83789-1.74219-1.45703-2.68848-1.84033-2.97168-1.2041-6.34766-.52881-8.59668,1.72021l-2.1958,2.1958c-.2666.2666-.36084.66064-.24316,1.01904s.42725.62012.7998.67676l1.12744.17139c1.99219.30322,3.8252,1.12988,5.35596,2.40723-.54688.5625-.84766,1.30273-.84766,2.08936,0,.50714.13794.98877.37341,1.42236-3.00519,4.55371-6.96503,8.51239-11.51984,11.51575-1.1344-.58789-2.61975-.42584-3.53473.50183l-3.52002,3.52002c-.39062.39062-.39062,1.02344,0,1.41406s1.02344.39062,1.41406,0l3.5249-3.52441c.37549-.38037,1.02734-.38477,1.41113.00439l4.24414,4.24414c.19043.18799.29541.43799.29541.7041-.00049.26562-.10498.51514-.2998.70752l-12.72412,12.72461c-.18799.19043-.43799.29541-.70361.29541h-.00049c-.26562-.00049-.51514-.10498-.70752-.2998l-4.24463-4.24512c-.19043-.1875-.29492-.43701-.29541-.70264,0-.26611.10498-.51611.2998-.7085l3.55029-3.5498c.39062-.39014.39062-1.02344,0-1.41406s-1.02344-.39062-1.41406,0l-3.5459,3.54541c-.57422.56689-.89014,1.32227-.89014,2.12695.00049.80469.31641,1.56006.88574,2.12158l4.23535,4.23584c.56641.57373,1.32178.88965,2.12646.89014h.00049c.80469,0,1.55957-.31641,2.12207-.88574l12.71533-12.71533c.57373-.56641.88965-1.32178.89014-2.12646,0-.50885-.13928-.99146-.37622-1.4245,2.97693-4.51117,6.89166-8.43732,11.39276-11.43054l.83063.83063c.39062.39062,1.02344.39062,1.41406,0l.70703-.70654c.38916-.39062,1.0249-.39014,1.41406-.00049.39014.39014.39014,1.02441.00049,1.41455l-.70703.70703c-.39062.39062-.39062,1.02344,0,1.41406l1.41406,1.41406c.58496.58496,1.35303.87744,2.12109.87744.76855,0,1.53662-.29248,2.12158-.87744l5.65674-5.65674c1.16992-1.16943,1.16992-3.07275,0-4.24219ZM28.31421,36.49472l-2.53076-2.53076c4.43286-3.00952,8.30792-6.88428,11.31799-11.31677l2.52954,2.52954c-4.4325,3.01007-8.30725,6.88513-11.31677,11.31799ZM54.62964,24.61923l-5.65674,5.65674c-.39062.38965-1.02588.38867-1.41455,0l-.70703-.70703h.00049c1.16895-1.16992,1.16895-3.07275-.00049-4.24316-1.1709-1.16992-3.07373-1.16846-4.24268.00049l-4.94971-4.9502c-.18896-.18848-.29297-.43945-.29297-.70654s.104-.51807.29346-.70703l.70703-.70752c.39014-.39062.39014-1.02393-.00049-1.41406-1.77246-1.77197-3.97217-2.97119-6.40234-3.49707l.81982-.81982c1.68066-1.68066,4.20605-2.18408,6.43164-1.28076.69678.28223,1.37793.75342,2.02539,1.40088l.66113.66113c.39062.39062,1.02344.39014,1.41406.00049.38916-.39014,1.02441-.39062,1.41455-.00049l4.94971,4.9502c-.56689.56641-.87891,1.31982-.87891,2.12109s.31201,1.55469.87842,2.12109c1.13379,1.13379,3.10986,1.1333,4.24268.00049v-.00049l.70752.70752c.38965.38965.38965,1.02393,0,1.41406Z"/>
  <circle cx="15.08179" cy="40.19638" r="1"/>
</svg>