<?xml version="1.0" encoding="UTF-8"?>
<svg id="Outline" xmlns="http://www.w3.org/2000/svg" version="1.1" viewBox="0 0 64 64">
  <!-- Generator: Adobe Illustrator 29.3.1, SVG Export Plug-In . SVG Version: 2.1.0 Build 151)  -->
  <path d="M16.28107,49.06997c0,2.20605,1.79395,4,4,4s4-1.79395,4-4-1.79395-4-4-4-4,1.79395-4,4ZM20.28107,47.06997c1.10254,0,2,.89746,2,2s-.89746,2-2,2-2-.89746-2-2,.89746-2,2-2Z"/>
  <path d="M28.28107,14.56997c0-3.19434-1.78711-6.15137-4.55273-7.53418-.31055-.1543-.67773-.13965-.97266.04395-.29492.18262-.47461.50391-.47461.85059v6.13965h-4v-6.13965c0-.34668-.17969-.66797-.47461-.85059-.29395-.18262-.66113-.19922-.97266-.04395-2.76562,1.38281-4.55273,4.33984-4.55273,7.53418,0,2.97656,1.55078,5.74707,4,7.22949v4.27051c0,.55273.44727,1,1,1s1-.44727,1-1v-4.86035c0-.37891-.21387-.72559-.55273-.89453-2.09375-1.04688-3.44727-3.30176-3.44727-5.74512,0-1.82031.75098-3.53613,2-4.72559v5.22559c0,.55273.44727,1,1,1h6c.55273,0,1-.44727,1-1v-5.22559c1.24902,1.18945,2,2.90527,2,4.72559,0,2.44336-1.35352,4.69824-3.44727,5.74512-.33887.16895-.55273.51562-.55273.89453v21.44043c-.00293.03223-.00488.06543-.00488.09961,0,.08008.02808.151.04596.22559.00964.04089.01019.08289.02484.12219.03027.08032.07837.14764.12732.21661.02631.03772.04492.07855.07648.11261.05652.0603.12598.10272.19574.14771.0365.02386.0625.05823.10291.07764,2.08496.99805,3.43164,3.12402,3.43164,5.41797,0,3.30859-2.69141,6-6,6s-6-2.69141-6-6c0-2.28101,1.33301-4.39362,3.39795-5.39874.00079-.00037.0014-.00085.00214-.00122.01099-.00531.02051-.01276.03156-.01801.01727-.0083.0274-.02405.04395-.0332.09857-.05347.18903-.11664.26385-.19904.01776-.01959.0271-.04376.04315-.06458.06226-.08032.11786-.16382.15356-.26123.01208-.03278.01166-.06787.02032-.10181.0202-.07965.0484-.15643.0484-.24249,0-.0332-.00195-.06641-.00488-.09863v-8.58105c0-.55273-.44727-1-1-1s-1,.44727-1,1v8.1015c-2.4425,1.42792-4,4.05872-4,6.8985,0,4.41113,3.58887,8,8,8s8-3.58887,8-8c0-2.83978-1.5575-5.47058-4-6.8985v-20.37201c2.44922-1.48242,4-4.25293,4-7.22949Z"/>
  <path d="M51.40107,16.53994l-2.17999-5.82001c-.10999-.27997-.34003-.5-.62-.59998l-3-1c-.31-.09998-.64001-.04999-.90002.14001-.26996.19-.41998.48999-.41998.81v7.60999l-4-1.33002v-8.27997c0-.54999-.45001-1-1-1h-3c-.40002,0-.76001.23999-.91998.60999l-2.17004,5.07001c-.64996,1.51001-.51996,3.23999.35004,4.62l3.71997,5.96002-1.62,26.69995c-.10999,1.85004.53003,3.61005,1.79999,4.95001,1.26001,1.35004,2.98004,2.09003,4.83002,2.09003s3.57001-.75,4.84003-2.10004c1.26996-1.34998,1.89996-3.10999,1.77997-4.95996l-1.58997-24.61005,3.26001-3.89996c1.14996-1.38,1.46997-3.28003.83997-4.96002ZM49.02106,20.21993l-3.51001,4.21002c-.15997.20001-.23999.45001-.22998.70001l1.62,25.01001c.08002,1.28998-.35999,2.51996-1.25,3.46997-.89001.94-2.08997,1.46002-3.38,1.46002s-2.48999-.52002-3.38-1.46002c-.88-.94-1.32996-2.16998-1.25-3.46002l1.64001-27.01996c.01001-.21002-.03998-.41003-.15002-.59003l-3.88995-6.22998c-.52002-.83002-.60004-1.87-.22003-2.77002l1.91998-4.46997h1.34003v8c0,.42999.28003.81.67999.95001l6,2c.31.09998.64001.04999.90002-.14001.26996-.19.41998-.48999.41998-.81v-7.60999l1.22998.40997,2.02002,5.37c.37,1.01001.17999,2.15002-.51001,2.97998Z"/>
  <path d="M42.28107,47.06997c-1.6543,0-3,1.3457-3,3s1.3457,3,3,3,3-1.3457,3-3-1.3457-3-3-3ZM42.28107,51.06997c-.55176,0-1-.44824-1-1s.44824-1,1-1,1,.44824,1,1-.44824,1-1,1Z"/>
  <path d="M42.28107,45.06997c.55273,0,1-.44727,1-1v-18c0-.55273-.44727-1-1-1s-1,.44727-1,1v18c0,.55273.44727,1,1,1Z"/>
  <circle cx="17.28107" cy="30.06997" r="1"/>
</svg>