<?xml version="1.0" encoding="UTF-8"?>
<svg id="Outline" xmlns="http://www.w3.org/2000/svg" version="1.1" viewBox="0 0 64 64">
  <!-- Generator: Adobe Illustrator 29.3.1, SVG Export Plug-In . SVG Version: 2.1.0 Build 151)  -->
  <path d="M54,14h-3v-4c0-1.65002-1.34998-3-3-3h-22c-.54999,0-1,.45001-1,1s.45001,1,1,1h22c.54999,0,1,.45001,1,1v10c0,.54999-.45001,1-1,1H10c-.54999,0-1-.45001-1-1v-10c0-.54999.45001-1,1-1h8c.54999,0,1-.45001,1-1s-.45001-1-1-1h-8c-1.65002,0-3,1.34998-3,3v10c0,1.64996,1.34998,3,3,3h1v7c0,1.64996,1.34998,3,3,3s3-1.35004,3-3v-1c0-.54999.45001-1,1-1s1,.45001,1,1v5c0,1.64996,1.34998,3,3,3s3-1.35004,3-3v-11h23c1.65002,0,3-1.35004,3-3v-4h3c.54999,0,1,.45001,1,1v9c0,.54999-.45001,1-1,1h-23c-1.65002,0-3,1.34998-3,3v9.14001c-1.71997.44995-3,2-3,3.85999v2.95996c0,3.28003-.33002,6.57001-.97998,9.84003-.06.29999.01996.59998.20996.83002.19.23999.47003.37.77002.37h8c.29999,0,.58002-.16003.77002-.39001.19-.23999.26001-.57001.19995-.85999-.63995-3.22003-.96997-6.51001-.96997-9.79004v-2.95996c0-1.85999-1.28003-3.41003-3-3.85999v-9.14001c0-.54999.45001-1,1-1h23c1.65002,0,3-1.35004,3-3v-9c0-1.65002-1.34998-3-3-3ZM23,34c0,.54999-.45001,1-1,1s-1-.45001-1-1v-5c0-1.65002-1.34998-3-3-3s-3,1.34998-3,3v1c0,.54999-.45001,1-1,1s-1-.45001-1-1v-7h10v11ZM31,43v2.95996c0,3.01001.26001,6.03003.78998,9.04004h-5.57996c.51996-2.98004.78998-6.02002.78998-9.04004v-2.95996c0-1.10004.90002-2,2-2s2,.89996,2,2Z"/>
  <path d="M13.17725,35.43164c-.65479.94775-2.17725,3.29004-2.17725,4.56836,0,1.6543,1.3457,3,3,3s3-1.3457,3-3c0-1.27832-1.52246-3.62061-2.17725-4.56836-.37305-.54102-1.27246-.54102-1.64551,0ZM14,41c-.55127,0-.99951-.44824-1-.99902.0083-.30615.42432-1.17725,1-2.14746.57617.9707.9917,1.8418,1,2.14648,0,.55127-.44873,1-1,1Z"/>
  <circle cx="22" cy="8" r="1"/>
</svg>