<?xml version="1.0" encoding="UTF-8"?>
<svg id="Outline" xmlns="http://www.w3.org/2000/svg" version="1.1" viewBox="0 0 64 64">
  <!-- Generator: Adobe Illustrator 29.3.1, SVG Export Plug-In . SVG Version: 2.1.0 Build 151)  -->
  <path d="M54.16609,41.43604l-.31-.31c-.39001-.38995-1.03003-.38995-1.41998,0-.39001.39001-.39001,1.03003,0,1.42004l.31.31c1.32001,1.32001,2.04999,3.07001,2.04999,4.94s-.72998,3.63-2.04999,4.94995c-2.73004,2.73004-7.16003,2.73004-9.89001,0l-4.78998-4.77997c-.41003-.40002-.72003-.91003-.90002-1.45001-.28003-.85999-.76001-1.64001-1.38-2.25l-3.53998-3.53998c-.19-.19-.29004-.44-.29004-.71002,0-.26001.10004-.51001.29004-.70001l7.07001-7.07001c.37-.38,1.03998-.38,1.40997,0l3.53998,3.53003c.61005.63,1.39001,1.10999,2.26001,1.40002.10004.02997.20001.06.29999.10999.48004.26001,1.09003.07996,1.35004-.41003.26001-.47998.07996-1.08997-.41003-1.34998-.19995-.10999-.41998-.20001-.63-.26001-.54999-.17999-1.04999-.48999-1.44995-.90002l-3.54004-3.53998c-.95996-.96002-2.52997-1.08997-3.67999-.41998-2.14001-.87-3.83002-2.64001-4.57001-4.84003-.10999-.32996-.38-.57996-.71997-.65997-.33002-.08002-.69.02002-.92999.27002l-1.42004,1.40997-13.26996-13.27002-1.34003-4.01996c-.08997-.30005-.33002-.53003-.63-.63l-4.23999-1.41003c-.35999-.12-.76001-.02997-1.02002.23999l-2.82996,2.83002c-.27002.26001-.36005.66003-.24005,1.02002l1.41003,4.23999c.09998.29999.33002.53998.63.64001l4.02002,1.33997,13.26996,13.26001-1.40997,1.41998c-.25.24005-.35004.60004-.27002.93005.08002.33997.33002.60999.66003.71997,2.19995.73999,3.95996,2.41998,4.82996,4.56-.27997.47003-.44,1-.44,1.56,0,.81.31,1.56.87,2.13l3.55005,3.53998c.39996.40002.70996.90002.88995,1.46002.28003.84003.76001,1.62,1.38,2.23999l4.79004,4.78003c1.69995,1.69,3.95996,2.63,6.35999,2.63,2.40997,0,4.66998-.94,6.37-2.63,1.70001-1.70001,2.63-3.96002,2.63-6.37,0-2.40002-.92999-4.66003-2.63-6.36005ZM10.40608,14.48609l-1.06-3.19,1.95001-1.95001,3.19,1.06,1.06,3.17999-1.96002,1.96002-3.17999-1.06ZM15.27607,16.68604l1.41003-1.40997,12.72998,12.71997-1.41998,1.42004-12.72003-12.73004ZM27.63606,32.61604l4.98004-4.97998c.94,1.81,2.42999,3.29004,4.25,4.22998l-5,5c-.94-1.81995-2.42004-3.31-4.23004-4.25Z"/>
  <path d="M47.09272,42.85005l-4.24316,4.24268c-.1875.1875-.29297.44189-.29297.70703s.10547.51953.29297.70703l2.12207,2.12109c.75488.75537,1.75977,1.17139,2.82812,1.17139s2.07227-.41602,2.82812-1.17139,1.17188-1.75977,1.17188-2.82861c0-1.06836-.41602-2.07275-1.17188-2.82812l-2.12109-2.12109c-.39062-.39062-1.02344-.39062-1.41406,0ZM49.21381,46.3852c.37793.37793.58594.87988.58594,1.41406,0,.53467-.20801,1.03662-.58594,1.41455-.75586.75488-2.07227.75488-2.82812,0l-1.41504-1.41406,2.8291-2.82861,1.41406,1.41406Z"/>
  <path d="M45.67768,40.02143l-2.12109-2.12109c-1.50977-1.51172-4.14648-1.51172-5.65625,0-.75586.75537-1.17188,1.75977-1.17188,2.82812s.41602,2.07275,1.17188,2.82812l2.12109,2.12158c.1875.1875.44141.29297.70703.29297s.51953-.10547.70703-.29297l4.24219-4.24268c.39062-.39062.39062-1.02344,0-1.41406ZM40.72846,43.55659l-1.41406-1.41406c-.37793-.37793-.58594-.87988-.58594-1.41406s.20801-1.03613.58594-1.41406.87988-.58594,1.41406-.58594,1.03613.20801,1.41406.58594l1.41406,1.41406-2.82812,2.82812Z"/>
  <circle cx="50.29151" cy="39.04695" r="1"/>
</svg>