<?xml version="1.0" encoding="UTF-8"?>
<svg id="Outline" xmlns="http://www.w3.org/2000/svg" version="1.1" viewBox="0 0 64 64">
  <!-- Generator: Adobe Illustrator 29.3.1, SVG Export Plug-In . SVG Version: 2.1.0 Build 151)  -->
  <path d="M45.98031,12.00629c-.57001-.64996-1.38995-1.01996-2.25-1.01996-1.47998,0-2.75,1.10999-2.94995,2.57996l-.47003,3.42004h-11.97998l.34998-2.64001c.02002-.13.03003-.27002.03003-.39001,0-1.64001-1.34003-2.96997-2.98004-2.96997-1.48999,0-2.76001,1.10999-2.94995,2.57996l-1.27002,9.32001c-.08002.54004.31,1.05005.85999,1.12.53998.07001,1.04999-.31,1.12-.84998l1.27002-9.33002c.07001-.47998.47998-.83997.96997-.83997.53003,0,.98004.44.98004.96997,0,.06-.01001.12-.01001.15002l-1.70001,12.48999v.03998l-.21997,1.52002c0,.02002,0,.03003-.01001.04999l-3.53003,25.94c-.07001.48004-.47998.84003-.96997.84003-.29004,0-.55005-.12-.73999-.34003-.19-.20996-.27002-.48999-.23004-.77997l3.10999-22.80005c.08002-.53998-.31-1.04999-.85999-1.12-.53998-.06995-1.04999.31-1.12.86005l-3.10999,22.78998c-.12.84998.13,1.71002.70001,2.35999.56.65002,1.38,1.03003,2.25,1.03003,1.48999,0,2.76001-1.10999,2.94995-2.58002l.20001-1.41998h11.98004l-.08002.62c-.12.84998.14001,1.70996.70001,2.35999.57001.65002,1.38995,1.02002,2.25,1.02002,1.47998,0,2.75-1.10999,2.94995-2.58002l5.46002-40.03998c.12-.85004-.14001-1.71002-.70001-2.36005ZM28.05032,18.98633h11.98999l-.27997,2h-11.97998l.26996-2ZM26.98031,26.87634c0-.02002,0-.03003.01001-.05005l.52002-3.83997h11.97998l-.53998,4h-11.98999l.01996-.10999ZM26.69033,28.98633h11.97998l-.26996,2h-11.99005l.28003-2ZM26.14035,32.98633h11.98999l-.54999,4h-11.98004l.54004-4ZM35.67031,50.98633h-11.97998l.27002-2h11.97998l-.27002,2ZM36.2203,46.98633h-11.98999l.55005-4h11.97998l-.54004,4ZM25.05032,40.98633l.27002-2h11.98999l-.27002,2h-11.98999ZM39.24032,54.13629c-.06.48004-.47998.85004-.96997.85004-.29004,0-.55005-.12-.73999-.34003-.19-.20996-.27002-.48999-.23004-.76996l5.46002-40.04004c.06-.47998.47998-.84998.96997-.84998.29004,0,.55005.12.73999.33997.19.21002.27002.48999.23004.77002l-5.46002,40.03998Z"/>
  <path d="M31.9476,12.58398l-.06543,1.89062c-.01172.33203.14258.64746.41113.84277.27051.19629.61816.24707.92969.13086l1.77734-.64551,1.77734.64551c.11129.041.22647.06053.34166.06055.55689.00007,1.01871-.47996.99916-1.03418l-.06543-1.89062,1.16406-1.49121c.20508-.26172.26562-.6084.16309-.92383-.10254-.31641-.35547-.56055-.6748-.65234l-1.81836-.52246-1.05762-1.56738c-.37305-.55078-1.28516-.55078-1.6582,0l-1.05762,1.56738-1.81836.52246c-.31934.0918-.57227.33594-.6748.65234-.10254.31543-.04199.66211.16309.92383l1.16406,1.49121ZM34.01498,10.81641c.22559-.06445.4209-.20703.55273-.40137l.43262-.6416.43262.6416c.13184.19434.32715.33691.55273.40137l.74316.21387-.47559.60938c-.14453.18457-.21973.41504-.21094.64941l.02637.77344-.72656-.26367c-.11035-.04004-.22656-.06055-.3418-.06055s-.23145.02051-.3418.06055l-.72656.26367.02637-.77344c.00879-.23438-.06641-.46484-.21094-.64941l-.47559-.60938.74316-.21387Z"/>
  <circle cx="22.00033" cy="26.98633" r="1"/>
</svg>