<?xml version="1.0" encoding="UTF-8"?>
<svg id="Outline" xmlns="http://www.w3.org/2000/svg" version="1.1" viewBox="0 0 64 64">
  <!-- Generator: Adobe Illustrator 29.3.1, SVG Export Plug-In . SVG Version: 2.1.0 Build 151)  -->
  <path d="M54.98184,13.54789l-5.65967-5.65967c-1.1333-1.1333-3.11279-1.13232-4.24414,0l-8.33008,8.33008c-.39062.39062-.39062,1.02344,0,1.41406s1.02344.39062,1.41406,0l8.33057-8.33008c.37598-.37695,1.03857-.37695,1.41553,0l4.61475,4.61523-3.59131,1.53809c-.38525.16504-.62695.55273-.60498.97119l.2417,4.64893-3.42432,1.28271c-.38232.14355-.63916.50488-.64844.91309l-.11621,4.94092-4.11816,2.15674c-.35059.18359-.56006.55664-.53418.95166l.37012,5.59717-3.43024,3.42407.2149-1.93433c.03369-.30176-.07178-.60254-.28662-.81738l-9.1958-9.1958,5.11279-5.1123c.39062-.39062.39062-1.02344,0-1.41406s-1.02344-.39062-1.41406,0l-5.24402,5.24359c-1.11334-.52618-2.48145-.34119-3.401.57916l-13.43506,13.43506c-.24512.24512-.3457.59961-.26611.93652.07959.3374.32812.60938.65674.71924l2.57666.85889c2.33105.77686,4.48193,2.10596,6.21973,3.84375,1.72852,1.72852,3.05322,3.8667,3.83154,6.18311l.8828,2.62593c.22855.67983,1.14873.8961,1.6548.38872l11.31396-11.31348c.16064-.16064.26172-.37109.28662-.59668l.15021-1.35229c.09448-.04688.18805-.09814.26678-.17651l5.23975-5.22998c.2041-.2041.31055-.48633.2915-.77393l-.35742-5.40039,4.06348-2.12793c.32227-.16846.52734-.49854.53564-.8623l.11426-4.85449,3.47705-1.30273c.4082-.15332.67041-.55322.64746-.98828l-.24365-4.68359,4.30859-1.84521c.30518-.13086.52539-.4043.58838-.72998.06299-.32617-.04004-.66211-.2749-.89648ZM34.22598,44.20267l-9.92529,9.92432-.36865-1.09668c-.87549-2.60742-2.36719-5.01416-4.31299-6.95996-1.95654-1.95654-4.37744-3.45264-7.00146-4.32715l-1.0415-.34717,12.29102-12.29102c.38965-.39014,1.0249-.39014,1.41455,0l9.55957,9.55957-.61523,5.53809Z"/>
  <path d="M21.03897,34.76224l-4.24268,4.24219c-.1875.1875-.29297.44189-.29297.70703s.10547.51953.29297.70703l8.48535,8.48535c.19531.19531.45117.29297.70703.29297s.51172-.09766.70703-.29297l2.59473-2.59473c.15332-.15332.25244-.35205.2832-.56641l.41016-2.88525c.04395-.31104-.06055-.62549-.2832-.84766l-7.24756-7.24756c-.39062-.39062-1.02344-.39062-1.41406,0ZM27.64053,45.13089l-1.65186,1.65186-7.07129-7.07129,2.82861-2.82812,6.18701,6.1875-.29248,2.06006Z"/>
  <path d="M23.86715,31.93351c-.39056.3905-.39056,1.02368,0,1.41418.3905.3905,1.02368.3905,1.41418,0,.39056-.3905.39056-1.02368,0-1.41418-.3905-.39056-1.02368-.39056-1.41418,0Z"/>
  <path d="M28.81686,36.88321c.39056-.3905.39056-1.02368,0-1.41418-.3905-.3905-1.02368-.3905-1.41418,0s-.3905,1.02368,0,1.41418c.3905.39056,1.02368.39056,1.41418,0Z"/>
  <path d="M31.64529,39.71164c.39056-.3905.39056-1.02368,0-1.41418-.3905-.39056-1.02368-.39056-1.41418,0-.3905.3905-.3905,1.02368,0,1.41418.3905.39056,1.02368.39056,1.41418,0Z"/>
  <circle cx="34.65976" cy="19.77945" r="1"/>
</svg>