<?xml version="1.0" encoding="UTF-8"?>
<svg id="Outline" xmlns="http://www.w3.org/2000/svg" version="1.1" viewBox="0 0 64 64">
  <!-- Generator: Adobe Illustrator 29.3.1, SVG Export Plug-In . SVG Version: 2.1.0 Build 151)  -->
  <path d="M41,25h-1v-1c0-.54999-.45001-1-1-1s-1,.45001-1,1v1h-2.03003c-.90997-1.21002-2.33997-2-3.96997-2s-3.06.78998-3.96997,2h-2.03003v-10.70001l3.53998-5.29999h1.46002v6.17999c-1.15997.41998-2,1.52002-2,2.82001,0,1.64996,1.34998,3,3,3s3-1.35004,3-3c0-1.29999-.84003-2.40002-2-2.82001v-6.17999h1.46002l3.53998,5.29999v1.70001c0,.54999.45001,1,1,1s1-.45001,1-1v-2c0-.20001-.06-.39001-.16998-.54999l-4-6c-.17999-.28003-.5-.45001-.83002-.45001h-6c-.33002,0-.65002.16998-.83002.45001l-4,6c-.10999.15997-.16998.34998-.16998.54999v11h-1c-.54999,0-1,.45001-1,1v4c0,.54999.45001,1,1,1h1v22.5c0,1.92999,1.57001,3.5,3.5,3.5.94,0,1.82001-.35999,2.47998-1.02002.65002-.65002,1.02002-1.54999,1.02002-2.47998v-15.5c0-.54999.45001-1,1-1,.27002,0,.51001.09998.71002.31.19.17999.28998.41998.28998.69v15.5c0,1.92999,1.57001,3.5,3.5,3.5.94,0,1.82001-.35999,2.47998-1.02002.65002-.65002,1.02002-1.54999,1.02002-2.47998v-22.5h1c.54999,0,1-.45001,1-1v-4c0-.54999-.45001-1-1-1ZM32,17c.54999,0,1,.45001,1,1s-.45001,1-1,1-1-.45001-1-1,.45001-1,1-1ZM32,25c1.65002,0,3,1.34998,3,3s-1.34998,3-3,3-3-1.35004-3-3,1.34998-3,3-3ZM24,29v-2h3.09998c-.06.32001-.09998.65997-.09998,1,0,.33997.03998.67999.09998,1h-3.09998ZM38,53.5c0,.39996-.15997.78998-.44,1.06-.27997.27997-.65997.44-1.06.44-.83002,0-1.5-.67004-1.5-1.5v-15.5c0-.81-.32001-1.57001-.87-2.10999-.56-.57001-1.32001-.89001-2.13-.89001-1.65002,0-3,1.34998-3,3v15.5c0,.39996-.15997.78998-.44,1.06-.27997.27997-.65997.44-1.06.44-.83002,0-1.5-.67004-1.5-1.5v-22.5h2.03003c.90997,1.20996,2.33997,2,3.96997,2s3.06-.79004,3.96997-2h2.03003v22.5ZM40,29h-3.09998c.06-.32001.09998-.66003.09998-1,0-.34003-.03998-.67999-.09998-1h3.09998v2Z"/>
  <circle cx="39" cy="20" r="1"/>
</svg>