<?xml version="1.0" encoding="UTF-8"?>
<svg id="Outline" xmlns="http://www.w3.org/2000/svg" version="1.1" viewBox="0 0 64 64">
  <!-- Generator: Adobe Illustrator 29.5.1, SVG Export Plug-In . SVG Version: 2.1.0 Build 141)  -->
  <path d="M56,25c.55,0,1-.45,1-1v-3c0-.55-.45-1-1-1h-4c-.55,0-1,.45-1,1v1h-9v-9h1c.55,0,1-.45,1-1v-4c0-.55-.45-1-1-1h-22c-.55,0-1,.45-1,1v4c0,.55.45,1,1,1h1v9h-9v-1c0-.55-.45-1-1-1h-4c-.55,0-1,.45-1,1v22c0,.55.45,1,1,1h4c.55,0,1-.45,1-1v-1h9v9h-1c-.55,0-1,.45-1,1v4c0,.55.45,1,1,1h22c.55,0,1-.45,1-1v-4c0-.55-.45-1-1-1h-1v-9h9v1c0,.55.45,1,1,1h4c.55,0,1-.45,1-1v-15c0-.55-.45-1-1-1s-1,.45-1,1v14h-2v-20h2v2c0,.55.45,1,1,1ZM11,42h-2v-20h2v20ZM22,9h20v2h-4c-.55,0-1,.45-1,1s.45,1,1,1h2v9.4c-4.92,2.53-11.08,2.53-16,0v-9.4h10c.55,0,1-.45,1-1s-.45-1-1-1h-12v-2ZM42,55h-20v-2h20v2ZM24,51v-9.4c5.05-2.6,10.95-2.6,16,0v9.4h-16ZM51,40h-9.76c-5.81-3.12-12.67-3.12-18.48,0h-9.76v-16h9.76c2.82,1.52,6.01,2.33,9.24,2.33s6.42-.81,9.24-2.33h9.76v16Z"/>
  <path d="M22,26h-6c-.552,0-1,.448-1,1s.448,1,1,1h6c.552,0,1-.448,1-1s-.448-1-1-1Z"/>
</svg>