<?xml version="1.0" encoding="UTF-8"?>
<svg id="Outline" xmlns="http://www.w3.org/2000/svg" version="1.1" viewBox="0 0 64 64">
  <!-- Generator: Adobe Illustrator 29.5.1, SVG Export Plug-In . SVG Version: 2.1.0 Build 141)  -->
  <path d="M37.154,35.011c-.554-.086-1.056.295-1.138.84l-3,20c-.082.546.295,1.056.841,1.137.051.008.101.011.149.011.487,0,.914-.356.988-.852l3-20c.082-.546-.295-1.056-.841-1.137Z"/>
  <path d="M44.857,35.011c-.546.082-.923.591-.841,1.137l3,20c.074.496.501.852.988.852.049,0,.099-.003.149-.011.546-.082.923-.591.841-1.137l-3-20c-.081-.545-.58-.927-1.138-.84Z"/>
  <path d="M39.147,48.01c-.544-.078-1.054.302-1.132.848l-1,7c-.078.547.302,1.053.849,1.131.048.007.096.01.143.01.49,0,.918-.36.989-.858l1-7c.078-.547-.302-1.053-.849-1.131Z"/>
  <path d="M42.864,48.01c-.547.078-.927.584-.849,1.131l1,7c.071.499.499.858.989.858.047,0,.095-.003.143-.01.547-.078.927-.584.849-1.131l-1-7c-.078-.546-.585-.93-1.132-.848Z"/>
  <path d="M56.901,48.846c-.188-.75-.656-1.43-1.353-1.848-1.395-.837-3.284-.359-4.115,1.029-.658,1.096-.558,3.888-.484,5.038.021.328.202.625.483.793.282.169.63.188.928.053,1.049-.476,3.559-1.701,4.218-2.797.42-.699.511-1.519.323-2.268ZM54.863,50.084c-.165.258-.969.791-1.962,1.327.006-1.129.098-2.09.247-2.356.282-.469.903-.623,1.371-.342.473.284.627.899.344,1.372Z"/>
  <path d="M51.36,44.911c1.049-.476,3.56-1.701,4.218-2.797.843-1.404.371-3.275-1.029-4.116-1.349-.81-3.287-.355-4.115,1.029-.658,1.096-.558,3.888-.484,5.038.045.679.793,1.126,1.411.847ZM52.148,40.055c.266-.474.917-.615,1.371-.342.473.284.627.899.344,1.372-.165.258-.969.791-1.962,1.327.006-1.129.098-2.089.247-2.356Z"/>
  <path d="M28.727,46.688c-.755-.189-1.578-.102-2.264.31-1.392.834-1.86,2.731-1.029,4.116.658,1.096,3.169,2.321,4.218,2.797.301.136.645.116.928-.053.281-.169.462-.466.483-.793.073-1.149.174-3.941-.484-5.036-.414-.689-1.098-1.151-1.851-1.34ZM27.148,50.084c-.283-.473-.129-1.088.344-1.371.467-.28,1.092-.122,1.37.342.15.266.242,1.227.248,2.356-.993-.536-1.797-1.068-1.962-1.327Z"/>
  <path d="M29.73,37.675c-.75-.188-1.569-.096-2.268.323-1.37.821-1.846,2.754-1.029,4.116.658,1.096,3.169,2.321,4.218,2.797.132.06.272.089.413.089.521,0,.965-.414.998-.936.073-1.149.174-3.941-.484-5.037-.42-.698-1.099-1.165-1.848-1.352ZM28.148,41.084c-.283-.473-.129-1.088.344-1.372.469-.282,1.091-.125,1.37.342.15.266.242,1.227.248,2.356-.993-.536-1.797-1.068-1.962-1.327Z"/>
  <path d="M40.006,21h-4c-.55,0-1,.45-1,1s.45,1,1,1h4c2.42,0,4.43,1.72,4.9,4h-12.9c-1.97,0-3.93.71-5.66,2.05-.77.59-2.02.95-3.34.95s-2.57-.36-3.34-.95c-1.44-1.11-3.03-1.79-4.66-1.99v-4.06h17c.55,0,1-.45,1-1s-.45-1-1-1h-6v-4h1c.55,0,1-.45,1-1,0-1.65,1.35-3,3-3h6c2.76,0,5-2.24,5-5,0-.55-.45-1-1-1h-24c-.55,0-1,.45-1,1v2c0,.55.45,1,1,1s1-.45,1-1v-1h21.83c-.41,1.16-1.53,2-2.83,2h-6c-2.42,0-4.43,1.72-4.9,4h-8.1v-1c0-.55-.45-1-1-1s-1,.45-1,1v2c0,.55.45,1,1,1h1v4h-3v-2c0-.55-.45-1-1-1h-6c-.55,0-1,.45-1,1v12c0,.55.45,1,1,1h6c.55,0,1-.45,1-1v-1.91c1.19.19,2.36.71,3.44,1.54,1.13.87,2.79,1.37,4.56,1.37s3.43-.5,4.56-1.37c1.38-1.07,2.92-1.63,4.44-1.63h4v3c0,.55.45,1,1,1h8c.55,0,1-.45,1-1v-3c.55,0,1-.45,1-1,0-3.86-3.14-7-7-7ZM20.006,17h4v4h-4v-4ZM13.006,30h-4v-10h4v10ZM44.006,31h-6v-2h6v2Z"/>
</svg>