<?xml version="1.0" encoding="UTF-8"?>
<svg id="Outline" xmlns="http://www.w3.org/2000/svg" version="1.1" viewBox="0 0 64 64">
  <!-- Generator: Adobe Illustrator 29.5.1, SVG Export Plug-In . SVG Version: 2.1.0 Build 141)  -->
  <path d="M50.13,51.89c-.56-.57-1.32-.89-2.13-.89h-.05c-.45-6.79-5.43-12.37-11.95-13.7v-4.3h1c1.65,0,3-1.35,3-3,0-.35-.07-.69-.18-1h.18c1.65,0,3-1.35,3-3,0-.77-.3-1.47-.78-2,.48-.53.78-1.23.78-2s-.3-1.47-.78-2c.48-.53.78-1.23.78-2,0-1.65-1.35-3-3-3h-3.52l-.48-.6v-4.4c0-.81-.32-1.57-.87-2.11-.56-.57-1.32-.89-2.13-.89-1.65,0-3,1.35-3,3v.03c-.17-.02-.33-.03-.5-.03-1.89,0-3.66.85-4.84,2.33l-.57.7c-.83,1.04-2,1.71-3.3,1.9-.43-1.12-1.51-1.93-2.79-1.93h-2c-1.65,0-3,1.35-3,3v8c0,.55.45,1,1,1s1-.45,1-1v-8c0-.55.45-1,1-1h2c.55,0,1,.45,1,1v14c0,.55-.45,1-1,1h-2c-.55,0-1-.45-1-1v-2c0-.55-.45-1-1-1s-1,.45-1,1v2c0,1.65,1.35,3,3,3h2c1.3,0,2.4-.84,2.82-2h2.02l5.84,1.95c.11.03.21.05.32.05h1v4.3c-6.52,1.33-11.5,6.91-11.95,13.7h-.05c-1.65,0-3,1.35-3,3,0,.81.32,1.57.87,2.11.56.57,1.32.89,2.13.89h3c.55,0,1-.45,1-1s-.45-1-1-1h-3c-.512,0-1-.445-1-1,0-.55.45-1,1-1h29.999c.545,0,1.001.46,1.001,1,0,.55-.45,1-1,1h-23c-.55,0-1,.45-1,1s.45,1,1,1h23c1.65,0,3-1.35,3-3,0-.81-.32-1.57-.87-2.11ZM32,10c0-.55.45-1,1-1,.541,0,1,.462,1,1v1.95c-.57-.61-1.25-1.09-2-1.42v-.53ZM29.16,31l-5.84-1.95c-.11-.03-.21-.05-.32-.05h-2v-12.08c1.82-.25,3.48-1.17,4.65-2.64l.57-.7c.8-1.01,2-1.58,3.28-1.58s2.48.57,3.28,1.58l1.14,1.42h-3.92c-.55,0-1,.45-1,1s.45,1,1,1h10c.55,0,1,.45,1,1s-.45,1-1,1h-8c-.55,0-1,.45-1,1s.45,1,1,1h8c.55,0,1,.45,1,1s-.45,1-1,1h-8c-.55,0-1,.45-1,1s.45,1,1,1h8c.55,0,1,.45,1,1s-.45,1-1,1h-8c-.55,0-1,.45-1,1s.45,1,1,1h5c.55,0,1,.45,1,1s-.45,1-1,1h-7.84ZM34,33v4.05c-.33-.02-.66-.05-1-.05s-.67.03-1,.05v-4.05h2ZM20.04,51c.51-6.7,6.13-12,12.96-12s12.45,5.3,12.96,12h-25.92Z"/>
</svg>