<?xml version="1.0" encoding="UTF-8"?>
<svg id="Outline" xmlns="http://www.w3.org/2000/svg" version="1.1" viewBox="0 0 64 64">
  <!-- Generator: Adobe Illustrator 29.5.1, SVG Export Plug-In . SVG Version: 2.1.0 Build 141)  -->
  <path d="M56,37c.55,0,1-.45,1-1v-4c0-.55-.45-1-1-1h-6c-.55,0-1,.45-1,1v.56c-.59-.35-1.27-.56-2-.56-1.2,0-2.27.54-3,1.38-.73-.84-1.8-1.38-3-1.38s-2.27.54-3,1.38c-.73-.84-1.8-1.38-3-1.38s-2.27.54-3,1.38c-.73-.84-1.8-1.38-3-1.38-.73,0-1.41.21-2,.56v-3.56h1c.55,0,1-.45,1-1v-4c0-.55-.45-1-1-1h-1.15l-.86-5.16c-.08-.49-.5-.84-.99-.84h-4c-.49,0-.91.35-.99.84l-.86,5.16h-1.15c-.55,0-1,.45-1,1v4c0,.55.45,1,1,1h1v3.56c-.59-.35-1.27-.56-2-.56s-1.41.21-2,.56v-.56c0-.55-.45-1-1-1h-6c-.55,0-1,.45-1,1v24c0,.55.45,1,1,1h6c.55,0,1-.45,1-1v-.56c.59.35,1.27.56,2,.56,1.07,0,2.07-.42,2.83-1.17.06-.07.11-.14.17-.21.73.84,1.8,1.38,3,1.38s2.27-.54,3-1.38c.73.84,1.8,1.38,3,1.38s2.27-.54,3-1.38c.73.84,1.8,1.38,3,1.38s2.27-.54,3-1.38c.73.84,1.8,1.38,3,1.38s2.27-.54,3-1.38c.73.84,1.8,1.38,3,1.38.73,0,1.41-.21,2-.56v.56c0,.55.45,1,1,1h6c.55,0,1-.45,1-1v-16c0-.55-.45-1-1-1s-1,.45-1,1v15h-4v-22h4v3c0,.55.45,1,1,1ZM19,52c0,.53-.21,1.03-.59,1.41-.38.38-.88.59-1.41.59-1.1,0-2-.9-2-2v-4c0-.55-.45-1-1-1s-1,.45-1,1v7h-4v-22h4v11c0,.55.45,1,1,1s1-.45,1-1v-8c0-1.1.9-2,2-2s2,.9,2,2v16ZM21.85,19h2.3l.67,4h-3.64l.67-4ZM25,52c0,1.1-.9,2-2,2s-2-.9-2-2v-23h4v23ZM19,27v-2h8v2h-8ZM31,52c0,1.1-.9,2-2,2s-2-.9-2-2v-16c0-1.1.9-2,2-2s2,.9,2,2v16ZM37,52c0,1.1-.9,2-2,2s-2-.9-2-2v-16c0-1.1.9-2,2-2s2,.9,2,2v16ZM43,52c0,1.1-.9,2-2,2s-2-.9-2-2v-16c0-1.1.9-2,2-2s2,.9,2,2v16ZM49,52c0,1.1-.9,2-2,2s-2-.9-2-2v-16c0-1.1.9-2,2-2s2,.9,2,2v16Z"/>
  <path d="M23,15c.329,0,.636-.161.823-.432.655-.948,2.177-3.29,2.177-4.568,0-1.654-1.346-3-3-3s-3,1.346-3,3c0,1.278,1.522,3.62,2.177,4.568.187.271.494.432.823.432ZM23,9c.551,0,1,.448,1,.999-.008.306-.424,1.177-1,2.147-.576-.971-.992-1.841-1-2.147,0-.551.449-.999,1-.999Z"/>
  <path d="M13.101,15.344c.904.903,3.637,1.482,4.77,1.689.06.012.12.017.18.017.263,0,.518-.104.707-.293.232-.232.336-.563.277-.887-.208-1.133-.787-3.865-1.691-4.77-1.17-1.171-3.073-1.17-4.243,0-1.149,1.149-1.145,3.099,0,4.243ZM14.515,12.515c.378-.377,1.038-.376,1.414,0,.21.222.532,1.132.811,2.226-1.093-.279-2.003-.601-2.225-.811-.396-.376-.379-1.035,0-1.413Z"/>
  <path d="M27.95,17.05c.06,0,.12-.005.18-.017,1.133-.207,3.865-.786,4.77-1.69.229-.003.593-.825.665-1.004.442-1.103.172-2.402-.665-3.239-1.171-1.171-3.074-1.17-4.243,0-.903.904-1.483,3.637-1.69,4.77-.059.323.044.654.277.887.189.189.444.293.707.293ZM30.071,12.515c.373-.394,1.04-.374,1.414,0,.381.38.378,1.036,0,1.413-.222.211-1.132.532-2.226.812.279-1.093.601-2.003.811-2.225Z"/>
</svg>