<?xml version="1.0" encoding="UTF-8"?>
<svg id="Outline" xmlns="http://www.w3.org/2000/svg" version="1.1" viewBox="0 0 64 64">
  <!-- Generator: Adobe Illustrator 29.5.1, SVG Export Plug-In . SVG Version: 2.1.0 Build 141)  -->
  <path d="M53,22.1v-.1c0-1.65-1.35-3-3-3h-.09c-.48-2.83-2.94-5-5.91-5-.17,0-.34.01-.52.03-.16-.18-.33-.35-.51-.51.02-.18.03-.35.03-.52,0-3.31-2.69-6-6-6-1.79,0-3.47.8-4.6,2.17-1.5-.37-3.05-.13-4.35.62-1.08-1.71-2.98-2.79-5.05-2.79-3.24,0-5.89,2.58-6,5.8-1.84,1.06-3,3.03-3,5.2,0,.34.03.67.09,1h-.09c-1.65,0-3,1.35-3,3v.1c-2.28.47-4,2.49-4,4.9,0,5.38,2.37,10.44,6.5,13.89l1.07.89,1.26,12.52c.15,1.54,1.43,2.7,2.98,2.7h26.38c1.55,0,2.83-1.16,2.98-2.7l.33-3.2c.05-.55-.35-1.04-.9-1.1-.55-.04-1.04.35-1.1.9l-.32,3.2c-.05.51-.47.9-.99.9h-26.38c-.52,0-.94-.39-.99-.9l-1.08-10.76c2.49,1.54,5.33,2.45,8.26,2.62v1.04c0,.55.45,1,1,1h12c.55,0,1-.45,1-1v-1.04c2.93-.17,5.77-1.08,8.26-2.62l-.35,3.56c-.06.55.34,1.04.89,1.1h.1c.51,0,.94-.38,1-.9l.53-5.32,1.07-.89c4.13-3.45,6.5-8.51,6.5-13.89,0-2.41-1.72-4.43-4-4.9ZM18.43,14.32c.4-.17.64-.57.61-.99-.01-.08-.02-.15-.03-.22,0-.04-.01-.07-.01-.11,0-2.21,1.79-4,4-4,1.66,0,3.17,1.06,3.74,2.63.11.31.38.55.7.63.32.08.66,0,.91-.23,1.1-.99,2.61-1.31,4.07-.76.45.17.95.01,1.2-.39.75-1.18,2.01-1.88,3.38-1.88,2.21,0,4,1.79,4,4,0,.23-.03.48-.08.75-.08.38.08.78.4,1.01.36.25.67.56.92.92.23.32.63.48,1.01.4.27-.05.52-.08.75-.08,1.86,0,3.41,1.28,3.86,3h-14.86c-1.65,0-3,1.35-3,3v14c0,.525-.479,1-1,1-.55,0-1-.45-1-1v-8c0-.81-.32-1.57-.87-2.11-.56-.57-1.32-.89-2.13-.89-1.65,0-3,1.35-3,3v3c0,.27-.1.51-.31.71-.18.19-.42.29-.69.29-.55,0-1-.45-1-1v-9c0-1.65-1.35-3-3-3h-.86c-.08-.33-.14-.66-.14-1,0-1.61.95-3.05,2.43-3.68ZM9,27c0-1.31.85-2.41,2.01-2.82.08,1.25.92,2.3,2.07,2.68l1.2,12.03c-3.35-3.05-5.28-7.33-5.28-11.89ZM14,25c-.55,0-1-.45-1-1v-2c0-.55.45-1,1-1h3c.55,0,1,.45,1,1v3h-4ZM37,46h-10v-2h10v2ZM42,25c-.55,0-1,.45-1,1s.45,1,1,1h6.89l-1.37,13.73c-2.45,1.9-5.43,3.03-8.52,3.23v-.96c0-.55-.45-1-1-1h-12c-.55,0-1,.45-1,1v.96c-3.09-.2-6.07-1.33-8.52-3.23l-1.37-13.73h2.89v4c0,1.65,1.35,3,3,3,.746,0,1.556-.305,2.11-.87.57-.56.89-1.32.89-2.13v-3c0-.55.45-1,1-1,.27,0,.51.1.71.31.19.18.29.42.29.69v8c0,1.65,1.35,3,3,3,1.633,0,3-1.371,3-3v-9h6c.55,0,1-.45,1-1s-.45-1-1-1h-6v-3c0-.55.45-1,1-1h17c.55,0,1,.45,1,1v2c0,.55-.45,1-1,1h-8ZM49.72,38.88l1.2-12.04c1.15-.37,1.99-1.41,2.06-2.66,1.17.41,2.02,1.51,2.02,2.82,0,4.56-1.93,8.84-5.28,11.88Z"/>
</svg>