<?xml version="1.0" encoding="UTF-8"?>
<svg id="Outline" xmlns="http://www.w3.org/2000/svg" version="1.1" viewBox="0 0 64 64">
  <!-- Generator: Adobe Illustrator 29.5.1, SVG Export Plug-In . SVG Version: 2.1.0 Build 141)  -->
  <path d="M56.242,15.03l-3.242-.811v-6.22c0-.553-.447-1-1-1h-6c-.553,0-1,.447-1,1v4.22l-12.758-3.189c-.158-.041-.326-.041-.484,0L7.758,15.03c-.445.111-.758.511-.758.97v4c0,.308.142.599.385.788.243.188.558.257.857.182l23.758-5.938,23.758,5.938c.08.021.161.03.242.03.221,0,.437-.073.615-.212.243-.189.385-.48.385-.788v-4c0-.459-.313-.858-.758-.97ZM47,9h4v4.72l-4-1v-3.72ZM55,18.719l-22.758-5.688c-.079-.021-.161-.03-.242-.03s-.163.01-.242.03l-22.758,5.688v-1.938l23-5.75,23,5.75v1.938Z"/>
  <path d="M56,47c.55,0,1-.45,1-1v-6c0-.55-.45-1-1-1h-4c-.55,0-1,.45-1,1v1h-4c-.55,0-1,.45-1,1s.45,1,1,1h4v10H13v-10h11c1.65,0,3-1.35,3-3v-5h10v5c0,1.65,1.35,3,3,3h3c.55,0,1-.45,1-1s-.45-1-1-1h-3c-.55,0-1-.45-1-1v-5h1c.55,0,1-.45,1-1v-4c0-.55-.45-1-1-1h-16c-.55,0-1,.45-1,1v4c0,.55.45,1,1,1h1v5c0,.55-.45,1-1,1h-11v-1c0-.55-.45-1-1-1h-4c-.55,0-1,.45-1,1v16c0,.55.45,1,1,1h4c.55,0,1-.45,1-1v-1h38v1c0,.55.45,1,1,1h4c.55,0,1-.45,1-1v-6c0-.55-.45-1-1-1s-1,.45-1,1v5h-2v-14h2v5c0,.55.45,1,1,1ZM25,31h14v2h-14v-2ZM11,55h-2v-14h2v14Z"/>
  <path d="M32,25c.328,0,.636-.161.823-.432.654-.948,2.177-3.29,2.177-4.568,0-1.654-1.346-3-3-3s-3,1.346-3,3c0,1.278,1.522,3.62,2.177,4.568.188.271.495.432.823.432ZM31,19.999c0-.551.449-.999,1-.999s1,.448,1,.999c-.008.306-.424,1.177-1,2.147-.575-.971-.991-1.841-1-2.147Z"/>
  <path d="M26.87,27.033c.06.012.12.017.18.017.263,0,.518-.104.707-.293.232-.232.336-.563.276-.887-.207-1.133-.786-3.865-1.689-4.77-1.133-1.132-3.109-1.134-4.243,0-1.151,1.151-1.146,3.096,0,4.243.905.903,3.637,1.482,4.77,1.689ZM23.515,22.515c.38-.377,1.037-.377,1.413,0,.211.222.532,1.132.812,2.226-1.093-.279-2.003-.601-2.225-.811-.397-.378-.379-1.032,0-1.413Z"/>
  <path d="M37.13,27.033c1.133-.207,3.864-.786,4.77-1.689h0c.566-.567.879-1.32.879-2.122s-.312-1.555-.879-2.121c-1.134-1.134-3.111-1.132-4.242,0-.904.904-1.483,3.637-1.69,4.77-.06.323.044.654.276.887.189.189.444.293.707.293.06,0,.12-.005.18-.017ZM39.072,22.515c.377-.396,1.033-.382,1.413,0,.372.374.374,1.041,0,1.413-.222.211-1.132.532-2.225.812.279-1.094.601-2.003.812-2.225Z"/>
</svg>