<?xml version="1.0" encoding="UTF-8"?>
<svg id="Outline" xmlns="http://www.w3.org/2000/svg" version="1.1" viewBox="0 0 64 64">
  <!-- Generator: Adobe Illustrator 29.5.1, SVG Export Plug-In . SVG Version: 2.1.0 Build 141)  -->
  <path d="M56,26c.55,0,1-.45,1-1v-4c0-.55-.45-1-1-1h-4c-.55,0-1,.45-1,1v1h-9v-9h1c.55,0,1-.45,1-1v-4c0-.55-.45-1-1-1h-22c-.55,0-1,.45-1,1v4c0,.55.45,1,1,1h1v9h-9v-1c0-.55-.45-1-1-1h-4c-.55,0-1,.45-1,1v22c0,.55.45,1,1,1h4c.55,0,1-.45,1-1v-1h29c.55,0,1-.45,1-1s-.45-1-1-1h-7.72l.69-2.76c.1-.38-.04-.78-.35-1.02l-2.22-1.78,1.35-2.69,1.7-.86c.49-.24.69-.84.44-1.34-.24-.49-.84-.69-1.34-.44l-1.48.74-2.52-1.68c-.46-.31-1.08-.18-1.38.28-.31.45-.18,1.08.28,1.38l2.26,1.51-.91,1.82-1.18-.94c-.43-.35-1.05-.28-1.4.16-.35.43-.28,1.06.16,1.4l4.49,3.6-.65,2.62H13v-16h9.76c2.9,1.56,6.07,2.35,9.24,2.35s6.34-.79,9.24-2.35h9.76v16h-5c-.55,0-1,.45-1,1s.45,1,1,1h5v1c0,.55.45,1,1,1h4c.55,0,1-.45,1-1v-14c0-.55-.45-1-1-1s-1,.45-1,1v13h-2v-20h2v3c0,.55.45,1,1,1ZM11,42h-2v-20h2v20ZM40,22.4c-5.05,2.6-10.95,2.6-16,0v-9.4h16v9.4ZM22,11v-2h20v2h-20Z"/>
  <path d="M16,26c-.553,0-1,.448-1,1s.447,1,1,1h6c.553,0,1-.448,1-1s-.447-1-1-1h-6Z"/>
  <path d="M32.823,44.432c-.375-.541-1.271-.541-1.646,0-.654.948-2.177,3.29-2.177,4.568,0,1.654,1.346,3,3,3s3-1.346,3-3c0-1.278-1.522-3.621-2.177-4.568ZM32,50c-.551,0-1-.448-1-.999.009-.306.425-1.177,1-2.147.576.971.992,1.842,1,2.146,0,.551-.448,1-1,1Z"/>
  <path d="M25.177,49.432c-.654.948-2.177,3.29-2.177,4.568,0,1.654,1.346,3,3,3s3-1.346,3-3c0-1.278-1.522-3.621-2.177-4.568-.375-.541-1.271-.541-1.646,0ZM26,55c-.551,0-1-.448-1-.999.009-.306.425-1.177,1-2.147.576.971.992,1.842,1,2.146,0,.551-.448,1-1,1Z"/>
  <path d="M37.177,49.432c-.654.948-2.177,3.29-2.177,4.568,0,1.654,1.346,3,3,3s3-1.346,3-3c0-1.278-1.522-3.621-2.177-4.568-.375-.541-1.271-.541-1.646,0ZM38,55c-.552,0-1-.449-1-.999.008-.306.424-1.177,1-2.147.575.97.991,1.841,1,2.147,0,.551-.449.999-1,.999Z"/>
</svg>