<?xml version="1.0" encoding="UTF-8"?>
<svg id="Outline" xmlns="http://www.w3.org/2000/svg" version="1.1" viewBox="0 0 64 64">
  <!-- Generator: Adobe Illustrator 29.5.1, SVG Export Plug-In . SVG Version: 2.1.0 Build 141)  -->
  <path d="M55.293,53.466c-1.815,1.816-4.771,1.816-6.586,0-.375-.375-1.039-.375-1.414,0-.879.88-2.049,1.364-3.293,1.364s-2.414-.484-3.293-1.364c-.391-.391-1.023-.391-1.414,0-1.815,1.816-4.771,1.816-6.586,0-.391-.391-1.023-.391-1.414,0-1.815,1.816-4.771,1.816-6.586,0-.391-.391-1.023-.391-1.414,0-.879.88-2.049,1.364-3.293,1.364s-2.414-.484-3.293-1.364c-.375-.375-1.039-.375-1.414,0-1.815,1.816-4.771,1.816-6.586,0-.391-.391-1.023-.391-1.414,0s-.391,1.023,0,1.414c2.372,2.371,6.101,2.577,8.707.614,2.359,1.777,5.641,1.777,8,0,2.359,1.777,5.641,1.777,8,0,2.359,1.777,5.641,1.777,8,0,2.359,1.777,5.641,1.777,8,0,1.18.889,2.59,1.332,4,1.332,1.705,0,3.409-.648,4.707-1.946.391-.391.391-1.023,0-1.414s-1.023-.391-1.414,0Z"/>
  <path d="M16,49.494c2.359,1.777,5.641,1.777,8,0,2.359,1.777,5.641,1.777,8,0,2.359,1.777,5.641,1.777,8,0,2.359,1.777,5.641,1.777,8,0,1.18.889,2.59,1.332,4,1.332,1.705,0,3.409-.648,4.707-1.946.391-.391.391-1.023,0-1.414s-1.023-.391-1.414,0c-1.815,1.816-4.771,1.816-6.586,0-.375-.375-1.039-.375-1.414,0-.879.88-2.049,1.364-3.293,1.364-.341,0-.674-.044-1-.115v-6.678c0-1.481-.264-2.931-.753-4.3,4.24-3.217,6.753-8.227,6.753-13.564,0-9.374-7.626-17-17-17S15,14.799,15,24.173c0,2.472.521,4.869,1.55,7.125.229.503.821.726,1.325.495.502-.229.724-.822.495-1.325-.909-1.993-1.37-4.111-1.37-6.295,0-8.271,6.729-15,15-15s15,6.729,15,15c0,4.557-2.077,8.844-5.601,11.689-.324-.587-.692-1.151-1.108-1.685,2.875-2.387,4.709-5.984,4.709-10.004,0-3.061-1.082-6.024-3.047-8.346-.356-.422-.987-.473-1.409-.118-.421.357-.474.988-.117,1.409,1.659,1.962,2.573,4.467,2.573,7.055,0,6.065-4.935,11-11,11s-11-4.935-11-11,4.935-11,11-11c1.977,0,3.923.536,5.629,1.55.475.283,1.088.126,1.371-.349s.126-1.088-.348-1.37c-2.015-1.198-4.315-1.831-6.651-1.831-7.168,0-13,5.832-13,13,0,4.019,1.835,7.617,4.709,10.004-.416.534-.784,1.098-1.108,1.685-.803-.649-1.535-1.367-2.181-2.147-.352-.426-.982-.484-1.408-.133-.425.353-.485.982-.133,1.408.839,1.014,1.808,1.929,2.875,2.741-.49,1.371-.755,2.823-.755,4.306v6.678c-.326.071-.659.115-1,.115-1.244,0-2.414-.484-3.293-1.364-.375-.375-1.039-.375-1.414,0-1.815,1.816-4.771,1.816-6.586,0-.391-.391-1.023-.391-1.414,0s-.391,1.023,0,1.414c2.372,2.372,6.101,2.577,8.707.614ZM23,42.037c0-2.449.836-4.806,2.352-6.714,1.948,1.166,4.217,1.849,6.648,1.849s4.7-.683,6.648-1.849c1.515,1.908,2.352,4.265,2.352,6.714v5.67c-.097-.082-.202-.15-.293-.241-.391-.391-1.023-.391-1.414,0-1.815,1.816-4.771,1.816-6.586,0-.391-.391-1.023-.391-1.414,0-1.815,1.816-4.771,1.816-6.586,0-.391-.391-1.023-.391-1.414,0-.091.091-.196.159-.293.241v-5.67Z"/>
  <path d="M26,47.173c.552,0,1-.447,1-1v-2.764c0-1.309.309-2.619.895-3.789.247-.494.047-1.095-.447-1.342-.496-.246-1.095-.046-1.342.447-.723,1.446-1.105,3.066-1.105,4.684v2.764c0,.553.448,1,1,1Z"/>
  <path d="M37,43.409v2.764c0,.553.448,1,1,1s1-.447,1-1v-2.764c0-1.617-.382-3.237-1.105-4.684-.247-.493-.847-.693-1.342-.447-.494.247-.694.848-.447,1.342.585,1.17.895,2.48.895,3.789Z"/>
  <path d="M30,47.173c.552,0,1-.447,1-1v-3c0-.553-.448-1-1-1s-1,.447-1,1v3c0,.553.448,1,1,1Z"/>
  <path d="M34,44.173c.552,0,1-.447,1-1v-3c0-.553-.448-1-1-1s-1,.447-1,1v3c0,.553.448,1,1,1Z"/>
</svg>