<?xml version="1.0" encoding="UTF-8"?>
<svg id="Outline" xmlns="http://www.w3.org/2000/svg" version="1.1" viewBox="0 0 64 64">
  <!-- Generator: Adobe Illustrator 29.5.1, SVG Export Plug-In . SVG Version: 2.1.0 Build 141)  -->
  <path d="M16.844,31.432c-.667.966-2.844,4.245-2.844,5.901,0,2.022,1.645,3.667,3.667,3.667s3.667-1.645,3.667-3.667c0-1.656-2.177-4.936-2.844-5.901-.373-.541-1.272-.541-1.646,0ZM17.667,39c-.919,0-1.667-.748-1.667-1.667,0-.534.765-2.042,1.667-3.503.901,1.46,1.667,2.968,1.667,3.503,0,.919-.748,1.667-1.667,1.667Z"/>
  <path d="M55.83,38.05c.77-1.14,1.17-2.48,1.17-3.85v-11.2c0-1.65-1.35-3-3-3-.35,0-.69.07-1,.18v-.18c0-1.65-1.35-3-3-3-.35,0-.69.07-1,.18v-1.18c0-1.65-1.35-3-3-3-1.38,0-2.54.95-2.88,2.22-.35-.14-.73-.22-1.12-.22-1.65,0-3,1.35-3,3v11.4c-.78-1.1-1.94-1.88-3.27-2.16-1.28-.27-2.6-.06-3.73.58-1.13-.64-2.45-.85-3.73-.58-1.33.28-2.49,1.06-3.27,2.16v-11.4c0-1.65-1.35-3-3-3-.39,0-.77.08-1.12.22-.34-1.27-1.5-2.22-2.88-2.22-1.65,0-3,1.35-3,3v1.18c-.31-.11-.65-.18-1-.18-1.65,0-3,1.35-3,3v.18c-.31-.11-.65-.18-1-.18-1.65,0-3,1.35-3,3v11.2c0,1.37.4,2.71,1.17,3.85.54.82.83,1.77.83,2.75v2.38c-1.16.42-2,1.52-2,2.82v2c0,1.65,1.35,3,3,3h7c.55,0,1-.45,1-1s-.45-1-1-1h-7c-.55,0-1-.45-1-1v-2c0-.55.45-1,1-1h14c.55,0,1,.45,1,1v2c0,.55-.45,1-1,1h-3c-.55,0-1,.45-1,1s.45,1,1,1h3c1.65,0,3-1.35,3-3v-2c0-.91-.42-1.72-1.06-2.27.85-.78,1.55-1.69,2.08-2.73.64-1.29.98-2.75.98-4.19,0-1.58.54-3.14,1.53-4.38l1.47-1.83,1.47,1.83c.99,1.24,1.53,2.8,1.53,4.38,0,1.44.34,2.9.99,4.2.52,1.03,1.22,1.94,2.07,2.72-.64.55-1.06,1.36-1.06,2.27v2c0,1.65,1.35,3,3,3h2c.55,0,1-.45,1-1s-.45-1-1-1h-2c-.55,0-1-.45-1-1v-2c0-.55.45-1,1-1h14c.55,0,1,.45,1,1v2c0,.55-.45,1-1,1h-8c-.55,0-1,.45-1,1s.45,1,1,1h8c1.65,0,3-1.35,3-3v-2c0-1.3-.84-2.4-2-2.82v-2.38c0-.98.29-1.93.83-2.75ZM28.97,31.19c-1.27,1.59-1.97,3.59-1.97,5.62,0,1.14-.27,2.28-.77,3.3-.52,1.03-1.26,1.91-2.2,2.61-.14.11-.26.2-.36.28h-12.67v-2.2c0-1.37-.4-2.71-1.17-3.85-.54-.82-.83-1.77-.83-2.75v-11.2c0-.55.45-1,1-1s1,.45,1,1v5c0,.55.45,1,1,1s1-.45,1-1v-8c0-.55.45-1,1-1s1,.45,1,1v8c0,.55.45,1,1,1s1-.45,1-1v-12c0-.55.45-1,1-1s1,.45,1,1v12c0,.55.45,1,1,1s1-.45,1-1v-10c0-.55.45-1,1-1s1,.45,1,1v15.2c0,.46.31.85.75.97.44.11.9-.09,1.12-.48l1.57-2.83c.48-.85,1.3-1.46,2.25-1.66.6-.13,1.21-.09,1.78.11l-1.5,1.88ZM54.17,36.95c-.77,1.14-1.17,2.48-1.17,3.85v2.2h-12.67c-.1-.08-.22-.17-.37-.28-.93-.7-1.67-1.58-2.18-2.6-.51-1.03-.78-2.17-.78-3.31,0-2.03-.7-4.03-1.97-5.63l-1.5-1.87c.57-.2,1.18-.24,1.78-.11.95.2,1.77.81,2.25,1.66l1.57,2.83c.22.39.68.59,1.12.48.44-.12.75-.51.75-.97v-15.2c0-.55.45-1,1-1s1,.45,1,1v10c0,.55.45,1,1,1s1-.45,1-1v-12c0-.55.45-1,1-1s1,.45,1,1v12c0,.55.45,1,1,1s1-.45,1-1v-8c0-.55.45-1,1-1s1,.45,1,1v8c0,.55.45,1,1,1s1-.45,1-1v-5c0-.55.45-1,1-1s1,.45,1,1v11.2c0,.98-.29,1.93-.83,2.75Z"/>
  <path d="M46.333,41c2.021,0,3.667-1.645,3.667-3.667,0-1.656-2.177-4.936-2.844-5.901-.187-.271-.494-.432-.823-.432s-.636.161-.823.432c-.667.966-2.844,4.245-2.844,5.901,0,2.022,1.645,3.667,3.667,3.667ZM46.333,33.83c.901,1.46,1.667,2.968,1.667,3.503,0,.919-.748,1.667-1.667,1.667s-1.667-.748-1.667-1.667c0-.534.766-2.042,1.667-3.503Z"/>
</svg>