<?xml version="1.0" encoding="UTF-8"?>
<svg id="Outline" xmlns="http://www.w3.org/2000/svg" version="1.1" viewBox="0 0 64 64">
  <!-- Generator: Adobe Illustrator 29.5.1, SVG Export Plug-In . SVG Version: 2.1.0 Build 141)  -->
  <path d="M53.944,40c.553,0,1-.447,1-1V14.816c1.161-.414,2-1.514,2-2.816v-2c0-1.654-1.346-3-3-3h-12c-.553,0-1,.447-1,1s.447,1,1,1h12c.552,0,1,.448,1,1v2c0,.552-.448,1-1,1h-18c-.552,0-1-.448-1-1v-2c0-.552.448-1,1-1h2c.553,0,1-.447,1-1s-.447-1-1-1h-2c-1.654,0-3,1.346-3,3v2c0,1.302.839,2.402,2,2.816v34.369c-1.161.414-2,1.514-2,2.816v2c0,1.654,1.346,3,3,3h18c1.654,0,3-1.346,3-3v-2c0-1.302-.839-2.402-2-2.816v-6.184c0-.553-.447-1-1-1s-1,.447-1,1v6h-16v-25.72l2.758.689c.08.021.161.03.242.03.3,0,.589-.135.781-.375l1.783-2.229,2.689,1.349.852,1.702c.176.351.528.553.895.553.729,0,1.222-.791.894-1.447l-.741-1.481,1.678-2.517c.307-.46.183-1.08-.277-1.387-.461-.307-1.082-.183-1.387.277l-1.51,2.265-1.816-.911.94-1.174c.345-.432.274-1.061-.156-1.406-.433-.345-1.061-.272-1.406.156l-3.599,4.499-2.62-.654v-6.22h16v24c0,.553.447,1,1,1ZM53.944,51c.552,0,1,.448,1,1v2c0,.552-.448,1-1,1h-18c-.552,0-1-.448-1-1v-2c0-.552.448-1,1-1h18Z"/>
  <path d="M26.204,24.56l-2.23-3.32c-.15-.22-.38-.37-.64-.43-.26-.05-.53.01-.75.15l-5.67,3.81c-1.55,1.04-2.61,2.62-2.97,4.46l-.84,4.26-.98-.2c-.26-.05-.53.01-.75.15-.22.15-.37.38-.43.64l-3.87,19.62c-.1.55.25,1.07.79,1.18l7.85,1.55c.07.01.13.02.19.02.2,0,.4-.06.56-.17.22-.15.37-.38.43-.64l3.87-19.62c.1-.55-.25-1.07-.79-1.18l-.98-.19.84-4.26c.05-.27.2-.49.42-.64l5.67-3.8c.23-.15.38-.38.43-.64.05-.26,0-.53-.15-.75ZM15.124,54.27l-5.89-1.16,3.48-17.66,5.89,1.16-3.48,17.66ZM19.144,28.09c-.67.45-1.12,1.12-1.27,1.91l-.84,4.26-1.97-.39.84-4.26c.26-1.31,1.02-2.44,2.13-3.18l4.84-3.25,1.11,1.66-4.84,3.25Z"/>
  <path d="M33.435,18.007c-.921-1.372-2.787-1.74-4.163-.819-1.061.712-2.158,3.28-2.581,4.352-.12.306-.083.651.099.923.264.395.724.446,1.184.446,1.297,0,3.679-.093,4.64-.737,1.374-.922,1.743-2.789.821-4.164ZM31.5,20.509c-.258.163-1.213.303-2.339.365.484-1.019.977-1.849,1.226-2.026.459-.307,1.08-.185,1.387.273.308.458.185,1.081-.273,1.388Z"/>
</svg>