<?xml version="1.0" encoding="UTF-8"?>
<svg id="Outline" xmlns="http://www.w3.org/2000/svg" version="1.1" viewBox="0 0 64 64">
  <!-- Generator: Adobe Illustrator 29.5.1, SVG Export Plug-In . SVG Version: 2.1.0 Build 141)  -->
  <path d="M56,55h-5c-.552,0-1,.448-1,1s.448,1,1,1h5c.552,0,1-.448,1-1s-.448-1-1-1Z"/>
  <path d="M52,19c.55,0,1-.45,1-1v-4c0-.55-.45-1-1-1h-3.18c-.42-1.16-1.52-2-2.82-2h-5.64c-2.26-2.49-5.18-4-8.36-4s-6.1,1.51-8.36,4h-5.64c-1.65,0-3,1.35-3,3v4c0,.55.45,1,1,1s1-.45,1-1v-4c0-.55.45-1,1-1h4.11c-1.94,2.97-3.11,6.81-3.11,11,0,1.01.09,2.01.23,3h-1.23c-.55,0-1-.45-1-1v-4c0-.55-.45-1-1-1s-1,.45-1,1v4c0,1.65,1.35,3,3,3h1.59c.16.68.35,1.35.58,2h-1.17c-1.65,0-3,1.35-3,3,0,1.3.84,2.4,2,2.82v.18c0,4.96,2.61,9.32,6.51,11.81l-3.13,6.19h-13.38c-.55,0-1,.45-1,1s.45,1,1,1h39c.55,0,1-.45,1-1s-.45-1-1-1h-4.38l-3.13-6.19c3.9-2.49,6.51-6.85,6.51-11.81v-.18c1.16-.42,2-1.52,2-2.82,0-1.65-1.35-3-3-3h-1.17c.23-.65.42-1.32.58-2h1.59c1.3,0,2.4-.84,2.82-2h3.18c.55,0,1-.45,1-1v-4c0-.55-.45-1-1-1h-3v-2h3ZM49,15h2v2h-2v-2ZM32,9c6.07,0,11,6.73,11,15,0,2.46-.46,4.86-1.3,7h-19.4c-.84-2.14-1.3-4.54-1.3-7,0-8.27,4.93-15,11-15ZM40.37,55h-16.74l2.64-5.24c1.75.79,3.69,1.24,5.73,1.24s3.98-.45,5.73-1.24l2.64,5.24ZM32,49c-6.62,0-12-5.38-12-12h24c0,6.62-5.38,12-12,12ZM45,33c.55,0,1,.45,1,1s-.45,1-1,1h-26c-.55,0-1-.45-1-1s.45-1,1-1h26ZM47,26c0,.55-.45,1-1,1h-1.23c.14-.99.23-1.99.23-3,0-4.19-1.17-8.03-3.11-11h4.11c.55,0,1,.45,1,1v12ZM51,23v2h-2v-2h2Z"/>
  <path d="M32,11c-4.878,0-9,5.953-9,13,0,.552.448,1,1,1s1-.448,1-1c0-5.86,3.271-11,7-11,.552,0,1-.448,1-1s-.448-1-1-1Z"/>
</svg>