<?xml version="1.0" encoding="UTF-8"?>
<svg id="Outline" xmlns="http://www.w3.org/2000/svg" version="1.1" viewBox="0 0 64 64">
  <!-- Generator: Adobe Illustrator 29.5.1, SVG Export Plug-In . SVG Version: 2.1.0 Build 141)  -->
  <path d="M56,39c.55,0,1-.45,1-1v-2c0-1.65-1.35-3-3-3h-4c-1.3,0-2.4.84-2.82,2h-5.18v-3c0-1.65-1.35-3-3-3v-4.87c1.85-1.82,3-4.34,3-7.13,0-5.51-4.49-10-10-10s-10,4.49-10,10c0,2.79,1.15,5.31,3,7.13v4.87c-1.65,0-3,1.35-3,3v3h-5.18c-.42-1.16-1.52-2-2.82-2h-4c-1.65,0-3,1.35-3,3v18c0,1.65,1.35,3,3,3h4c1.3,0,2.4-.84,2.82-2h4.18c.55,0,1-.45,1-1s-.45-1-1-1h-4v-16h5.76c2.9,1.56,6.07,2.35,9.24,2.35s6.34-.79,9.24-2.35h5.76v16h-22c-.55,0-1,.45-1,1s.45,1,1,1h22.18c.42,1.16,1.52,2,2.82,2h4c1.65,0,3-1.35,3-3v-12c0-.55-.45-1-1-1s-1,.45-1,1v12c0,.55-.45,1-1,1h-4c-.55,0-1-.45-1-1v-18c0-.55.45-1,1-1h4c.55,0,1,.45,1,1v2c0,.55.45,1,1,1ZM15,54c0,.55-.45,1-1,1h-4c-.55,0-1-.45-1-1v-18c0-.55.45-1,1-1h4c.55,0,1,.45,1,1v18ZM24,17c0-4.41,3.59-8,8-8s8,3.59,8,8-3.59,8-8,8-8-3.59-8-8ZM37,25.65v3.35h-10v-3.35c1.47.85,3.18,1.35,5,1.35s3.53-.5,5-1.35ZM40,35.4c-5.05,2.6-10.95,2.6-16,0v-3.4c0-.55.45-1,1-1h14c.55,0,1,.45,1,1v3.4Z"/>
  <path d="M32,20c1.654,0,3-1.346,3-3,0-1.302-.839-2.402-2-2.816v-2.184c0-.553-.447-1-1-1s-1,.447-1,1v2.184c-1.161.414-2,1.514-2,2.816,0,1.654,1.346,3,3,3ZM32,16c.552,0,1,.448,1,1s-.448,1-1,1-1-.448-1-1,.448-1,1-1Z"/>
</svg>