<?xml version="1.0" encoding="UTF-8"?>
<svg id="Outline" xmlns="http://www.w3.org/2000/svg" version="1.1" viewBox="0 0 64 64">
  <!-- Generator: Adobe Illustrator 29.5.1, SVG Export Plug-In . SVG Version: 2.1.0 Build 141)  -->
  <path d="M44.356,12.15c-.94-.94-2.34-1.11-3.46-.55-2.45-2.03-5.82-2.65-8.83-1.53-.52.19-.78.77-.59,1.29s.77.78,1.29.59c2.23-.83,4.72-.44,6.59.96l-8.44,8.43-8.43,8.44c-.91-1.21-1.4-2.67-1.4-4.2,0-1.86.73-3.62,2.06-4.94l6.62-6.62c.39-.39.39-1.03,0-1.42s-1.03-.39-1.42,0l-.96.97-4.24-4.23c-1.5-1.51-3.49-2.34-5.62-2.34-4.38,0-7.95,3.57-7.95,7.95v41.05c0,.55.45,1,1,1s1-.45,1-1V14.95c0-3.28,2.67-5.95,5.95-5.95,1.59,0,3.08.62,4.2,1.75l4.25,4.23-1.42,1.42-4.24-4.25c-.75-.74-1.74-1.15-2.79-1.15-2.18,0-3.95,1.77-3.95,3.95v28.05c0,.55.45,1,1,1s1-.45,1-1v-3h3c.55,0,1-.45,1-1v-4c0-.55-.45-1-1-1h-3V14.95c0-1.07.88-1.95,1.95-1.95.52,0,1.01.2,1.38.57l4.24,4.24-1.42,1.41c-1.7,1.71-2.64,3.97-2.64,6.36,0,2.12.74,4.14,2.09,5.75-.56,1.12-.38,2.52.55,3.45,1.13,1.13,3.09,1.16,4.24,0l18.39-18.39c.56-.56.88-1.32.88-2.12s-.32-1.55-.88-2.12ZM17.576,36v2h-2v-2h2ZM42.936,14.98l-18.38,18.38c-.39.39-1.03.39-1.41,0-.4-.39-.4-1.02,0-1.41,0,0,18.38-18.38,18.38-18.39.39-.38,1.03-.38,1.41.01.39.38.39,1.02,0,1.41Z"/>
  <path d="M37.257,26.708c-.531.014-.959.441-.974.973-.02.747-.007,3.263,1,4.27.566.567,1.32.879,2.121.879s1.556-.312,2.121-.879c1.17-1.169,1.17-3.073,0-4.243-1.006-1.007-3.524-1.022-4.269-1ZM40.11,30.536c-.376.376-1.035.376-1.411,0-.176-.194-.33-.956-.392-1.805.849.061,1.61.215,1.805.39.389.39.389,1.024-.002,1.414Z"/>
  <path d="M42.913,21.051c-.531.014-.958.441-.973.973-.02.747-.007,3.263,1,4.27.585.584,1.353.876,2.121.876s1.536-.292,2.121-.877c1.17-1.169,1.17-3.073,0-4.243-1.007-1.007-3.521-1.022-4.27-1ZM45.769,23.465c.389.39.389,1.024,0,1.413-.39.389-1.024.391-1.412.002-.176-.194-.33-.956-.392-1.806.849.061,1.61.215,1.805.391Z"/>
  <path d="M35.869,33.364c-1.008-1.008-3.527-1.021-4.27-1-.532.014-.959.441-.974.973-.02.747-.006,3.263,1,4.268,1.142,1.142,3.106,1.138,4.243.001,1.151-1.151,1.148-3.095,0-4.243ZM34.455,36.192c-.379.379-1.036.376-1.413.001-.176-.194-.33-.956-.391-1.805.848.061,1.61.215,1.804.39.382.344.369,1.045,0,1.413Z"/>
  <path d="M47.889,34.071c-1.007-1.007-3.521-1.021-4.27-.999-.531.014-.958.441-.973.973-.02.747-.007,3.263,1,4.269.585.585,1.353.877,2.121.877.79,0,1.562-.317,2.121-.877,1.152-1.153,1.149-3.093,0-4.243ZM46.475,36.899c-.39.388-1.023.39-1.413.001-.176-.194-.329-.956-.391-1.805.849.061,1.61.215,1.805.391.389.351.38,1.034,0,1.413Z"/>
  <path d="M53.547,28.414c-1.008-1.006-3.523-1.021-4.27-.999-.532.014-.959.441-.974.973-.02.747-.006,3.262,1,4.269,1.138,1.14,3.08,1.163,4.243,0,1.17-1.169,1.17-3.073,0-4.243ZM52.133,31.243c-.391.391-1.024.39-1.413.002-.176-.194-.33-.956-.391-1.806.849.061,1.61.215,1.805.391.389.39.389,1.023,0,1.413Z"/>
  <path d="M42.233,39.728c-1.007-1.006-3.521-1.021-4.271-1-.53.014-.958.441-.973.973-.02.747-.007,3.263,1,4.27,1.139,1.14,3.081,1.16,4.244,0,1.168-1.169,1.168-3.072,0-4.242ZM40.819,42.556c-.391.391-1.026.39-1.413.002-.176-.194-.33-.956-.392-1.806.85.061,1.611.215,1.806.391.389.39.388,1.024,0,1.413Z"/>
  <path d="M14.576,46c-.553,0-1,.448-1,1v9c0,.552.447,1,1,1s1-.448,1-1v-9c0-.552-.447-1-1-1Z"/>
</svg>