<?xml version="1.0" encoding="UTF-8"?>
<svg id="Outline" xmlns="http://www.w3.org/2000/svg" version="1.1" viewBox="0 0 64 64">
  <!-- Generator: Adobe Illustrator 29.5.1, SVG Export Plug-In . SVG Version: 2.1.0 Build 141)  -->
  <path d="M56,39c.55,0,1-.45,1-1v-4c0-.55-.45-1-1-1h-4c-.55,0-1,.45-1,1v1h-9v-4c0-.55-.45-1-1-1s-1,.45-1,1v4.4c-4.92,2.53-11.08,2.53-16,0v-10.4h16v2c0,.55.45,1,1,1s1-.45,1-1v-2h1c.55,0,1-.45,1-1v-4c0-.55-.45-1-1-1h-4v-2.03c.2-.04.39-.12.54-.26l3.7-3.71h8.76c.55,0,1-.45,1-1v-4c0-.55-.45-1-1-1h-10.83c-.26,0-.52.11-.71.29l-3.7,3.71h-10.76c-1.65,0-3,1.35-3,3,0,1.3.84,2.4,2,2.82v2.18h-4c-.55,0-1,.45-1,1v4c0,.55.45,1,1,1h1v10h-9v-1c0-.55-.45-1-1-1h-4c-.55,0-1,.45-1,1v22c0,.55.45,1,1,1h4c.55,0,1-.45,1-1v-1h38v1c0,.55.45,1,1,1h4c.55,0,1-.45,1-1v-14c0-.55-.45-1-1-1s-1,.45-1,1v13h-2v-20h2v3c0,.55.45,1,1,1ZM11,55h-2v-20h2v20ZM26,13h11.17c.27,0,.52-.11.71-.29l3.71-3.71h9.41v2h-8.17c-.27,0-.52.11-.71.29l-3.71,3.71h-12.41c-.55,0-1-.45-1-1s.45-1,1-1ZM37,17v2h-10v-2h10ZM22,21h20v2h-20v-2ZM51,53H13v-16h9.76c2.82,1.52,6.01,2.33,9.24,2.33s6.42-.81,9.24-2.33h9.76v16Z"/>
  <path d="M22,49h-6c-.552,0-1,.447-1,1s.448,1,1,1h6c.552,0,1-.447,1-1s-.448-1-1-1Z"/>
</svg>