<?xml version="1.0" encoding="UTF-8"?>
<svg id="Outline" xmlns="http://www.w3.org/2000/svg" version="1.1" viewBox="0 0 64 64">
  <!-- Generator: Adobe Illustrator 29.5.1, SVG Export Plug-In . SVG Version: 2.1.0 Build 141)  -->
  <path d="M42,31c.55,0,1-.45,1-1v-6c0-.55-.45-1-1-1h-4c-.55,0-1,.45-1,1v1h-6c-.55,0-1,.45-1,1s.45,1,1,1h6v10h-13c-1.65,0-3,1.35-3,3v11h-10V13h10v11c0,1.65,1.35,3,3,3h3c.55,0,1-.45,1-1s-.45-1-1-1h-3c-.55,0-1-.45-1-1v-11h1c.55,0,1-.45,1-1v-4c0-.55-.45-1-1-1H8c-.55,0-1,.45-1,1v4c0,.55.45,1,1,1h1v38h-1c-.55,0-1,.45-1,1v4c0,.55.45,1,1,1h16c.55,0,1-.45,1-1v-4c0-.55-.45-1-1-1h-1v-11c0-.55.45-1,1-1h13v1c0,.55.45,1,1,1h4c.55,0,1-.45,1-1v-6c0-.55-.45-1-1-1s-1,.45-1,1v5h-2v-14h2v5c0,.55.45,1,1,1ZM9,9h14v2h-14v-2ZM23,55h-14v-2h14v2Z"/>
  <path d="M53,42.763v-21.525c2.449-1.42,4-4.07,4-6.92,0-3.065-1.794-5.899-4.57-7.22-.309-.147-.674-.126-.964.058-.29.183-.466.502-.466.845v6h-4v-6c0-.343-.176-.662-.466-.845-.291-.184-.655-.205-.964-.058-2.776,1.321-4.57,4.155-4.57,7.22,0,2.85,1.551,5.5,4,6.92v21.525c-2.449,1.42-4,4.07-4,6.92,0,3.065,1.794,5.899,4.57,7.22.309.148.673.126.964-.058.29-.183.466-.502.466-.845v-6.317h4v6.317c0,.343.176.662.466.845.163.103.348.155.534.155.146,0,.293-.032.43-.097,2.776-1.321,4.57-4.155,4.57-7.22,0-2.85-1.551-5.5-4-6.92ZM53,54.142v-5.46c0-.552-.448-1-1-1h-6c-.552,0-1,.448-1,1v5.46c-1.249-1.123-2-2.743-2-4.46,0-2.297,1.346-4.423,3.43-5.415.349-.166.57-.517.57-.903v-22.73c0-.386-.222-.737-.57-.903-2.083-.992-3.43-3.117-3.43-5.415,0-1.717.751-3.337,2-4.46v5.143c0,.552.448,1,1,1h6c.552,0,1-.448,1-1v-5.143c1.249,1.123,2,2.743,2,4.46,0,2.297-1.346,4.423-3.43,5.415-.349.166-.57.517-.57.903v22.73c0,.386.222.737.57.903,2.083.992,3.43,3.117,3.43,5.415,0,1.717-.751,3.337-2,4.46Z"/>
</svg>