<?xml version="1.0" encoding="UTF-8"?>
<svg id="Outline" xmlns="http://www.w3.org/2000/svg" version="1.1" viewBox="0 0 64 64">
  <!-- Generator: Adobe Illustrator 29.5.1, SVG Export Plug-In . SVG Version: 2.1.0 Build 141)  -->
  <path d="M27,18.981c2.206,0,4-1.794,4-4,0-1.826-2.605-6.559-3.128-7.49-.354-.63-1.391-.63-1.744,0-.522.931-3.128,5.664-3.128,7.49,0,2.206,1.794,4,4,4ZM27,10.093c1.071,2.078,2,4.208,2,4.888,0,1.103-.897,2-2,2s-2-.897-2-2c0-.68.929-2.81,2-4.888Z"/>
  <path d="M22,29.981c2.206,0,4-1.794,4-4,0-1.826-2.605-6.559-3.128-7.49-.354-.63-1.391-.63-1.744,0-.522.931-3.128,5.664-3.128,7.49,0,2.206,1.794,4,4,4ZM22,21.093c1.071,2.078,2,4.208,2,4.888,0,1.103-.897,2-2,2s-2-.897-2-2c0-.68.929-2.81,2-4.888Z"/>
  <path d="M32,29.981c2.206,0,4-1.794,4-4,0-1.826-2.605-6.559-3.128-7.49-.354-.63-1.391-.63-1.744,0-.522.931-3.128,5.664-3.128,7.49,0,2.206,1.794,4,4,4ZM32,21.093c1.071,2.078,2,4.208,2,4.888,0,1.103-.897,2-2,2s-2-.897-2-2c0-.68.929-2.81,2-4.888Z"/>
  <path d="M42,29.981c2.206,0,4-1.794,4-4,0-1.826-2.605-6.559-3.128-7.49-.354-.63-1.391-.63-1.744,0-.522.931-3.128,5.664-3.128,7.49,0,2.206,1.794,4,4,4ZM42,21.093c1.071,2.078,2,4.208,2,4.888,0,1.103-.897,2-2,2s-2-.897-2-2c0-.68.929-2.81,2-4.888Z"/>
  <path d="M37,18.981c2.206,0,4-1.794,4-4,0-1.826-2.605-6.559-3.128-7.49-.354-.63-1.391-.63-1.744,0-.522.931-3.128,5.664-3.128,7.49,0,2.206,1.794,4,4,4ZM37,10.093c1.071,2.078,2,4.208,2,4.888,0,1.103-.897,2-2,2s-2-.897-2-2c0-.68.929-2.81,2-4.888Z"/>
  <path d="M34.06,31.043c-.571-.039-1.025.388-1.058.939-.033.551.388,1.024.938,1.057,9.566.568,17.06,5.374,17.06,10.942,0,6.065-8.523,11-19,11s-19-4.935-19-11c0-5.568,7.493-10.374,17.06-10.942.551-.033.972-.506.938-1.057-.032-.551-.49-.975-1.058-.939-10.798.641-18.94,6.203-18.94,12.938,0,7.168,9.421,13,21,13s21-5.832,21-13c0-6.735-8.143-12.297-18.94-12.938Z"/>
  <path d="M33.002,51.979c.036.528.476.933.997.933.022,0,.046,0,.068-.002,8.234-.557,14.933-4.562,14.933-8.928,0-4.794-7.944-9-17-9s-17,4.206-17,9c0,4.366,6.698,8.371,14.933,8.928.546.053,1.028-.379,1.065-.93.037-.551-.38-1.028-.931-1.065-7.701-.521-13.067-4.071-13.067-6.933s5.844-7,15-7,15,4.146,15,7-5.366,6.412-13.067,6.933c-.551.037-.968.514-.931,1.065Z"/>
  <path d="M31,39.981v8c0,.552.447,1,1,1s1-.448,1-1v-8c0-.552-.447-1-1-1s-1,.448-1,1Z"/>
  <path d="M27,39.981v8c0,.552.447,1,1,1s1-.448,1-1v-8c0-.552-.447-1-1-1s-1,.448-1,1Z"/>
  <path d="M23,40.981v6c0,.552.447,1,1,1s1-.448,1-1v-6c0-.552-.447-1-1-1s-1,.448-1,1Z"/>
  <path d="M37,47.981v-8c0-.552-.447-1-1-1s-1,.448-1,1v8c0,.552.447,1,1,1s1-.448,1-1Z"/>
  <path d="M41,46.981v-6c0-.552-.447-1-1-1s-1,.448-1,1v6c0,.552.447,1,1,1s1-.448,1-1Z"/>
</svg>