<?xml version="1.0" encoding="UTF-8"?>
<svg id="Outline" xmlns="http://www.w3.org/2000/svg" version="1.1" viewBox="0 0 48 48">
  <!-- Generator: Adobe Illustrator 29.0.0, SVG Export Plug-In . SVG Version: 2.1.0 Build 186)  -->
  <path d="M40,25v-2c0-4.28003-1.66998-8.29004-4.69-11.29999-1.77002-1.79004-3.95001-3.12006-6.33002-3.90002-.10999-1.56-1.38995-2.79999-2.97998-2.79999h-4c-1.59003,0-2.88,1.23999-2.97998,2.81-6.52002,2.13-11.02002,8.26996-11.02002,15.19v2c-1.65002,0-3,1.34998-3,3s1.34998,3,3,3h1.17999l.47003,2.32996c.82996,4.17004,4.34998,7.27002,8.51996,7.63.41003,1.18005,1.51001,2.04004,2.83002,2.04004h6c1.32001,0,2.41998-.85999,2.83002-2.04004,4.16998-.35999,7.69-3.45996,8.51996-7.63l.47003-2.32996h1.17999c1.65002,0,3-1.35004,3-3s-1.34998-3-3-3ZM33,12.32001c.29999.25995.60999.50995.89001.78998,2.16998,2.15997,3.52997,4.90997,3.95001,7.89001h-3.84003c-.54999,0-1-.45001-1-1v-7.67999ZM15,12.28998v7.71002c0,.54999-.45001,1-1,1h-3.84998c.5-3.42999,2.25995-6.52002,4.84998-8.71002ZM10,23h4c1.65002,0,3-1.35004,3-3v-9h-.20001c.70001-.42004,1.42999-.78003,2.20001-1.07001v8.07001c0,.54999.45001,1,1,1s1-.45001,1-1v-10c0-.54999.45001-1,1-1h1v11c0,.54999.45001,1,1,1s1-.45001,1-1V7h1c.54999,0,1,.45001,1,1v4c0,.54999.45001,1,1,1s1-.45001,1-1v-2.04999c.76001.28998,1.48999.62994,2.19,1.04999h-.19v9c0,1.64996,1.34998,3,3,3h4v2H10v-2ZM27,41h-6c-.54999,0-1-.45001-1-1s.45001-1,1-1h6c.54999,0,1,.45001,1,1s-.45001,1-1,1ZM40,29h-23c-.54999,0-1,.45001-1,1s.45001,1,1,1h19.78003l-.39001,1.94c-.65002,3.25-3.35004,5.65997-6.59003,6.01001-.42999-1.13-1.51996-1.95001-2.79999-1.95001h-6c-1.28003,0-2.37.82001-2.79999,1.95001-3.23999-.35004-5.94-2.76001-6.59003-6.01001l-.39001-1.94h1.78003c.54999,0,1-.45001,1-1s-.45001-1-1-1h-5c-.54999,0-1-.45001-1-1s.45001-1,1-1h32c.54999,0,1,.45001,1,1s-.45001,1-1,1Z"/>
  <path d="M28,15c-.55273,0-1,.44727-1,1v2c0,.55273.44727,1,1,1s1-.44727,1-1v-2c0-.55273-.44727-1-1-1Z"/>
</svg>