<?xml version="1.0" encoding="UTF-8"?>
<svg id="Outline" xmlns="http://www.w3.org/2000/svg" version="1.1" viewBox="0 0 48 48">
  <!-- Generator: Adobe Illustrator 29.0.0, SVG Export Plug-In . SVG Version: 2.1.0 Build 186)  -->
  <path d="M35.13,5.89001c-.56-.57001-1.32001-.89001-2.13-.89001-1.63,0-2.96002,1.31-3,2.92999l-.51001,4.07001h-7.97998l.47998-3.88c.01001-.04004.01001-.08002.01001-.12,0-.81-.32001-1.57001-.87-2.10999-.56-.57001-1.32001-.89001-2.13-.89001-1.63,0-2.96002,1.31-3,2.92999l-.48999,3.95001c-.07001.53998.32001,1.03998.87,1.10999.53998.06,1.03998-.32001,1.10999-.87l.5-4c.01001-.04004.01001-.08002.01001-.12,0-.54977.44965-.99964.99934-1,.52224-.00034.97977.4283,1.00066.95001l-3.98999,31.92999c-.01001.03998-.01001.07996-.01001.12,0,.54999-.45001,1-1,1-.53003,0-.96997-.42004-1-.95001l2.98999-23.92999c.07001-.54004-.32001-1.04004-.87-1.10999-.53998-.07001-1.03998.31995-1.10999.87l-3,24c-.01001.03998-.01001.07996-.01001.12,0,1.64996,1.34998,3,3,3,1.63,0,2.96002-1.31,3-2.92999l.26001-2.07001h7.97998l-.22998,1.88c-.01001.03998-.01001.07996-.01001.12,0,1.64996,1.34998,3,3,3,1.63,0,2.96002-1.31,3-2.92999l1.23999-9.95001c.07001-.54004-.32001-1.04004-.87-1.10999-.53998-.07001-1.03998.31995-1.10999.87l-1.25,10c-.01001.03998-.01001.07996-.01001.12,0,.54999-.45001,1-1,1-.53003,0-.96997-.42004-1-.95001l3.98999-31.92999c.01001-.04004.01001-.08002.01001-.12,0-.54979.44968-.99967.99939-1,1.38171-.00083.90222,1.73757.79581,2.58932l-.43001,3.442-1.0653,8.52723c-.17996,1.44049-.35992,2.88098-.53988,4.32146-.07001.53998.32001,1.03998.87,1.10999.53998.06,1.03998-.32001,1.10999-.87l2.25-18c.01001-.04004.01001-.08002.01001-.12,0-.81-.32001-1.57001-.87-2.10999ZM26.48999,36h-7.97998l.25-2h7.97998l-.25,2ZM26.98999,32h-7.97998l.5-4h7.97998l-.5,4ZM27.73999,26h-7.97998l.25-2h7.97998l-.25,2ZM28.23999,22h-7.97998l.5-4h7.97998l-.5,4ZM28.98999,16h-7.97998l.25-2h7.97998l-.25,2Z"/>
</svg>