<?xml version="1.0" encoding="UTF-8"?>
<svg id="Outline" xmlns="http://www.w3.org/2000/svg" version="1.1" viewBox="0 0 48 48">
  <!-- Generator: Adobe Illustrator 29.0.0, SVG Export Plug-In . SVG Version: 2.1.0 Build 186)  -->
  <path d="M42,15h-3c-.54999,0-1,.45001-1,1s.45001,1,1,1h2v8.71997l-2.76001-.69c-.27002-.07001-.56-.01996-.78998.14001l-2.60004,1.72998-2.52997-.84998c-.29999-.09003-.62-.04999-.87.12l-2.60004,1.72998-2.52997-.84998c-.35999-.12-.76001-.02002-1.03003.23999l-2.62,2.62-2.63995-.51996,3.67999-3.68005c.17999-.19.28998-.44.28998-.70996v-8h11c.54999,0,1-.45001,1-1s-.45001-1-1-1h-11c0-.54999-.45001-1-1-1h-11c-.54999,0-1,.45001-1,1s.45001,1,1,1h10v8.58997l-7.40997,7.41003h-7.59003v-2h6.34003c.26996,0,.51996-.10999.70996-.29004l5.66003-5.65997c.17999-.19.28998-.44.28998-.71002v-4.33997c0-.54999-.45001-1-1-1H7v-2h1c.54999,0,1-.45001,1-1s-.45001-1-1-1h-2c-.54999,0-1,.45001-1,1v18c0,.54999.45001,1,1,1h9c.27002,0,.52002-.10999.71002-.29004l2.62-2.62,4.46997.89001c.07001.01001.13.02002.20001.02002.26001,0,.52002-.10004.71002-.29004l2.56-2.56995,2.40997.81c.29999.09998.62.04999.87-.12006l2.60004-1.72998,2.52997.85004c.29999.09998.62.04999.87-.12006l2.64001-1.75,3.57001.89001c.29999.08002.60999.01001.85999-.17999.23999-.19.38-.47998.38-.78998v-11c0-.54999-.45001-1-1-1ZM11,20h7v2.92999l-5.07001,5.07001h-1.92999v-8ZM7,20h2v8h-2v-8Z"/>
</svg>