<?xml version="1.0" encoding="UTF-8"?>
<svg id="Outline" xmlns="http://www.w3.org/2000/svg" version="1.1" viewBox="0 0 48 48">
  <!-- Generator: Adobe Illustrator 29.0.0, SVG Export Plug-In . SVG Version: 2.1.0 Build 186)  -->
  <path d="M20.31055,5.00296h-2c-.54999,0-1,.45001-1,1s.45001,1,1,1h2c.54999,0,1,.45001,1,1v2c0,.54999-.45001,1-1,1h-10c-.54999,0-1-.45001-1-1v-2c0-.54999.45001-1,1-1h4c.54999,0,1-.45001,1-1s-.45001-1-1-1h-4c-1.65002,0-3,1.34998-3,3v2c0,1.64996,1.34998,3,3,3v2.97998l-.20001.03998c-.53998.11005-.89001.63-.77997,1.18005.08997.46997.51001.79999.97998.79999v1.97998l-.20001.03998c-.53998.11005-.89001.63-.77997,1.18005.08997.46997.51001.79999.97998.79999v1.97998l-.20001.03998c-.53998.11005-.89001.63-.77997,1.18005.08997.46997.51001.79999.97998.79999v2c0,.54999.45001,1,1,1h8c.54999,0,1-.45001,1-1v-3.98004l.20001-.03998c.53998-.10999.89001-.63.77997-1.17999-.08997-.47003-.51001-.78003-.97998-.78003v-2l.20001-.03998c.53998-.10999.89001-.63.77997-1.17999-.08997-.47003-.51001-.78003-.97998-.78003v-2l.20001-.03998c.53998-.10999.89001-.63.77997-1.17999-.08997-.47003-.51001-.78003-.97998-.78003v-1.01996c1.65002,0,3-1.35004,3-3v-2c0-1.65002-1.34998-3-3-3ZM18.31055,27.00296h-6v-1.38l6-1.20001v2.58002ZM18.31055,22.38296l-6,1.19995v-1.95996l6-1.20001v1.96002ZM18.31055,18.38296l-6,1.19995v-1.95996l6-1.20001v1.96002ZM18.31055,14.38296l-6,1.19995v-2.57996h6v1.38Z"/>
  <path d="M40.47052,22.85293c-.29999-.73999-.87-1.32001-1.60999-1.63l-3.29999-1.39996c-.51001-.21002-1.09003.01996-1.31.52997-.22003.51001.02002,1.10004.52997,1.31l3.30005,1.40002c.25.09998.44.29999.53998.53998.09998.25.09003.52002-.01001.77002l-.77997,1.83997c-.22003.51001-.81.75-1.32001.53003l-9.19-3.90002c-.52002-.21997-.76001-.79999-.54004-1.32001l.78003-1.83997c.09998-.23999.29999-.42999.54999-.53003.25-.09998.52002-.09998.76001,0l2.22998.94c.51001.21002,1.10004-.01996,1.31-.52997.22003-.51001-.01996-1.10004-.52997-1.31l-2.22998-.94c-.73004-.31-1.55005-.32001-2.29004-.02002-.75.29999-1.33002.88-1.64001,1.60999l-.77997,1.84003c-.64001,1.52002.07001,3.27997,1.58997,3.94l-1.16998,2.73999-.19-.03998c-.53998-.11005-1.07001.23999-1.17999.77997-.09998.47003.16003.91998.59003,1.10004l-.78003,1.83997-.19-.03998c-.54999-.10999-1.07001.23999-1.19.77997-.08997.47003.17004.92004.60004,1.10004l-.78003,1.83997-.20001-.03998c-.53998-.10999-1.07001.23999-1.17999.77997-.09998.47003.16998.92004.60004,1.10004l-.79004,1.85999c-.21997.51001.02002,1.09998.53003,1.31,0,0,7.35999,3.13,7.36029,3.13012.51287.19708,1.09148-.00628,1.30969-.53009l1.56-3.66003.19.03998c.52001.10942,1.07505-.23959,1.19-.77997.09003-.47003-.16998-.91998-.59998-1.09998l.77997-1.84003.19998.03997c.53283.1065,1.06716-.24939,1.18003-.77996.09998-.47003-.16998-.91998-.59998-1.10999l.77997-1.84003s.20001.03998.20006.03999c.52006.14865,1.07561-.26901,1.17994-.76997.09998-.48004-.16998-.92999-.58997-1.11005l.38995-.94c.39001.16003.78003.24005,1.17004.24005,1.16998,0,2.28998-.69,2.76996-1.83002l.78003-1.84003c.31-.73999.32001-1.54999.01996-2.29999ZM28.42054,40.69296l-5.51996-2.35004.53998-1.26996,5.98999,1.23999-1.01001,2.38ZM30.23053,36.44296l-5.98999-1.23999.76001-1.81,5.98999,1.23999-.76001,1.81ZM31.79053,32.75296l-5.98999-1.23999.76001-1.80005,6,1.24005-.77002,1.79999ZM33.35053,29.07297l-5.98999-1.24005,1.01001-2.37,5.52002,2.34003-.54004,1.27002Z"/>
</svg>