<?xml version="1.0" encoding="UTF-8"?>
<svg id="Outline" xmlns="http://www.w3.org/2000/svg" version="1.1" viewBox="0 0 48 48">
  <!-- Generator: Adobe Illustrator 29.0.0, SVG Export Plug-In . SVG Version: 2.1.0 Build 186)  -->
  <path d="M32,13h-6c-.54999,0-1,.45001-1,1v3h-2v-5c0-.54999.45001-1,1-1h8c.54999,0,1-.45001,1-1,0-2.76001-2.23999-5-5-5h-6c-2.76001,0-5,2.23999-5,5,0,.54999.45001,1,1,1s1-.45001,1-1c0-1.65002,1.34998-3,3-3h6c1.29999,0,2.41998.83997,2.83002,2h-6.83002c-1.65002,0-3,1.34998-3,3v5h-2v-3c0-.54999-.45001-1-1-1s-1,.45001-1,1v3h-1c-.54999,0-1,.45001-1,1v4c0,.54999.45001,1,1,1h1v3c0,.54999.45001,1,1,1v3c0,.54999.45001,1,1,1h4c.54999,0,1-.45001,1-1v-3c.54999,0,1-.45001,1-1v-2.82001c1.15997.41998,2,1.52002,2,2.82001v16c0,.54999.45001,1,1,1h4c.54999,0,1-.45001,1-1v-8c0-.54999-.45001-1-1-1s-1,.45001-1,1v7h-2v-15c0-2.76001-2.23999-5-5-5h-7v-2h14v11c0,.54999.45001,1,1,1s1-.45001,1-1V14c0-.54999-.45001-1-1-1ZM22,29h-2v-2h2v2ZM19,23h4v2h-4v-2ZM31,17h-4v-2h4v2Z"/>
</svg>