<?xml version="1.0" encoding="UTF-8"?>
<svg id="Outline" xmlns="http://www.w3.org/2000/svg" version="1.1" viewBox="0 0 48 48">
  <!-- Generator: Adobe Illustrator 29.0.0, SVG Export Plug-In . SVG Version: 2.1.0 Build 186)  -->
  <circle cx="24" cy="38" r="1"/>
  <path d="M37,8v16c0,1.64996-1.34998,3-3,3h-5.94l.69,10.95001c.17073,2.7094-2.05696,5.04982-4.7597,5.04999-2.76859.00018-4.89359-2.51595-4.73029-5.22003l.67999-10.77997h-5.94c-1.65002,0-3-1.35004-3-3v-4c0-.54999.45001-1,1-1s1,.45001,1,1v1h7c.54999,0,1,.45001,1,1s-.45001,1-1,1h-7v1c0,.54999.45001,1,1,1h7c.28003,0,.53998.10999.72998.32001.19.19995.29004.46997.27002.73999l-.73999,11.84998c-.10003,1.56994,1.01993,2.9499,2.48981,3.08,1.65169.1462,3.10333-1.26922,3.00018-2.91997l-.75-12.01001c-.02002-.27002.08002-.54004.27002-.73999.19-.21002.44995-.32001.72998-.32001h7c.54999,0,1-.45001,1-1v-1h-11c-.54999,0-1-.45001-1-1s.45001-1,1-1h7v-3c0-.54999.45001-1,1-1s1,.45001,1,1v3h2v-13c0-.54999-.45001-1-1-1h-7.32001l-1.75,4.37c-.14996.38-.52002.63-.92999.63s-.78003-.25-.92999-.63l-1.75-4.37h-1.53998l-1.81006,7.23999c-.10999.45001-.50995.76001-.96997.76001s-.85999-.31-.96997-.76001l-1.81006-7.23999h-.21997c-.54999,0-1,.45001-1,1v8c0,.54999-.45001,1-1,1s-1-.45001-1-1v-8c0-1.65002,1.34998-3,3-3h1c.46002,0,.85999.31.96997.76001l1.03003,4.12,1.03003-4.12c.10999-.45001.50995-.76001.96997-.76001h3c.40997,0,.78003.25.92999.63l1.07001,2.67999,1.07001-2.67999c.14996-.38.52002-.63.92999-.63h8c1.65002,0,3,1.34998,3,3Z"/>
  <path d="M32,15c.55273,0,1-.44727,1-1v-4c0-.55273-.44727-1-1-1s-1,.44727-1,1v4c0,.55273.44727,1,1,1Z"/>
</svg>