<?xml version="1.0" encoding="UTF-8"?>
<svg id="Outline" xmlns="http://www.w3.org/2000/svg" version="1.1" viewBox="0 0 48 48">
  <!-- Generator: Adobe Illustrator 29.0.0, SVG Export Plug-In . SVG Version: 2.1.0 Build 186)  -->
  <path d="M38.00121,13.00019h-5c-.54999,0-1,.45001-1,1s.45001,1,1,1h5c1.65002,0,3,1.34998,3,3s-1.34998,3-3,3h-13v-6h4c.54999,0,1-.45001,1-1s-.45001-1-1-1h-9c-.54999,0-1,.45001-1,1v1h-4v-1c0-.54999-.45001-1-1-1v-7c0-.32001-.15002-.62-.41998-.81-.26001-.19-.59003-.23999-.90002-.14001l-.29999.09998c-3.5,1.17004-5.92999,4.25-6.32001,7.85004h-.06c-.54999,0-1,.45001-1,1v8.01996c.01001.11005.03003.23004.07001.34003.01001.03003.02997.04999.03998.08002.02002.03998.03003.07996.06.10999.98999,1.48999.98999,3.40997,0,4.90002-.20996.29999-.22998.69995-.04999,1.01996.16998.33002.51001.53003.88.53003h8c.37,0,.71002-.20001.88-.53003.17999-.32001.15997-.71997-.04999-1.01996-.98999-1.49005-.98999-3.41003,0-4.90002.02997-.03003.03998-.07001.06-.10999.01001-.03003.02997-.04999.03998-.08002.03998-.10999.06-.22998.07001-.34003v-1.01996h4v1c0,.54999.45001,1,1,1h18c2.76001,0,5-2.23999,5-5s-2.23999-5-5-5ZM12.00121,7.47016v5.53003h-3.92999c.33002-2.38,1.78998-4.44,3.92999-5.53003ZM12.41118,27.00019h-4.81995c.42999-1.29999.42999-2.70001,0-4h4.81995c-.42999,1.29999-.42999,2.70001,0,4ZM13.00121,21.00019h-6v-6h6v6ZM19.00121,19.00019h-4v-2h4v2ZM23.00121,21.00019h-2v-6h2v6Z"/>
  <path d="M40.00121,37.00019h-14c-.55225,0-1,.44775-1,1s.44775,1,1,1h14c.55127,0,1,.44873,1,1s-.44873,1-1,1H8.00121c-.55127,0-1-.44873-1-1s.44873-1,1-1h14c.55225,0,1-.44775,1-1s-.44775-1-1-1h-11v-4h1c.55225,0,1-.44775,1-1s-.44775-1-1-1h-4c-.55225,0-1,.44775-1,1s.44775,1,1,1h1v4h-1c-1.6543,0-3,1.3457-3,3s1.3457,3,3,3h32c1.6543,0,3-1.3457,3-3s-1.3457-3-3-3Z"/>
</svg>