<?xml version="1.0" encoding="UTF-8"?>
<svg id="Outline" xmlns="http://www.w3.org/2000/svg" version="1.1" viewBox="0 0 48 48">
  <!-- Generator: Adobe Illustrator 29.0.0, SVG Export Plug-In . SVG Version: 2.1.0 Build 186)  -->
  <path d="M15.63379,31.90186l-1.5,2.59814c-.17822.30957-.17822.69043,0,1l1.5,2.59814c.17871.30957.50879.5.86621.5h3c.35742,0,.6875-.19043.86621-.5l1.5-2.59814c.17822-.30957.17822-.69043,0-1l-1.5-2.59814c-.17871-.30957-.50879-.5-.86621-.5h-3c-.35742,0-.6875.19043-.86621.5ZM17.07715,33.40186h1.8457l.92236,1.59814-.92236,1.59814h-1.8457l-.92236-1.59814.92236-1.59814Z"/>
  <path d="M26,35c0,4.40997-3.59003,8-8,8s-8-3.59003-8-8c0-2.84003,1.54999-5.5,4-6.92004v-2.07996c0-.54999.45001-1,1-1s1,.45001,1,1v2.67999c0,.38-.21997.73999-.57001.89996-2.08002,1-3.42999,3.13-3.42999,5.42004,0,3.31,2.69,6,6,6s6-2.69,6-6c0-2.29004-1.34998-4.42004-3.42999-5.42004-.35004-.15997-.57001-.51996-.57001-.89996v-9.35999c0-.38.21997-.74005.57001-.90002,2.08002-1,3.42999-3.13,3.42999-5.41998,0-1.71002-.75-3.33002-2-4.46002v3.46002c0,.32996-.16998.64996-.45001.82996l-3,2c-.33002.23004-.76996.23004-1.09998,0l-3-2c-.28003-.17999-.45001-.5-.45001-.82996v-3.46002c-1.25,1.13-2,2.75-2,4.46002,0,2.28998,1.34998,4.41998,3.42999,5.41998.35004.15997.57001.52002.57001.90002v2.67999c0,.54999-.45001,1-1,1s-1-.45001-1-1v-2.08002c-2.45001-1.41998-4-4.08002-4-6.91998,0-3.06,1.78998-5.89001,4.57001-7.22003.31-.14996.66998-.13.96002.04999.28998.19.46997.51001.46997.85004v4.77997l2,1.34003,2-1.34003v-4.77997c0-.34003.17999-.66003.46997-.85004.29004-.17999.65002-.19995.96002-.04999,2.78003,1.33002,4.57001,4.16003,4.57001,7.22003,0,2.83997-1.54999,5.5-4,6.91998v8.15997c2.45001,1.42004,4,4.08002,4,6.92004Z"/>
  <path d="M37,28c.54999,0,1-.45001,1-1v-3c0-.54999-.45001-1-1-1h-1v-2c0-.54999-.45001-1-1-1s-1,.45001-1,1v2h-2v-8h2v2c0,.54999.45001,1,1,1s1-.45001,1-1v-2.70001l1.83002-2.75c.17999-.27002.21997-.62.09998-.91998l-2-5c-.14996-.38-.52002-.63-.92999-.63h-4c-.40997,0-.78003.25-.92999.63l-2,5c-.12.29999-.08002.64996.09998.91998l1.83002,2.75v8.70001h-1c-.54999,0-1,.45001-1,1v3c0,.54999.45001,1,1,1s1,.45001,1,1-.45001,1-1,1-1,.45001-1,1v7c0,2.76001,2.23999,5,5,5s5-2.23999,5-5v-7c0-.54999-.45001-1-1-1s-1-.45001-1-1,.45001-1,1-1ZM31.67999,7h2.64001l1.56,3.88-1.41998,2.12h-2.92004l-1.41998-2.12,1.56-3.88ZM36,26.16998c-1.15997.40997-2,1.53003-2,2.83002s.84003,2.41998,2,2.82996v6.17004c0,1.64996-1.34998,3-3,3s-3-1.35004-3-3v-6.17004c1.15997-.40997,2-1.52997,2-2.82996s-.84003-2.42004-2-2.83002v-1.16998h6v1.16998Z"/>
</svg>