<?xml version="1.0" encoding="UTF-8"?>
<svg id="Outline" xmlns="http://www.w3.org/2000/svg" version="1.1" viewBox="0 0 48 48">
  <!-- Generator: Adobe Illustrator 29.0.0, SVG Export Plug-In . SVG Version: 2.1.0 Build 186)  -->
  <path d="M42,19c-1.20996,0-1.96484-.78223-2.26855-1.51416-.30371-.73291-.32227-1.82129.53516-2.67871.39062-.39062.39062-1.02344,0-1.41406l-5.65918-5.66016c-.1875-.1875-.44141-.29297-.70703-.29297s-.51953.10547-.70703.29297c-.47559.47559-1.06836.72705-1.71289.72705-1.21973,0-2.48047-.91992-2.48047-2.45996,0-.55225-.44727-1-1-1h-8c-.55273,0-1,.44775-1,1,0,1.54004-1.26074,2.45996-2.48047,2.45996-.64453,0-1.2373-.25146-1.71289-.72705-.1875-.1875-.44141-.29297-.70703-.29297-.26172.04785-.52148.10645-.70996.29541l-1.40918,1.41992c-.38867.39209-.38672,1.02539.00586,1.41455.39062.38867,1.02539.38721,1.41406-.00537l.77734-.7832c.69824.44629,1.49316.67871,2.3418.67871,1.9248,0,3.9082-1.27441,4.37695-3.45996h6.20703c.46875,2.18555,2.45215,3.45996,4.37695,3.45996.84961,0,1.64648-.23291,2.34473-.68066l4.39648,4.39697c-.77051,1.20703-.90919,2.6958-.33789,4.0752.57129,1.37793,1.71973,2.33154,3.11621,2.64062v6.21143c-2.18555.46875-3.45996,2.45166-3.45996,4.37646,0,.8501.23242,1.646.68066,2.34473l-4.39551,4.396c-.69824-.44775-1.49512-.68066-2.34473-.68066-1.9248,0-3.9082,1.27441-4.37695,3.45996h-6.20703c-.46875-2.18555-2.45215-3.45996-4.37695-3.45996-.84961,0-1.64648.23291-2.34473.68066l-4.39551-4.396c.44824-.69873.68066-1.49463.68066-2.34473,0-1.9248-1.27441-3.90771-3.45996-4.37646v-6.20703c2.18555-.46875,3.45996-2.45166,3.45996-4.37646,0-.84912-.23242-1.64404-.67871-2.34229l.78418-.77832c.3916-.38916.39355-1.02246.00488-1.41406-.3916-.39258-1.02344-.39453-1.41504-.00488l-1.41992,1.41016c-.18848.18701-.29492.44189-.29492.70752,0,.26611.10449.521.29297.70898.47559.47559.72656,1.06787.72656,1.71289,0,1.21924-.91992,2.47998-2.45996,2.47998-.55273,0-1,.44775-1,1v8c0,.55225.44727,1,1,1,1.54004,0,2.45996,1.26074,2.45996,2.47998,0,.64502-.25098,1.2373-.72656,1.71289-.39062.39062-.39062,1.02344,0,1.41406l5.65918,5.66016c.1875.1875.44141.29297.70703.29297s.51953-.10547.70703-.29297c.47559-.47559,1.06836-.72705,1.71289-.72705,1.21973,0,2.48047.91992,2.48047,2.45996,0,.55225.44727,1,1,1h8c.55273,0,1-.44775,1-1,0-1.54004,1.26074-2.45996,2.48047-2.45996.64453,0,1.2373.25146,1.71289.72705.375.375,1.03906.375,1.41406,0l5.65918-5.66016c.39062-.39062.39062-1.02344,0-1.41406-.47559-.47559-.72656-1.06787-.72656-1.71289,0-1.21924.91992-2.47998,2.45996-2.47998.55273,0,1-.44775,1-1v-8c0-.55225-.44727-1-1-1Z"/>
  <path d="M24,13c-6.07001,0-11,4.92999-11,11s4.92999,11,11,11c2.16998,0,4.26001-.63,6.06-1.83002.46002-.29999.59003-.91998.28003-1.38-.30005-.46002-.93005-.58997-1.38-.27997-.62.39996-1.28003.70996-1.96002.94995v-4.15997l1.83002-2.75c.17999-.27002.21997-.62.09998-.91998l-2-5c-.14996-.38-.52002-.63-.92999-.63h-4c-.40997,0-.78003.25-.92999.63l-2,5c-.12.29999-.08002.64996.09998.91998l1.83002,2.75v4.16998c-3.48999-1.22998-6-4.56-6-8.46997,0-4.96002,4.03998-9,9-9s9,4.03998,9,9c0,1.76996-.52002,3.48999-1.48999,4.95996-.31.46002-.17999,1.08002.27997,1.38.46002.31,1.08002.17999,1.38-.27997,1.20001-1.79999,1.83002-3.89001,1.83002-6.06,0-6.07001-4.92999-11-11-11ZM25,32.92999c-.33002.02997-.65997.07001-1,.07001s-.66998-.02002-1-.06v-3.94h2v3.92999ZM22.67999,21h2.64001l1.56,3.88-1.41998,2.12h-2.92004l-1.41998-2.12,1.56-3.88Z"/>
  <circle cx="24" cy="10" r="1"/>
  <path d="M14.80762,14.80762c.3905-.39056.3905-1.02368,0-1.41425-.3905-.3905-1.02368-.3905-1.41425,0-.3905.39056-.3905,1.02368,0,1.41425.39056.3905,1.02374.3905,1.41425,0Z"/>
  <circle cx="10" cy="24" r="1"/>
  <path d="M13.39337,33.19238c-.3905.3905-.3905,1.02368,0,1.41418.39056.39056,1.02374.39056,1.41425,0,.3905-.3905.3905-1.02368,0-1.41418-.3905-.39056-1.02368-.39056-1.41425,0Z"/>
  <circle cx="24" cy="38" r="1"/>
  <path d="M33.19238,33.19238c-.3905.3905-.3905,1.02368,0,1.41418.3905.39056,1.02368.39056,1.41425,0,.3905-.3905.3905-1.02368,0-1.41418-.39056-.39056-1.02374-.39056-1.41425,0Z"/>
  <circle cx="38" cy="24" r="1"/>
  <path d="M34.60663,14.80762c.3905-.39056.3905-1.02368,0-1.41425-.39056-.3905-1.02374-.3905-1.41425,0-.3905.39056-.3905,1.02368,0,1.41425.3905.3905,1.02368.3905,1.41425,0Z"/>
</svg>