<?xml version="1.0" encoding="UTF-8"?>
<svg id="Outline" xmlns="http://www.w3.org/2000/svg" version="1.1" viewBox="0 0 48 48">
  <!-- Generator: Adobe Illustrator 29.0.0, SVG Export Plug-In . SVG Version: 2.1.0 Build 186)  -->
  <circle cx="24" cy="19" r="1"/>
  <path d="M34.89001,29.54999c-.13-.27002-.38-.45001-.67004-.52002-1.16998-3.59998-2.89996-6.94-5.14996-9.94l2.82001-5.63995c.14001-.27002.14996-.57001.02997-.84003l-3-7c-.15997-.37-.51996-.60999-.91998-.60999h-2c-.54999,0-1,.45001-1,1v3c0,.54999.45001,1,1,1s1-.45001,1-1v-2h.34003l2.56,5.96997-2.79004,5.58002c-.07001.14001-.10999.28998-.10999.45001,0,1.64996-1.34998,3-3,3s-3-1.35004-3-3,1.34998-3,3-3c.52002,0,1.02002.14001,1.5.41998.31.16998.69.16998,1,0,.31-.17999.5-.51001.5-.87v-2.54999c0-.54999-.45001-1-1-1s-1,.45001-1,1v1.10999c-.33002-.07001-.66998-.10999-1-.10999-.34003,0-.67999.03998-1,.09998V6c0-.54999-.45001-1-1-1h-2c-.40002,0-.76001.23999-.91998.60999l-3,7c-.12.27002-.11005.57001.02997.84003l2.82001,5.63995c-2.25,3-3.97998,6.34003-5.14996,9.94-.29004.07001-.54004.25-.67004.52002-1.38,2.76001-2.10999,5.84003-2.10999,8.91998v3.53003c0,.54999.45001,1,1,1h7c.54999,0,1-.45001,1-1v-3.53003c0-2.76996.65997-5.53998,1.89001-8.01996.15997-.31.14001-.68005-.04004-.98004-.17999-.28998-.5-.46997-.84998-.46997h-.82001c.72003-1.79004,1.63-3.5,2.72003-5.13.35999.08002.71997.13,1.09998.13s.73999-.04999,1.09998-.13c1.09003,1.62,2,3.33997,2.72003,5.13h-.82001c-.34998,0-.66998.17999-.84998.47998-.18005.28998-.20001.66003-.04004.97003.90002,1.78998,1.48004,3.69995,1.73004,5.66998.06995.54999.56.94,1.10999.87s.94-.57001.87-1.10999c-.21002-1.67999-.63-3.31-1.27002-4.88h4.82001c1.07001,2.32996,1.63,4.89996,1.63,7.46997v2.53003h-5v-1c0-.54999-.45001-1-1-1s-1,.45001-1,1v2c0,.54999.45001,1,1,1h7c.54999,0,1-.45001,1-1v-3.53003c0-3.08997-.72998-6.16998-2.10999-8.91998ZM18.09998,12.96997l2.56-5.96997h.34003v8.02997c-.47998.36005-.89001.79999-1.21002,1.29999l-1.69-3.35999ZM18,38.46997v2.53003h-5v-2.53003c0-2.56.56-5.14001,1.63-7.46997h4.82001c-.95001,2.37-1.45001,4.91998-1.45001,7.46997ZM18.03003,29h-2.14001c.94-2.67999,2.20996-5.20001,3.78998-7.53003.35004.60999.82001,1.14001,1.38,1.56-1.22998,1.89001-2.25,3.89001-3.02997,5.97003ZM29.96997,29c-.77997-2.09003-1.79999-4.09003-3.03998-5.98004.57001-.40997,1.03998-.94,1.39001-1.54999,1.58002,2.33002,2.84998,4.85004,3.78998,7.53003h-2.14001Z"/>
</svg>