<?xml version="1.0" encoding="UTF-8"?>
<svg id="Outline" xmlns="http://www.w3.org/2000/svg" version="1.1" viewBox="0 0 48 48">
  <!-- Generator: Adobe Illustrator 29.0.0, SVG Export Plug-In . SVG Version: 2.1.0 Build 186)  -->
  <path d="M40,15h-5v-5c0-2.76001-2.23999-5-5-5h-12c-2.76001,0-5,2.23999-5,5v5h-5c-1.65002,0-3,1.34998-3,3v22c0,1.64996,1.34998,3,3,3h32c1.65002,0,3-1.35004,3-3v-22c0-1.65002-1.34998-3-3-3ZM15,10c0-1.65002,1.34998-3,3-3h12c1.65002,0,3,1.34998,3,3v5h-2v-5c0-.54999-.45001-1-1-1h-12c-.54999,0-1,.45001-1,1v5h-2v-5ZM29,11v4h-10v-4h10ZM41,23h-15c-.54999,0-1,.45001-1,1s.45001,1,1,1h3v5c0,.54999.45001,1,1,1h6c.54999,0,1-.45001,1-1v-5h4v15c0,.54999-.45001,1-1,1h-1v-7c0-.54999-.45001-1-1-1h-21c-.54999,0-1,.45001-1,1s.45001,1,1,1h20v6H11v-6h2c.54999,0,1-.45001,1-1s-.45001-1-1-1h-3c-.54999,0-1,.45001-1,1v7h-1c-.54999,0-1-.45001-1-1v-15h4v5c0,.54999.45001,1,1,1h6c.54999,0,1-.45001,1-1v-5h3c.54999,0,1-.45001,1-1s-.45001-1-1-1H7v-5c0-.54999.45001-1,1-1h32c.54999,0,1,.45001,1,1v5ZM35,25v4h-4v-4h4ZM13,29v-4h4v4h-4Z"/>
  <circle cx="24" cy="20" r="1"/>
  <circle cx="20" cy="20" r="1"/>
  <circle cx="28" cy="20" r="1"/>
</svg>