<?xml version="1.0" encoding="UTF-8"?>
<svg id="Outline" xmlns="http://www.w3.org/2000/svg" version="1.1" viewBox="0 0 48 48">
  <!-- Generator: Adobe Illustrator 29.0.0, SVG Export Plug-In . SVG Version: 2.1.0 Build 186)  -->
  <path d="M29,28c.54999,0,1-.45001,1-1v-3c0-.54999-.45001-1-1-1h-2v-1c0-.54999-.45001-1-1-1s-1,.45001-1,1v1h-2v-8h2v3c0,.54999.45001,1,1,1s1-.45001,1-1v-3.70001l1.83002-2.75c.17999-.27002.21997-.62.09998-.91998l-2-5c-.14996-.38-.52002-.63-.92999-.63h-4c-.40997,0-.78003.25-.92999.63l-2,5c-.12.29999-.08002.64996.09998.91998l1.83002,2.75v8.70001h-2c-.54999,0-1,.45001-1,1v3c0,.54999.45001,1,1,1s1,.45001,1,1-.45001,1-1,1-1,.45001-1,1v6c0,3.31,2.69,6,6,6s6-2.69,6-6v-1c0-.54999-.45001-1-1-1s-1,.45001-1,1v1h-3v-4c0-.54999-.45001-1-1-1s-1,.45001-1,1v4h-3v-5.17004c1.15997-.40997,2-1.52997,2-2.82996s-.84003-2.42004-2-2.83002v-1.16998h8v1.16998c-1.15997.40997-2,1.53003-2,2.83002s.84003,2.41998,2,2.82996v.17004c0,.54999.45001,1,1,1s1-.45001,1-1v-1c0-.54999-.45001-1-1-1s-1-.45001-1-1,.45001-1,1-1ZM27.44,39c-.69,1.19-1.97003,2-3.44,2s-2.75-.81-3.44-2h6.88ZM21.12,10.88l1.56-3.88h2.64001l1.56,3.88-1.41998,2.12h-2.92004l-1.41998-2.12Z"/>
</svg>