<?xml version="1.0" encoding="UTF-8"?>
<svg id="Outline" xmlns="http://www.w3.org/2000/svg" version="1.1" viewBox="0 0 48 48">
  <!-- Generator: Adobe Illustrator 29.0.0, SVG Export Plug-In . SVG Version: 2.1.0 Build 186)  -->
  <path d="M42.70878,12.28998l-2-2c-.19-.17999-.44-.28998-.71002-.28998h-5c0-.54999-.45001-1-1-1h-3v-1c0-.54999-.45001-1-1-1h-3v-1c0-.54999-.45001-1-1-1h-7c-.54999,0-1,.45001-1,1s.45001,1,1,1h6v12h-15c-1.65002,0-3-1.35004-3-3v-6c0-1.65002,1.34998-3,3-3h5c.54999,0,1-.45001,1-1s-.45001-1-1-1h-5c-2.76001,0-5,2.23999-5,5v6c0,2.76001,2.23999,5,5,5h.87l-1.75,14h-1.12c-.54999,0-1,.45001-1,1v6c0,.54999.45001,1,1,1h9c.54999,0,1-.45001,1-1s-.45001-1-1-1h-8v-4h11c1.65002,0,3,1.34998,3,3v1h-2c-.54999,0-1,.45001-1,1s.45001,1,1,1h3c.54999,0,1-.45001,1-1v-2c0-2.76001-2.23999-5-5-5h-.87l1.75-14h5.12c.54999,0,1-.45001,1-1v-1h3c.54999,0,1-.45001,1-1v-1h3c.54999,0,1-.45001,1-1h5c.27002,0,.52002-.10999.71002-.29004l2-2c.38995-.38995.38995-1.02997,0-1.41998ZM17.11875,35h-5.98999l1.75-14h5.98999l-1.75,14ZM28.99876,17h-2v-8h2v8ZM32.99876,15h-2v-4h2v4ZM39.58878,14h-4.59003v-2h4.59003l1,1-1,1Z"/>
  <path d="M8.99876,10v6c0,.55273.44775,1,1,1h8c.55225,0,1-.44727,1-1v-6c0-.55273-.44775-1-1-1h-8c-.55225,0-1,.44727-1,1ZM10.99876,11h6v4h-6v-4Z"/>
  <circle cx="21.99876" cy="10" r="1"/>
  <circle cx="21.99876" cy="16" r="1"/>
</svg>