<?xml version="1.0" encoding="UTF-8"?>
<svg id="Outline" xmlns="http://www.w3.org/2000/svg" version="1.1" viewBox="0 0 48 48">
  <!-- Generator: Adobe Illustrator 29.0.0, SVG Export Plug-In . SVG Version: 2.1.0 Build 186)  -->
  <path d="M36,16.99889c0-3.41003-1.46002-6.67004-4-8.94-2.53998-2.28003-5.96002-3.37-9.38-2.98004-1.90997.21002-3.78998.91003-5.41998,2.04004-.45001.31-.57001.92999-.25,1.39001.31.44995.92999.56995,1.39001.25,1.35999-.93005,2.90997-1.52002,4.5-1.70001,2.89996-.32001,5.67999.56,7.82996,2.48999,2.12,1.89001,3.33002,4.60999,3.33002,7.45001,0,2.92999-1.28998,5.70996-3.53003,7.60999-1.37,1.16998-2.22998,2.73999-2.42999,4.39001h-1.03998v-3.59003l1.71002-1.70001c.17999-.19.28998-.44.28998-.70996v-2c.54999,0,1-.45001,1-1s-.45001-1-1-1v-1c0-.54999-.45001-1-1-1s-1,.45001-1,1v1h-6v-1c0-.54999-.45001-1-1-1s-1,.45001-1,1v1c-.54999,0-1,.45001-1,1s.45001,1,1,1v2c0,.26996.10999.51996.28998.70996l1.71002,1.70001v3.59003h-1.06c-.21002-1.70001-1.02002-3.23004-2.29999-4.29004-2.75-2.26996-4.07001-5.75-3.51001-9.31.21997-1.46997.77002-2.82996,1.64001-4.03998.31-.45001.20996-1.07001-.23999-1.40002-.45001-.31995-1.08002-.20996-1.40002.24005-1.03003,1.44995-1.71002,3.13995-1.97998,4.89996-.66003,4.26001.91998,8.42999,4.21997,11.15002.84998.70996,1.38,1.75,1.54999,2.95001-.38.14996-.73999.37994-1.02997.66998-.57001.56-.89001,1.32001-.89001,2.13,0,.76996.29999,1.46997.78003,2-.5.54999-.78003,1.25-.78003,2,0,1.64996,1.34998,3,3,3h.09998c.47003,2.27997,2.49005,4,4.90002,4s4.42999-1.72003,4.90002-4h.09998c.81,0,1.57001-.32001,2.10999-.87.57001-.56.89001-1.32001.89001-2.13,0-.77002-.29999-1.47003-.78003-2,.5-.54999.78003-1.25.78003-2,0-1.29004-.82001-2.38-1.96002-2.79999.14001-1.15002.74005-2.23004,1.73004-3.07001,2.69-2.28003,4.22998-5.61005,4.22998-9.13ZM21,20.99889h6v1.58997l-1.71002,1.70001c-.17999.19-.28998.44-.28998.71002v4h-2v-4c0-.27002-.10999-.52002-.28998-.71002l-1.71002-1.70001v-1.58997ZM24,40.99889c-1.29999,0-2.41998-.84003-2.83002-2h5.66003c-.41003,1.15997-1.53003,2-2.83002,2ZM26,34.99889h3c.54974,0,.99959.4496,1,.99924.0004.53455-.47039,1.00075-1,1.00076h-10c-.54977,0-.99964-.44966-1-.99935-.00035-.5429.46053-1.00065,1-1.00065h3c.54999,0,1-.45001,1-1s-.45001-1-1.00003-1c-.9564,0-3.6125.47893-3.95833-.72175-.17944-.62298.31626-1.27825.95836-1.27825h10c.54999,0,1,.45001,1,1,0,.26996-.09998.51001-.31.70996-.17999.19-.41998.29004-.69.29004h-3c-.54999,0-1,.45001-1,1s.45001,1,1,1Z"/>
  <path d="M17.08984,16.86022c.48535,0,.91113-.35352.9873-.84766.39941-2.58887,2.59082-4.68066,5.21094-4.97266.54883-.06152.94336-.55664.88281-1.10547-.06152-.54785-.55176-.93945-1.10547-.88281-3.50098.3916-6.43066,3.19043-6.96484,6.65625-.08398.5459.29004,1.05664.83594,1.14062.05176.00781.10254.01172.15332.01172Z"/>
  <path d="M41,15.99889h-2c-.55273,0-1,.44727-1,1s.44727,1,1,1h2c.55273,0,1-.44727,1-1s-.44727-1-1-1Z"/>
  <path d="M39.22266,24.63268l-1.73242-1c-.47852-.27539-1.08984-.1123-1.36621.36621s-.1123,1.08984.36621,1.36621c0,0,1.73242,1,1.73252,1.00006.47563.27467,1.09147.10785,1.36611-.36627.27637-.47852.1123-1.08984-.36621-1.36621Z"/>
  <path d="M36.99101,10.49009c.17123.00364.34406-.03536.49923-.12499l1.73242-1c.47852-.27637.64258-.8877.36621-1.36621-.27637-.47852-.88965-.64258-1.36621-.36621l-1.7324.99999c-.87436.5047-.48571,1.83646.50075,1.85742Z"/>
  <path d="M10,16.99889c0-.55273-.44727-1-1-1h-2c-.55273,0-1,.44727-1,1s.44727,1,1,1h2c.55273,0,1-.44727,1-1Z"/>
  <path d="M10.50977,23.63268l-1.73242,1c-.4785.27636-.64257.88766-.36624,1.36616.26015.45049.88383.64491,1.36624.36626l1.73242-1c.47852-.27637.64258-.8877.36621-1.36621s-.88965-.6416-1.36621-.36621Z"/>
  <path d="M11.50977,8.63268l-1.73242-1c-.47754-.27637-1.08985-.1123-1.36621.36621-.27637.47852-.1123,1.08984.36621,1.36621l1.7324.99999c.44447.25656,1.08828.11362,1.36623-.3662.27637-.47852.1123-1.08984-.36621-1.36621Z"/>
</svg>