<?xml version="1.0" encoding="UTF-8"?>
<svg id="Outline" xmlns="http://www.w3.org/2000/svg" version="1.1" viewBox="0 0 48 48">
  <!-- Generator: Adobe Illustrator 29.0.0, SVG Export Plug-In . SVG Version: 2.1.0 Build 186)  -->
  <path d="M42,26.3656h-9c-.54999,0-1,.45001-1,1s.45001,1,1,1h4v4h-10v-4h2c.54999,0,1-.45001,1-1s-.45001-1-1-1h-2v-1c0-1.35004-.25-2.63-.70001-3.82001l2.52002-3.35999c.29999-.40002.26001-.96002-.09003-1.31l-4.94995-4.95001c-.35004-.35004-.91003-.39001-1.31006-.09003l-3.82996,2.85999c-.85004-.20996-1.73004-.32996-2.64001-.32996-6.07001,0-11,4.92999-11,11v8c0,1.64996,1.34998,3,3,3h10c.54999,0,1-.45001,1-1s-.45001-1-1-1h-10c-.54999,0-1-.45001-1-1v-8c0-4.96002,4.03998-9,9-9s9,4.03998,9,9v8c0,.54999-.45001,1-1,1h-2c-.54999,0-1,.45001-1,1s.45001,1,1,1h2c1.29999,0,2.40002-.84003,2.82001-2h10.35999c.41998,1.15997,1.52002,2,2.82001,2,1.65002,0,3-1.35004,3-3v-6c0-.54999-.45001-1-1-1ZM25.31,19.53559c-1.08002-1.71002-2.60999-3.10999-4.42999-4.01001l2.09998-1.57001,3.72003,3.72003-1.39001,1.85999ZM41,33.3656c0,.54999-.45001,1-1,1s-1-.45001-1-1v-5h2v5Z"/>
  <path d="M16,30.3656c3.30859,0,6-2.69141,6-6s-2.69141-6-6-6-6,2.69141-6,6,2.69141,6,6,6ZM16,20.3656c2.20557,0,4,1.79395,4,4s-1.79443,4-4,4-4-1.79395-4-4,1.79443-4,4-4Z"/>
  <circle cx="22" cy="31.3656" r="1"/>
  <circle cx="10" cy="31.3656" r="1"/>
</svg>