<?xml version="1.0" encoding="UTF-8"?>
<svg id="Outline" xmlns="http://www.w3.org/2000/svg" version="1.1" viewBox="0 0 48 48">
  <!-- Generator: Adobe Illustrator 29.0.0, SVG Export Plug-In . SVG Version: 2.1.0 Build 186)  -->
  <path d="M36.94982,12.68121c-1.33002-3.98999-5.06-6.67999-9.27002-6.67999h-.67999c0-.54999-.45001-1-1-1h-8.02002c-.10999.01001-.22998.02997-.33997.07001-.03003.00995-.04999.02997-.08002.03998-.03998.02002-.08002.03003-.10999.06-1.48999.98999-3.41003.98999-4.90002,0-.29999-.21002-.70001-.22998-1.01996-.04999-.33002.16998-.53003.51001-.53003.88v8c0,.37.20001.70996.53003.88.31995.17999.71997.15997,1.01996-.05005,1.48999-.98999,3.41003-.98999,4.90002,0,.02997.02002.07001.04004.09998.05005.04004.01996.07001.03998.10004.04999.12.03998.22998.07001.34998.07001h1v4h-1c-.54999,0-1,.45001-1,1v18c0,2.76001,2.23999,5,5,5s5-2.23999,5-5v-2c0-.54999-.45001-1-1-1s-1,.45001-1,1v2c0,1.64996-1.34998,3-3,3s-3-1.35004-3-3v-13h6v7c0,.54999.45001,1,1,1s1-.45001,1-1v-12c0-.54999-.45001-1-1-1h-1v-4h1c.54999,0,1-.45001,1-1h1c.54999,0,1-.45001,1-1s-.45001-1-1-1h-1v-4h.67999c2.85999,0,5.44,1.56,6.78998,4h-2.46997c-.54999,0-1,.45001-1,1s.45001,1,1,1h4c.32001,0,.62-.15002.81-.42004.19-.25995.23999-.58997.14001-.89996ZM16.99981,12.41119c-.65002-.20996-1.32001-.32001-2-.32001s-1.34998.11005-2,.32001v-4.82001c1.29999.42999,2.70001.42999,4,0v4.82001ZM24.99981,23.00122h-6v-2h6v2ZM20.99981,19.00122v-4h2v4h-2ZM24.99981,13.00122h-6v-6h6v6Z"/>
</svg>