<?xml version="1.0" encoding="UTF-8"?>
<svg id="Outline" xmlns="http://www.w3.org/2000/svg" version="1.1" viewBox="0 0 64 64">
  <!-- Generator: Adobe Illustrator 29.0.0, SVG Export Plug-In . SVG Version: 2.1.0 Build 186)  -->
  <path d="M53.35999,15.07001l-21-8c-.22998-.09003-.48999-.09003-.71997,0L10.64001,15.07001c-.40002.14996-.66003.54999-.64001.98999l.91998,16.60999c.66003,11.85999,9.25,21.85999,20.87,24.31.07001.01001.14001.02002.21002.02002s.14001-.01001.21002-.02002c11.62-2.45001,20.20996-12.45001,20.87-24.31l.91998-16.60999c.02002-.44-.23999-.84003-.64001-.98999ZM51.08002,32.56c-.61005,10.89001-8.44,20.08002-19.08002,22.41998-10.64001-2.33997-18.46997-11.52997-19.08002-22.41998l-.88-15.89001,19.96002-7.59998,19.96002,7.59998-.88,15.89001Z"/>
  <path d="M49.20001,17.76996l-16.84003-6.41998c-.22998-.08997-.48999-.08997-.71997,0l-16.84003,6.41998c-.39996.15002-.65997.55005-.64001.99005l.76001,13.69c.54999,9.81,7.31,18.01996,16.84003,20.41998.08002.02002.15997.02997.23999.02997s.15997-.00995.23999-.02997c9.53003-2.40002,16.29004-10.60999,16.84003-20.41998l.76001-13.69c.01996-.44-.24005-.84003-.64001-.99005ZM31,50.56c-2.96002-.95001-5.59003-2.53003-7.76001-4.57001.48999-2.14001,1.73999-4.02002,3.53003-5.29999l4.22998,5.63995v4.23004ZM23.67999,25l-1.22998-3.06c3.45996-.28003,6.78998-1.56,9.54999-3.66003,2.76001,2.10004,6.09003,3.38,9.54999,3.66003l-1.22998,3.06h-16.64001ZM39.90002,27c-.46002,2.27997-2.49005,4-4.90002,4h-6c-2.40997,0-4.44-1.72003-4.90002-4h15.80005ZM24,30.89001c1.27002,1.29999,3.03998,2.10999,5,2.10999h6c1.96002,0,3.72998-.81,5-2.10999v1.10999c0,4.40997-3.59003,8-8,8s-8-3.59003-8-8v-1.10999ZM32,44.32996l-1.89001-2.50995c.60999.10999,1.23999.17999,1.89001.17999s1.28003-.07001,1.89001-.17999l-1.89001,2.50995ZM33,50.56v-4.23004l4.22998-5.62994c.40002.27997.78003.57996,1.13.94,1.22003,1.20996,2.02002,2.71997,2.39001,4.35999-2.15997,2.03998-4.78998,3.60999-7.75,4.56ZM47.08002,32.32996c-.25,4.54004-1.97003,8.69-4.72003,11.97003-.53998-1.52002-1.40997-2.90997-2.57996-4.08002-.32001-.32001-.66003-.60999-1.01001-.88,1.97998-1.82996,3.22998-4.44,3.22998-7.33997v-5.81l1.92999-4.82001c.12-.31.08002-.66003-.09998-.92999-.19-.27002-.5-.44-.83002-.44-3.64001,0-7.21997-1.25-10.06-3.53003l-.32001-.25c-.35999-.28998-.88-.28998-1.23999,0l-.32001.25c-2.84003,2.28003-6.41998,3.53003-10.06,3.53003-.33002,0-.64001.16998-.83002.44-.17999.26996-.21997.62-.09998.92999l1.92999,4.82001v5.81c0,2.89996,1.25,5.51001,3.22998,7.33997-1.64996,1.29004-2.88,3.01001-3.57996,4.97003-2.76001-3.28003-4.48004-7.44-4.73004-11.98004l-.71997-12.95996,15.79999-6.02002,15.79999,6.02002-.71997,12.95996Z"/>
</svg>