<?xml version="1.0" encoding="UTF-8"?>
<svg id="Outline" xmlns="http://www.w3.org/2000/svg" version="1.1" viewBox="0 0 64 64">
  <!-- Generator: Adobe Illustrator 29.0.0, SVG Export Plug-In . SVG Version: 2.1.0 Build 186)  -->
  <path d="M53,7H11c-.55273,0-1,.44775-1,1v48c0,.55225.44727,1,1,1h42c.55273,0,1-.44775,1-1V8c0-.55225-.44727-1-1-1ZM52,9v22h-10.03796c-.03705-.90869-.10706-1.80597-.24426-2.66699-.08691-.54443-.58984-.91602-1.14453-.83057-.54492.08691-.91699.59961-.83008,1.14502.12012.75836.18317,1.55011.21893,2.35254h-11.92261c.03436-.61859.08868-1.22302.1861-1.79004.09375-.54443-.27148-1.06152-.81543-1.15527-.54102-.09375-1.06152.27051-1.15527.81543-.11639.67645-.17834,1.39551-.21503,2.12988h-6.00385c.17993-4.78076,1.62256-9.29224,4.0509-12.49609.33398-.43994.24707-1.06738-.19336-1.40088-.44141-.33594-1.06836-.24609-1.40039.19287-2.68372,3.54095-4.27289,8.492-4.4566,13.7041h-6.03656V9h40ZM12,55v-22h6.02484c.12097,3.50684.86847,6.88464,2.19391,9.82178.16699.36963.53027.58887.91211.58887.13672,0,.27734-.02881.41016-.08887.50391-.22754.72754-.81982.5-1.32324-1.21014-2.68188-1.89722-5.77509-2.01636-8.99854h6.00677c.31573,6.02289,3.40808,11,5.96857,11,.99902,0,2.10547-.75537,3.11523-2.12744.32715-.44482.23145-1.0708-.21289-1.39795-.44629-.32764-1.07031-.23242-1.39844.2124-.80176,1.09033-1.39062,1.31299-1.50391,1.31299-.8103,0-3.66382-3.26282-3.96936-9h11.92603c-.04285.95782-.12622,1.90686-.29065,2.82324-1.04102,5.80176-4.33594,10.17676-7.66602,10.17676-3.33398,0-6.625-4.37402-7.65527-10.1748-.0957-.54297-.61426-.90625-1.15918-.80957-.54395.09619-.90625.61572-.80957,1.15918,1.2168,6.85205,5.26465,11.8252,9.62402,11.8252,4.35352,0,8.40527-4.97266,9.63477-11.82373.18488-1.03186.27753-2.09949.32178-3.17627h10.04346v22H12Z"/>
  <path d="M15,21c.55273,0,1-.44775,1-1v-7h7c.55273,0,1-.44775,1-1s-.44727-1-1-1h-8c-.55273,0-1,.44775-1,1v8c0,.55225.44727,1,1,1Z"/>
  <path d="M41,13h7v7c0,.55225.44727,1,1,1s1-.44775,1-1v-8c0-.55225-.44727-1-1-1h-8c-.55273,0-1,.44775-1,1s.44727,1,1,1Z"/>
  <path d="M23,51h-7v-7c0-.55225-.44727-1-1-1s-1,.44775-1,1v8c0,.55225.44727,1,1,1h8c.55273,0,1-.44775,1-1s-.44727-1-1-1Z"/>
  <path d="M49,43c-.55273,0-1,.44775-1,1v7h-7c-.55273,0-1,.44775-1,1s.44727,1,1,1h8c.55273,0,1-.44775,1-1v-8c0-.55225-.44727-1-1-1Z"/>
  <path d="M44.84473,35.01025c-.5498-.07715-1.05469.29834-1.13379.84521-1.19531,8.1958-6.12109,14.14453-11.71094,14.14453-2.97266,0-5.83301-1.6665-8.05469-4.69189-.32617-.44531-.95117-.54199-1.39746-.21436-.44531.32715-.54102.95264-.21387,1.39795,2.60742,3.55225,6.04102,5.5083,9.66602,5.5083,6.5918,0,12.34961-6.66846,13.68945-15.85547.08008-.54688-.29883-1.0542-.84473-1.13428Z"/>
  <path d="M26.72949,15.85986c1.64648-1.23389,3.41895-1.85986,5.27051-1.85986,5.58984,0,10.51562,5.94873,11.71094,14.14453.07227.49756.5.85547.98828.85547.04785,0,.09668-.00342.14551-.01025.5459-.08008.9248-.5874.84473-1.13428-1.33984-9.18701-7.09668-15.85547-13.68945-15.85547-2.26172,0-4.49902.78174-6.46973,2.26025-.44238.33105-.53223.95801-.2002,1.3999.33008.44092.95703.53125,1.39941.19971Z"/>
  <path d="M32,16c-4.35938,0-8.40723,4.97314-9.62402,11.8252-.09668.54346.26562,1.06299.80957,1.15918.05859.01074.11816.01562.17578.01562.47559,0,.89746-.34033.9834-.8252,1.03027-5.80078,4.32129-10.1748,7.65527-10.1748,2.61621,0,5.28906,2.71973,6.80957,6.92969.18652.51855.75879.78809,1.28027.60059.51953-.1875.78809-.76074.60059-1.28027-1.83691-5.08887-5.16699-8.25-8.69043-8.25Z"/>
  <path d="M35.7998,38.61084c.10352.03369.20801.0498.31055.0498.4209,0,.8125-.26807.9502-.68994.20801-.63623.36426-1.21533.47852-1.76953.11133-.54102-.2373-1.06982-.77832-1.18066-.53809-.11426-1.07031.2373-1.18066.77832-.09863.47949-.23633.98682-.41992,1.55078-.17188.5249.11426,1.08936.63965,1.26123Z"/>
  <path d="M32,20c-1.57422,0-3.37695,1.88232-4.59277,4.79492-.21289.50977.02832,1.09521.53711,1.30811.50684.21143,1.0957-.02783,1.30859-.5376,1.06055-2.53955,2.37695-3.56543,2.74707-3.56543.64648,0,2.70215,2.17725,3.58301,6.21338.10156.46777.51562.78662.97559.78662.07031,0,.14258-.00732.21387-.02295.54003-.11768.88184-.65088.76367-1.19043-.95215-4.36621-3.38477-7.78662-5.53613-7.78662Z"/>
</svg>