<?xml version="1.0" encoding="UTF-8"?>
<svg id="Outline" xmlns="http://www.w3.org/2000/svg" version="1.1" viewBox="0 0 64 64">
  <!-- Generator: Adobe Illustrator 29.0.0, SVG Export Plug-In . SVG Version: 2.1.0 Build 186)  -->
  <path d="M30.9668,49.2627l-.01465-5.75977c-.00488-1.22852-.56152-2.36719-1.52441-3.125l-10.12598-7.97754c-.82324-.5498-1.85059-.74609-2.83008-.53516-.2804.06055-.54309.15906-.79443.2771l-2.31982-10.66284c-.35449-1.65918-1.98535-2.72656-3.71191-2.42969-.49805.09082-.94824.27734-1.33691.55469-.84375.60254-1.33301,1.57031-1.30664,2.60742l.62695,15.06348c.04688,1.38184.65918,2.71973,1.67676,3.66797l5.9668,5.5957c.62598.5957.99512,1.37012,1.03711,2.1582l.12012,4.125c.00012.00494.00293.00891.00317.01379l.02026,3.17078c.00391.5498.4502.99316,1,.99316h12.54688c.26562,0,.52148-.10645.70898-.29492s.29199-.44434.29102-.70996l-.0332-6.73242h0ZM10.67188,39.48242c-.63477-.5918-1.01562-1.4209-1.04492-2.2832l-.62598-15.05469c-.00879-.35449.16602-.69531.46973-.91211.14746-.10547.32715-.17773.52344-.21387.65625-.11523,1.28027.2832,1.4082.88281l2.59155,11.91577c-.75024,1.55914-.23956,3.42145,1.28052,4.38208l6.13281,3.87207c.46777.29492,1.08496.15527,1.37988-.31152.29492-.46777.15527-1.08496-.31152-1.37988l-6.13281-3.87207c-.68945-.43555-.90137-1.30273-.48242-1.97461.22754-.36523.59375-.61816,1.0332-.71289.45312-.09668.91602-.0127,1.2334.19629l10.06348,7.93262c.48145.37891.75879.94824.76172,1.56055l.0127,5.00055-10.57257,2.97198-.08368-2.86804c-.07129-1.32324-.66016-2.5752-1.66309-3.5293l-5.97363-5.60254ZM18.44629,55l-.00879-1.45312,10.53614-2.96094.02148,4.41406h-10.54883Z"/>
  <path d="M55.69141,19.60547c-.38867-.27832-.83887-.46484-1.34766-.55762-1.72168-.29883-3.34668.77344-3.70117,2.42773l-2.31989,10.66669c-.25128-.11804-.51398-.21649-.79437-.27704-.97949-.21094-2.00781-.01465-2.89355.58105l-10.06152,7.93066c-.96387.75879-1.52051,1.89746-1.52539,3.12695l-.01465,5.75879h0l-.0332,6.73242c-.00098.26562.10352.52148.29102.70996s.44336.29492.70898.29492h12.54688c.5498,0,.99609-.44336,1-.99316l.02026-3.17078c.00024-.00488.00305-.00885.00317-.01379l.11914-4.10059c.04297-.8125.41211-1.58691,1.0332-2.17773l5.96875-5.59863c1.02051-.9502,1.63281-2.28809,1.67969-3.66211l.62793-15.08789c.02539-1.02051-.46387-1.98828-1.30762-2.58984ZM45.55371,55h-10.54883l.02148-4.41406,10.53613,2.96094-.00878,1.45312ZM54.37305,37.20703c-.0293.85449-.41016,1.68359-1.04688,2.27734l-5.97754,5.60547c-.99707.94922-1.58594,2.20117-1.6582,3.54883l-.08282,2.84363-10.57245-2.97198.0127-4.99957c.00293-.61328.28027-1.18262.7627-1.5625l9.99902-7.88574c.38086-.25391.84473-.33984,1.29688-.24219.43945.09473.80566.34766,1.0332.71289.41895.67188.20703,1.53906-.48242,1.97461l-6.13281,3.87207c-.4668.29492-.60645.91211-.31152,1.37988.29492.4668.91309.60645,1.37988.31152l6.13281-3.87207c1.52014-.96063,2.03076-2.82294,1.28046-4.38214l2.59161-11.91962c.12793-.59473.7627-.98438,1.39746-.88086.20703.03809.38672.11035.53418.2168.30371.21582.47852.55664.4707.89453l-.62695,15.0791Z"/>
  <path d="M44.4707,22.41211l.52734-9.69043c.02441-.43164-.23242-.83008-.63574-.98633l-12-4.66699c-.23242-.0918-.49219-.0918-.72461,0l-12,4.66699c-.40332.15625-.66016.55469-.63574.98633l.52734,9.69043c.38672,7.10742,5.42871,13.09668,12.26074,14.56543.06934.01465.13965.02246.20996.02246s.14062-.00781.20996-.02246c6.83203-1.46875,11.87402-7.45801,12.26074-14.56543ZM32,34.97559c-5.8457-1.35645-10.13965-6.53613-10.47461-12.67285l-.4873-8.9668,10.96191-4.2627,10.96191,4.2627-.4873,8.9668c-.33496,6.13672-4.62891,11.31641-10.47461,12.67285Z"/>
  <path d="M28.20703,21.375c-.39062-.39062-1.02344-.39062-1.41406,0s-.39062,1.02344,0,1.41406l3,3c.19531.19531.45117.29297.70703.29297s.51172-.09766.70703-.29297l6-6c.39062-.39062.39062-1.02344,0-1.41406s-1.02344-.39062-1.41406,0l-5.29297,5.29297-2.29297-2.29297Z"/>
  <path d="M40.21094,14.41211l-7.84863-3.05176c-.23242-.0918-.49219-.0918-.72461,0l-7.84863,3.05176c-.40332.15625-.66016.55469-.63574.98633l.37012,6.7959c.26855,4.94531,3.55762,9.21875,8.18457,10.63281.09473.0293.19336.04395.29199.04395s.19727-.01465.29199-.04395c4.62695-1.41406,7.91602-5.6875,8.18457-10.63281l.37012-6.7959c.02441-.43164-.23242-.83008-.63574-.98633ZM38.48047,22.08496c-.21777,4.00586-2.80762,7.47754-6.48047,8.73535-3.67285-1.25781-6.2627-4.72949-6.48047-8.73535l-.33008-6.07227,6.81055-2.64746,6.81055,2.64746-.33008,6.07227Z"/>
</svg>