<?xml version="1.0" encoding="UTF-8"?>
<svg id="Outline" xmlns="http://www.w3.org/2000/svg" version="1.1" viewBox="0 0 64 64">
  <!-- Generator: Adobe Illustrator 29.0.0, SVG Export Plug-In . SVG Version: 2.1.0 Build 186)  -->
  <path d="M20.42218,14.03406c.52185.18085,1.09149-.09558,1.27234-.61743.18079-.52185-.09564-1.09143-.61749-1.27228-.52179-.18085-1.09143.09558-1.27228.61743s.09558,1.09149.61743,1.27228Z"/>
  <path d="M24.20166,15.34381c.52185.18085,1.09149-.09558,1.27234-.61743s-.09558-1.09149-.61743-1.27234c-.52185-.18079-1.09149.09564-1.27234.61749-.18085.52179.09564,1.09143.61743,1.27228Z"/>
  <path d="M27.9812,16.65356c.52185.18079,1.09143-.09564,1.27228-.61749.18085-.52179-.09558-1.09143-.61743-1.27228s-1.09149.09558-1.27228.61743c-.18085.52185.09558,1.09149.61743,1.27234Z"/>
  <path d="M56.33002,26.47998l-3.39001-1.17999.37-.17999c.23999-.10999.41998-.32001.51001-.57001l1.31-3.78003c.08997-.25.07001-.52997-.04999-.75995-.11005-.24005-.32001-.43005-.57001-.51001L18.60999,7.06c-.52997-.19-1.08997.08997-1.27997.60999l-2.62,7.56c-.08002.25-.07001.53003.04999.77002.12.22998.32001.41998.57001.5l.95001.32996-2.29004,6.62006c-.19.51996.09003,1.08997.60999,1.26996l16.66003,5.77002-3.91998,11.28998c-.51001.32001-.95001.73999-1.31,1.22003h-9.03003v-5c0-.54999-.45001-1-1-1h-3v-1c0-.54999-.45001-1-1-1h-4c-.54999,0-1,.45001-1,1v20c0,.54999.45001,1,1,1h4c.54999,0,1-.45001,1-1v-1h3c.54999,0,1-.45001,1-1v-5h9.03003c.90997,1.20996,2.33997,2,3.96997,2,2.76001,0,5-2.23999,5-5,0-1.41003-.59003-2.67999-1.53003-3.59003l3.46002-9.95996,7.91003,2.75c.10999.02997.21997.04999.32996.04999.15002,0,.29999-.03003.42999-.10004.24005-.12.43005-.32001.51001-.57001l.33002-.94995,6.60999,2.29999c.10999.02997.22003.04999.33002.04999.15002,0,.29999-.02997.44-.09998.23999-.12.41998-.32001.51001-.57001l2.62-7.56c.17999-.52002-.10004-1.09003-.62-1.27002ZM11,55h-2v-18h2v18ZM15,53h-2v-14h2v14ZM25.09998,47h-8.09998v-2h8.09998c-.06.32001-.09998.65997-.09998,1,0,.33997.03998.67999.09998,1ZM18.90002,9.26996l34.00995,11.79004-.83997,2.44-4.35004,2.10999-29.83997-10.34003-.95001-.32996,1.97003-5.67004ZM16.20001,23.15997l1.96997-5.66998,5.08002,1.76001-4.79999,4.69-2.25-.78003ZM20.57001,24.66998l4.79999-4.69,4.5,1.56-4.79999,4.69-4.5-1.56ZM27.17999,26.95996l4.79999-4.69,4.5,1.56-4.79999,4.69-4.5-1.56ZM30,49c-1.65002,0-3-1.35004-3-3s1.34998-3,3-3,3,1.34998,3,3-1.34998,3-3,3ZM31.72998,41.32996c-.53998-.19995-1.12-.32996-1.72998-.32996-.09998,0-.17999.01996-.28003.02997l3.43005-9.88995,1.88995.65997-3.31,9.52997ZM44.88,32.02997v.01001l-.33002.94-7.90997-2.73999q-.01001,0-.01001-.01001l-2.84003-.97998,4.80005-4.69,7.91998,2.75-1.63,4.71997ZM52.76001,33.70996l-5.66998-1.96997,1.50995-4.33002,1.79004-.87,4.33997,1.5-1.96997,5.66998Z"/>
  <path d="M39,41.92871c1.6543,0,3-1.3457,3-3,0-.55225-.44727-1-1-1s-1,.44775-1,1c0,.55127-.44824,1-1,1-.55273,0-1,.44775-1,1s.44727,1,1,1Z"/>
  <path d="M39,45.92871c3.85938,0,7-3.14014,7-7,0-.55225-.44727-1-1-1s-1,.44775-1,1c0,2.75684-2.24316,5-5,5-.55273,0-1,.44775-1,1s.44727,1,1,1Z"/>
  <path d="M49,37.92871c-.55273,0-1,.44775-1,1,0,4.9624-4.03711,9-9,9-.55273,0-1,.44775-1,1s.44727,1,1,1c6.06543,0,11-4.93457,11-11,0-.55225-.44727-1-1-1Z"/>
</svg>