<?xml version="1.0" encoding="UTF-8"?>
<svg id="Outline" xmlns="http://www.w3.org/2000/svg" version="1.1" viewBox="0 0 64 64">
  <!-- Generator: Adobe Illustrator 29.0.0, SVG Export Plug-In . SVG Version: 2.1.0 Build 186)  -->
  <path d="M56,11h-1.38l-1.72998-3.45001c-.16003-.34003-.51001-.54999-.89001-.54999H12c-.38,0-.72998.20996-.89001.54999l-1.72998,3.45001h-1.38c-.54999,0-1,.45001-1,1v8c0,.54999.45001,1,1,1h1v5c0,6.37,2.64001,12.41998,7.26001,16.76996-1.06,1.20001-1.78003,2.20001-2.09003,2.68005-.22998.32996-.22998.76996,0,1.09998,1.16003,1.75,7.47003,10.45001,17.83002,10.45001,1.82001,0,11.21997-.5,17.83002-10.45001.22998-.33002.22998-.77002,0-1.09998-.66003-1-1.36005-1.88-2.07001-2.70001,4.60999-4.35004,7.23999-10.39001,7.23999-16.75v-5h1c.54999,0,1-.45001,1-1v-8c0-.54999-.45001-1-1-1ZM12.62,9h38.76001l1,2H11.62l1-2ZM47.78998,46c-6.01996,8.56-14.19,9-15.78998,9-8.53003,0-14.07001-6.63-15.78003-9,1.71002-2.37,7.25-9,15.78003-9,1.59998,0,9.77002.44,15.78998,9ZM32,28c-3.31,0-6,2.69-6,6,0,.65997.12,1.29999.33002,1.90997-.65002.22003-1.28003.46002-1.88.73004-.29004-.84003-.45001-1.73004-.45001-2.64001,0-4.41003,3.59003-8,8-8s8,3.58997,8,8c0,.90997-.15997,1.82001-.46002,2.67999-.64996-.28003-1.27997-.52002-1.88995-.71002.21997-.62.34998-1.28998.34998-1.96997,0-3.31-2.69-6-6-6ZM36,34c0,.51001-.09998,1-.28003,1.45001-1.77997-.39001-3.13995-.45001-3.71997-.45001-1.31,0-2.56.14001-3.73999.39001-.16998-.44-.26001-.91003-.26001-1.39001,0-2.21002,1.78998-4,4-4s4,1.78998,4,4ZM53,26c0,5.79999-2.40002,11.32001-6.60999,15.28998-1.67004-1.63-3.39001-2.84998-5.04999-3.73999.42999-1.13.65997-2.34003.65997-3.54999,0-5.51001-4.48999-10-10-10s-10,4.48999-10,10c0,1.21997.22998,2.41998.65997,3.53998-2,1.13-3.69,2.48999-5.01996,3.78003-4.23004-3.97003-6.64001-9.5-6.64001-15.32001v-5h42v5ZM55,19H9v-6h46v6Z"/>
  <circle cx="12" cy="16" r="1"/>
  <circle cx="16" cy="16" r="1"/>
  <circle cx="20" cy="16" r="1"/>
  <path d="M32,39c-3.85986,0-7,3.14062-7,7s3.14014,7,7,7,7-3.14062,7-7-3.14014-7-7-7ZM32,51c-2.75684,0-5-2.24316-5-5s2.24316-5,5-5,5,2.24316,5,5-2.24316,5-5,5Z"/>
  <path d="M33.09277,44.09277l-1.69287,1.69336-.49268-.49316c-.39062-.39062-1.02344-.39062-1.41406,0s-.39062,1.02344,0,1.41406l1.19971,1.2002c.1875.1875.44189.29297.70703.29297s.51953-.10547.70703-.29297l2.3999-2.40039c.39062-.39062.39062-1.02344,0-1.41406s-1.02344-.39062-1.41406,0Z"/>
</svg>