<?xml version="1.0" encoding="UTF-8"?>
<svg id="Outline" xmlns="http://www.w3.org/2000/svg" version="1.1" viewBox="0 0 64 64">
  <!-- Generator: Adobe Illustrator 29.0.0, SVG Export Plug-In . SVG Version: 2.1.0 Build 186)  -->
  <path d="M56.96997,51.76001l-2.96997-11.88v-22.88c0-2.21002-1.78998-4-4-4h-5.02002l.02002-.28003c.02002-.42999-.22998-.82996-.64001-.97998l-12-4.66998c-.22998-.09003-.48999-.09003-.71997,0l-12,4.66998c-.41003.15002-.66003.54999-.64001.97998l.02002.28003h-5.02002c-2.21002,0-4,1.78998-4,4v22.88l-2.96997,11.88c-.02002.07996-.03003.15997-.03003.23999v4c0,.54999.45001,1,1,1h48c.54999,0,1-.45001,1-1v-4c0-.08002-.01001-.16003-.03003-.23999ZM44.46997,22.40997l.19-3.40997h3.34003v16h-10.91998c4.25-2.65002,7.09998-7.31,7.38995-12.59003ZM32,9.07001l10.96002,4.26996-.49005,8.96002c-.32996,6.14001-4.62,11.32001-10.46997,12.67999-5.84998-1.35999-10.14001-6.53998-10.46997-12.67999l-.49005-8.96002,10.96002-4.26996ZM19.53003,22.40997c.28998,5.28003,3.13995,9.94,7.38995,12.59003h-10.91998v-16h3.34003l.19,3.40997ZM12,17c0-1.10004.90002-2,2-2h5.13l.09998,2h-4.22998c-.54999,0-1,.45001-1,1v18c0,.54999.45001,1,1,1h34c.54999,0,1-.45001,1-1v-18c0-.54999-.45001-1-1-1h-4.22998l.09998-2h5.13c1.09998,0,2,.89996,2,2v22H12v-22ZM11.78003,41h40.43994l2.5,10H9.28003l2.5-10ZM24,55h-15v-2h15v2ZM38,55h-12v-2h12v2ZM55,55h-15v-2h15v2Z"/>
  <path d="M19,44c0-.55273-.44775-1-1-1h-2c-.55225,0-1,.44727-1,1s.44775,1,1,1h2c.55225,0,1-.44727,1-1Z"/>
  <path d="M25,44c0-.55273-.44775-1-1-1h-2c-.55225,0-1,.44727-1,1s.44775,1,1,1h2c.55225,0,1-.44727,1-1Z"/>
  <path d="M31,44c0-.55273-.44775-1-1-1h-2c-.55225,0-1,.44727-1,1s.44775,1,1,1h2c.55225,0,1-.44727,1-1Z"/>
  <path d="M15,47h-2c-.55225,0-1,.44727-1,1s.44775,1,1,1h2c.55225,0,1-.44727,1-1s-.44775-1-1-1Z"/>
  <path d="M21,47h-2c-.55225,0-1,.44727-1,1s.44775,1,1,1h2c.55225,0,1-.44727,1-1s-.44775-1-1-1Z"/>
  <path d="M27,47h-2c-.55225,0-1,.44727-1,1s.44775,1,1,1h2c.55225,0,1-.44727,1-1s-.44775-1-1-1Z"/>
  <path d="M51,47h-2c-.55225,0-1,.44727-1,1s.44775,1,1,1h2c.55225,0,1-.44727,1-1s-.44775-1-1-1Z"/>
  <path d="M45,47h-2c-.55225,0-1,.44727-1,1s.44775,1,1,1h2c.55225,0,1-.44727,1-1s-.44775-1-1-1Z"/>
  <path d="M39,47h-2c-.55225,0-1,.44727-1,1s.44775,1,1,1h2c.55225,0,1-.44727,1-1s-.44775-1-1-1Z"/>
  <path d="M33,47h-2c-.55225,0-1,.44727-1,1s.44775,1,1,1h2c.55225,0,1-.44727,1-1s-.44775-1-1-1Z"/>
  <path d="M49,44c0-.55273-.44775-1-1-1h-2c-.55225,0-1,.44727-1,1s.44775,1,1,1h2c.55225,0,1-.44727,1-1Z"/>
  <path d="M43,44c0-.55273-.44775-1-1-1h-2c-.55225,0-1,.44727-1,1s.44775,1,1,1h2c.55225,0,1-.44727,1-1Z"/>
  <path d="M37,44c0-.55273-.44775-1-1-1h-2c-.55225,0-1,.44727-1,1s.44775,1,1,1h2c.55225,0,1-.44727,1-1Z"/>
  <path d="M29.79297,25.78906c.19531.19531.45117.29297.70703.29297s.51172-.09766.70703-.29297l6-6c.39062-.39062.39062-1.02344,0-1.41406s-1.02344-.39062-1.41406,0l-5.29297,5.29297-2.29297-2.29297c-.39062-.39062-1.02344-.39062-1.41406,0s-.39062,1.02344,0,1.41406l3,3Z"/>
  <path d="M31.70752,32.82715c.09521.0293.19385.04395.29248.04395s.19727-.01465.29248-.04395c4.62646-1.41406,7.91553-5.6875,8.18457-10.63281l.37012-6.7959c.02344-.43164-.23291-.83008-.63623-.98633l-7.84863-3.05176c-.23242-.0918-.49219-.0918-.72461,0l-7.84863,3.05176c-.40332.15625-.65967.55469-.63623.98633l.37012,6.7959c.26904,4.94531,3.55811,9.21875,8.18457,10.63281ZM32,13.36523l6.81055,2.64746-.33057,6.07227c-.21777,4.00586-2.80713,7.47754-6.47998,8.73535-3.67285-1.25781-6.26221-4.72949-6.47998-8.73535l-.33057-6.07227,6.81055-2.64746Z"/>
</svg>