<?xml version="1.0" encoding="UTF-8"?>
<svg id="Outline" xmlns="http://www.w3.org/2000/svg" version="1.1" viewBox="0 0 64 64">
  <!-- Generator: Adobe Illustrator 29.0.0, SVG Export Plug-In . SVG Version: 2.1.0 Build 186)  -->
  <path d="M56.80469,38.3623l-15.17285-30.35547c-.31543-.62012-.94043-1.00488-1.63184-1.00488s-1.31641.38477-1.63477,1.01074l-3.78546,7.57172-.71649-1.43304c-.35547-.70996-1.06934-1.15137-1.86328-1.15137s-1.50781.44141-1.86328,1.15137l-.71649,1.43304-3.78839-7.57758c-.31543-.62012-.94043-1.00488-1.63184-1.00488s-1.31641.38477-1.63477,1.01074l-15.16309,30.33594c-.29297.56445-.26953,1.22656.06152,1.77148.33496.55078.9209.87988,1.56641.87988h7.8833l-6.4917,12.98438c-.3252.65137-.29102,1.40918.09082,2.02734.38282.61914,1.04493.98828,1.77247.98828h39.83008c.72754,0,1.38965-.36914,1.77246-.98828.38184-.61816.41602-1.37598.09083-2.02734l-6.4917-12.98438h7.8833c.64551,0,1.23145-.3291,1.56641-.87988.33105-.54492.35449-1.20703.06836-1.75781ZM9.1123,39l14.8877-29.78418,4.30206,8.6051-10.58875,21.17908h-8.60101ZM32.07422,15.0459l19.91211,39.91504c-.02441.03906-.05664.03906-.07129.03906H12.08496l-.07422-.12109L31.92578,15.0459M46.28668,39l-10.58875-21.17908,4.30206-8.6051,14.8877,29.78418h-8.60101Z"/>
  <path d="M32,47c-1.6543,0-3,1.3457-3,3s1.3457,3,3,3,3-1.3457,3-3-1.3457-3-3-3ZM32,51c-.55176,0-1-.44824-1-1s.44824-1,1-1,1,.44824,1,1-.44824,1-1,1Z"/>
  <path d="M28.58691,26.52539c-.86719.96973-1.2832,2.26758-1.13965,3.56055l1.33789,12.03711c.18262,1.64062,1.56445,2.87695,3.21484,2.87695s3.03223-1.23633,3.21484-2.87695l1.33789-12.03711c.14355-1.29297-.27246-2.59082-1.13965-3.56055-.86816-.96973-2.1123-1.52539-3.41309-1.52539s-2.54492.55566-3.41309,1.52539ZM34.56445,29.86523l-1.33789,12.03711c-.06934.62598-.59668,1.09766-1.22656,1.09766s-1.15723-.47168-1.22656-1.09766l-1.33789-12.03711c-.08203-.73926.14551-1.45215.6416-2.00586.49609-.55469,1.17871-.85938,1.92285-.85938s1.42676.30469,1.92285.85938c.49609.55371.72363,1.2666.6416,2.00586Z"/>
</svg>