<?xml version="1.0" encoding="UTF-8"?>
<svg id="Outline" xmlns="http://www.w3.org/2000/svg" version="1.1" viewBox="0 0 64 64">
  <!-- Generator: Adobe Illustrator 29.0.0, SVG Export Plug-In . SVG Version: 2.1.0 Build 186)  -->
  <path d="M42.35645,18.3457c-.23047-.08691-.48242-.08691-.71289,0l-9.84375,3.75049c-.40625.15527-.66602.55518-.6416.99023l.45312,8.15625c.3291,5.93506,4.39551,11.00049,10.11914,12.604.08789.0249.17871.03711.26953.03711s.18164-.01221.26953-.03711c5.72363-1.60352,9.79004-6.66895,10.11914-12.60352l.45312-8.15674c.02441-.43506-.23535-.83496-.6416-.99023l-9.84375-3.75049ZM50.45538,30h-7.45538v-9.26843l7.80469,2.97351-.3493,6.29492ZM41,20.73157v9.26843h-7.45538l-.3493-6.29492,7.80469-2.97351ZM33.6897,32h7.3103v9.48206c-3.95435-1.6062-6.76007-5.22461-7.3103-9.48206ZM43,41.48206v-9.48206h7.31036c-.55017,4.25726-3.3559,7.87579-7.31036,9.48206Z"/>
  <path d="M56,40h-2.34998c1.57996-2.51001,2.56-5.42999,2.72998-8.54004l.62-11.06995c.02002-.44-.23999-.84003-.64001-.99005l-5.35999-2.03998v-6.35999c0-.54999-.45001-1-1-1H8c-.54999,0-1,.45001-1,1v42c0,.54999.45001,1,1,1h48c.54999,0,1-.45001,1-1v-12c0-.54999-.45001-1-1-1ZM39,12h10v4.59998l-6.64001-2.52997c-.22998-.09003-.48999-.09003-.71997,0l-2.64001,1v-3.07001ZM27,12h10v3.82996l-.42999.17004h-9.57001v-4ZM31.32001,18l-3.67999,1.39996c-.40002.15002-.66003.55005-.64001.99005l.09003,1.60999h-6.09003v-4h10.32001ZM25,36v4h-10v-4h10ZM15,28v-4h9v4h-9ZM21,34v-4h6.53998l.08002,1.45996c.04999.87.16998,1.71002.33002,2.54004h-6.95001ZM26,28v-4h1.20001l.21997,4h-1.41998ZM27,36h1.46997c.46002,1.41998,1.10004,2.76001,1.88,4h-3.34998v-4ZM15,12h10v4h-10v-4ZM9,12h4v4h-4v-4ZM9,18h10v4h-10v-4ZM9,24h4v4h-4v-4ZM9,30h10v4h-10v-4ZM9,36h4v4h-4v-4ZM13,52h-4v-4h4v4ZM9,46v-4h10v4h-10ZM25,52h-10v-4h10v4ZM21,46v-4h10v4h-10ZM37,52h-10v-4h10v4ZM33,46v-2.73004c1.08002,1.06,2.29999,1.97003,3.62,2.73004h-3.62ZM29.60999,31.34998l-.13-2.32001c0-.01001.01001-.01996.01001-.02997,0-.02002-.01001-.03003-.01001-.04999l-.32996-5.95001v-.01001l-.11005-1.97998,12.96002-4.94,7.60999,2.89996h.01001l5.34003,2.04004-.57001,10.33997c-.40002,7.09003-5.48004,13.08002-12.39001,14.63-6.90997-1.54999-11.98999-7.53998-12.39001-14.63ZM49,52h-10v-4h10v4ZM55,52h-4v-4h4v4ZM55,46h-7.62c1.83002-1.04999,3.46002-2.40002,4.79999-4h2.82001v4Z"/>
</svg>