<?xml version="1.0" encoding="UTF-8"?>
<svg id="Outline" xmlns="http://www.w3.org/2000/svg" version="1.1" viewBox="0 0 64 64">
  <!-- Generator: Adobe Illustrator 29.0.0, SVG Export Plug-In . SVG Version: 2.1.0 Build 186)  -->
  <path d="M19,7c-6.06543,0-11,4.93457-11,11,0,4.14795,2.33398,7.92285,6,9.79443v22.20557c0,.19727.05859.39062.16797.55469l4,6c.18555.27832.49756.44531.83203.44531s.64648-.16699.83203-.44531l4-6c.10938-.16406.16797-.35742.16797-.55469v-2c0-.26514-.10547-.51953-.29297-.70703l-2.29297-2.29297,2.29297-2.29297c.1875-.1875.29297-.44189.29297-.70703v-2c0-.26514-.10547-.51953-.29297-.70703l-2.29297-2.29297,2.29297-2.29297c.1875-.1875.29297-.44189.29297-.70703v-6.20557c3.66602-1.87158,6-5.64648,6-9.79443,0-6.06543-4.93457-11-11-11ZM22.59961,26.24609c-.36426.15918-.59961.51855-.59961.91602v6.42383l-2.70703,2.70703c-.39062.39062-.39062,1.02344,0,1.41406l2.70703,2.70703v1.17188l-2.70703,2.70703c-.39062.39062-.39062,1.02344,0,1.41406l2.70703,2.70703v1.2832l-3,4.5-3-4.5v-22.53516c0-.39746-.23535-.75684-.59961-.91602-3.28076-1.43457-5.40039-4.67139-5.40039-8.24609,0-4.9624,4.0376-9,9-9s9,4.0376,9,9c0,3.57471-2.11963,6.81152-5.40039,8.24609Z"/>
  <path d="M19,11c-1.6543,0-3,1.3457-3,3s1.3457,3,3,3,3-1.3457,3-3-1.3457-3-3-3ZM19,15c-.55127,0-1-.44873-1-1s.44873-1,1-1,1,.44873,1,1-.44873,1-1,1Z"/>
  <path d="M55,35h-2v-9c0-6.07001-4.92999-11-11-11s-11,4.92999-11,11v9h-2c-.54999,0-1,.45001-1,1v3c-.54999,0-1,.45001-1,1v4c0,.54999.45001,1,1,1v2c-.54999,0-1,.45001-1,1v4c0,.54999.45001,1,1,1v3c0,.54999.45001,1,1,1h26c.54999,0,1-.45001,1-1v-20c0-.54999-.45001-1-1-1ZM33,26c0-4.96002,4.03998-9,9-9s9,4.03998,9,9v9h-2v-9c0-3.85999-3.14001-7-7-7s-7,3.14001-7,7v9h-2v-9ZM47,26v9h-10v-9c0-2.76001,2.23999-5,5-5s5,2.23999,5,5ZM29,41h6v2h-6v-2ZM29,49h6v2h-6v-2ZM54,55h-24v-2h6c.54999,0,1-.45001,1-1v-4c0-.54999-.45001-1-1-1h-6v-2h6c.54999,0,1-.45001,1-1v-4c0-.54999-.45001-1-1-1h-6v-2h24v18Z"/>
  <path d="M49,39c-1.6543,0-3,1.3457-3,3v8c0,1.6543,1.3457,3,3,3s3-1.3457,3-3v-8c0-1.6543-1.3457-3-3-3ZM50,50c0,.55127-.44873,1-1,1s-1-.44873-1-1v-8c0-.55127.44873-1,1-1s1,.44873,1,1v8Z"/>
</svg>