<?xml version="1.0" encoding="UTF-8"?>
<svg id="Outline" xmlns="http://www.w3.org/2000/svg" version="1.1" viewBox="0 0 64 64">
  <!-- Generator: Adobe Illustrator 29.0.0, SVG Export Plug-In . SVG Version: 2.1.0 Build 186)  -->
  <path d="M32,19c-8.82227,0-16,7.17773-16,16s7.17773,16,16,16,16-7.17773,16-16-7.17773-16-16-16ZM32,49c-7.71973,0-14-6.28027-14-14s6.28027-14,14-14,14,6.28027,14,14-6.28027,14-14,14Z"/>
  <path d="M52.70703,14.29297c-1.25928-1.25928-2.93115-1.95312-4.70703-1.95312s-3.44775.69385-4.70654,1.95215l-.24023.23975c-.21875.21826-.32422.52588-.28564.83252s.21631.57812.48242.73584c1.2832.76056,2.47784,1.65778,3.57581,2.66003l-1.43109,1.43109c-2.68292-2.42914-6.01489-4.14496-9.71283-4.83679.81061-.88904,1.31812-2.05951,1.31812-3.35443,0-2.75684-2.24316-5-5-5s-5,2.24316-5,5c0,1.29492.50751,2.46539,1.31812,3.35443-3.69794.69183-7.02991,2.40765-9.71283,4.83679l-1.43109-1.43109c1.09796-1.00214,2.29266-1.89923,3.57581-2.65955.26562-.15771.44385-.4292.48242-.73535.03857-.30664-.06689-.61377-.28516-.83203l-.24023-.24023c-1.25928-1.25928-2.93115-1.95312-4.70703-1.95312s-3.44775.69385-4.70703,1.95312c-2.5957,2.59521-2.5957,6.81885,0,9.41406l.24023.24023c.18848.18896.44336.29297.70703.29297.0415,0,.08301-.00244.125-.00781.30615-.03857.57764-.2168.73535-.48242.76031-1.28314,1.65741-2.47784,2.65955-3.57581l1.43109,1.43109c-3.21423,3.55005-5.19122,8.24005-5.19122,13.39471,0,6.24725,2.88275,11.83044,7.38403,15.50085l-4.14429,4.84924c-.35889.41992-.30908,1.05127.11084,1.41016.18799.16113.41895.23975.64893.23975.28223,0,.56299-.11914.76074-.35059l4.24115-4.96295c3.15857,2.08893,6.93658,3.31354,10.9986,3.31354s7.84003-1.22461,10.9986-3.31354l4.24115,4.96295c.19775.23193.47852.35059.76074.35059.22998,0,.46094-.07861.64893-.23975.41992-.35889.46973-.99023.11084-1.41016l-4.14429-4.84924c4.50128-3.67041,7.38403-9.2536,7.38403-15.50085,0-5.15466-1.97699-9.84467-5.19122-13.39471l1.43109-1.43109c1.00214,1.0979,1.89935,2.29242,2.66003,3.57532.15771.26611.4292.44385.73535.48242.04199.00537.0835.00781.125.00781.26367,0,.51855-.104.70703-.29297l.23975-.23975c2.5957-2.59521,2.5957-6.81885,0-9.41406ZM32,9c1.6543,0,3,1.3457,3,3,0,1.30194-.8385,2.40161-2,2.81573v-1.81573c0-.55225-.44775-1-1-1s-1,.44775-1,1v1.81567c-1.1615-.41412-2-1.51373-2-2.81567,0-1.6543,1.3457-3,3-3ZM12.11426,21.56934c-.50195-.75537-.77197-1.6416-.77197-2.56934,0-1.24365.48486-2.41309,1.36475-3.29297.88184-.88184,2.05127-1.36719,3.29297-1.36719.92676,0,1.81348.27051,2.56982.77441-2.54248,1.71338-4.7417,3.9126-6.45557,6.45508ZM32,53c-9.92529,0-18-8.07471-18-18s8.07471-18,18-18,18,8.07471,18,18-8.07471,18-18,18ZM51.88574,21.56934c-1.71387-2.54248-3.91309-4.7417-6.45557-6.45557.75684-.50342,1.64307-.77393,2.56982-.77393,1.2417,0,2.41113.48535,3.29297,1.36719.87988.87988,1.36475,2.04932,1.36475,3.29297,0,.92725-.27002,1.81348-.77197,2.56934Z"/>
  <path d="M40,34h-5.18427c-.30206-.84717-.96857-1.51367-1.81573-1.81573v-8.18427c0-.55225-.44775-1-1-1s-1,.44775-1,1v8.18427c-1.1615.41412-2,1.51379-2,2.81573,0,1.6543,1.3457,3,3,3,1.30194,0,2.40161-.8385,2.81573-2h5.18427c.55225,0,1-.44775,1-1s-.44775-1-1-1ZM32,36c-.55127,0-1-.44873-1-1s.44873-1,1-1,1,.44873,1,1-.44873,1-1,1Z"/>
  <path d="M34,43h-4c-.55225,0-1,.44775-1,1s.44775,1,1,1h4c.55225,0,1-.44775,1-1s-.44775-1-1-1Z"/>
</svg>