<?xml version="1.0" encoding="UTF-8"?>
<svg id="Outline" xmlns="http://www.w3.org/2000/svg" version="1.1" viewBox="0 0 64 64">
  <!-- Generator: Adobe Illustrator 29.0.0, SVG Export Plug-In . SVG Version: 2.1.0 Build 186)  -->
  <path d="M44,33.03821v-5.03821c0-1.00525-.38544-1.91412-1-2.61761v-7.38239c0-6.06543-4.93457-11-11-11s-11,4.93457-11,11v7.38239c-.61456.70349-1,1.61237-1,2.61761v5.03821c-1.87488,2.50397-3,5.60016-3,8.96179,0,8.271,6.729,15,15,15s15-6.729,15-15c0-3.36163-1.12512-6.45782-3-8.96179ZM24,26c1.10303,0,2,.89697,2,2v.26117c-1.47424.64642-2.81787,1.52875-4,2.59027v-2.85144c0-1.10303.89697-2,2-2ZM27.95642,27.56934c-.09094-.83405-.43201-1.58667-.95642-2.18695v-7.38239c0-2.75684,2.24316-5,5-5s5,2.24316,5,5v7.38239c-.52441.60028-.86548,1.35291-.95642,2.18695-1.28857-.36169-2.64105-.56934-4.04358-.56934s-2.755.20764-4.04358.56934ZM38,28c0-1.10303.89697-2,2-2s2,.89697,2,2v2.85144c-1.18213-1.06152-2.52576-1.94385-4-2.59027v-.26117ZM32,9c4.9624,0,9,4.0376,9,9v6.14203c-.32153-.08356-.65271-.14203-1-.14203s-.67847.05847-1,.14203v-6.14203c0-3.85986-3.14014-7-7-7s-7,3.14014-7,7v6.14203c-.32153-.08356-.65271-.14203-1-.14203s-.67847.05847-1,.14203v-6.14203c0-4.9624,4.0376-9,9-9ZM32,55c-7.16846,0-13-5.83154-13-13s5.83154-13,13-13,13,5.83154,13,13-5.83154,13-13,13Z"/>
  <path d="M32,34c-3.30859,0-6,2.69141-6,6,0,2.01172,1.00244,3.85254,2.65918,4.96045l-.64551,3.875c-.04834.29004.0332.58643.22314.81104.18994.22412.46924.35352.76318.35352h6c.29395,0,.57324-.12939.76318-.35352.18994-.22461.27148-.521.22314-.81104l-.64551-3.875c1.65674-1.10791,2.65918-2.94873,2.65918-4.96045,0-3.30859-2.69141-6-6-6ZM33.79004,43.5542c-.39014.19727-.60693.62549-.53516,1.05713l.56445,3.38867h-3.63867l.56445-3.38867c.07178-.43164-.14502-.85986-.53516-1.05713-1.36328-.68896-2.20996-2.05078-2.20996-3.5542,0-2.20557,1.79443-4,4-4s4,1.79443,4,4c0,1.50342-.84668,2.86523-2.20996,3.5542Z"/>
</svg>