<?xml version="1.0" encoding="UTF-8"?>
<svg id="Outline" xmlns="http://www.w3.org/2000/svg" version="1.1" viewBox="0 0 64 64">
  <!-- Generator: Adobe Illustrator 29.0.0, SVG Export Plug-In . SVG Version: 2.1.0 Build 186)  -->
  <path d="M53.35596,15.06543l-21-8c-.22949-.08691-.48242-.08691-.71191,0L10.64404,15.06543c-.40674.15527-.6665.55518-.64258.99023l.92285,16.61328c.65967,11.86523,9.2417,21.86182,20.86963,24.30957.06787.01416.13721.02148.20605.02148s.13818-.00732.20605-.02148c11.62793-2.44775,20.20996-12.44434,20.86963-24.30957l.92285-16.61328c.02393-.43506-.23584-.83496-.64258-.99023ZM51.07861,32.55762c-.60547,10.89404-8.43848,20.0835-19.07861,22.41943-10.64014-2.33594-18.47314-11.52539-19.07861-22.41943l-.88232-15.8833,19.96094-7.604,19.96094,7.604-.88232,15.8833Z"/>
  <path d="M31.64404,11.3457l-16.84424,6.41699c-.40674.15527-.6665.55518-.64258.99023l.76074,13.69385c.54541,9.81055,7.31152,18.01562,16.8374,20.41797.08057.02002.1626.03027.24463.03027s.16406-.01025.24463-.03027c9.52539-2.40234,16.29199-10.60742,16.8374-20.41748l.76074-13.69434c.02393-.43506-.23584-.83496-.64258-.99023l-16.84424-6.41699c-.22949-.08691-.48242-.08691-.71191,0ZM33.25488,34.61133l.56445,3.38867h-3.63867l.56445-3.38867c.07178-.43164-.14502-.85986-.53516-1.05713-1.36328-.68896-2.20996-2.05078-2.20996-3.5542,0-2.20557,1.79443-4,4-4s4,1.79443,4,4c0,1.50342-.84668,2.86523-2.20996,3.5542-.39014.19727-.60693.62549-.53516,1.05713ZM31,13.73151v10.35883c-2.83313.47833-5,2.94244-5,5.90967,0,.34009.0387.67236.0943,1h-9.25348l-.646-11.62842,14.80518-5.64008ZM16.97845,33h9.84198c.45209.77197,1.07123,1.4472,1.83875,1.96045l-.64551,3.875c-.04834.29004.0332.58643.22314.81104.18994.22412.46924.35352.76318.35352h2v10.55438c-7.7981-2.49463-13.30072-9.35199-14.02155-17.55438ZM33,50.55438v-10.55438h2c.29395,0,.57324-.12939.76318-.35352.18994-.22461.27148-.521.22314-.81104l-.64551-3.875c.76752-.51324,1.38666-1.18848,1.83875-1.96045h9.84204c-.72064,8.20251-6.22339,15.05975-14.02161,17.55438ZM47.15918,31h-9.25348c.0556-.32764.0943-.65991.0943-1,0-2.96722-2.16687-5.43134-5-5.90967v-10.35883l14.80518,5.64008-.646,11.62842Z"/>
</svg>