<?xml version="1.0" encoding="UTF-8"?>
<svg id="Outline" xmlns="http://www.w3.org/2000/svg" version="1.1" viewBox="0 0 64 64">
  <!-- Generator: Adobe Illustrator 29.0.0, SVG Export Plug-In . SVG Version: 2.1.0 Build 186)  -->
  <circle cx="30" cy="36" r="1"/>
  <circle cx="30" cy="52" r="1"/>
  <circle cx="52" cy="36" r="1"/>
  <circle cx="52" cy="52" r="1"/>
  <circle cx="12" cy="44" r="1"/>
  <path d="M56.71002,34.28998l-2.71002-2.70001v-11.58997c0-7.17004-5.83002-13-13-13s-13,5.82996-13,13v11.58997l-2.71002,2.70001c-.17999.19-.28998.44-.28998.71002v5h-3.08002c-1.41998-2.45001-4.07001-4-6.91998-4-4.40997,0-8,3.58997-8,8s3.59003,8,8,8c2.84998,0,5.5-1.54999,6.91998-4h3.08002v5c0,.26996.10999.51996.28998.70996l3,3c.19.18005.44.29004.71002.29004h24c.27002,0,.52002-.10999.71002-.29004l3-3c.17999-.19.28998-.44.28998-.70996v-18c0-.27002-.10999-.52002-.28998-.71002ZM30,20c0-6.07001,4.92999-11,11-11s11,4.92999,11,11v11h-2v-11c0-4.96002-4.03998-9-9-9s-9,4.03998-9,9v11h-2v-11ZM48,20v11h-14v-11c0-3.85999,3.14001-7,7-7s7,3.14001,7,7ZM21.32001,46c-.39001,0-.73999.21997-.91003.57001-.98999,2.07996-3.10999,3.42999-5.40997,3.42999-3.31,0-6-2.69-6-6s2.69-6,6-6c2.29999,0,4.41998,1.34998,5.40997,3.42999.17004.34998.52002.57001.91003.57001h20.67999v4h-20.67999ZM40,40v-3h2v3h-2ZM42,48v3h-2v-3h2ZM55,52.58997l-2.40997,2.41003h-23.18005l-2.40997-2.41003v-4.58997h11v4c0,.54999.45001,1,1,1h4c.54999,0,1-.45001,1-1v-16c0-.54999-.45001-1-1-1h-4c-.54999,0-1,.45001-1,1v4h-11v-4.59003l2.40997-2.40997h23.18005l2.40997,2.40997v17.17999Z"/>
</svg>