<?xml version="1.0" encoding="UTF-8"?>
<svg id="Outline" xmlns="http://www.w3.org/2000/svg" version="1.1" viewBox="0 0 64 64">
  <!-- Generator: Adobe Illustrator 29.0.0, SVG Export Plug-In . SVG Version: 2.1.0 Build 186)  -->
  <path d="M18.65918,43.96094l-.64551,3.875c-.04883.29004.0332.58594.22363.81055.18945.22461.46875.35352.7627.35352h6c.29395,0,.57324-.12891.7627-.35352.19043-.22461.27246-.52051.22363-.81055l-.64551-3.875c1.65625-1.1084,2.65918-2.94922,2.65918-4.96094,0-3.30859-2.69141-6-6-6s-6,2.69141-6,6c0,2.01172,1.00293,3.85254,2.65918,4.96094ZM22,35c2.20605,0,4,1.79395,4,4,0,1.50293-.84668,2.86523-2.20996,3.55469-.39062.19727-.60742.62598-.53516,1.05664l.56445,3.38867h-3.63867l.56445-3.38867c.07227-.43066-.14453-.85938-.53516-1.05664-1.36328-.68945-2.20996-2.05176-2.20996-3.55469,0-2.20605,1.79395-4,4-4Z"/>
  <path d="M53,20h-16v-8c0-.26562-.10547-.51953-.29297-.70703l-4-4c-.1875-.1875-.44141-.29297-.70703-.29297H12c-.26562,0-.51953.10547-.70703.29297l-4,4c-.1875.1875-.29297.44141-.29297.70703v40c0,.26562.10547.51953.29297.70703l4,4c.1875.1875.44141.29297.70703.29297h20c.26562,0,.51953-.10547.70703-.29297l4-4c.1875-.1875.29297-.44141.29297-.70703v-24h16c2.20605,0,4-1.79395,4-4s-1.79395-4-4-4ZM35,51.58594l-3.41406,3.41406H12.41406l-3.41406-3.41406V12.41406l3.41406-3.41406h19.17188l3.41406,3.41406v7.58594h-2v-5c0-.55273-.44727-1-1-1-1.10254,0-2-.89746-2-2,0-.55273-.44727-1-1-1h-14c-.55273,0-1,.44727-1,1,0,1.10254-.89746,2-2,2-.55273,0-1,.44727-1,1v34c0,.55273.44727,1,1,1,1.10254,0,2,.89746,2,2,0,.55273.44727,1,1,1h14c.55273,0,1-.44727,1-1,0-1.10254.89746-2,2-2,.55273,0,1-.44727,1-1v-21h2v23.58594ZM27.73828,20c-1.30176-1.86426-3.44922-3-5.73828-3-3.85938,0-7,3.14062-7,7s3.14062,7,7,7c2.28906,0,4.43652-1.13574,5.73828-3h3.26172v20.12695c-1.40332.3623-2.51074,1.46973-2.87305,2.87305h-12.25391c-.3623-1.40332-1.46973-2.51074-2.87305-2.87305V15.87305c1.40332-.3623,2.51074-1.46973,2.87305-2.87305h12.25391c.3623,1.40332,1.46973,2.51074,2.87305,2.87305v4.12695h-3.26172ZM53,26h-25.80957c-.35645,0-.68652.19043-.86523.49902-.89258,1.54297-2.5498,2.50098-4.3252,2.50098-2.75684,0-5-2.24316-5-5s2.24316-5,5-5c1.77539,0,3.43262.95801,4.3252,2.50098.17871.30859.50879.49902.86523.49902h25.80957c1.10254,0,2,.89746,2,2s-.89746,2-2,2Z"/>
  <path d="M22,21c-1.6543,0-3,1.3457-3,3s1.3457,3,3,3,3-1.3457,3-3-1.3457-3-3-3ZM22,25c-.55176,0-1-.44824-1-1s.44824-1,1-1,1,.44824,1,1-.44824,1-1,1Z"/>
</svg>