<?xml version="1.0" encoding="UTF-8"?>
<svg id="Outline" xmlns="http://www.w3.org/2000/svg" version="1.1" viewBox="0 0 64 64">
  <!-- Generator: Adobe Illustrator 29.0.0, SVG Export Plug-In . SVG Version: 2.1.0 Build 186)  -->
  <path d="M56,11h-1.38l-1.72998-3.45001c-.17004-.34003-.51001-.54999-.89001-.54999H12c-.38,0-.71997.20996-.89001.54999l-1.72998,3.45001h-1.38c-.54999,0-1,.45001-1,1v8c0,.54999.45001,1,1,1h1v5c0,9.02997,5.20001,17.08997,13.33002,20.85999l-2.95001,5.40002c-.53003.96997-.5,2.12.06,3.06995.62,1.05005,1.75,1.67004,3.02002,1.67004h19.07996c1.27002,0,2.40002-.62,3.02002-1.67004.56-.94995.59003-2.09998.06-3.06995l-2.95001-5.40002c8.13-3.77002,13.33002-11.83002,13.33002-20.85999v-5h1c.54999,0,1-.45001,1-1v-8c0-.54999-.45001-1-1-1ZM12.62,9h38.76001l1,2H11.62l1-2ZM42.85999,53.21997c.10004.19.14001.37.14001.53003,0,.23999-.09003.44-.15997.56-.26001.42999-.74005.69-1.30005.69h-19.07996c-.56,0-1.04004-.26001-1.30005-.69-.12-.20001-.27997-.60999-.01996-1.09003l9.53998-17.5c.25-.45001.73999-.71997,1.32001-.71997s1.07001.26996,1.32001.71997l9.53998,17.5ZM32,28c-3.31,0-6,2.69-6,6,0,1.38.46002,2.67999,1.31,3.72998l-1.02002,1.85999c-1.45996-1.47998-2.28998-3.45996-2.28998-5.58997,0-4.41003,3.59003-8,8-8s8,3.58997,8,8c0,2.13-.83002,4.10999-2.28998,5.58997l-1.02002-1.85999c.84998-1.04999,1.31-2.34998,1.31-3.72998,0-3.31-2.69-6-6-6ZM36,34c0,.60999-.15002,1.19-.40002,1.71997l-.51996-.95001c-.60004-1.08997-1.78003-1.76996-3.08002-1.76996s-2.47998.67999-3.08002,1.76996l-.51996.95001c-.25-.52997-.40002-1.10999-.40002-1.71997,0-2.21002,1.78998-4,4-4s4,1.78998,4,4ZM53,26c0,8.28998-4.79999,15.69-12.28998,19.09998l-2.01001-3.70001c2.09998-1.88995,3.29999-4.53998,3.29999-7.39996,0-5.51001-4.48999-10-10-10s-10,4.48999-10,10c0,2.87,1.20001,5.51001,3.29999,7.39996l-2.01001,3.70001c-7.48999-3.40997-12.28998-10.81-12.28998-19.09998v-5h42v5ZM55,19H9v-6h46v6Z"/>
  <circle cx="12" cy="16" r="1"/>
  <circle cx="16" cy="16" r="1"/>
  <circle cx="20" cy="16" r="1"/>
  <circle cx="32" cy="52" r="1"/>
  <path d="M32,38c-.55273,0-1,.44775-1,1v9c0,.55225.44727,1,1,1s1-.44775,1-1v-9c0-.55225-.44727-1-1-1Z"/>
</svg>