<svg width="160" height="160" viewBox="0 0 160 160" fill="none" xmlns="http://www.w3.org/2000/svg">
<path fill-rule="evenodd" clip-rule="evenodd" d="M98.341 121.89V135.665H61.6592V122.354L79.768 71.1231C83.9469 71.2005 88.0484 69.0337 90.2153 65.1643C92.3048 61.3723 92.15 56.8837 90.0605 53.4013L85.4946 61.6044C84.8755 62.6878 83.4052 63.0748 82.3217 62.4557L76.0533 58.9733C74.9699 58.3542 74.5056 56.9611 75.202 55.8003L79.768 47.5972C75.7438 47.6746 71.797 49.8415 69.7075 53.6335C67.1537 58.122 67.9276 63.5391 71.1779 67.1764L61.6592 93.9525V40.6323L80.0001 25L98.341 40.6323V98.2089L97.1028 98.6732C95.9678 98.0025 94.7296 97.5123 93.3882 97.2028L92.15 94.4168H88.2806L87.0424 97.2028C85.701 97.5123 84.4628 98.0025 83.3278 98.6732L80.5418 97.6672L77.7558 100.376L78.8393 103.162C78.1686 104.297 77.6527 105.535 77.2915 106.876L74.583 108.115V111.984L77.2915 113.222C77.6527 114.564 78.1686 115.802 78.8393 116.937L77.7558 119.8L80.5418 122.509L83.3278 121.425C84.4628 122.148 85.701 122.663 87.0424 122.973L88.2806 125.759H92.15L93.3882 122.973C94.7296 122.663 95.9678 122.148 97.1028 121.425L98.341 121.89ZM90.2153 103.549C93.8525 103.549 96.7933 106.489 96.7933 110.049C96.7933 113.686 93.8525 116.627 90.2153 116.627C86.6555 116.627 83.7147 113.686 83.7147 110.049C83.7147 106.489 86.6555 103.549 90.2153 103.549Z" fill="#0069A8"/>
<path d="M11.0475 83.7374C8.958 85.5173 10.1962 88.9223 12.9822 88.9223H20.7983V135.665H42.6217C48.8127 123.05 48.8127 116.627 47.4198 115.389C45.4077 113.609 43.7825 114.538 39.7583 118.252C36.9724 120.806 33.4125 124.056 29.6979 121.735C28.1502 120.729 27.1441 119.258 26.6798 117.324C25.7511 113.299 27.3763 107.108 31.4005 98.9054C31.8648 97.9251 32.3291 96.9965 32.7934 96.1194L31.0135 95.1134L30.4718 89.1545L33.6447 83.6599L31.4778 82.4217L33.4899 79.0166L37.7463 81.4931L42.3895 73.4448L44.3242 74.6056L39.681 82.6539L44.7885 85.5946L49.4318 77.5464L51.3665 78.6297L46.7232 86.6781L50.9796 89.1545L49.0449 92.5595L46.878 91.3213L43.7051 96.8159L38.2879 99.2923L35.9663 97.9767C32.6386 104.322 29.2336 112.216 30.2396 116.472C30.4718 117.478 30.9361 118.175 31.6326 118.639C32.9482 119.413 34.6507 117.943 37.2819 115.544C40.5322 112.526 45.0207 108.424 49.8188 112.68C53.3786 115.776 52.063 124.134 46.7232 135.665H57.4802V44.1921L11.0475 83.7374Z" fill="#0069A8"/>
<path fill-rule="evenodd" clip-rule="evenodd" d="M147.018 88.9223H139.202V135.665H134.558C133.243 131.408 132.082 129.087 131.076 126.997C129.838 124.598 128.832 122.586 127.903 118.562C126.742 113.145 130.379 108.347 134.326 104.942L132.392 98.4411L106.931 105.948L108.866 112.448C113.973 113.145 119.623 115.234 121.557 120.419C122.95 124.289 123.26 126.61 123.492 129.164C123.724 130.944 123.956 132.956 124.575 135.665H102.52V91.7856C104.068 96.2741 104.996 99.4471 104.996 99.4471L130.457 91.9405C130.457 91.9405 128.6 85.1303 127.361 76.9272C125.659 76.3855 123.801 76.076 121.867 75.9986C122.022 79.0941 122.408 83.3504 123.182 87.2972H123.105C122.331 85.2077 120.706 80.2549 119.623 76.076C118.384 76.1276 117.172 76.2823 115.985 76.5403C116.45 79.5584 117.378 84.3564 118.694 88.6128L118.539 88.6901C117.533 86.4459 115.211 81.2609 113.586 77.082C109.562 78.2428 105.693 80.1775 102.52 82.6539V44.1921L148.952 83.7374C151.042 85.5173 149.804 88.9223 147.018 88.9223ZM131.85 96.5837L130.999 93.7203L105.538 101.227L106.389 104.09L131.85 96.5837Z" fill="#0069A8"/>
</svg>
